<svg width="25" height="25" viewBox="0 0 25 25" fill="none" xmlns="http://www.w3.org/2000/svg">
<path d="M20.5354 12.5C20.0423 12.5 19.6426 12.8998 19.6426 13.3929V22.3213C19.6426 22.8144 19.2428 23.2142 18.7497 23.2142H2.67854C2.18541 23.2142 1.78567 22.8144 1.78567 22.3213V4.46442C1.78567 3.9713 2.18541 3.57156 2.67854 3.57156H13.3927C13.8858 3.57156 14.2855 3.17182 14.2855 2.6787C14.2855 2.18558 13.8858 1.78589 13.3927 1.78589H2.67854C1.19922 1.78589 0 2.98511 0 4.46442V22.3213C0 23.8006 1.19922 24.9999 2.67854 24.9999H18.7498C20.2291 24.9999 21.4283 23.8006 21.4283 22.3213V13.3928C21.4283 12.8998 21.0286 12.5 20.5354 12.5Z" fill="#636176"/>
<path d="M23.9991 1.00148C23.3581 0.360307 22.4885 0.000168895 21.5819 0.000273525C20.6747 -0.00234223 19.8042 0.358423 19.1649 1.00206L7.40433 12.7617C7.30677 12.86 7.23316 12.9795 7.18916 13.1108L5.40349 18.4678C5.24764 18.9357 5.50058 19.4413 5.96844 19.5971C6.05921 19.6273 6.15426 19.6427 6.24989 19.6428C6.34574 19.6427 6.441 19.6273 6.53203 19.5973L11.8891 17.8117C12.0207 17.7677 12.1402 17.6937 12.2382 17.5956L23.9988 5.83504C25.3336 4.50037 25.3337 2.3363 23.9991 1.00148ZM22.7363 4.5734L11.1293 16.1804L7.66146 17.3384L8.8159 13.875L20.4274 2.26808C21.0657 1.63099 22.0997 1.63204 22.7368 2.27039C23.0411 2.57533 23.2126 2.98815 23.2139 3.41897C23.215 3.85208 23.0431 4.26767 22.7363 4.5734Z" fill="#636176"/>
</svg>
