<?xml version="1.0" standalone="no"?>
<!DOCTYPE svg PUBLIC "-//W3C//DTD SVG 1.1//EN" "http://www.w3.org/Graphics/SVG/1.1/DTD/svg11.dtd" >
<svg xmlns="http://www.w3.org/2000/svg" xmlns:xlink="http://www.w3.org/1999/xlink" version="1.1">
<metadata>
Created by FontForge 20170731 at Thu Jun 18 11:42:10 2015
 By Aleksey,,,
(c) 2013-2015 Typodermic Fonts Inc. See attached license agreement. If agreement is missing visit typodermicfonts.com for more info.
</metadata>
<defs>
<font id="BuiltTitlingRg-BoldItalic" horiz-adv-x="452" >
  <font-face 
    font-family="Built Titling Rg"
    font-weight="700"
    font-style="italic"
    font-stretch="normal"
    units-per-em="1000"
    panose-1="2 11 8 6 3 2 2 8 2 4"
    ascent="762"
    descent="-238"
    cap-height="757"
    bbox="-196 -238 774 962"
    underline-thickness="20"
    underline-position="-163"
    slope="-10"
    unicode-range="U+0017-25CA"
  />
<missing-glyph horiz-adv-x="807" 
d="M404 -169q-85 0 -146 4t-102 20.5t-65.5 50.5t-37.5 95t-16.5 153t-3.5 225t3.5 225t16.5 153t37.5 95t65.5 51t101.5 20.5t146.5 3.5t146.5 -3.5t101.5 -20.5t65.5 -51t37 -95t16 -153t3.5 -225q0 -132 -3.5 -224.5t-16 -153.5t-37 -95t-65.5 -50.5t-101.5 -20.5
t-146.5 -4zM402 212q9 34 15.5 54t11 31.5t9.5 16t11 8.5q19 11 38.5 17t41.5 20q15 10 25.5 22t20 30t18 44t18.5 65q7 28 11 51.5t4 43.5q0 54 -33.5 86t-112.5 53q-54 14 -89 14q-53 0 -83.5 -30.5t-48.5 -99.5q-8 -29 -10.5 -46.5t-2.5 -33.5l127 -33q4 42 16.5 62.5
t29.5 20.5q29 0 42 -11.5t13 -27.5q0 -8 -1.5 -16t-4.5 -20q-5 -23 -10 -36.5t-12.5 -21.5t-19 -14t-30.5 -14q-22 -10 -38.5 -19.5t-28 -21t-19.5 -26t-13 -33.5q-8 -31 -15 -57t-9 -43zM393 136l-151 40l-39 -146l151 -41z" />
    <glyph glyph-name="copyright" unicode="&#x28;C&#x29;" horiz-adv-x="611" 
d="M394 339q-2 -23 -5.5 -45t-11.5 -45q-11 -34 -32.5 -50t-65.5 -16q-47 0 -63.5 13.5t-16.5 51.5q0 9 0.5 22t2.5 31.5t6 44t12 59.5q12 55 20.5 90.5t21 55t32 27t53.5 7.5q44 0 61 -14.5t17 -47.5q0 -10 -0.5 -18t-2 -18t-4.5 -22t-7 -29h-69q5 26 7 38t2 18
q0 13 -18 13q-16 0 -20 -9q-2 -4 -3.5 -9.5t-4 -16t-6 -29t-8.5 -48.5q-5 -29 -8.5 -48t-5 -31t-2 -18.5t-0.5 -10.5q0 -9 3 -12.5t16 -3.5t18 9q5 11 7 23.5t7 37.5h68zM240 -13q-59 0 -101.5 5.5t-70 22t-40.5 46t-13 77.5q0 18 2 41t6.5 57.5t12.5 83t20 115.5
q12 68 22.5 112.5t21.5 74.5t23.5 49t28.5 37q15 17 35 29t47 19.5t62.5 10.5t81.5 3q63 0 106 -6.5t70 -23t38.5 -46.5t11.5 -76q0 -18 -2 -40.5t-6 -54.5t-10.5 -74.5t-16.5 -99.5q-14 -78 -25.5 -128t-23.5 -82.5t-24.5 -52.5t-27.5 -37q-15 -18 -35 -29.5t-47.5 -19
t-63 -10.5t-82.5 -3zM416 103q10 11 18.5 26t17 42t18 72t21.5 116q9 52 15.5 90.5t10.5 66.5t5.5 47.5t1.5 33.5q0 28 -6 45t-23 26.5t-49 12.5t-83 3q-72 0 -108 -7.5t-53 -24.5q-9 -11 -17 -24.5t-16 -37.5t-16.5 -62t-18.5 -98q-11 -65 -18.5 -110.5t-12 -77.5t-6 -52
t-1.5 -34q0 -28 5.5 -44t22.5 -24.5t48.5 -11t83.5 -2.5q74 0 110 6t50 23z" />
    <glyph glyph-name="registered" unicode="&#x28;R&#x29;" horiz-adv-x="611" 
d="M240 -13q-59 0 -101.5 5.5t-70 22t-40.5 46t-13 77.5q0 18 2 41t6.5 57.5t12.5 83t20 115.5q12 68 22.5 112.5t21.5 74.5t23.5 49t28.5 37q15 17 35 29t47 19.5t62.5 10.5t81.5 3q63 0 106 -6.5t70 -23t38.5 -46.5t11.5 -76q0 -18 -2 -40.5t-6 -54.5t-10.5 -74.5
t-16.5 -99.5q-14 -78 -25.5 -128t-23.5 -82.5t-24.5 -52.5t-27.5 -37q-15 -18 -35 -29.5t-47.5 -19t-63 -10.5t-82.5 -3zM416 103q10 11 18.5 26t17 42t18 72t21.5 116q9 52 15.5 90.5t10.5 66.5t5.5 47.5t1.5 33.5q0 28 -6 45t-23 26.5t-49 12.5t-83 3q-72 0 -108 -7.5
t-53 -24.5q-9 -11 -17 -24.5t-16 -37.5t-16.5 -62t-18.5 -98q-11 -65 -18.5 -110.5t-12 -77.5t-6 -52t-1.5 -34q0 -28 5.5 -44t22.5 -24.5t48.5 -11t83.5 -2.5q74 0 110 6t50 23zM302 189q-1 5 -1 19t1 31t2 33.5t2 30.5t1 22q0 10 -2 13t-7 3h-11l-27 -152h-73l69 390h106
q35 0 49.5 -13.5t14.5 -44.5q0 -14 -3 -36.5t-8 -42.5q-4 -17 -8.5 -28t-9 -18t-10 -11t-12.5 -8l-2 -10q8 -9 10 -22t2 -28q0 -9 -1 -26t-2 -35t-2 -32.5t-1 -18.5q0 -9 1 -12l-1 -4h-77zM320 413q8 0 13.5 6.5t10.5 23.5q2 8 3.5 19t1.5 17q0 11 -4 15t-12 4h-19l-15 -85
h21z" />
    <glyph glyph-name="uni2117" unicode="&#x28;P&#x29;" horiz-adv-x="611" 
d="M191 189l69 390h105q34 0 48 -15t14 -50q0 -26 -4 -53t-11 -55q-13 -54 -34.5 -77t-61.5 -23h-33l-20 -117h-72zM315 386q10 0 16 7.5t11 27.5q4 14 6.5 29t2.5 31q0 12 -4 14.5t-12 2.5h-18l-19 -112h17zM240 -13q-59 0 -101.5 5.5t-70 22t-40.5 46t-13 77.5q0 18 2 41
t6.5 57.5t12.5 83t20 115.5q12 68 22.5 112.5t21.5 74.5t23.5 49t28.5 37q15 17 35 29t47 19.5t62.5 10.5t81.5 3q63 0 106 -6.5t70 -23t38.5 -46.5t11.5 -76q0 -18 -2 -40.5t-6 -54.5t-10.5 -74.5t-16.5 -99.5q-14 -78 -25.5 -128t-23.5 -82.5t-24.5 -52.5t-27.5 -37
q-15 -18 -35 -29.5t-47.5 -19t-63 -10.5t-82.5 -3zM416 103q10 11 18.5 26t17 42t18 72t21.5 116q9 52 15.5 90.5t10.5 66.5t5.5 47.5t1.5 33.5q0 28 -6 45t-23 26.5t-49 12.5t-83 3q-72 0 -108 -7.5t-53 -24.5q-9 -11 -17 -24.5t-16 -37.5t-16.5 -62t-18.5 -98
q-11 -65 -18.5 -110.5t-12 -77.5t-6 -52t-1.5 -34q0 -28 5.5 -44t22.5 -24.5t48.5 -11t83.5 -2.5q74 0 110 6t50 23z" />
    <glyph glyph-name=".notdef" horiz-adv-x="807" 
d="M404 -169q-85 0 -146 4t-102 20.5t-65.5 50.5t-37.5 95t-16.5 153t-3.5 225t3.5 225t16.5 153t37.5 95t65.5 51t101.5 20.5t146.5 3.5t146.5 -3.5t101.5 -20.5t65.5 -51t37 -95t16 -153t3.5 -225q0 -132 -3.5 -224.5t-16 -153.5t-37 -95t-65.5 -50.5t-101.5 -20.5
t-146.5 -4zM402 212q9 34 15.5 54t11 31.5t9.5 16t11 8.5q19 11 38.5 17t41.5 20q15 10 25.5 22t20 30t18 44t18.5 65q7 28 11 51.5t4 43.5q0 54 -33.5 86t-112.5 53q-54 14 -89 14q-53 0 -83.5 -30.5t-48.5 -99.5q-8 -29 -10.5 -46.5t-2.5 -33.5l127 -33q4 42 16.5 62.5
t29.5 20.5q29 0 42 -11.5t13 -27.5q0 -8 -1.5 -16t-4.5 -20q-5 -23 -10 -36.5t-12.5 -21.5t-19 -14t-30.5 -14q-22 -10 -38.5 -19.5t-28 -21t-19.5 -26t-13 -33.5q-8 -31 -15 -57t-9 -43zM393 136l-151 40l-39 -146l151 -41z" />
    <glyph glyph-name=".null" horiz-adv-x="0" 
 />
    <glyph glyph-name="nonmarkingreturn" horiz-adv-x="197" 
 />
    <glyph glyph-name="uni0017" horiz-adv-x="197" 
 />
    <glyph glyph-name="space" unicode=" " horiz-adv-x="197" 
 />
    <glyph glyph-name="exclam" unicode="!" horiz-adv-x="261" 
d="M49 227l80 561h154l-114 -561h-120zM-2 0l26 151h141l-26 -151h-141z" />
    <glyph glyph-name="quotedbl" unicode="&#x22;" horiz-adv-x="382" 
d="M91 484zM91 484l33 304h130l-72 -304h-91zM247 484l33 304h130l-72 -304h-91z" />
    <glyph glyph-name="numbersign" unicode="#" 
d="M200 0l37 213h-70l-37 -213h-85l37 213h-70l17 95h70l25 143h-70l17 95h70l37 211h85l-37 -211h70l37 211h87l-37 -211h69l-17 -95h-69l-25 -143h69l-17 -95h-69l-37 -213h-87zM279 451h-70l-25 -143h70z" />
    <glyph glyph-name="dollar" unicode="$" 
d="M130 -43l22 125q-68 2 -100 24t-32 73q0 28 6.5 55.5t14.5 55.5h129l-3 -17q-3 -15 -3 -25q0 -17 7.5 -25t27.5 -8q14 0 24.5 3.5t15.5 12.5q8 14 11.5 28t3.5 25q0 12 -6.5 19t-20.5 15q-32 18 -68 32t-62 36q-16 13 -22.5 28.5t-6.5 38.5q0 37 7.5 77t21.5 76
q19 45 56 65t107 23l19 107h57l-19 -107q63 -4 91.5 -24.5t28.5 -68.5q0 -25 -5 -50t-12 -50h-129q5 23 5.5 31t0.5 13q0 16 -8 21.5t-27 5.5q-26 0 -38.5 -16.5t-12.5 -46.5q0 -12 6.5 -18t23.5 -14q38 -18 65.5 -27t53.5 -25q21 -11 32 -29.5t11 -53.5q0 -28 -7 -67.5
t-20 -74.5q-21 -59 -59.5 -85.5t-107.5 -31.5l-22 -126h-57z" />
    <glyph glyph-name="percent" unicode="%" horiz-adv-x="601" 
d="M0 0zM144 341q-23 0 -39.5 1.5t-27 7.5t-15 18t-4.5 34q0 24 5 61.5t15 94.5q14 78 24 122t24.5 65t36 25.5t57.5 4.5q23 0 39.5 -1.5t27 -7.5t15.5 -18t5 -34q0 -24 -5.5 -61.5t-15.5 -94.5q-14 -79 -24 -122.5t-24.5 -64.5t-36 -25.5t-57.5 -4.5zM162 444q6 0 10 2
t7.5 13t8 34.5t12.5 66.5q8 46 12 70t4 35q0 10 -3 12t-10 2t-11 -2t-7.5 -13.5t-8 -35.5t-12.5 -68t-11.5 -67t-3.5 -34t3.5 -13t9.5 -2zM-1 0l1 5l522 752h87l-1 -5l-522 -752h-87zM393 -17q-23 0 -39.5 1.5t-27 7.5t-15 18t-4.5 34q0 24 5 61.5t15 94.5q14 78 24 122
t24.5 65t36 25.5t57.5 4.5q23 0 39.5 -1.5t27 -7.5t15.5 -18t5 -34q0 -24 -5.5 -61.5t-15.5 -94.5q-14 -79 -24 -122.5t-24.5 -64.5t-36 -25.5t-57.5 -4.5zM411 86q6 0 10 2t7.5 13t8 34.5t12.5 66.5q8 46 12 70t4 35q0 10 -3 12t-10 2t-11 -2t-7.5 -13.5t-8 -35.5
t-12.5 -68t-11.5 -67t-3.5 -34t3.5 -13t9.5 -2z" />
    <glyph glyph-name="ampersand" unicode="&#x26;" horiz-adv-x="533" 
d="M324 0l-25 75l-16 -23q-11 -16 -23 -28t-27.5 -20.5t-37 -12.5t-50.5 -4q-41 0 -68 4.5t-44 15.5t-24 29.5t-7 47.5q0 16 2.5 42.5t7 56.5t10.5 60.5t13 54.5t15.5 41t20.5 30.5t28.5 25.5t39.5 25l38 21l-15 48q-8 26 -12 42t-4 36q0 31 6.5 62t17.5 61q9 24 22.5 39.5
t33 24.5t46.5 12.5t64 3.5q31 0 54 -3.5t38 -13t22 -27.5t7 -47q0 -32 -5 -63t-13 -63q-7 -29 -15.5 -49.5t-19.5 -36t-25.5 -27t-32.5 -23.5l-35 -23l27 -76l40 66h130l-1 -5l-126 -185l64 -189v-5h-121zM256 203l-43 129l-20 -13q-6 -4 -10 -9t-7.5 -13.5t-6.5 -22.5
t-7 -36q-4 -25 -6 -37t-2 -20q0 -15 8 -20t29 -5t31 5t21 22zM293 506q13 7 21 16t14 31q4 14 7.5 31.5t3.5 28.5q0 13 -7.5 15.5t-24.5 2.5q-12 0 -19.5 -1.5t-12 -6.5t-7.5 -15t-6 -26q-3 -18 -3 -28q0 -11 3 -20t8 -23l6 -15z" />
    <glyph glyph-name="quotesingle" unicode="'" horiz-adv-x="227" 
d="M91 484l33 304h130l-72 -304h-91z" />
    <glyph glyph-name="parenleft" unicode="(" 
d="M187 -238q-14 20 -25.5 45.5t-20.5 58.5t-14 75t-5 95q0 134 22 268.5t57 266.5q22 82 45.5 144t48.5 108.5t51 80t52 58.5h104l-1 -6q-27 -33 -53 -67t-51 -79t-48.5 -106t-45.5 -147q-31 -124 -53 -252.5t-22 -260.5q0 -53 5.5 -92.5t14.5 -71.5t20.5 -59t23.5 -53
l-1 -6h-104z" />
    <glyph glyph-name="parenright" unicode=")" 
d="M265 962q13 -20 25 -45.5t21 -58.5t14 -75t5 -95q0 -134 -22 -268.5t-57 -266.5q-22 -82 -45.5 -144t-48.5 -108.5t-51 -80t-52 -58.5h-104l1 6q27 33 53 67t51 79t48.5 106t45.5 147q31 124 53 252.5t22 260.5q0 52 -5.5 92t-14.5 72t-20.5 59t-23.5 53l1 6h104z" />
    <glyph glyph-name="asterisk" unicode="*" horiz-adv-x="491" 
d="M372 349l-78 136h-11l-78 -136l-81 59l106 117l-3 8l-153 33l32 94l142 -64l7 7l-15 154h97l-15 -154l6 -7l143 64l32 -94l-153 -33l-3 -8l106 -117z" />
    <glyph glyph-name="plus" unicode="+" 
d="M140 168l27 153h-138l21 117h138l27 153h105l-27 -153h138l-21 -117h-138l-27 -153h-105z" />
    <glyph glyph-name="comma" unicode="," horiz-adv-x="246" 
d="M-30 -142l2 6l68 137l-2 9h-46l25 141h141l-26 -147l-94 -146h-68z" />
    <glyph glyph-name="hyphen" unicode="-" horiz-adv-x="372" 
d="M34 319l22 124h292l-22 -124h-292z" />
    <glyph glyph-name="period" unicode="." horiz-adv-x="246" 
d="M-9 0l26 151h141l-26 -151h-141z" />
    <glyph glyph-name="slash" unicode="/" 
d="M-52 -153l451 1001h103l-451 -1001h-103z" />
    <glyph glyph-name="zero" unicode="0" 
d="M160 -13q-41 0 -69.5 2.5t-47 13t-27 32.5t-8.5 61q0 33 5 79t13 98t18 105.5t19 100.5q20 105 37.5 164t42 87t61 34t94.5 6q41 0 70.5 -2.5t48 -13.5t27 -32.5t8.5 -60.5q0 -32 -5.5 -78.5t-14 -99t-18.5 -107t-19 -100.5q-20 -104 -37.5 -162.5t-42 -86.5t-61 -34
t-94.5 -6zM190 156q14 0 23.5 3t17 20t15 52t19.5 100q6 29 12.5 66.5t12.5 74t10 66.5t4 45q0 23 -8 27.5t-25 4.5q-14 0 -23 -2.5t-16 -17.5t-14.5 -47t-17.5 -90q-6 -32 -13 -71t-13 -77.5t-10.5 -71t-4.5 -50.5q0 -24 7.5 -28t23.5 -4z" />
    <glyph glyph-name="one" unicode="1" 
d="M-4 0l29 168h99l58 330h-101l25 139h61q18 0 30.5 2t21 9t14.5 20.5t11 35.5l12 53h117l-104 -589h93l-29 -168h-337z" />
    <glyph glyph-name="two" unicode="2" 
d="M-6 0l30 174l106 98q30 27 52 47.5t39.5 38.5t30 35.5t22.5 39.5q6 12 10.5 32t8.5 41.5t6 40.5t2 30q0 23 -5.5 30.5t-24.5 7.5q-13 0 -21 -2t-13.5 -6.5t-9.5 -12.5t-8 -20q-8 -24 -13 -52t-7 -51h-133q1 19 4.5 44t9 52t13 54.5t17.5 51.5q22 52 64 74.5t120 22.5
q66 0 98 -13t44 -47q5 -16 8.5 -35t3.5 -45q0 -16 -2.5 -44.5t-8.5 -62.5t-15.5 -70t-22.5 -66q-14 -32 -40 -63t-71 -70l-92 -83v-9h170l-28 -162h-344z" />
    <glyph glyph-name="three" unicode="3" 
d="M363 387q16 -11 26 -24.5t10 -47.5q0 -35 -7 -80t-17 -89t-24.5 -74.5t-39 -49.5t-61 -27t-90.5 -8q-43 0 -72 7.5t-46.5 23t-25 39t-7.5 55.5q0 18 2 39t5 42t6.5 39t6.5 30h133q-5 -11 -7.5 -30t-2.5 -36q0 -23 7.5 -32t30.5 -9q27 0 41 10.5t21 44.5q5 23 9 47t4 39
q0 22 -10.5 26.5t-34.5 4.5h-72l21 119h72q13 0 21.5 1.5t14.5 7t10.5 17t9.5 31.5t9 46t4 41q0 20 -9 24t-30 4q-19 0 -28 -4t-14 -15q-6 -11 -11 -29t-11 -55h-132q6 46 16.5 92t29.5 78q26 45 67 65t110 20q42 0 71.5 -3.5t48 -14.5t27 -31t8.5 -53q0 -39 -6 -79.5
t-17 -81.5q-12 -50 -26.5 -73t-39.5 -40z" />
    <glyph glyph-name="four" unicode="4" 
d="M173 0l22 128h-201l26 147l283 482h135l-87 -491h51l-24 -138h-51l-22 -128h-132zM257 452h-10l-97 -177l2 -9h72z" />
    <glyph glyph-name="five" unicode="5" 
d="M250 596l-24 -87q11 4 31 8.5t47 4.5q54 0 81 -28t27 -95q0 -42 -7.5 -85t-16.5 -85q-15 -71 -30.5 -112.5t-35.5 -67.5q-23 -35 -61 -48.5t-105 -13.5q-83 0 -114.5 30.5t-31.5 93.5q0 42 6.5 86t20.5 93h130q-4 -23 -7 -39.5t-4.5 -27.5t-2 -18.5t-0.5 -13.5
q0 -19 7 -27t26 -8q16 0 25.5 3t16 13t11 28t11.5 47q6 27 11 55t5 53q0 22 -10 27t-34 5q-27 0 -49 -18l-103 39l83 349h318l-28 -161h-193z" />
    <glyph glyph-name="six" unicode="6" 
d="M307 549q3 8 5 17t2 23q0 17 -10 21.5t-30 4.5q-9 0 -16.5 -1t-13 -6t-10.5 -15t-10 -27q-2 -6 -4 -17.5t-5 -25.5t-6 -29.5t-6 -29.5q21 4 41 6t36 2q30 0 52.5 -6t38.5 -20t24 -38.5t8 -60.5t-5.5 -73.5t-14.5 -75.5q-14 -66 -31.5 -107t-42.5 -64.5t-60.5 -31.5
t-85.5 -8q-39 0 -67 4t-46 17.5t-26.5 38.5t-8.5 67q0 33 4 73.5t11 85.5t15 92t17 93q21 113 39 176t43 93t61.5 36.5t95.5 6.5q42 0 71 -2.5t47 -12t26 -27t8 -47.5q0 -35 -4 -65t-12 -67h-130zM182 340q-7 -40 -11 -65.5t-6.5 -41.5t-3 -24.5t-0.5 -14.5q0 -17 6 -27.5
t28 -10.5q13 0 21.5 2.5t14.5 11.5t10.5 27t10.5 49q3 18 6.5 37t3.5 34q0 20 -8.5 27t-25.5 7q-19 0 -30 -3.5t-16 -7.5z" />
    <glyph glyph-name="seven" unicode="7" 
d="M22 0l253 586l-1 10h-187l28 161h365l-15 -86l-285 -671h-158z" />
    <glyph glyph-name="eight" unicode="8" 
d="M364 387q8 -5 14.5 -10.5t11.5 -13t7.5 -19t2.5 -29.5q0 -16 -2 -37.5t-6 -45.5t-8.5 -48.5t-10.5 -46.5q-11 -42 -25.5 -70.5t-38.5 -46t-60 -25.5t-88 -8q-46 0 -76.5 6t-49 19.5t-26.5 35t-8 53.5q0 43 7.5 85t17.5 84q8 34 16 54t16.5 31.5t18.5 18t24 13.5l1 7
q-14 13 -21.5 28.5t-7.5 44.5q0 37 6.5 72.5t14.5 72.5q11 51 26 82.5t38 48t57 22t84 5.5q42 0 72 -3.5t48.5 -15t27 -31.5t8.5 -53q0 -32 -6 -74.5t-17 -84.5q-12 -50 -27 -73.5t-40 -40.5zM190 153q28 0 42 12t22 49q5 20 8.5 42t3.5 41q0 23 -10.5 27.5t-33.5 4.5
q-15 0 -24.5 -1.5t-16.5 -8.5t-12.5 -20.5t-10.5 -38.5q-4 -16 -7 -35.5t-3 -33.5q0 -23 10 -30.5t32 -7.5zM242 444q12 0 20.5 1.5t15 8.5t12 21t10.5 39q5 18 8 37.5t3 40.5q0 20 -9 24t-29 4q-14 0 -22.5 -1.5t-14.5 -8t-10.5 -19t-8.5 -34.5q-4 -20 -7.5 -42t-3.5 -39
q0 -23 9 -27.5t27 -4.5z" />
    <glyph glyph-name="nine" unicode="9" 
d="M62 0l1 9q25 33 49 69.5t45.5 73.5t40 72.5t32.5 67.5l-7 6q-5 -3 -19.5 -5.5t-31.5 -2.5q-63 0 -89 21t-26 80q0 43 9 97.5t20 105.5q12 57 27 91.5t38.5 53t59 25t88.5 6.5q44 0 74.5 -4t49 -16t27 -32.5t8.5 -53.5q0 -69 -14.5 -140.5t-36.5 -143.5
q-30 -100 -75.5 -192.5t-108.5 -187.5h-161zM276 428q6 16 11.5 38t9 43t5.5 39t2 27q0 21 -6 31t-29 10q-11 0 -19 -1.5t-13.5 -9t-10.5 -22.5t-10 -42q-4 -20 -8.5 -45t-4.5 -42q0 -20 8 -26.5t25 -6.5q15 0 24.5 2t15.5 5z" />
    <glyph glyph-name="colon" unicode=":" horiz-adv-x="270" 
d="M2 0l26 151h142l-26 -151h-142zM74 409l26 151h142l-26 -151h-142z" />
    <glyph glyph-name="semicolon" unicode=";" horiz-adv-x="270" 
d="M-18 -142l2 6l68 137l-2 9h-47l25 141h142l-26 -147l-94 -146h-68zM74 409l26 151h142l-26 -151h-142z" />
    <glyph glyph-name="less" unicode="&#x3c;" 
d="M373 137l-344 184l21 117l408 184h5l-23 -129l-264 -111l-2 -11l225 -110l-21 -124h-5z" />
    <glyph glyph-name="equal" unicode="=" 
d="M6 192l21 116h381l-21 -116h-381zM52 451l21 117h381l-21 -117h-381z" />
    <glyph glyph-name="greater" unicode="&#x3e;" 
d="M86 622l344 -184l-21 -117l-408 -184h-5l23 129l264 111l2 11l-225 110l21 124h5z" />
    <glyph glyph-name="question" unicode="?" horiz-adv-x="418" 
d="M125 227q1 15 3.5 35t6.5 41.5t9.5 42.5t12.5 36q9 20 26.5 35.5t42.5 34.5q13 10 22 17.5t15 14.5t9.5 15.5t6.5 20.5q4 15 7.5 33.5t3.5 33.5q0 17 -8 23.5t-26 6.5q-21 0 -31 -8.5t-16 -31.5q-7 -24 -9 -55h-119q0 28 3 51t9 49q9 42 23.5 70.5t37 46t54 24.5t75.5 7
q79 0 111 -25t32 -86q0 -33 -5.5 -67t-13.5 -71q-5 -24 -10.5 -41t-11.5 -30.5t-14 -24.5t-18 -22q-20 -20 -37.5 -31t-32.5 -26q-6 -5 -10 -11t-8 -18.5t-8 -33.5t-10 -56h-122zM74 0l26 151h142l-26 -151h-142z" />
    <glyph glyph-name="at" unicode="@" horiz-adv-x="651" 
d="M545 -13q-4 -42 -18.5 -78t-49 -63t-93 -42t-151.5 -15q-37 0 -79.5 2.5t-79 15t-61 40t-24.5 78.5q0 19 2 47t7.5 68.5t14 95t21.5 127.5q18 101 31.5 164.5t26 101.5t24.5 57t26 32q39 35 100 49t146 14q28 0 59 -2t60 -8.5t53.5 -18t39.5 -30.5q11 -14 15 -29t4 -41
q0 -36 -6.5 -94t-22.5 -151q-12 -71 -20.5 -113t-15.5 -66.5t-13.5 -36.5t-14.5 -23q-15 -20 -37 -27t-58 -7q-45 0 -65 9.5t-29 24.5h-10q-12 -13 -30.5 -23.5t-48.5 -10.5q-26 0 -40 14t-14 57q0 10 1 23t3 31t6.5 43t10.5 60q12 66 23 106.5t23 63.5t26.5 31t33.5 8
q27 0 41 -11t22 -26h3l6 27h79l-52 -296q-2 -11 -2.5 -16t-0.5 -8q0 -11 5.5 -17.5t18.5 -6.5q20 0 28 14q2 3 4 9.5t5.5 25t10 53.5t17.5 96q14 78 20 125t6 79q0 43 -42 58t-118 15q-60 0 -98 -10t-61 -33q-7 -7 -14 -19.5t-15.5 -44t-20 -88.5t-28.5 -154
q-11 -62 -18 -105.5t-11.5 -74.5t-6.5 -50.5t-2 -31.5q0 -23 9 -38t29.5 -23.5t53.5 -11.5t80 -3q58 0 93.5 5t56.5 15t29.5 25.5t12.5 36.5h84zM365 348q-6 11 -22 11q-18 0 -23 -13.5t-12 -47.5q-8 -41 -12.5 -67.5t-7 -43t-3.5 -25t-1 -12.5q0 -9 2.5 -15t12.5 -6
q19 0 30 13z" />
    <glyph glyph-name="A" unicode="A" horiz-adv-x="444" 
d="M205 0l18 175h-68l-41 -175h-143l206 757h238l-65 -757h-145zM269 599h-10l-71 -271h56z" />
    <glyph glyph-name="B" unicode="B" horiz-adv-x="458" 
d="M-9 0l133 757h202q71 0 101 -27.5t30 -90.5q0 -35 -6 -68.5t-13 -68.5q-6 -25 -12 -42t-13.5 -28.5t-17 -20t-22.5 -17.5l-1 -7q17 -11 26.5 -25.5t9.5 -46.5q0 -39 -7 -78t-15 -79q-10 -42 -24 -72t-35.5 -49t-51 -28t-69.5 -9h-215zM198 153q22 0 34.5 13.5t20.5 46.5
q4 17 7 36t3 39t-6.5 26.5t-20.5 6.5h-48l-30 -168h40zM248 446q17 0 27.5 12t18.5 40q5 19 9.5 39.5t4.5 42.5q0 17 -7 22t-24 5h-38l-29 -161h38z" />
    <glyph glyph-name="C" unicode="C" horiz-adv-x="451" 
d="M392 290q-4 -34 -9.5 -68.5t-16.5 -76.5q-11 -41 -26 -70.5t-38.5 -49t-56.5 -29t-80 -9.5q-40 0 -69 5t-48 18.5t-28 36.5t-9 59q0 21 2 48t7 64.5t13.5 88.5t20.5 122q13 71 23 117.5t19.5 77t19.5 50t22 36.5q23 34 59.5 47t101.5 13q43 0 72 -6.5t46.5 -21t25 -37
t7.5 -53.5q0 -42 -7.5 -84t-18.5 -88h-132q5 30 8 50t4.5 33t2 20.5t0.5 12.5q-1 19 -35 19q-17 0 -25.5 -4.5t-12.5 -14.5q-4 -8 -7.5 -17.5t-7.5 -27.5t-9.5 -47t-13.5 -75q-12 -66 -19.5 -108.5t-11.5 -68.5t-5.5 -40t-1.5 -23q0 -18 5.5 -25.5t31.5 -7.5q27 0 36 17
q5 10 9 21t7.5 24.5t7 31t7.5 40.5h130z" />
    <glyph glyph-name="D" unicode="D" horiz-adv-x="468" 
d="M-9 0l133 757h190q65 0 96.5 -13.5t43.5 -46.5q5 -14 7.5 -28.5t2.5 -36.5q0 -17 -2 -40t-7 -58.5t-13.5 -87.5t-21.5 -125q-11 -65 -20.5 -107.5t-18.5 -71t-18 -47.5t-21 -35q-24 -34 -60.5 -47t-100.5 -13h-190zM206 167q17 0 25 4t13 14q3 7 6.5 16t7.5 26.5
t9.5 46.5t13.5 74q10 60 17 99t10.5 64t5 38t1.5 21q0 17 -7.5 22.5t-25.5 5.5h-45l-76 -431h45z" />
    <glyph glyph-name="E" unicode="E" horiz-adv-x="402" 
d="M-9 0l133 757h301l-28 -160h-160l-24 -133h157l-27 -153h-157l-25 -143h159l-29 -168h-300z" />
    <glyph glyph-name="F" unicode="F" horiz-adv-x="388" 
d="M-9 0l133 757h297l-28 -160h-156l-27 -151h153l-27 -154h-153l-51 -292h-141z" />
    <glyph glyph-name="G" unicode="G" horiz-adv-x="448" 
d="M268 293h-66l27 152h193q-3 -20 -9 -58t-15 -91q-11 -62 -20.5 -103t-18.5 -68t-18 -44t-19 -32q-23 -35 -60 -48.5t-101 -13.5q-40 0 -68.5 5t-46.5 19t-26.5 39t-8.5 66q0 18 2 42.5t7.5 65t15.5 99.5t25 146q10 56 19 94.5t18 65t18.5 45.5t21.5 36q23 34 59.5 47
t101.5 13q75 0 109.5 -21.5t39.5 -72.5q1 -6 1.5 -12t0.5 -13q0 -26 -4.5 -59.5t-13.5 -65.5h-131q5 11 7 29.5t2 29.5q0 20 -9.5 25t-29.5 5q-18 0 -27.5 -4.5t-14.5 -14.5q-3 -8 -6.5 -17.5t-7.5 -28t-10 -48t-14 -76.5q-12 -68 -19.5 -111t-11.5 -69t-5.5 -39t-1.5 -20
q0 -17 9 -25t32 -8q19 0 30.5 7t18 20t10.5 32.5t9 43.5z" />
    <glyph glyph-name="H" unicode="H" horiz-adv-x="480" 
d="M222 0l54 311h-88l-54 -311h-145l133 757h145l-52 -293h88l52 293h145l-133 -757h-145z" />
    <glyph glyph-name="I" unicode="I" horiz-adv-x="254" 
d="M-8 0l133 757h145l-133 -757h-145z" />
    <glyph glyph-name="J" unicode="J" horiz-adv-x="443" 
d="M322 757h145l-65 -367q-15 -86 -27 -144t-23 -96.5t-21 -61.5t-22 -39q-24 -34 -61.5 -48t-104.5 -14q-83 0 -114.5 30t-31.5 94q0 84 27 179h126q-7 -37 -10 -59.5t-3 -39.5q0 -20 5 -27.5t25 -7.5t29.5 4t14.5 14q3 8 6.5 19t8.5 33t12.5 59.5t18.5 100.5z" />
    <glyph glyph-name="K" unicode="K" horiz-adv-x="483" 
d="M233 0l-31 340h-9q-1 -13 -3 -27.5t-4 -28.5l-50 -284h-145l133 757h145l-49 -276q-2 -12 -4.5 -21.5t-4.5 -19.5h9l145 317h151l-1 -5l-166 -346l42 -401v-5h-158z" />
    <glyph glyph-name="L" unicode="L" horiz-adv-x="373" 
d="M-9 0l133 757h141l-104 -589h146l-29 -168h-287z" />
    <glyph glyph-name="M" unicode="M" horiz-adv-x="641" 
d="M398 0l80 454h-5l-183 -454h-63l-24 454h-5l-80 -454h-129l133 757h196l5 -329h6l128 329h203l-132 -757h-130z" />
    <glyph glyph-name="N" unicode="N" horiz-adv-x="471" 
d="M286 0l-89 417h-6l-72 -417h-129l133 757h139l48 -275h6l47 275h129l-133 -757h-73z" />
    <glyph glyph-name="O" unicode="O" 
d="M323 49q-23 -35 -60 -48.5t-101 -13.5q-38 0 -66.5 5t-47.5 19t-28 39t-9 66q0 17 2 41t7 58.5t12.5 82t19.5 113.5q13 77 24 126.5t20.5 81.5t19.5 51.5t22 37.5q23 34 60 48t102 14q39 0 67 -5t46.5 -19.5t27.5 -40t9 -65.5q0 -17 -2 -40.5t-7 -58.5t-13 -84t-20 -117
q-13 -75 -23.5 -123t-20 -79.5t-19.5 -51.5t-22 -37zM230 174q3 7 6.5 17.5t8 31t11 53.5t15.5 86q11 63 18 104t10.5 65.5t4.5 37t1 20.5q0 15 -7.5 20.5t-24.5 5.5t-25.5 -4.5t-12.5 -14.5q-4 -7 -7.5 -18t-9 -33.5t-12.5 -60.5t-18 -101q-9 -50 -14.5 -83.5t-9 -56
t-4.5 -35.5t-1 -21q0 -16 5.5 -23.5t27.5 -7.5q17 0 25 4t13 14z" />
    <glyph glyph-name="P" unicode="P" horiz-adv-x="449" 
d="M-9 0l133 757h204q66 0 94.5 -28.5t28.5 -97.5q0 -27 -4.5 -64t-15.5 -100t-26 -108t-37.5 -74.5t-54.5 -43t-78 -13.5h-63l-40 -228h-141zM237 384q20 0 32.5 23.5t20.5 70.5q7 41 9 58t2 27q0 23 -7.5 29.5t-22.5 6.5h-34l-38 -215h38z" />
    <glyph glyph-name="Q" unicode="Q" 
d="M159 -91q-2 5 -4 12.5t-4.5 20.5t-5 33t-6.5 50q-32 1 -55 7t-38 19.5t-22.5 37.5t-7.5 61q0 16 2 38.5t6.5 55.5t11.5 77.5t18 106.5q13 73 23 120t19.5 78t19.5 49.5t22 35.5q23 33 59.5 46t101.5 13q37 0 65.5 -4.5t47.5 -18t28.5 -38t9.5 -64.5q0 -17 -2 -39.5
t-6.5 -55.5t-12 -78.5t-18.5 -108.5q-13 -72 -23 -119t-19.5 -77.5t-19 -49.5t-21.5 -36q-11 -15 -24.5 -24.5t-28.5 -16.5q3 -29 6.5 -50t7 -35.5t7 -24t6.5 -15.5l-2 -6h-141zM233 195q3 7 6 15.5t7.5 28t11 53.5t16.5 92q9 53 15 88.5t9.5 58t5 35t1.5 20.5q0 18 -8 23.5
t-25 5.5t-25.5 -4.5t-12.5 -13.5q-3 -7 -6.5 -17t-8.5 -30.5t-12 -55.5t-17 -91q-9 -50 -14.5 -83.5t-8.5 -55.5t-4 -35t-1 -20q0 -18 5 -23.5t28 -5.5q17 0 25 3t13 12z" />
    <glyph glyph-name="R" unicode="R" horiz-adv-x="460" 
d="M214 0q-1 6 -1.5 12.5t-0.5 15.5q0 20 2 55t5 71.5t5 66.5t2 39q0 23 -5 29t-15 6h-22l-52 -295h-141l133 757h206q70 0 99 -25.5t29 -77.5q0 -14 -1 -27t-3 -29.5t-5.5 -38t-8.5 -51.5q-7 -42 -15 -66.5t-18 -39.5t-23 -23.5t-29 -17.5l-1 -6q7 -8 11 -15.5t6.5 -18.5
t3.5 -27t1 -40q0 -54 -6 -118.5t-6 -135.5h-150zM248 436q20 0 32 20t17 53q6 31 7.5 42.5t1.5 18.5q0 20 -8.5 25.5t-24.5 5.5h-36l-29 -165h40z" />
    <glyph glyph-name="S" unicode="S" horiz-adv-x="422" 
d="M277 522q6 35 8 47t2 18q0 17 -8 23.5t-27 6.5q-26 0 -34 -12t-14 -35q-4 -15 -5 -26t-1 -17q0 -18 5 -28.5t16 -18.5q18 -13 33.5 -22t29 -16.5t26 -15t23.5 -16.5q18 -15 28 -32.5t10 -54.5q0 -19 -2.5 -44t-8.5 -57q-12 -68 -28.5 -113t-42 -72t-62 -38.5t-87.5 -11.5
q-72 0 -106 24t-34 84q0 34 8 78t22 80h118q-5 -12 -8.5 -34t-3.5 -36q0 -20 8 -27.5t27 -7.5q27 0 37.5 12.5t15.5 38.5q5 24 6.5 35t1.5 16q0 17 -5 28.5t-18 22.5q-14 12 -30.5 22t-33 19t-31.5 19.5t-27 24.5q-11 13 -17 29t-6 39q0 28 4 59.5t16 85.5q10 45 23 77
t35 53t55.5 31t83.5 10q75 0 108.5 -23t33.5 -83q0 -35 -6.5 -72t-20.5 -70h-117z" />
    <glyph glyph-name="T" unicode="T" horiz-adv-x="423" 
d="M79 0l105 597h-107l28 160h355l-28 -160h-107l-105 -597h-141z" />
    <glyph glyph-name="U" unicode="U" horiz-adv-x="460" 
d="M344 757h141l-92 -524q-9 -47 -17.5 -78t-16 -52t-16 -34.5t-17.5 -26.5q-11 -16 -25.5 -26.5t-33.5 -17t-44 -9t-57 -2.5q-39 0 -68 4.5t-48.5 18t-29 38t-9.5 65.5q0 20 3 49t11 71l92 524h145l-92 -524q-3 -18 -5 -31t-2 -21q0 -17 8 -21t27 -4q12 0 20.5 2t14 10
t10 23.5t9.5 41.5z" />
    <glyph glyph-name="V" unicode="V" horiz-adv-x="453" 
d="M52 0l52 757h151l-56 -533h10l130 533h152l-218 -757h-221z" />
    <glyph glyph-name="W" unicode="W" horiz-adv-x="695" 
d="M341 0l34 464h-10l-131 -464h-201l73 757h141l-61 -515h10l153 515h143l-28 -515h10l120 515h137l-191 -757h-199z" />
    <glyph glyph-name="X" unicode="X" horiz-adv-x="462" 
d="M219 0l3 276h-10l-97 -276h-148l1 5l160 413l-12 334l1 5h145l-1 -211h10l78 211h139l-1 -5l-133 -334l15 -413v-5h-150z" />
    <glyph glyph-name="Y" unicode="Y" horiz-adv-x="446" 
d="M87 0l50 287l-42 465l1 5h146l4 -245h9l95 245h141l-1 -5l-204 -481l-47 -271h-152z" />
    <glyph glyph-name="Z" unicode="Z" horiz-adv-x="453" 
d="M-18 0l31 179l248 407l-2 10h-165l28 161h364l-15 -86l-298 -494l3 -9h200l-29 -168h-365z" />
    <glyph glyph-name="bracketleft" unicode="[" 
d="M36 -238l211 1200h243l-21 -117h-138l-170 -966h138l-20 -117h-243z" />
    <glyph glyph-name="backslash" unicode="\" 
d="M223 -153l-100 1001h104l99 -1001h-103z" />
    <glyph glyph-name="bracketright" unicode="]" 
d="M-35 -238l20 117h137l170 966h-137l21 117h243l-211 -1200h-243z" />
    <glyph glyph-name="asciicircum" unicode="^" 
d="M309 334l-35 256h-9l-127 -256h-108l1 6l219 417h92l70 -417l-1 -6h-102z" />
    <glyph glyph-name="underscore" unicode="_" 
d="M-71 -182l22 124h405l-22 -124h-405z" />
    <glyph glyph-name="grave" unicode="`" horiz-adv-x="314" 
d="M201 592l-77 167l1 6h123l56 -168l-1 -5h-102z" />
    <glyph glyph-name="a" unicode="a" horiz-adv-x="444" 
d="M0 0zM205 0l18 175h-68l-41 -175h-143l206 757h238l-65 -757h-145zM269 599h-10l-71 -271h56z" />
    <glyph glyph-name="b" unicode="b" horiz-adv-x="458" 
d="M0 0zM-9 0l133 757h202q71 0 101 -27.5t30 -90.5q0 -35 -6 -68.5t-13 -68.5q-6 -25 -12 -42t-13.5 -28.5t-17 -20t-22.5 -17.5l-1 -7q17 -11 26.5 -25.5t9.5 -46.5q0 -39 -7 -78t-15 -79q-10 -42 -24 -72t-35.5 -49t-51 -28t-69.5 -9h-215zM198 153q22 0 34.5 13.5
t20.5 46.5q4 17 7 36t3 39t-6.5 26.5t-20.5 6.5h-48l-30 -168h40zM248 446q17 0 27.5 12t18.5 40q5 19 9.5 39.5t4.5 42.5q0 17 -7 22t-24 5h-38l-29 -161h38z" />
    <glyph glyph-name="c" unicode="c" horiz-adv-x="451" 
d="M11 0zM392 290q-4 -34 -9.5 -68.5t-16.5 -76.5q-11 -41 -26 -70.5t-38.5 -49t-56.5 -29t-80 -9.5q-40 0 -69 5t-48 18.5t-28 36.5t-9 59q0 21 2 48t7 64.5t13.5 88.5t20.5 122q13 71 23 117.5t19.5 77t19.5 50t22 36.5q23 34 59.5 47t101.5 13q43 0 72 -6.5t46.5 -21
t25 -37t7.5 -53.5q0 -42 -7.5 -84t-18.5 -88h-132q5 30 8 50t4.5 33t2 20.5t0.5 12.5q-1 19 -35 19q-17 0 -25.5 -4.5t-12.5 -14.5q-4 -8 -7.5 -17.5t-7.5 -27.5t-9.5 -47t-13.5 -75q-12 -66 -19.5 -108.5t-11.5 -68.5t-5.5 -40t-1.5 -23q0 -18 5.5 -25.5t31.5 -7.5
q27 0 36 17q5 10 9 21t7.5 24.5t7 31t7.5 40.5h130z" />
    <glyph glyph-name="d" unicode="d" horiz-adv-x="468" 
d="M0 0zM-9 0l133 757h190q65 0 96.5 -13.5t43.5 -46.5q5 -14 7.5 -28.5t2.5 -36.5q0 -17 -2 -40t-7 -58.5t-13.5 -87.5t-21.5 -125q-11 -65 -20.5 -107.5t-18.5 -71t-18 -47.5t-21 -35q-24 -34 -60.5 -47t-100.5 -13h-190zM206 167q17 0 25 4t13 14q3 7 6.5 16t7.5 26.5
t9.5 46.5t13.5 74q10 60 17 99t10.5 64t5 38t1.5 21q0 17 -7.5 22.5t-25.5 5.5h-45l-76 -431h45z" />
    <glyph glyph-name="e" unicode="e" horiz-adv-x="402" 
d="M0 0zM-9 0l133 757h301l-28 -160h-160l-24 -133h157l-27 -153h-157l-25 -143h159l-29 -168h-300z" />
    <glyph glyph-name="f" unicode="f" horiz-adv-x="388" 
d="M0 0zM-9 0l133 757h297l-28 -160h-156l-27 -151h153l-27 -154h-153l-51 -292h-141z" />
    <glyph glyph-name="g" unicode="g" horiz-adv-x="448" 
d="M11 0zM268 293h-66l27 152h193q-3 -20 -9 -58t-15 -91q-11 -62 -20.5 -103t-18.5 -68t-18 -44t-19 -32q-23 -35 -60 -48.5t-101 -13.5q-40 0 -68.5 5t-46.5 19t-26.5 39t-8.5 66q0 18 2 42.5t7.5 65t15.5 99.5t25 146q10 56 19 94.5t18 65t18.5 45.5t21.5 36
q23 34 59.5 47t101.5 13q75 0 109.5 -21.5t39.5 -72.5q1 -6 1.5 -12t0.5 -13q0 -26 -4.5 -59.5t-13.5 -65.5h-131q5 11 7 29.5t2 29.5q0 20 -9.5 25t-29.5 5q-18 0 -27.5 -4.5t-14.5 -14.5q-3 -8 -6.5 -17.5t-7.5 -28t-10 -48t-14 -76.5q-12 -68 -19.5 -111t-11.5 -69
t-5.5 -39t-1.5 -20q0 -17 9 -25t32 -8q19 0 30.5 7t18 20t10.5 32.5t9 43.5z" />
    <glyph glyph-name="h" unicode="h" horiz-adv-x="480" 
d="M0 0zM222 0l54 311h-88l-54 -311h-145l133 757h145l-52 -293h88l52 293h145l-133 -757h-145z" />
    <glyph glyph-name="i" unicode="i" horiz-adv-x="254" 
d="M0 0zM-8 0l133 757h145l-133 -757h-145z" />
    <glyph glyph-name="j" unicode="j" horiz-adv-x="443" 
d="M0 0zM322 757h145l-65 -367q-15 -86 -27 -144t-23 -96.5t-21 -61.5t-22 -39q-24 -34 -61.5 -48t-104.5 -14q-83 0 -114.5 30t-31.5 94q0 84 27 179h126q-7 -37 -10 -59.5t-3 -39.5q0 -20 5 -27.5t25 -7.5t29.5 4t14.5 14q3 8 6.5 19t8.5 33t12.5 59.5t18.5 100.5z" />
    <glyph glyph-name="k" unicode="k" horiz-adv-x="483" 
d="M0 0zM233 0l-31 340h-9q-1 -13 -3 -27.5t-4 -28.5l-50 -284h-145l133 757h145l-49 -276q-2 -12 -4.5 -21.5t-4.5 -19.5h9l145 317h151l-1 -5l-166 -346l42 -401v-5h-158z" />
    <glyph glyph-name="l" unicode="l" horiz-adv-x="373" 
d="M0 0zM-9 0l133 757h141l-104 -589h146l-29 -168h-287z" />
    <glyph glyph-name="m" unicode="m" horiz-adv-x="641" 
d="M0 0zM398 0l80 454h-5l-183 -454h-63l-24 454h-5l-80 -454h-129l133 757h196l5 -329h6l128 329h203l-132 -757h-130z" />
    <glyph glyph-name="n" unicode="n" horiz-adv-x="471" 
d="M0 0zM286 0l-89 417h-6l-72 -417h-129l133 757h139l48 -275h6l47 275h129l-133 -757h-73z" />
    <glyph glyph-name="o" unicode="o" 
d="M11 0zM323 49q-23 -35 -60 -48.5t-101 -13.5q-38 0 -66.5 5t-47.5 19t-28 39t-9 66q0 17 2 41t7 58.5t12.5 82t19.5 113.5q13 77 24 126.5t20.5 81.5t19.5 51.5t22 37.5q23 34 60 48t102 14q39 0 67 -5t46.5 -19.5t27.5 -40t9 -65.5q0 -17 -2 -40.5t-7 -58.5t-13 -84
t-20 -117q-13 -75 -23.5 -123t-20 -79.5t-19.5 -51.5t-22 -37zM230 174q3 7 6.5 17.5t8 31t11 53.5t15.5 86q11 63 18 104t10.5 65.5t4.5 37t1 20.5q0 15 -7.5 20.5t-24.5 5.5t-25.5 -4.5t-12.5 -14.5q-4 -7 -7.5 -18t-9 -33.5t-12.5 -60.5t-18 -101q-9 -50 -14.5 -83.5
t-9 -56t-4.5 -35.5t-1 -21q0 -16 5.5 -23.5t27.5 -7.5q17 0 25 4t13 14z" />
    <glyph glyph-name="p" unicode="p" horiz-adv-x="449" 
d="M0 0zM-9 0l133 757h204q66 0 94.5 -28.5t28.5 -97.5q0 -27 -4.5 -64t-15.5 -100t-26 -108t-37.5 -74.5t-54.5 -43t-78 -13.5h-63l-40 -228h-141zM237 384q20 0 32.5 23.5t20.5 70.5q7 41 9 58t2 27q0 23 -7.5 29.5t-22.5 6.5h-34l-38 -215h38z" />
    <glyph glyph-name="q" unicode="q" 
d="M16 0zM159 -91q-2 5 -4 12.5t-4.5 20.5t-5 33t-6.5 50q-32 1 -55 7t-38 19.5t-22.5 37.5t-7.5 61q0 16 2 38.5t6.5 55.5t11.5 77.5t18 106.5q13 73 23 120t19.5 78t19.5 49.5t22 35.5q23 33 59.5 46t101.5 13q37 0 65.5 -4.5t47.5 -18t28.5 -38t9.5 -64.5q0 -17 -2 -39.5
t-6.5 -55.5t-12 -78.5t-18.5 -108.5q-13 -72 -23 -119t-19.5 -77.5t-19 -49.5t-21.5 -36q-11 -15 -24.5 -24.5t-28.5 -16.5q3 -29 6.5 -50t7 -35.5t7 -24t6.5 -15.5l-2 -6h-141zM233 195q3 7 6 15.5t7.5 28t11 53.5t16.5 92q9 53 15 88.5t9.5 58t5 35t1.5 20.5q0 18 -8 23.5
t-25 5.5t-25.5 -4.5t-12.5 -13.5q-3 -7 -6.5 -17t-8.5 -30.5t-12 -55.5t-17 -91q-9 -50 -14.5 -83.5t-8.5 -55.5t-4 -35t-1 -20q0 -18 5 -23.5t28 -5.5q17 0 25 3t13 12z" />
    <glyph glyph-name="r" unicode="r" horiz-adv-x="460" 
d="M0 0zM214 0q-1 6 -1.5 12.5t-0.5 15.5q0 20 2 55t5 71.5t5 66.5t2 39q0 23 -5 29t-15 6h-22l-52 -295h-141l133 757h206q70 0 99 -25.5t29 -77.5q0 -14 -1 -27t-3 -29.5t-5.5 -38t-8.5 -51.5q-7 -42 -15 -66.5t-18 -39.5t-23 -23.5t-29 -17.5l-1 -6q7 -8 11 -15.5
t6.5 -18.5t3.5 -27t1 -40q0 -54 -6 -118.5t-6 -135.5h-150zM248 436q20 0 32 20t17 53q6 31 7.5 42.5t1.5 18.5q0 20 -8.5 25.5t-24.5 5.5h-36l-29 -165h40z" />
    <glyph glyph-name="s" unicode="s" horiz-adv-x="422" 
d="M0 0zM277 522q6 35 8 47t2 18q0 17 -8 23.5t-27 6.5q-26 0 -34 -12t-14 -35q-4 -15 -5 -26t-1 -17q0 -18 5 -28.5t16 -18.5q18 -13 33.5 -22t29 -16.5t26 -15t23.5 -16.5q18 -15 28 -32.5t10 -54.5q0 -19 -2.5 -44t-8.5 -57q-12 -68 -28.5 -113t-42 -72t-62 -38.5
t-87.5 -11.5q-72 0 -106 24t-34 84q0 34 8 78t22 80h118q-5 -12 -8.5 -34t-3.5 -36q0 -20 8 -27.5t27 -7.5q27 0 37.5 12.5t15.5 38.5q5 24 6.5 35t1.5 16q0 17 -5 28.5t-18 22.5q-14 12 -30.5 22t-33 19t-31.5 19.5t-27 24.5q-11 13 -17 29t-6 39q0 28 4 59.5t16 85.5
q10 45 23 77t35 53t55.5 31t83.5 10q75 0 108.5 -23t33.5 -83q0 -35 -6.5 -72t-20.5 -70h-117z" />
    <glyph glyph-name="t" unicode="t" horiz-adv-x="423" 
d="M77 0zM79 0l105 597h-107l28 160h355l-28 -160h-107l-105 -597h-141z" />
    <glyph glyph-name="u" unicode="u" horiz-adv-x="460" 
d="M11 0zM344 757h141l-92 -524q-9 -47 -17.5 -78t-16 -52t-16 -34.5t-17.5 -26.5q-11 -16 -25.5 -26.5t-33.5 -17t-44 -9t-57 -2.5q-39 0 -68 4.5t-48.5 18t-29 38t-9.5 65.5q0 20 3 49t11 71l92 524h145l-92 -524q-3 -18 -5 -31t-2 -21q0 -17 8 -21t27 -4q12 0 20.5 2
t14 10t10 23.5t9.5 41.5z" />
    <glyph glyph-name="v" unicode="v" horiz-adv-x="453" 
d="M52 0zM52 0l52 757h151l-56 -533h10l130 533h152l-218 -757h-221z" />
    <glyph glyph-name="w" unicode="w" horiz-adv-x="695" 
d="M33 0zM341 0l34 464h-10l-131 -464h-201l73 757h141l-61 -515h10l153 515h143l-28 -515h10l120 515h137l-191 -757h-199z" />
    <glyph glyph-name="x" unicode="x" horiz-adv-x="462" 
d="M0 0zM219 0l3 276h-10l-97 -276h-148l1 5l160 413l-12 334l1 5h145l-1 -211h10l78 211h139l-1 -5l-133 -334l15 -413v-5h-150z" />
    <glyph glyph-name="y" unicode="y" horiz-adv-x="446" 
d="M87 0zM87 0l50 287l-42 465l1 5h146l4 -245h9l95 245h141l-1 -5l-204 -481l-47 -271h-152z" />
    <glyph glyph-name="z" unicode="z" horiz-adv-x="453" 
d="M0 0zM-18 0l31 179l248 407l-2 10h-165l28 161h364l-15 -86l-298 -494l3 -9h200l-29 -168h-365z" />
    <glyph glyph-name="braceleft" unicode="{" 
d="M216 -238q-63 0 -92 24.5t-29 81.5q0 28 7.5 70t16.5 77q7 28 17 64t19 72t15.5 68.5t6.5 52.5q0 18 -8.5 24.5t-28.5 6.5h-46l21 118h46q45 0 57 68q7 40 11 78t7 76t7 75.5t11 75.5q8 45 21.5 77t34 52.5t49.5 29.5t68 9h82l-21 -117h-72q-27 0 -40 -10.5t-18 -41.5
q-11 -66 -16.5 -149t-21.5 -174q-6 -35 -25 -62.5t-40 -40.5l-2 -11q14 -8 23 -25.5t9 -44.5q0 -22 -7.5 -60t-18 -81t-21.5 -84t-18 -68q-6 -23 -9 -38.5t-5 -25.5t-2.5 -16t-0.5 -10q0 -15 8 -19.5t28 -4.5h79l-20 -117h-82z" />
    <glyph glyph-name="bar" unicode="|" 
d="M69 -238l211 1200h105l-211 -1200h-105z" />
    <glyph glyph-name="braceright" unicode="}" 
d="M239 962q63 0 92 -24.5t29 -81.5q0 -28 -7.5 -70t-16.5 -77q-8 -28 -18 -64t-19 -72t-15 -68.5t-6 -52.5q0 -18 8.5 -24.5t28.5 -6.5h46l-21 -118h-46q-45 0 -57 -68q-7 -40 -11 -78t-7 -76t-7 -75.5t-11 -75.5q-8 -45 -21.5 -77t-34 -52.5t-49.5 -29.5t-68 -9h-82
l21 117h72q27 0 40 10.5t18 41.5q11 66 16.5 149t21.5 174q6 35 25 62.5t40 40.5l2 11q-14 8 -23 25.5t-9 44.5q0 22 7.5 60t18 81t21.5 84t18 68q6 23 9 38.5t5 25.5t2.5 15.5t0.5 10.5q0 15 -8 19.5t-28 4.5h-79l20 117h82z" />
    <glyph glyph-name="asciitilde" unicode="~" 
d="M417 362q-28 -35 -55.5 -49.5t-62.5 -14.5q-24 0 -45 7.5t-41 16t-39.5 16t-39.5 7.5q-30 0 -53.5 -14t-50.5 -48h-8l21 117q20 26 46.5 44.5t60.5 18.5q28 0 51.5 -7.5t44 -17t39.5 -17t39 -7.5q29 0 54.5 14t52.5 48h6z" />
    <glyph glyph-name="nonbreakingspace" unicode="&#xa0;" horiz-adv-x="197" 
 />
    <glyph glyph-name="exclamdown" unicode="&#xa1;" horiz-adv-x="261" 
d="M-48 -228l114 561h120l-81 -561h-153zM70 409l26 151h141l-26 -151h-141z" />
    <glyph glyph-name="cent" unicode="&#xa2;" 
d="M130 -43l22 125q-36 1 -61 6.5t-41 18t-23.5 34.5t-7.5 56q0 28 6 86t28 161q15 68 27.5 115t33 76.5t54.5 43t92 15.5l19 107h56l-19 -107q29 -1 53 -5.5t41.5 -17t27 -34t9.5 -57.5q0 -17 -2.5 -34.5t-5.5 -36.5q-2 -10 -3.5 -19.5t-4.5 -20.5h-139l2 12q4 20 5 32
t1 20q0 17 -6.5 22t-29.5 5q-18 0 -25.5 -3t-12.5 -11q-4 -5 -7 -12.5t-6.5 -22t-8 -38.5t-11.5 -62t-11.5 -64.5t-7 -44.5t-3.5 -28.5t-1 -17.5q0 -17 6.5 -22.5t29.5 -5.5q17 0 26 3t15 11l4 8t4 12.5t4.5 21.5t6.5 35h139q-2 -22 -7 -51t-13 -55q-11 -33 -24.5 -57
t-33.5 -40t-49 -24.5t-70 -9.5l-22 -125h-56z" />
    <glyph glyph-name="sterling" unicode="&#xa3;" 
d="M357 25q-19 -17 -40 -27.5t-50 -10.5q-42 0 -58.5 24t-16.5 63h-10q-17 -34 -51 -60.5t-85 -26.5q-13 0 -29.5 5.5t-26.5 29.5l25 144q27 -6 41 -6q15 0 25 8.5t16 21t8.5 27t2.5 26.5q0 9 -2.5 19t-6.5 20h-77l12 64h38q-13 36 -13 76q0 26 4 57t10.5 62.5t15.5 61.5
t19 54q14 33 31.5 55t40.5 34.5t52.5 18t67.5 5.5q43 0 72 -6.5t46.5 -21t25 -37t7.5 -53.5q0 -37 -8.5 -87.5t-18.5 -93.5h-132q2 5 2.5 11.5t2.5 14.5q7 40 8.5 61t1.5 32q0 25 -34 25q-29 0 -39.5 -19t-15.5 -46q-5 -31 -7.5 -47.5t-2.5 -29.5q0 -27 9 -53.5t32 -73.5
h132l-12 -64h-116q0 -32 -7 -60.5t-17 -52.5q6 -5 17 -6.5t34 -1.5q29 0 51.5 9t47.5 27h8z" />
    <glyph glyph-name="currency" unicode="&#xa4;" horiz-adv-x="677" 
d="M506 151q-35 -22 -71.5 -34t-80.5 -12q-45 0 -84 12t-70 34l-87 -91l-80 78l90 88q-22 33 -33.5 70.5t-11.5 82.5q0 82 45 156l-89 84l79 79l85 -91q62 50 156 50q85 0 154 -50l80 91l80 -79l-87 -84q22 -35 34.5 -73.5t12.5 -82.5q0 -45 -12.5 -83t-34.5 -70l87 -88
l-78 -78zM354 223q31 0 59.5 12.5t49.5 33.5t33.5 49.5t12.5 60.5t-12.5 60.5t-33.5 50.5t-49.5 34.5t-59.5 12.5q-33 0 -61.5 -12.5t-50 -34.5t-33.5 -50.5t-12 -60.5t12 -60.5t33.5 -49.5t50 -33.5t61.5 -12.5z" />
    <glyph glyph-name="yen" unicode="&#xa5;" 
d="M92 0l25 142h-108l11 64h108l11 66h-108l12 63h94l-39 417l1 5h145l8 -231h10l91 231h140l-1 -5l-182 -417h87l-12 -63h-99l-11 -66h99l-11 -64h-99l-25 -142h-147z" />
    <glyph glyph-name="brokenbar" unicode="&#xa6;" 
d="M69 -238l76 432h105l-76 -432h-105zM206 539l74 423h105l-74 -423h-105z" />
    <glyph glyph-name="section" unicode="&#xa7;" horiz-adv-x="483" 
d="M312 97q-10 -66 -25.5 -110t-39 -70.5t-57.5 -37t-82 -10.5q-66 0 -97 21.5t-31 75.5q0 22 6.5 58t17.5 78h108q-6 -27 -8 -40.5t-2 -24.5q0 -18 8 -22.5t26 -4.5q12 0 20 2.5t13.5 10t9.5 20.5t8 34q3 16 3 30q0 25 -16 40q-14 11 -29 19.5t-30 16.5t-29.5 17t-25.5 21
q-22 26 -22 73q0 37 6.5 75t17.5 74q13 44 35.5 68.5t62.5 34.5q1 14 3 27.5t5 29.5q8 46 20.5 78t33 52t52 28.5t77.5 8.5q70 0 100.5 -20t30.5 -73q0 -30 -5.5 -61.5t-17.5 -62.5h-108q4 13 6.5 27.5t2.5 30.5q0 15 -7.5 20t-24.5 5q-15 0 -25 -7t-15.5 -18t-7.5 -26
t-2 -31q0 -14 5 -22t16 -16q25 -17 53 -30.5t51 -30.5q17 -14 25.5 -32.5t8.5 -47.5q0 -38 -7 -78.5t-20 -81.5q-16 -50 -39 -77.5t-59 -40.5zM286 234q14 14 19 39t5 45q0 14 -5 24t-16 19q-22 19 -49 31t-48 29q-10 -4 -16.5 -13.5t-10.5 -21.5t-5.5 -25t-1.5 -24
q0 -14 5 -22t16 -16q16 -11 30.5 -18.5t27.5 -14.5t25 -14.5t24 -17.5z" />
    <glyph glyph-name="dieresis" unicode="&#xa8;" horiz-adv-x="411" 
d="M284 613l21 123h121l-21 -123h-121zM99 613l21 123h121l-21 -123h-121z" />
    <glyph glyph-name="ordfeminine" unicode="&#xaa;" horiz-adv-x="291" 
d="M267 403q-5 -8 -15 -14t-24 -6q-17 0 -26 5t-15 13q-9 -8 -22.5 -13t-36.5 -5q-37 0 -52 10.5t-15 40.5q0 23 3.5 47t11.5 47q13 37 36.5 49t65.5 12q12 0 18 -3l2 2q6 28 6 35t-3 8.5t-9 1.5q-11 0 -15 -4.5t-6 -21.5h-74q0 19 4.5 37.5t16.5 33t33 23.5t55 9
q48 0 64 -16t16 -42q0 -5 -0.5 -11t-1.5 -16t-4 -25t-7 -39l-11 -57q-5 -21 -5.5 -28.5t-0.5 -11.5q0 -7 8 -7q7 0 13 3zM188 530h-6q-16 0 -23.5 -4t-11.5 -18q-2 -7 -3.5 -14.5t-1.5 -17.5q0 -8 4.5 -9.5t15.5 -1.5q10 0 15 3z" />
    <glyph glyph-name="guillemotleft" unicode="&#xab;" horiz-adv-x="460" 
d="M37 182zM193 182l-156 147l18 103l208 150h5l-23 -130l-105 -72l-2 -11l80 -70l-20 -117h-5zM386 182l-156 147l18 103l208 150h5l-23 -130l-105 -72l-2 -11l80 -70l-20 -117h-5z" />
    <glyph glyph-name="logicalnot" unicode="&#xac;" 
d="M250 0l56 321h-277l21 117h381l-77 -438h-104z" />
    <glyph glyph-name="macron" unicode="&#xaf;" horiz-adv-x="465" 
d="M101 626l19 106h360l-19 -106h-360z" />
    <glyph glyph-name="degree" unicode="&#xb0;" horiz-adv-x="345" 
d="M248 788q27 0 48 -1.5t35.5 -8.5t22 -21t7.5 -39q0 -15 -3.5 -41t-12.5 -77q-6 -33 -11 -54.5t-10.5 -35t-11 -22.5t-12.5 -16q-15 -16 -40.5 -21.5t-71.5 -5.5q-30 0 -51 2.5t-34.5 9.5t-19.5 20.5t-6 36.5q0 8 1 18t3 25t5.5 35.5t8.5 49.5q5 30 10 49t10 32t10.5 21.5
t13.5 16.5q14 14 39 20.5t70 6.5zM146 551q0 -14 9 -19.5t47 -5.5q26 0 37 1.5t16 5.5q5 3 8.5 7.5t6.5 12.5t5.5 20.5t6.5 33.5q6 35 8.5 52.5t2.5 26.5q0 21 -14 24t-44 3q-24 0 -35 -1.5t-17 -6.5q-9 -6 -13 -19t-10 -47q-8 -43 -11 -61t-3 -27z" />
    <glyph glyph-name="plusminus" unicode="&#xb1;" 
d="M0 0zM140 168l27 153h-138l21 117h138l27 153h105l-27 -153h138l-21 -117h-138l-27 -153h-105zM-38 -59l21 117h381l-21 -117h-381z" />
    <glyph glyph-name="twosuperior" unicode="&#xb2;" horiz-adv-x="295" 
d="M51 348zM51 348l18 102l73 68q21 19 33.5 31.5t19 23.5t10 25t7.5 37q2 15 3 21t1 13q0 10 -14 10q-15 0 -19 -11t-7 -29.5t-4 -36.5h-83q2 23 5.5 46t11.5 48q13 42 37 60.5t76 18.5q47 0 67.5 -15t20.5 -59q0 -12 -1.5 -30t-4.5 -36.5t-7.5 -36.5t-10.5 -30
q-7 -14 -13 -24.5t-13.5 -19.5t-17 -17.5t-21.5 -19.5l-45 -40h90l-17 -99h-195z" />
    <glyph glyph-name="threesuperior" unicode="&#xb3;" horiz-adv-x="295" 
d="M57 341zM131 524l13 76h44q12 0 16.5 4.5t7.5 23.5q4 20 5 28t1 12q0 9 -4 11t-12 2q-7 0 -11.5 -1.5t-7.5 -7t-5 -17t-4 -30.5h-82q3 27 8.5 52t16.5 48q12 27 36.5 38.5t65.5 11.5q48 0 68 -11t20 -48q0 -23 -4 -45t-9 -45q-6 -26 -14 -39t-20 -23q8 -6 12.5 -13.5
t4.5 -25.5q0 -24 -4 -49t-11 -49q-6 -24 -14 -40t-21.5 -26.5t-33.5 -15t-50 -4.5q-49 0 -67.5 17t-18.5 53q0 23 4 45.5t9 44.5h81q-3 -10 -5.5 -20.5t-2.5 -22.5q0 -9 4 -12t13 -3q11 0 17 4t10 16q3 11 5.5 22.5t2.5 24.5q0 10 -4.5 12t-15.5 2h-44z" />
    <glyph glyph-name="acute" unicode="&#xb4;" horiz-adv-x="314" 
d="M95 592l1 5l110 168h127l-1 -6l-132 -167h-105z" />
    <glyph glyph-name="paragraph" unicode="&#xb6;" horiz-adv-x="565" 
d="M319 -102l129 734h-75l-129 -734h-113l77 440h-52q-53 0 -75.5 23t-22.5 80q0 44 7.5 88t18.5 88q11 42 23.5 69.5t30 43t40 21.5t52.5 6h353l-151 -859h-113z" />
    <glyph glyph-name="periodcentered" unicode="&#xb7;" horiz-adv-x="246" 
d="M43 295zM43 295l26 151h141l-26 -151h-141z" />
    <glyph glyph-name="cedilla" unicode="&#xb8;" horiz-adv-x="279" 
d="M-49 -238v5l82 192h124l-1 -6l-103 -191h-102z" />
    <glyph glyph-name="onesuperior" unicode="&#xb9;" horiz-adv-x="295" 
d="M51 348zM51 348l18 102h52l29 166h-54l15 86h37q10 0 17 2.5t11.5 9t8 19.5t7.5 34h74l-56 -317h49l-18 -102h-190z" />
    <glyph glyph-name="ordmasculine" unicode="&#xba;" horiz-adv-x="281" 
d="M229 410q-13 -15 -32.5 -21t-52.5 -6q-44 0 -62.5 11t-18.5 51q0 15 4 43t15 91q4 24 8 40t8 28t9 20t11 16q11 15 31 21t53 6q44 0 62.5 -11t18.5 -49q0 -15 -3.5 -42t-13.5 -82q-5 -28 -9 -46.5t-8.5 -31.5t-9 -22t-10.5 -16zM173 470q2 5 5.5 20t10.5 57q6 38 8.5 54
t2.5 21t-2 6.5t-10 1.5q-12 0 -15 -6q-2 -5 -5 -17t-9 -47q-8 -47 -10.5 -64.5t-2.5 -23.5q0 -9 12 -9q8 0 10.5 1.5t4.5 5.5z" />
    <glyph glyph-name="guillemotright" unicode="&#xbb;" horiz-adv-x="460" 
d="M10 182zM85 582l156 -147l-18 -103l-208 -150h-5l23 130l105 72l2 11l-80 70l20 117h5zM278 582l156 -147l-18 -103l-208 -150h-5l23 130l105 72l2 11l-80 70l20 117h5z" />
    <glyph glyph-name="onequarter" unicode="&#xbc;" horiz-adv-x="601" 
d="M4 0zM36 348l18 102h52l29 166h-54l15 86h37q10 0 17 2.5t11.5 9t8 19.5t7.5 34h74l-56 -317h49l-18 -102h-190zM4 0l1 5l522 752h87l-1 -5l-522 -752h-87zM393 -10l12 69h-108l15 85l156 265h81l-47 -264h27l-15 -86h-27l-12 -69h-82zM438 232h-4l-49 -87h38z" />
    <glyph glyph-name="onehalf" unicode="&#xbd;" horiz-adv-x="601" 
d="M3 0zM35 348l18 102h52l29 166h-54l15 86h37q10 0 17 2.5t11.5 9t8 19.5t7.5 34h74l-56 -317h49l-18 -102h-190zM3 0l1 5l522 752h87l-1 -5l-522 -752h-87zM306 -10l18 102l73 68q21 19 33.5 31.5t19 23.5t10 25t7.5 37q2 15 3 21t1 13q0 10 -14 10q-15 0 -19 -11
t-7 -29.5t-4 -36.5h-83q2 23 5.5 46t11.5 48q13 42 37 60.5t76 18.5q47 0 67.5 -15t20.5 -59q0 -12 -1.5 -30t-4.5 -36.5t-7.5 -36.5t-10.5 -30q-7 -14 -13 -24.5t-13.5 -19.5t-17 -17.5t-21.5 -19.5l-45 -40h90l-17 -99h-195z" />
    <glyph glyph-name="threequarters" unicode="&#xbe;" horiz-adv-x="601" 
d="M15 0zM127 524l13 76h44q12 0 16.5 4.5t7.5 23.5q4 20 5 28t1 12q0 9 -4 11t-12 2q-7 0 -11.5 -1.5t-7.5 -7t-5 -17t-4 -30.5h-82q3 27 8.5 52t16.5 48q12 27 36.5 38.5t65.5 11.5q48 0 68 -11t20 -48q0 -23 -4 -45t-9 -45q-6 -26 -14 -39t-20 -23q8 -6 12.5 -13.5
t4.5 -25.5q0 -24 -4 -49t-11 -49q-6 -24 -14 -40t-21.5 -26.5t-33.5 -15t-50 -4.5q-49 0 -67.5 17t-18.5 53q0 23 4 45.5t9 44.5h81q-3 -10 -5.5 -20.5t-2.5 -22.5q0 -9 4 -12t13 -3q11 0 17 4t10 16q3 11 5.5 22.5t2.5 24.5q0 10 -4.5 12t-15.5 2h-44zM15 0l1 5l522 752h87
l-1 -5l-522 -752h-87zM389 -10l12 69h-108l15 85l156 265h81l-47 -264h27l-15 -86h-27l-12 -69h-82zM434 232h-4l-49 -87h38z" />
    <glyph glyph-name="questiondown" unicode="&#xbf;" horiz-adv-x="418" 
d="M268 333q-1 -15 -3.5 -35t-6.5 -41.5t-9.5 -42.5t-12.5 -36q-9 -20 -26.5 -35.5t-42.5 -34.5q-14 -10 -22.5 -17.5t-14.5 -14.5t-9.5 -15.5t-6.5 -20.5q-4 -15 -7.5 -33.5t-3.5 -33.5q0 -17 8 -23.5t26 -6.5q21 0 31 8.5t16 31.5q7 24 9 55h119q0 -28 -3 -51t-9 -49
q-9 -42 -23.5 -70.5t-37 -46t-54.5 -24.5t-75 -7q-79 0 -111 25t-32 86q0 33 5.5 67t13.5 71q5 24 10.5 41t11.5 30.5t14 24.5t18 22q20 20 37.5 31t32.5 26q6 5 10 11t8 18.5t8 33.5t10 56h122zM319 560l-26 -151h-142l26 151h142z" />
    <glyph glyph-name="Agrave" unicode="&#xc0;" horiz-adv-x="444" 
d="M0 0zM205 0l18 175h-68l-41 -175h-143l206 757h238l-65 -757h-145zM269 599h-10l-71 -271h56zM255 789l-77 167l1 6h123l56 -168l-1 -5h-102z" />
    <glyph glyph-name="Aacute" unicode="&#xc1;" horiz-adv-x="444" 
d="M0 0zM205 0l18 175h-68l-41 -175h-143l206 757h238l-65 -757h-145zM269 599h-10l-71 -271h56zM237 789l1 5l110 168h127l-1 -6l-132 -167h-105z" />
    <glyph glyph-name="Acircumflex" unicode="&#xc2;" horiz-adv-x="444" 
d="M0 0zM205 0l18 175h-68l-41 -175h-143l206 757h238l-65 -757h-145zM269 599h-10l-71 -271h56zM347 789l-31 69h-9l-55 -69h-113l1 5l140 168h93l83 -168l-1 -5h-108z" />
    <glyph glyph-name="Atilde" unicode="&#xc3;" horiz-adv-x="444" 
d="M0 0zM205 0l18 175h-68l-41 -175h-143l206 757h238l-65 -757h-145zM269 599h-10l-71 -271h56zM491 856q-26 -32 -53 -46.5t-59 -14.5q-23 0 -43 7t-39 15.5t-37.5 15.5t-37.5 7q-28 0 -51 -13.5t-49 -44.5h-4l19 110q18 23 42.5 40.5t57.5 17.5q27 0 49 -7t41.5 -15.5
t37.5 -15.5t36 -7q28 0 52.5 12.5t50.5 44.5h5z" />
    <glyph glyph-name="Adieresis" unicode="&#xc4;" horiz-adv-x="444" 
d="M0 0zM205 0l18 175h-68l-41 -175h-143l206 757h238l-65 -757h-145zM269 599h-10l-71 -271h56zM334 810l21 123h121l-21 -123h-121zM149 810l21 123h121l-21 -123h-121z" />
    <glyph glyph-name="Aring" unicode="&#xc5;" horiz-adv-x="444" 
d="M0 0zM205 0l18 175h-68l-41 -175h-143l206 757h238l-65 -757h-145zM269 599h-10l-71 -271h56zM375 790q-10 -9 -29 -12t-51 -3q-47 0 -65.5 7t-18.5 35q0 8 2 27t9 50q5 25 10 35t16 18q10 8 28.5 11.5t51.5 3.5q46 0 65 -7t19 -35q0 -8 -1.5 -23t-7.5 -48
q-5 -26 -11 -38.5t-17 -20.5zM334 839q3 2 5.5 7t5.5 23q3 16 3 23q0 8 -4.5 11t-24.5 3q-14 0 -20 -1t-10 -3t-5.5 -7t-4.5 -20q-2 -14 -3 -20t-1 -9q0 -8 6 -9.5t25 -1.5q14 0 19 1t9 3z" />
    <glyph glyph-name="AE" unicode="&#xc6;" horiz-adv-x="606" 
d="M193 0l30 175h-69l-41 -175h-142l206 757h452l-28 -160h-161l-24 -133h158l-27 -153h-158l-25 -143h160l-29 -168h-302zM298 599h-40l-71 -271h63z" />
    <glyph glyph-name="Ccedilla" unicode="&#xc7;" horiz-adv-x="451" 
d="M8 0zM392 290q-4 -34 -9.5 -68.5t-16.5 -76.5q-11 -41 -26 -70.5t-38.5 -49t-56.5 -29t-80 -9.5q-40 0 -69 5t-48 18.5t-28 36.5t-9 59q0 21 2 48t7 64.5t13.5 88.5t20.5 122q13 71 23 117.5t19.5 77t19.5 50t22 36.5q23 34 59.5 47t101.5 13q43 0 72 -6.5t46.5 -21
t25 -37t7.5 -53.5q0 -42 -7.5 -84t-18.5 -88h-132q5 30 8 50t4.5 33t2 20.5t0.5 12.5q-1 19 -35 19q-17 0 -25.5 -4.5t-12.5 -14.5q-4 -8 -7.5 -17.5t-7.5 -27.5t-9.5 -47t-13.5 -75q-12 -66 -19.5 -108.5t-11.5 -68.5t-5.5 -40t-1.5 -23q0 -18 5.5 -25.5t31.5 -7.5
q27 0 36 17q5 10 9 21t7.5 24.5t7 31t7.5 40.5h130zM8 -238v5l82 192h124l-1 -6l-103 -191h-102z" />
    <glyph glyph-name="Egrave" unicode="&#xc8;" horiz-adv-x="402" 
d="M0 0zM-9 0l133 757h301l-28 -160h-160l-24 -133h157l-27 -153h-157l-25 -143h159l-29 -168h-300zM239 789l-77 167l1 6h123l56 -168l-1 -5h-102z" />
    <glyph glyph-name="Eacute" unicode="&#xc9;" horiz-adv-x="402" 
d="M0 0zM-9 0l133 757h301l-28 -160h-160l-24 -133h157l-27 -153h-157l-25 -143h159l-29 -168h-300zM223 789l1 5l110 168h127l-1 -6l-132 -167h-105z" />
    <glyph glyph-name="Ecircumflex" unicode="&#xca;" horiz-adv-x="402" 
d="M0 0zM-9 0l133 757h301l-28 -160h-160l-24 -133h157l-27 -153h-157l-25 -143h159l-29 -168h-300zM332 789l-31 69h-9l-55 -69h-113l1 5l140 168h93l83 -168l-1 -5h-108z" />
    <glyph glyph-name="Edieresis" unicode="&#xcb;" horiz-adv-x="402" 
d="M0 0zM-9 0l133 757h301l-28 -160h-160l-24 -133h157l-27 -153h-157l-25 -143h159l-29 -168h-300zM317 810l21 123h121l-21 -123h-121zM132 810l21 123h121l-21 -123h-121z" />
    <glyph glyph-name="Igrave" unicode="&#xcc;" horiz-adv-x="254" 
d="M0 0zM-8 0l133 757h145l-133 -757h-145zM161 789l-77 167l1 6h123l56 -168l-1 -5h-102z" />
    <glyph glyph-name="Iacute" unicode="&#xcd;" horiz-adv-x="254" 
d="M0 0zM-8 0l133 757h145l-133 -757h-145zM143 789l1 5l110 168h127l-1 -6l-132 -167h-105z" />
    <glyph glyph-name="Icircumflex" unicode="&#xce;" horiz-adv-x="254" 
d="M0 0zM-8 0l133 757h145l-133 -757h-145zM255 789l-31 69h-9l-55 -69h-113l1 5l140 168h93l83 -168l-1 -5h-108z" />
    <glyph glyph-name="Idieresis" unicode="&#xcf;" horiz-adv-x="254" 
d="M0 0zM-8 0l133 757h145l-133 -757h-145zM241 810l21 123h121l-21 -123h-121zM56 810l21 123h121l-21 -123h-121z" />
    <glyph glyph-name="Eth" unicode="&#xd0;" horiz-adv-x="468" 
d="M-8 0l54 311h-31l27 153h31l52 293h190q34 0 61.5 -4.5t47.5 -18t31 -38.5t11 -65q0 -33 -8 -91t-26 -161q-15 -86 -26.5 -140.5t-21 -88.5t-19.5 -54t-22 -36q-23 -34 -59.5 -47t-101.5 -13h-190zM210 167q17 0 25 4t13 14q3 7 6.5 16.5t8 30.5t11.5 56.5t17 93.5
q8 47 13.5 79.5t8.5 54t4.5 34t1.5 20.5q0 15 -7.5 21.5t-25.5 6.5h-55l-24 -134h62l-27 -153h-62l-25 -144h55z" />
    <glyph glyph-name="Ntilde" unicode="&#xd1;" horiz-adv-x="471" 
d="M0 0zM286 0l-89 417h-6l-72 -417h-129l133 757h139l48 -275h6l47 275h129l-133 -757h-73zM504 856q-26 -32 -53 -46.5t-59 -14.5q-23 0 -43 7t-39 15.5t-37.5 15.5t-37.5 7q-28 0 -51 -13.5t-49 -44.5h-4l19 110q18 23 42.5 40.5t57.5 17.5q27 0 49 -7t41.5 -15.5
t37.5 -15.5t36 -7q28 0 52.5 12.5t50.5 44.5h5z" />
    <glyph glyph-name="Ograve" unicode="&#xd2;" 
d="M11 0zM323 49q-23 -35 -60 -48.5t-101 -13.5q-38 0 -66.5 5t-47.5 19t-28 39t-9 66q0 17 2 41t7 58.5t12.5 82t19.5 113.5q13 77 24 126.5t20.5 81.5t19.5 51.5t22 37.5q23 34 60 48t102 14q39 0 67 -5t46.5 -19.5t27.5 -40t9 -65.5q0 -17 -2 -40.5t-7 -58.5t-13 -84
t-20 -117q-13 -75 -23.5 -123t-20 -79.5t-19.5 -51.5t-22 -37zM230 174q3 7 6.5 17.5t8 31t11 53.5t15.5 86q11 63 18 104t10.5 65.5t4.5 37t1 20.5q0 15 -7.5 20.5t-24.5 5.5t-25.5 -4.5t-12.5 -14.5q-4 -7 -7.5 -18t-9 -33.5t-12.5 -60.5t-18 -101q-9 -50 -14.5 -83.5
t-9 -56t-4.5 -35.5t-1 -21q0 -16 5.5 -23.5t27.5 -7.5q17 0 25 4t13 14zM258 789l-77 167l1 6h123l56 -168l-1 -5h-102z" />
    <glyph glyph-name="Oacute" unicode="&#xd3;" 
d="M11 0zM323 49q-23 -35 -60 -48.5t-101 -13.5q-38 0 -66.5 5t-47.5 19t-28 39t-9 66q0 17 2 41t7 58.5t12.5 82t19.5 113.5q13 77 24 126.5t20.5 81.5t19.5 51.5t22 37.5q23 34 60 48t102 14q39 0 67 -5t46.5 -19.5t27.5 -40t9 -65.5q0 -17 -2 -40.5t-7 -58.5t-13 -84
t-20 -117q-13 -75 -23.5 -123t-20 -79.5t-19.5 -51.5t-22 -37zM230 174q3 7 6.5 17.5t8 31t11 53.5t15.5 86q11 63 18 104t10.5 65.5t4.5 37t1 20.5q0 15 -7.5 20.5t-24.5 5.5t-25.5 -4.5t-12.5 -14.5q-4 -7 -7.5 -18t-9 -33.5t-12.5 -60.5t-18 -101q-9 -50 -14.5 -83.5
t-9 -56t-4.5 -35.5t-1 -21q0 -16 5.5 -23.5t27.5 -7.5q17 0 25 4t13 14zM242 789l1 5l110 168h127l-1 -6l-132 -167h-105z" />
    <glyph glyph-name="Ocircumflex" unicode="&#xd4;" 
d="M11 0zM323 49q-23 -35 -60 -48.5t-101 -13.5q-38 0 -66.5 5t-47.5 19t-28 39t-9 66q0 17 2 41t7 58.5t12.5 82t19.5 113.5q13 77 24 126.5t20.5 81.5t19.5 51.5t22 37.5q23 34 60 48t102 14q39 0 67 -5t46.5 -19.5t27.5 -40t9 -65.5q0 -17 -2 -40.5t-7 -58.5t-13 -84
t-20 -117q-13 -75 -23.5 -123t-20 -79.5t-19.5 -51.5t-22 -37zM230 174q3 7 6.5 17.5t8 31t11 53.5t15.5 86q11 63 18 104t10.5 65.5t4.5 37t1 20.5q0 15 -7.5 20.5t-24.5 5.5t-25.5 -4.5t-12.5 -14.5q-4 -7 -7.5 -18t-9 -33.5t-12.5 -60.5t-18 -101q-9 -50 -14.5 -83.5
t-9 -56t-4.5 -35.5t-1 -21q0 -16 5.5 -23.5t27.5 -7.5q17 0 25 4t13 14zM352 789l-31 69h-9l-55 -69h-113l1 5l140 168h93l83 -168l-1 -5h-108z" />
    <glyph glyph-name="Otilde" unicode="&#xd5;" 
d="M11 0zM323 49q-23 -35 -60 -48.5t-101 -13.5q-38 0 -66.5 5t-47.5 19t-28 39t-9 66q0 17 2 41t7 58.5t12.5 82t19.5 113.5q13 77 24 126.5t20.5 81.5t19.5 51.5t22 37.5q23 34 60 48t102 14q39 0 67 -5t46.5 -19.5t27.5 -40t9 -65.5q0 -17 -2 -40.5t-7 -58.5t-13 -84
t-20 -117q-13 -75 -23.5 -123t-20 -79.5t-19.5 -51.5t-22 -37zM230 174q3 7 6.5 17.5t8 31t11 53.5t15.5 86q11 63 18 104t10.5 65.5t4.5 37t1 20.5q0 15 -7.5 20.5t-24.5 5.5t-25.5 -4.5t-12.5 -14.5q-4 -7 -7.5 -18t-9 -33.5t-12.5 -60.5t-18 -101q-9 -50 -14.5 -83.5
t-9 -56t-4.5 -35.5t-1 -21q0 -16 5.5 -23.5t27.5 -7.5q17 0 25 4t13 14zM495 856q-26 -32 -53 -46.5t-59 -14.5q-23 0 -43 7t-39 15.5t-37.5 15.5t-37.5 7q-28 0 -51 -13.5t-49 -44.5h-4l19 110q18 23 42.5 40.5t57.5 17.5q27 0 49 -7t41.5 -15.5t37.5 -15.5t36 -7
q28 0 52.5 12.5t50.5 44.5h5z" />
    <glyph glyph-name="Odieresis" unicode="&#xd6;" 
d="M11 0zM323 49q-23 -35 -60 -48.5t-101 -13.5q-38 0 -66.5 5t-47.5 19t-28 39t-9 66q0 17 2 41t7 58.5t12.5 82t19.5 113.5q13 77 24 126.5t20.5 81.5t19.5 51.5t22 37.5q23 34 60 48t102 14q39 0 67 -5t46.5 -19.5t27.5 -40t9 -65.5q0 -17 -2 -40.5t-7 -58.5t-13 -84
t-20 -117q-13 -75 -23.5 -123t-20 -79.5t-19.5 -51.5t-22 -37zM230 174q3 7 6.5 17.5t8 31t11 53.5t15.5 86q11 63 18 104t10.5 65.5t4.5 37t1 20.5q0 15 -7.5 20.5t-24.5 5.5t-25.5 -4.5t-12.5 -14.5q-4 -7 -7.5 -18t-9 -33.5t-12.5 -60.5t-18 -101q-9 -50 -14.5 -83.5
t-9 -56t-4.5 -35.5t-1 -21q0 -16 5.5 -23.5t27.5 -7.5q17 0 25 4t13 14zM338 810l21 123h121l-21 -123h-121zM153 810l21 123h121l-21 -123h-121z" />
    <glyph glyph-name="multiply" unicode="&#xd7;" 
d="M299 181l-84 115l-125 -115l-60 82l126 117l-84 114l89 84l83 -116l124 116l61 -84l-124 -114l84 -117z" />
    <glyph glyph-name="Oslash" unicode="&#xd8;" 
d="M-35 -130l69 153q-25 28 -25 93q0 17 2 41t7 58.5t12.5 82t19.5 113.5q13 77 24 126.5t20.5 81.5t19.5 51.5t22 37.5q23 34 60 48t102 14q41 0 71 -6l40 89h66l-53 -117q13 -15 19.5 -38t6.5 -58q0 -17 -2 -40.5t-7 -58.5t-13 -84t-20 -117q-13 -75 -23.5 -123t-20 -79.5
t-19.5 -51.5t-22 -37q-23 -35 -60 -48.5t-101 -13.5q-47 0 -75 7l-56 -124h-64zM173 382q-7 -30 -12 -54t-9 -44h6l145 334q-11 3 -26 3q-23 0 -34 -5t-17 -15q-5 -8 -9 -18.5t-10 -34t-14 -63t-20 -103.5zM233 168q4 7 8.5 18t9.5 31.5t12 55t18 88.5l23 115h-5l-142 -324
q5 -2 11.5 -2h15.5q21 0 32 4t17 14z" />
    <glyph glyph-name="Ugrave" unicode="&#xd9;" horiz-adv-x="460" 
d="M11 0zM344 757h141l-92 -524q-9 -47 -17.5 -78t-16 -52t-16 -34.5t-17.5 -26.5q-11 -16 -25.5 -26.5t-33.5 -17t-44 -9t-57 -2.5q-39 0 -68 4.5t-48.5 18t-29 38t-9.5 65.5q0 20 3 49t11 71l92 524h145l-92 -524q-3 -18 -5 -31t-2 -21q0 -17 8 -21t27 -4q12 0 20.5 2
t14 10t10 23.5t9.5 41.5zM264 789l-77 167l1 6h123l56 -168l-1 -5h-102z" />
    <glyph glyph-name="Uacute" unicode="&#xda;" horiz-adv-x="460" 
d="M11 0zM344 757h141l-92 -524q-9 -47 -17.5 -78t-16 -52t-16 -34.5t-17.5 -26.5q-11 -16 -25.5 -26.5t-33.5 -17t-44 -9t-57 -2.5q-39 0 -68 4.5t-48.5 18t-29 38t-9.5 65.5q0 20 3 49t11 71l92 524h145l-92 -524q-3 -18 -5 -31t-2 -21q0 -17 8 -21t27 -4q12 0 20.5 2
t14 10t10 23.5t9.5 41.5zM247 789l1 5l110 168h127l-1 -6l-132 -167h-105z" />
    <glyph glyph-name="Ucircumflex" unicode="&#xdb;" horiz-adv-x="460" 
d="M11 0zM344 757h141l-92 -524q-9 -47 -17.5 -78t-16 -52t-16 -34.5t-17.5 -26.5q-11 -16 -25.5 -26.5t-33.5 -17t-44 -9t-57 -2.5q-39 0 -68 4.5t-48.5 18t-29 38t-9.5 65.5q0 20 3 49t11 71l92 524h145l-92 -524q-3 -18 -5 -31t-2 -21q0 -17 8 -21t27 -4q12 0 20.5 2
t14 10t10 23.5t9.5 41.5zM357 789l-31 69h-9l-55 -69h-113l1 5l140 168h93l83 -168l-1 -5h-108z" />
    <glyph glyph-name="Udieresis" unicode="&#xdc;" horiz-adv-x="460" 
d="M11 0zM344 757h141l-92 -524q-9 -47 -17.5 -78t-16 -52t-16 -34.5t-17.5 -26.5q-11 -16 -25.5 -26.5t-33.5 -17t-44 -9t-57 -2.5q-39 0 -68 4.5t-48.5 18t-29 38t-9.5 65.5q0 20 3 49t11 71l92 524h145l-92 -524q-3 -18 -5 -31t-2 -21q0 -17 8 -21t27 -4q12 0 20.5 2
t14 10t10 23.5t9.5 41.5zM342 810l21 123h121l-21 -123h-121zM157 810l21 123h121l-21 -123h-121z" />
    <glyph glyph-name="Yacute" unicode="&#xdd;" horiz-adv-x="446" 
d="M87 0zM87 0l50 287l-42 465l1 5h146l4 -245h9l95 245h141l-1 -5l-204 -481l-47 -271h-152zM241 789l1 5l110 168h127l-1 -6l-132 -167h-105z" />
    <glyph glyph-name="Thorn" unicode="&#xde;" horiz-adv-x="450" 
d="M-8 0l133 757h141l-20 -116h63q45 0 72.5 -13.5t39.5 -44t10.5 -80.5t-14.5 -123q-13 -74 -29.5 -125.5t-39.5 -83.5t-55.5 -46t-77.5 -14h-63l-19 -111h-141zM218 267q19 0 31.5 24.5t24.5 92.5q11 60 5 79.5t-27 19.5h-34l-38 -216h38z" />
    <glyph glyph-name="germandbls" unicode="&#xdf;" horiz-adv-x="633" 
d="M20 0l104 591q7 38 20 74.5t33 59.5q22 26 59.5 36t106.5 10q40 0 67.5 -4t44.5 -15t25 -30.5t8 -51.5q0 -17 -2.5 -35.5t-7.5 -45.5q-4 -22 -6.5 -35t-4 -20.5t-2 -10.5t-0.5 -6q0 -8 4 -12.5t14 -11.5q20 -14 41.5 -27t38.5 -27q25 -22 25 -62q0 -13 -2.5 -34.5t-6 -46
t-8.5 -51t-9 -48.5q-14 -71 -28 -108t-30 -56q-22 -26 -58.5 -36t-93.5 -10q-36 0 -60.5 4.5t-39.5 17t-22 34.5t-7 57q0 27 4 56t14 58h115q-3 -15 -5.5 -33t-2.5 -30q0 -15 6.5 -19.5t26.5 -4.5q14 0 21.5 2t11.5 9q7 11 11.5 30.5t9.5 42.5q10 53 12.5 74t2.5 25
q0 8 -4.5 16t-18.5 19q-7 6 -17.5 13t-21.5 15t-21.5 17.5t-18.5 18.5q-9 11 -13 24t-4 38q0 19 2.5 37t9.5 53q3 16 5.5 31t2.5 25q0 14 -7.5 19.5t-27.5 5.5q-14 0 -23 -2.5t-14 -9.5t-8.5 -18.5t-6.5 -29.5l-102 -582h-142z" />
    <glyph glyph-name="agrave" unicode="&#xe0;" horiz-adv-x="444" 
d="M0 0zM205 0l18 175h-68l-41 -175h-143l206 757h238l-65 -757h-145zM269 599h-10l-71 -271h56zM255 789l-77 167l1 6h123l56 -168l-1 -5h-102z" />
    <glyph glyph-name="aacute" unicode="&#xe1;" horiz-adv-x="444" 
d="M0 0zM205 0l18 175h-68l-41 -175h-143l206 757h238l-65 -757h-145zM269 599h-10l-71 -271h56zM237 789l1 5l110 168h127l-1 -6l-132 -167h-105z" />
    <glyph glyph-name="acircumflex" unicode="&#xe2;" horiz-adv-x="444" 
d="M0 0zM205 0l18 175h-68l-41 -175h-143l206 757h238l-65 -757h-145zM269 599h-10l-71 -271h56zM347 789l-31 69h-9l-55 -69h-113l1 5l140 168h93l83 -168l-1 -5h-108z" />
    <glyph glyph-name="atilde" unicode="&#xe3;" horiz-adv-x="444" 
d="M0 0zM205 0l18 175h-68l-41 -175h-143l206 757h238l-65 -757h-145zM269 599h-10l-71 -271h56zM491 856q-26 -32 -53 -46.5t-59 -14.5q-23 0 -43 7t-39 15.5t-37.5 15.5t-37.5 7q-28 0 -51 -13.5t-49 -44.5h-4l19 110q18 23 42.5 40.5t57.5 17.5q27 0 49 -7t41.5 -15.5
t37.5 -15.5t36 -7q28 0 52.5 12.5t50.5 44.5h5z" />
    <glyph glyph-name="adieresis" unicode="&#xe4;" horiz-adv-x="444" 
d="M0 0zM205 0l18 175h-68l-41 -175h-143l206 757h238l-65 -757h-145zM269 599h-10l-71 -271h56zM334 810l21 123h121l-21 -123h-121zM149 810l21 123h121l-21 -123h-121z" />
    <glyph glyph-name="aring" unicode="&#xe5;" horiz-adv-x="444" 
d="M0 0zM205 0l18 175h-68l-41 -175h-143l206 757h238l-65 -757h-145zM269 599h-10l-71 -271h56zM375 790q-10 -9 -29 -12t-51 -3q-47 0 -65.5 7t-18.5 35q0 8 2 27t9 50q5 25 10 35t16 18q10 8 28.5 11.5t51.5 3.5q46 0 65 -7t19 -35q0 -8 -1.5 -23t-7.5 -48
q-5 -26 -11 -38.5t-17 -20.5zM334 839q3 2 5.5 7t5.5 23q3 16 3 23q0 8 -4.5 11t-24.5 3q-14 0 -20 -1t-10 -3t-5.5 -7t-4.5 -20q-2 -14 -3 -20t-1 -9q0 -8 6 -9.5t25 -1.5q14 0 19 1t9 3z" />
    <glyph glyph-name="ae" unicode="&#xe6;" horiz-adv-x="606" 
d="M0 0zM193 0l30 175h-69l-41 -175h-142l206 757h452l-28 -160h-161l-24 -133h158l-27 -153h-158l-25 -143h160l-29 -168h-302zM298 599h-40l-71 -271h63z" />
    <glyph glyph-name="ccedilla" unicode="&#xe7;" horiz-adv-x="451" 
d="M8 0zM392 290q-4 -34 -9.5 -68.5t-16.5 -76.5q-11 -41 -26 -70.5t-38.5 -49t-56.5 -29t-80 -9.5q-40 0 -69 5t-48 18.5t-28 36.5t-9 59q0 21 2 48t7 64.5t13.5 88.5t20.5 122q13 71 23 117.5t19.5 77t19.5 50t22 36.5q23 34 59.5 47t101.5 13q43 0 72 -6.5t46.5 -21
t25 -37t7.5 -53.5q0 -42 -7.5 -84t-18.5 -88h-132q5 30 8 50t4.5 33t2 20.5t0.5 12.5q-1 19 -35 19q-17 0 -25.5 -4.5t-12.5 -14.5q-4 -8 -7.5 -17.5t-7.5 -27.5t-9.5 -47t-13.5 -75q-12 -66 -19.5 -108.5t-11.5 -68.5t-5.5 -40t-1.5 -23q0 -18 5.5 -25.5t31.5 -7.5
q27 0 36 17q5 10 9 21t7.5 24.5t7 31t7.5 40.5h130zM8 -238v5l82 192h124l-1 -6l-103 -191h-102z" />
    <glyph glyph-name="egrave" unicode="&#xe8;" horiz-adv-x="402" 
d="M0 0zM-9 0l133 757h301l-28 -160h-160l-24 -133h157l-27 -153h-157l-25 -143h159l-29 -168h-300zM239 789l-77 167l1 6h123l56 -168l-1 -5h-102z" />
    <glyph glyph-name="eacute" unicode="&#xe9;" horiz-adv-x="402" 
d="M0 0zM-9 0l133 757h301l-28 -160h-160l-24 -133h157l-27 -153h-157l-25 -143h159l-29 -168h-300zM223 789l1 5l110 168h127l-1 -6l-132 -167h-105z" />
    <glyph glyph-name="ecircumflex" unicode="&#xea;" horiz-adv-x="402" 
d="M0 0zM-9 0l133 757h301l-28 -160h-160l-24 -133h157l-27 -153h-157l-25 -143h159l-29 -168h-300zM332 789l-31 69h-9l-55 -69h-113l1 5l140 168h93l83 -168l-1 -5h-108z" />
    <glyph glyph-name="edieresis" unicode="&#xeb;" horiz-adv-x="402" 
d="M0 0zM-9 0l133 757h301l-28 -160h-160l-24 -133h157l-27 -153h-157l-25 -143h159l-29 -168h-300zM317 810l21 123h121l-21 -123h-121zM132 810l21 123h121l-21 -123h-121z" />
    <glyph glyph-name="igrave" unicode="&#xec;" horiz-adv-x="254" 
d="M0 0zM-8 0l133 757h145l-133 -757h-145zM161 789l-77 167l1 6h123l56 -168l-1 -5h-102z" />
    <glyph glyph-name="iacute" unicode="&#xed;" horiz-adv-x="254" 
d="M0 0zM-8 0l133 757h145l-133 -757h-145zM143 789l1 5l110 168h127l-1 -6l-132 -167h-105z" />
    <glyph glyph-name="icircumflex" unicode="&#xee;" horiz-adv-x="254" 
d="M0 0zM-8 0l133 757h145l-133 -757h-145zM255 789l-31 69h-9l-55 -69h-113l1 5l140 168h93l83 -168l-1 -5h-108z" />
    <glyph glyph-name="idieresis" unicode="&#xef;" horiz-adv-x="254" 
d="M0 0zM-8 0l133 757h145l-133 -757h-145zM241 810l21 123h121l-21 -123h-121zM56 810l21 123h121l-21 -123h-121z" />
    <glyph glyph-name="eth" unicode="&#xf0;" horiz-adv-x="468" 
d="M0 0zM-8 0l54 311h-31l27 153h31l52 293h190q34 0 61.5 -4.5t47.5 -18t31 -38.5t11 -65q0 -33 -8 -91t-26 -161q-15 -86 -26.5 -140.5t-21 -88.5t-19.5 -54t-22 -36q-23 -34 -59.5 -47t-101.5 -13h-190zM210 167q17 0 25 4t13 14q3 7 6.5 16.5t8 30.5t11.5 56.5t17 93.5
q8 47 13.5 79.5t8.5 54t4.5 34t1.5 20.5q0 15 -7.5 21.5t-25.5 6.5h-55l-24 -134h62l-27 -153h-62l-25 -144h55z" />
    <glyph glyph-name="ntilde" unicode="&#xf1;" horiz-adv-x="471" 
d="M0 0zM286 0l-89 417h-6l-72 -417h-129l133 757h139l48 -275h6l47 275h129l-133 -757h-73zM504 856q-26 -32 -53 -46.5t-59 -14.5q-23 0 -43 7t-39 15.5t-37.5 15.5t-37.5 7q-28 0 -51 -13.5t-49 -44.5h-4l19 110q18 23 42.5 40.5t57.5 17.5q27 0 49 -7t41.5 -15.5
t37.5 -15.5t36 -7q28 0 52.5 12.5t50.5 44.5h5z" />
    <glyph glyph-name="ograve" unicode="&#xf2;" 
d="M11 0zM323 49q-23 -35 -60 -48.5t-101 -13.5q-38 0 -66.5 5t-47.5 19t-28 39t-9 66q0 17 2 41t7 58.5t12.5 82t19.5 113.5q13 77 24 126.5t20.5 81.5t19.5 51.5t22 37.5q23 34 60 48t102 14q39 0 67 -5t46.5 -19.5t27.5 -40t9 -65.5q0 -17 -2 -40.5t-7 -58.5t-13 -84
t-20 -117q-13 -75 -23.5 -123t-20 -79.5t-19.5 -51.5t-22 -37zM230 174q3 7 6.5 17.5t8 31t11 53.5t15.5 86q11 63 18 104t10.5 65.5t4.5 37t1 20.5q0 15 -7.5 20.5t-24.5 5.5t-25.5 -4.5t-12.5 -14.5q-4 -7 -7.5 -18t-9 -33.5t-12.5 -60.5t-18 -101q-9 -50 -14.5 -83.5
t-9 -56t-4.5 -35.5t-1 -21q0 -16 5.5 -23.5t27.5 -7.5q17 0 25 4t13 14zM258 789l-77 167l1 6h123l56 -168l-1 -5h-102z" />
    <glyph glyph-name="oacute" unicode="&#xf3;" 
d="M11 0zM323 49q-23 -35 -60 -48.5t-101 -13.5q-38 0 -66.5 5t-47.5 19t-28 39t-9 66q0 17 2 41t7 58.5t12.5 82t19.5 113.5q13 77 24 126.5t20.5 81.5t19.5 51.5t22 37.5q23 34 60 48t102 14q39 0 67 -5t46.5 -19.5t27.5 -40t9 -65.5q0 -17 -2 -40.5t-7 -58.5t-13 -84
t-20 -117q-13 -75 -23.5 -123t-20 -79.5t-19.5 -51.5t-22 -37zM230 174q3 7 6.5 17.5t8 31t11 53.5t15.5 86q11 63 18 104t10.5 65.5t4.5 37t1 20.5q0 15 -7.5 20.5t-24.5 5.5t-25.5 -4.5t-12.5 -14.5q-4 -7 -7.5 -18t-9 -33.5t-12.5 -60.5t-18 -101q-9 -50 -14.5 -83.5
t-9 -56t-4.5 -35.5t-1 -21q0 -16 5.5 -23.5t27.5 -7.5q17 0 25 4t13 14zM242 789l1 5l110 168h127l-1 -6l-132 -167h-105z" />
    <glyph glyph-name="ocircumflex" unicode="&#xf4;" 
d="M11 0zM323 49q-23 -35 -60 -48.5t-101 -13.5q-38 0 -66.5 5t-47.5 19t-28 39t-9 66q0 17 2 41t7 58.5t12.5 82t19.5 113.5q13 77 24 126.5t20.5 81.5t19.5 51.5t22 37.5q23 34 60 48t102 14q39 0 67 -5t46.5 -19.5t27.5 -40t9 -65.5q0 -17 -2 -40.5t-7 -58.5t-13 -84
t-20 -117q-13 -75 -23.5 -123t-20 -79.5t-19.5 -51.5t-22 -37zM230 174q3 7 6.5 17.5t8 31t11 53.5t15.5 86q11 63 18 104t10.5 65.5t4.5 37t1 20.5q0 15 -7.5 20.5t-24.5 5.5t-25.5 -4.5t-12.5 -14.5q-4 -7 -7.5 -18t-9 -33.5t-12.5 -60.5t-18 -101q-9 -50 -14.5 -83.5
t-9 -56t-4.5 -35.5t-1 -21q0 -16 5.5 -23.5t27.5 -7.5q17 0 25 4t13 14zM352 789l-31 69h-9l-55 -69h-113l1 5l140 168h93l83 -168l-1 -5h-108z" />
    <glyph glyph-name="otilde" unicode="&#xf5;" 
d="M11 0zM323 49q-23 -35 -60 -48.5t-101 -13.5q-38 0 -66.5 5t-47.5 19t-28 39t-9 66q0 17 2 41t7 58.5t12.5 82t19.5 113.5q13 77 24 126.5t20.5 81.5t19.5 51.5t22 37.5q23 34 60 48t102 14q39 0 67 -5t46.5 -19.5t27.5 -40t9 -65.5q0 -17 -2 -40.5t-7 -58.5t-13 -84
t-20 -117q-13 -75 -23.5 -123t-20 -79.5t-19.5 -51.5t-22 -37zM230 174q3 7 6.5 17.5t8 31t11 53.5t15.5 86q11 63 18 104t10.5 65.5t4.5 37t1 20.5q0 15 -7.5 20.5t-24.5 5.5t-25.5 -4.5t-12.5 -14.5q-4 -7 -7.5 -18t-9 -33.5t-12.5 -60.5t-18 -101q-9 -50 -14.5 -83.5
t-9 -56t-4.5 -35.5t-1 -21q0 -16 5.5 -23.5t27.5 -7.5q17 0 25 4t13 14zM495 856q-26 -32 -53 -46.5t-59 -14.5q-23 0 -43 7t-39 15.5t-37.5 15.5t-37.5 7q-28 0 -51 -13.5t-49 -44.5h-4l19 110q18 23 42.5 40.5t57.5 17.5q27 0 49 -7t41.5 -15.5t37.5 -15.5t36 -7
q28 0 52.5 12.5t50.5 44.5h5z" />
    <glyph glyph-name="odieresis" unicode="&#xf6;" 
d="M11 0zM323 49q-23 -35 -60 -48.5t-101 -13.5q-38 0 -66.5 5t-47.5 19t-28 39t-9 66q0 17 2 41t7 58.5t12.5 82t19.5 113.5q13 77 24 126.5t20.5 81.5t19.5 51.5t22 37.5q23 34 60 48t102 14q39 0 67 -5t46.5 -19.5t27.5 -40t9 -65.5q0 -17 -2 -40.5t-7 -58.5t-13 -84
t-20 -117q-13 -75 -23.5 -123t-20 -79.5t-19.5 -51.5t-22 -37zM230 174q3 7 6.5 17.5t8 31t11 53.5t15.5 86q11 63 18 104t10.5 65.5t4.5 37t1 20.5q0 15 -7.5 20.5t-24.5 5.5t-25.5 -4.5t-12.5 -14.5q-4 -7 -7.5 -18t-9 -33.5t-12.5 -60.5t-18 -101q-9 -50 -14.5 -83.5
t-9 -56t-4.5 -35.5t-1 -21q0 -16 5.5 -23.5t27.5 -7.5q17 0 25 4t13 14zM338 810l21 123h121l-21 -123h-121zM153 810l21 123h121l-21 -123h-121z" />
    <glyph glyph-name="divide" unicode="&#xf7;" 
d="M29 70zM29 321l21 117h381l-21 -117h-381zM188 538l26 151h141l-26 -151h-141zM106 70l26 151h141l-26 -151h-141z" />
    <glyph glyph-name="oslash" unicode="&#xf8;" 
d="M0 0zM-35 -130l69 153q-25 28 -25 93q0 17 2 41t7 58.5t12.5 82t19.5 113.5q13 77 24 126.5t20.5 81.5t19.5 51.5t22 37.5q23 34 60 48t102 14q41 0 71 -6l40 89h66l-53 -117q13 -15 19.5 -38t6.5 -58q0 -17 -2 -40.5t-7 -58.5t-13 -84t-20 -117q-13 -75 -23.5 -123
t-20 -79.5t-19.5 -51.5t-22 -37q-23 -35 -60 -48.5t-101 -13.5q-47 0 -75 7l-56 -124h-64zM173 382q-7 -30 -12 -54t-9 -44h6l145 334q-11 3 -26 3q-23 0 -34 -5t-17 -15q-5 -8 -9 -18.5t-10 -34t-14 -63t-20 -103.5zM233 168q4 7 8.5 18t9.5 31.5t12 55t18 88.5l23 115h-5
l-142 -324q5 -2 11.5 -2h15.5q21 0 32 4t17 14z" />
    <glyph glyph-name="ugrave" unicode="&#xf9;" horiz-adv-x="460" 
d="M11 0zM344 757h141l-92 -524q-9 -47 -17.5 -78t-16 -52t-16 -34.5t-17.5 -26.5q-11 -16 -25.5 -26.5t-33.5 -17t-44 -9t-57 -2.5q-39 0 -68 4.5t-48.5 18t-29 38t-9.5 65.5q0 20 3 49t11 71l92 524h145l-92 -524q-3 -18 -5 -31t-2 -21q0 -17 8 -21t27 -4q12 0 20.5 2
t14 10t10 23.5t9.5 41.5zM264 789l-77 167l1 6h123l56 -168l-1 -5h-102z" />
    <glyph glyph-name="uacute" unicode="&#xfa;" horiz-adv-x="460" 
d="M11 0zM344 757h141l-92 -524q-9 -47 -17.5 -78t-16 -52t-16 -34.5t-17.5 -26.5q-11 -16 -25.5 -26.5t-33.5 -17t-44 -9t-57 -2.5q-39 0 -68 4.5t-48.5 18t-29 38t-9.5 65.5q0 20 3 49t11 71l92 524h145l-92 -524q-3 -18 -5 -31t-2 -21q0 -17 8 -21t27 -4q12 0 20.5 2
t14 10t10 23.5t9.5 41.5zM247 789l1 5l110 168h127l-1 -6l-132 -167h-105z" />
    <glyph glyph-name="ucircumflex" unicode="&#xfb;" horiz-adv-x="460" 
d="M11 0zM344 757h141l-92 -524q-9 -47 -17.5 -78t-16 -52t-16 -34.5t-17.5 -26.5q-11 -16 -25.5 -26.5t-33.5 -17t-44 -9t-57 -2.5q-39 0 -68 4.5t-48.5 18t-29 38t-9.5 65.5q0 20 3 49t11 71l92 524h145l-92 -524q-3 -18 -5 -31t-2 -21q0 -17 8 -21t27 -4q12 0 20.5 2
t14 10t10 23.5t9.5 41.5zM357 789l-31 69h-9l-55 -69h-113l1 5l140 168h93l83 -168l-1 -5h-108z" />
    <glyph glyph-name="udieresis" unicode="&#xfc;" horiz-adv-x="460" 
d="M11 0zM344 757h141l-92 -524q-9 -47 -17.5 -78t-16 -52t-16 -34.5t-17.5 -26.5q-11 -16 -25.5 -26.5t-33.5 -17t-44 -9t-57 -2.5q-39 0 -68 4.5t-48.5 18t-29 38t-9.5 65.5q0 20 3 49t11 71l92 524h145l-92 -524q-3 -18 -5 -31t-2 -21q0 -17 8 -21t27 -4q12 0 20.5 2
t14 10t10 23.5t9.5 41.5zM342 810l21 123h121l-21 -123h-121zM157 810l21 123h121l-21 -123h-121z" />
    <glyph glyph-name="yacute" unicode="&#xfd;" horiz-adv-x="446" 
d="M87 0zM87 0l50 287l-42 465l1 5h146l4 -245h9l95 245h141l-1 -5l-204 -481l-47 -271h-152zM241 789l1 5l110 168h127l-1 -6l-132 -167h-105z" />
    <glyph glyph-name="thorn" unicode="&#xfe;" horiz-adv-x="450" 
d="M0 0zM-8 0l133 757h141l-20 -116h63q45 0 72.5 -13.5t39.5 -44t10.5 -80.5t-14.5 -123q-13 -74 -29.5 -125.5t-39.5 -83.5t-55.5 -46t-77.5 -14h-63l-19 -111h-141zM218 267q19 0 31.5 24.5t24.5 92.5q11 60 5 79.5t-27 19.5h-34l-38 -216h38z" />
    <glyph glyph-name="ydieresis" unicode="&#xff;" horiz-adv-x="446" 
d="M87 0zM87 0l50 287l-42 465l1 5h146l4 -245h9l95 245h141l-1 -5l-204 -481l-47 -271h-152zM336 810l21 123h121l-21 -123h-121zM151 810l21 123h121l-21 -123h-121z" />
    <glyph glyph-name="Amacron" unicode="&#x100;" horiz-adv-x="444" 
d="M0 0zM205 0l18 175h-68l-41 -175h-143l206 757h238l-65 -757h-145zM269 599h-10l-71 -271h56zM122 823l19 106h360l-19 -106h-360z" />
    <glyph glyph-name="amacron" unicode="&#x101;" horiz-adv-x="444" 
d="M0 0zM205 0l18 175h-68l-41 -175h-143l206 757h238l-65 -757h-145zM269 599h-10l-71 -271h56zM122 823l19 106h360l-19 -106h-360z" />
    <glyph glyph-name="Abreve" unicode="&#x102;" horiz-adv-x="444" 
d="M0 0zM205 0l18 175h-68l-41 -175h-143l206 757h238l-65 -757h-145zM269 599h-10l-71 -271h56zM477 962q-7 -37 -12.5 -61t-11.5 -39.5t-12.5 -25t-14.5 -16.5q-17 -19 -46 -25t-82 -6q-35 0 -59.5 2.5t-39.5 10.5t-22 23.5t-7 41.5q0 15 2.5 38t7.5 57h92q-7 -38 -7 -53
q0 -17 10 -22t39 -5q23 0 33 1.5t14 6.5l6 8t5.5 11.5t5.5 20t7 32.5h92z" />
    <glyph glyph-name="abreve" unicode="&#x103;" horiz-adv-x="444" 
d="M0 0zM205 0l18 175h-68l-41 -175h-143l206 757h238l-65 -757h-145zM269 599h-10l-71 -271h56zM477 962q-7 -37 -12.5 -61t-11.5 -39.5t-12.5 -25t-14.5 -16.5q-17 -19 -46 -25t-82 -6q-35 0 -59.5 2.5t-39.5 10.5t-22 23.5t-7 41.5q0 15 2.5 38t7.5 57h92q-7 -38 -7 -53
q0 -17 10 -22t39 -5q23 0 33 1.5t14 6.5l6 8t5.5 11.5t5.5 20t7 32.5h92z" />
    <glyph glyph-name="Aogonek" unicode="&#x104;" horiz-adv-x="444" 
d="M314 -200q-9 -11 -39 -24.5t-79 -13.5q-120 0 -102 106q6 32 29 62.5t80 50.5l20 194h-68l-41 -175h-142l206 757h237l-64 -757q-18 -6 -35.5 -13t-32 -15t-24.5 -18.5t-13 -24.5q-5 -24 3.5 -35t33.5 -11q14 0 24.5 3.5t18.5 6.5h5zM268 599h-9l-71 -271h56z" />
    <glyph glyph-name="aogonek" unicode="&#x105;" horiz-adv-x="444" 
d="M0 0zM314 -200q-9 -11 -39 -24.5t-79 -13.5q-120 0 -102 106q6 32 29 62.5t80 50.5l20 194h-68l-41 -175h-142l206 757h237l-64 -757q-18 -6 -35.5 -13t-32 -15t-24.5 -18.5t-13 -24.5q-5 -24 3.5 -35t33.5 -11q14 0 24.5 3.5t18.5 6.5h5zM268 599h-9l-71 -271h56z" />
    <glyph glyph-name="Cacute" unicode="&#x106;" horiz-adv-x="451" 
d="M11 0zM392 290q-4 -34 -9.5 -68.5t-16.5 -76.5q-11 -41 -26 -70.5t-38.5 -49t-56.5 -29t-80 -9.5q-40 0 -69 5t-48 18.5t-28 36.5t-9 59q0 21 2 48t7 64.5t13.5 88.5t20.5 122q13 71 23 117.5t19.5 77t19.5 50t22 36.5q23 34 59.5 47t101.5 13q43 0 72 -6.5t46.5 -21
t25 -37t7.5 -53.5q0 -42 -7.5 -84t-18.5 -88h-132q5 30 8 50t4.5 33t2 20.5t0.5 12.5q-1 19 -35 19q-17 0 -25.5 -4.5t-12.5 -14.5q-4 -8 -7.5 -17.5t-7.5 -27.5t-9.5 -47t-13.5 -75q-12 -66 -19.5 -108.5t-11.5 -68.5t-5.5 -40t-1.5 -23q0 -18 5.5 -25.5t31.5 -7.5
q27 0 36 17q5 10 9 21t7.5 24.5t7 31t7.5 40.5h130zM243 789l1 5l110 168h127l-1 -6l-132 -167h-105z" />
    <glyph glyph-name="cacute" unicode="&#x107;" horiz-adv-x="451" 
d="M11 0zM392 290q-4 -34 -9.5 -68.5t-16.5 -76.5q-11 -41 -26 -70.5t-38.5 -49t-56.5 -29t-80 -9.5q-40 0 -69 5t-48 18.5t-28 36.5t-9 59q0 21 2 48t7 64.5t13.5 88.5t20.5 122q13 71 23 117.5t19.5 77t19.5 50t22 36.5q23 34 59.5 47t101.5 13q43 0 72 -6.5t46.5 -21
t25 -37t7.5 -53.5q0 -42 -7.5 -84t-18.5 -88h-132q5 30 8 50t4.5 33t2 20.5t0.5 12.5q-1 19 -35 19q-17 0 -25.5 -4.5t-12.5 -14.5q-4 -8 -7.5 -17.5t-7.5 -27.5t-9.5 -47t-13.5 -75q-12 -66 -19.5 -108.5t-11.5 -68.5t-5.5 -40t-1.5 -23q0 -18 5.5 -25.5t31.5 -7.5
q27 0 36 17q5 10 9 21t7.5 24.5t7 31t7.5 40.5h130zM243 789l1 5l110 168h127l-1 -6l-132 -167h-105z" />
    <glyph glyph-name="Cdotaccent" unicode="&#x10a;" horiz-adv-x="451" 
d="M11 0zM392 290q-4 -34 -9.5 -68.5t-16.5 -76.5q-11 -41 -26 -70.5t-38.5 -49t-56.5 -29t-80 -9.5q-40 0 -69 5t-48 18.5t-28 36.5t-9 59q0 21 2 48t7 64.5t13.5 88.5t20.5 122q13 71 23 117.5t19.5 77t19.5 50t22 36.5q23 34 59.5 47t101.5 13q43 0 72 -6.5t46.5 -21
t25 -37t7.5 -53.5q0 -42 -7.5 -84t-18.5 -88h-132q5 30 8 50t4.5 33t2 20.5t0.5 12.5q-1 19 -35 19q-17 0 -25.5 -4.5t-12.5 -14.5q-4 -8 -7.5 -17.5t-7.5 -27.5t-9.5 -47t-13.5 -75q-12 -66 -19.5 -108.5t-11.5 -68.5t-5.5 -40t-1.5 -23q0 -18 5.5 -25.5t31.5 -7.5
q27 0 36 17q5 10 9 21t7.5 24.5t7 31t7.5 40.5h130zM246 810l21 123h121l-21 -123h-121z" />
    <glyph glyph-name="cdotaccent" unicode="&#x10b;" horiz-adv-x="451" 
d="M11 0zM392 290q-4 -34 -9.5 -68.5t-16.5 -76.5q-11 -41 -26 -70.5t-38.5 -49t-56.5 -29t-80 -9.5q-40 0 -69 5t-48 18.5t-28 36.5t-9 59q0 21 2 48t7 64.5t13.5 88.5t20.5 122q13 71 23 117.5t19.5 77t19.5 50t22 36.5q23 34 59.5 47t101.5 13q43 0 72 -6.5t46.5 -21
t25 -37t7.5 -53.5q0 -42 -7.5 -84t-18.5 -88h-132q5 30 8 50t4.5 33t2 20.5t0.5 12.5q-1 19 -35 19q-17 0 -25.5 -4.5t-12.5 -14.5q-4 -8 -7.5 -17.5t-7.5 -27.5t-9.5 -47t-13.5 -75q-12 -66 -19.5 -108.5t-11.5 -68.5t-5.5 -40t-1.5 -23q0 -18 5.5 -25.5t31.5 -7.5
q27 0 36 17q5 10 9 21t7.5 24.5t7 31t7.5 40.5h130zM246 810l21 123h121l-21 -123h-121z" />
    <glyph glyph-name="Ccaron" unicode="&#x10c;" horiz-adv-x="451" 
d="M11 0zM392 290q-4 -34 -9.5 -68.5t-16.5 -76.5q-11 -41 -26 -70.5t-38.5 -49t-56.5 -29t-80 -9.5q-40 0 -69 5t-48 18.5t-28 36.5t-9 59q0 21 2 48t7 64.5t13.5 88.5t20.5 122q13 71 23 117.5t19.5 77t19.5 50t22 36.5q23 34 59.5 47t101.5 13q43 0 72 -6.5t46.5 -21
t25 -37t7.5 -53.5q0 -42 -7.5 -84t-18.5 -88h-132q5 30 8 50t4.5 33t2 20.5t0.5 12.5q-1 19 -35 19q-17 0 -25.5 -4.5t-12.5 -14.5q-4 -8 -7.5 -17.5t-7.5 -27.5t-9.5 -47t-13.5 -75q-12 -66 -19.5 -108.5t-11.5 -68.5t-5.5 -40t-1.5 -23q0 -18 5.5 -25.5t31.5 -7.5
q27 0 36 17q5 10 9 21t7.5 24.5t7 31t7.5 40.5h130zM256 789l-82 167l1 6h110l31 -69h10l54 69h111l-1 -6l-141 -167h-93z" />
    <glyph glyph-name="ccaron" unicode="&#x10d;" horiz-adv-x="451" 
d="M11 0zM392 290q-4 -34 -9.5 -68.5t-16.5 -76.5q-11 -41 -26 -70.5t-38.5 -49t-56.5 -29t-80 -9.5q-40 0 -69 5t-48 18.5t-28 36.5t-9 59q0 21 2 48t7 64.5t13.5 88.5t20.5 122q13 71 23 117.5t19.5 77t19.5 50t22 36.5q23 34 59.5 47t101.5 13q43 0 72 -6.5t46.5 -21
t25 -37t7.5 -53.5q0 -42 -7.5 -84t-18.5 -88h-132q5 30 8 50t4.5 33t2 20.5t0.5 12.5q-1 19 -35 19q-17 0 -25.5 -4.5t-12.5 -14.5q-4 -8 -7.5 -17.5t-7.5 -27.5t-9.5 -47t-13.5 -75q-12 -66 -19.5 -108.5t-11.5 -68.5t-5.5 -40t-1.5 -23q0 -18 5.5 -25.5t31.5 -7.5
q27 0 36 17q5 10 9 21t7.5 24.5t7 31t7.5 40.5h130zM256 789l-82 167l1 6h110l31 -69h10l54 69h111l-1 -6l-141 -167h-93z" />
    <glyph glyph-name="Dcaron" unicode="&#x10e;" horiz-adv-x="468" 
d="M0 0zM-9 0l133 757h190q65 0 96.5 -13.5t43.5 -46.5q5 -14 7.5 -28.5t2.5 -36.5q0 -17 -2 -40t-7 -58.5t-13.5 -87.5t-21.5 -125q-11 -65 -20.5 -107.5t-18.5 -71t-18 -47.5t-21 -35q-24 -34 -60.5 -47t-100.5 -13h-190zM206 167q17 0 25 4t13 14q3 7 6.5 16t7.5 26.5
t9.5 46.5t13.5 74q10 60 17 99t10.5 64t5 38t1.5 21q0 17 -7.5 22.5t-25.5 5.5h-45l-76 -431h45zM260 789l-82 167l1 6h110l31 -69h10l54 69h111l-1 -6l-141 -167h-93z" />
    <glyph glyph-name="dcaron" unicode="&#x10f;" horiz-adv-x="468" 
d="M0 0zM-9 0l133 757h190q65 0 96.5 -13.5t43.5 -46.5q5 -14 7.5 -28.5t2.5 -36.5q0 -17 -2 -40t-7 -58.5t-13.5 -87.5t-21.5 -125q-11 -65 -20.5 -107.5t-18.5 -71t-18 -47.5t-21 -35q-24 -34 -60.5 -47t-100.5 -13h-190zM206 167q17 0 25 4t13 14q3 7 6.5 16t7.5 26.5
t9.5 46.5t13.5 74q10 60 17 99t10.5 64t5 38t1.5 21q0 17 -7.5 22.5t-25.5 5.5h-45l-76 -431h45zM260 789l-82 167l1 6h110l31 -69h10l54 69h111l-1 -6l-141 -167h-93z" />
    <glyph glyph-name="Dcroat" unicode="&#x110;" horiz-adv-x="468" 
d="M0 0zM-8 0l54 311h-31l27 153h31l52 293h190q34 0 61.5 -4.5t47.5 -18t31 -38.5t11 -65q0 -33 -8 -91t-26 -161q-15 -86 -26.5 -140.5t-21 -88.5t-19.5 -54t-22 -36q-23 -34 -59.5 -47t-101.5 -13h-190zM210 167q17 0 25 4t13 14q3 7 6.5 16.5t8 30.5t11.5 56.5t17 93.5
q8 47 13.5 79.5t8.5 54t4.5 34t1.5 20.5q0 15 -7.5 21.5t-25.5 6.5h-55l-24 -134h62l-27 -153h-62l-25 -144h55z" />
    <glyph glyph-name="dcroat" unicode="&#x111;" horiz-adv-x="468" 
d="M0 0zM-8 0l54 311h-31l27 153h31l52 293h190q34 0 61.5 -4.5t47.5 -18t31 -38.5t11 -65q0 -33 -8 -91t-26 -161q-15 -86 -26.5 -140.5t-21 -88.5t-19.5 -54t-22 -36q-23 -34 -59.5 -47t-101.5 -13h-190zM210 167q17 0 25 4t13 14q3 7 6.5 16.5t8 30.5t11.5 56.5t17 93.5
q8 47 13.5 79.5t8.5 54t4.5 34t1.5 20.5q0 15 -7.5 21.5t-25.5 6.5h-55l-24 -134h62l-27 -153h-62l-25 -144h55z" />
    <glyph glyph-name="Emacron" unicode="&#x112;" horiz-adv-x="402" 
d="M0 0zM-9 0l133 757h301l-28 -160h-160l-24 -133h157l-27 -153h-157l-25 -143h159l-29 -168h-300zM106 823l19 106h360l-19 -106h-360z" />
    <glyph glyph-name="emacron" unicode="&#x113;" horiz-adv-x="402" 
d="M0 0zM-9 0l133 757h301l-28 -160h-160l-24 -133h157l-27 -153h-157l-25 -143h159l-29 -168h-300zM106 823l19 106h360l-19 -106h-360z" />
    <glyph glyph-name="Ebreve" unicode="&#x114;" horiz-adv-x="402" 
d="M0 0zM-9 0l133 757h301l-28 -160h-160l-24 -133h157l-27 -153h-157l-25 -143h159l-29 -168h-300zM460 962q-7 -37 -12.5 -61t-11.5 -39.5t-12.5 -25t-14.5 -16.5q-17 -19 -46 -25t-82 -6q-35 0 -59.5 2.5t-39.5 10.5t-22 23.5t-7 41.5q0 15 2.5 38t7.5 57h92
q-7 -38 -7 -53q0 -17 10 -22t39 -5q23 0 33 1.5t14 6.5l6 8t5.5 11.5t5.5 20t7 32.5h92z" />
    <glyph glyph-name="ebreve" unicode="&#x115;" horiz-adv-x="402" 
d="M0 0zM-9 0l133 757h301l-28 -160h-160l-24 -133h157l-27 -153h-157l-25 -143h159l-29 -168h-300zM460 962q-7 -37 -12.5 -61t-11.5 -39.5t-12.5 -25t-14.5 -16.5q-17 -19 -46 -25t-82 -6q-35 0 -59.5 2.5t-39.5 10.5t-22 23.5t-7 41.5q0 15 2.5 38t7.5 57h92
q-7 -38 -7 -53q0 -17 10 -22t39 -5q23 0 33 1.5t14 6.5l6 8t5.5 11.5t5.5 20t7 32.5h92z" />
    <glyph glyph-name="Edotaccent" unicode="&#x116;" horiz-adv-x="402" 
d="M0 0zM-9 0l133 757h301l-28 -160h-160l-24 -133h157l-27 -153h-157l-25 -143h159l-29 -168h-300zM228 810l21 123h121l-21 -123h-121z" />
    <glyph glyph-name="edotaccent" unicode="&#x117;" horiz-adv-x="402" 
d="M0 0zM-9 0l133 757h301l-28 -160h-160l-24 -133h157l-27 -153h-157l-25 -143h159l-29 -168h-300zM228 810l21 123h121l-21 -123h-121z" />
    <glyph glyph-name="Eogonek" unicode="&#x118;" horiz-adv-x="402" 
d="M253 -200q-8 -11 -38 -24.5t-79 -13.5q-105 0 -105 81q0 23 8 48t30.5 47t62.5 38.5t104 23.5h-246l133 757h301l-28 -160h-160l-24 -133h158l-27 -153h-158l-25 -143h159l-29 -168q-21 -8 -40 -15.5t-34 -17t-23.5 -22.5t-8.5 -32q0 -16 9 -23t30 -7q14 0 24.5 3.5
t18.5 6.5h4z" />
    <glyph glyph-name="eogonek" unicode="&#x119;" horiz-adv-x="402" 
d="M0 0zM253 -200q-8 -11 -38 -24.5t-79 -13.5q-105 0 -105 81q0 23 8 48t30.5 47t62.5 38.5t104 23.5h-246l133 757h301l-28 -160h-160l-24 -133h158l-27 -153h-158l-25 -143h159l-29 -168q-21 -8 -40 -15.5t-34 -17t-23.5 -22.5t-8.5 -32q0 -16 9 -23t30 -7q14 0 24.5 3.5
t18.5 6.5h4z" />
    <glyph glyph-name="Ecaron" unicode="&#x11a;" horiz-adv-x="402" 
d="M0 0zM-9 0l133 757h301l-28 -160h-160l-24 -133h157l-27 -153h-157l-25 -143h159l-29 -168h-300zM234 789l-82 167l1 6h110l31 -69h10l54 69h111l-1 -6l-141 -167h-93z" />
    <glyph glyph-name="ecaron" unicode="&#x11b;" horiz-adv-x="402" 
d="M0 0zM-9 0l133 757h301l-28 -160h-160l-24 -133h157l-27 -153h-157l-25 -143h159l-29 -168h-300zM234 789l-82 167l1 6h110l31 -69h10l54 69h111l-1 -6l-141 -167h-93z" />
    <glyph glyph-name="Gbreve" unicode="&#x11e;" horiz-adv-x="448" 
d="M11 0zM268 293h-66l27 152h193q-3 -20 -9 -58t-15 -91q-11 -62 -20.5 -103t-18.5 -68t-18 -44t-19 -32q-23 -35 -60 -48.5t-101 -13.5q-40 0 -68.5 5t-46.5 19t-26.5 39t-8.5 66q0 18 2 42.5t7.5 65t15.5 99.5t25 146q10 56 19 94.5t18 65t18.5 45.5t21.5 36
q23 34 59.5 47t101.5 13q75 0 109.5 -21.5t39.5 -72.5q1 -6 1.5 -12t0.5 -13q0 -26 -4.5 -59.5t-13.5 -65.5h-131q5 11 7 29.5t2 29.5q0 20 -9.5 25t-29.5 5q-18 0 -27.5 -4.5t-14.5 -14.5q-3 -8 -6.5 -17.5t-7.5 -28t-10 -48t-14 -76.5q-12 -68 -19.5 -111t-11.5 -69
t-5.5 -39t-1.5 -20q0 -17 9 -25t32 -8q19 0 30.5 7t18 20t10.5 32.5t9 43.5zM481 962q-7 -37 -12.5 -61t-11.5 -39.5t-12.5 -25t-14.5 -16.5q-17 -19 -46 -25t-82 -6q-35 0 -59.5 2.5t-39.5 10.5t-22 23.5t-7 41.5q0 15 2.5 38t7.5 57h92q-7 -38 -7 -53q0 -17 10 -22t39 -5
q23 0 33 1.5t14 6.5l6 8t5.5 11.5t5.5 20t7 32.5h92z" />
    <glyph glyph-name="gbreve" unicode="&#x11f;" horiz-adv-x="448" 
d="M11 0zM268 293h-66l27 152h193q-3 -20 -9 -58t-15 -91q-11 -62 -20.5 -103t-18.5 -68t-18 -44t-19 -32q-23 -35 -60 -48.5t-101 -13.5q-40 0 -68.5 5t-46.5 19t-26.5 39t-8.5 66q0 18 2 42.5t7.5 65t15.5 99.5t25 146q10 56 19 94.5t18 65t18.5 45.5t21.5 36
q23 34 59.5 47t101.5 13q75 0 109.5 -21.5t39.5 -72.5q1 -6 1.5 -12t0.5 -13q0 -26 -4.5 -59.5t-13.5 -65.5h-131q5 11 7 29.5t2 29.5q0 20 -9.5 25t-29.5 5q-18 0 -27.5 -4.5t-14.5 -14.5q-3 -8 -6.5 -17.5t-7.5 -28t-10 -48t-14 -76.5q-12 -68 -19.5 -111t-11.5 -69
t-5.5 -39t-1.5 -20q0 -17 9 -25t32 -8q19 0 30.5 7t18 20t10.5 32.5t9 43.5zM481 962q-7 -37 -12.5 -61t-11.5 -39.5t-12.5 -25t-14.5 -16.5q-17 -19 -46 -25t-82 -6q-35 0 -59.5 2.5t-39.5 10.5t-22 23.5t-7 41.5q0 15 2.5 38t7.5 57h92q-7 -38 -7 -53q0 -17 10 -22t39 -5
q23 0 33 1.5t14 6.5l6 8t5.5 11.5t5.5 20t7 32.5h92z" />
    <glyph glyph-name="Gdotaccent" unicode="&#x120;" horiz-adv-x="448" 
d="M11 0zM268 293h-66l27 152h193q-3 -20 -9 -58t-15 -91q-11 -62 -20.5 -103t-18.5 -68t-18 -44t-19 -32q-23 -35 -60 -48.5t-101 -13.5q-40 0 -68.5 5t-46.5 19t-26.5 39t-8.5 66q0 18 2 42.5t7.5 65t15.5 99.5t25 146q10 56 19 94.5t18 65t18.5 45.5t21.5 36
q23 34 59.5 47t101.5 13q75 0 109.5 -21.5t39.5 -72.5q1 -6 1.5 -12t0.5 -13q0 -26 -4.5 -59.5t-13.5 -65.5h-131q5 11 7 29.5t2 29.5q0 20 -9.5 25t-29.5 5q-18 0 -27.5 -4.5t-14.5 -14.5q-3 -8 -6.5 -17.5t-7.5 -28t-10 -48t-14 -76.5q-12 -68 -19.5 -111t-11.5 -69
t-5.5 -39t-1.5 -20q0 -17 9 -25t32 -8q19 0 30.5 7t18 20t10.5 32.5t9 43.5zM246 810l21 123h121l-21 -123h-121z" />
    <glyph glyph-name="gdotaccent" unicode="&#x121;" horiz-adv-x="448" 
d="M11 0zM268 293h-66l27 152h193q-3 -20 -9 -58t-15 -91q-11 -62 -20.5 -103t-18.5 -68t-18 -44t-19 -32q-23 -35 -60 -48.5t-101 -13.5q-40 0 -68.5 5t-46.5 19t-26.5 39t-8.5 66q0 18 2 42.5t7.5 65t15.5 99.5t25 146q10 56 19 94.5t18 65t18.5 45.5t21.5 36
q23 34 59.5 47t101.5 13q75 0 109.5 -21.5t39.5 -72.5q1 -6 1.5 -12t0.5 -13q0 -26 -4.5 -59.5t-13.5 -65.5h-131q5 11 7 29.5t2 29.5q0 20 -9.5 25t-29.5 5q-18 0 -27.5 -4.5t-14.5 -14.5q-3 -8 -6.5 -17.5t-7.5 -28t-10 -48t-14 -76.5q-12 -68 -19.5 -111t-11.5 -69
t-5.5 -39t-1.5 -20q0 -17 9 -25t32 -8q19 0 30.5 7t18 20t10.5 32.5t9 43.5zM246 810l21 123h121l-21 -123h-121z" />
    <glyph glyph-name="Gcommaaccent" unicode="&#x122;" horiz-adv-x="448" 
d="M11 0zM268 293h-66l27 152h193q-3 -20 -9 -58t-15 -91q-11 -62 -20.5 -103t-18.5 -68t-18 -44t-19 -32q-23 -35 -60 -48.5t-101 -13.5q-40 0 -68.5 5t-46.5 19t-26.5 39t-8.5 66q0 18 2 42.5t7.5 65t15.5 99.5t25 146q10 56 19 94.5t18 65t18.5 45.5t21.5 36
q23 34 59.5 47t101.5 13q75 0 109.5 -21.5t39.5 -72.5q1 -6 1.5 -12t0.5 -13q0 -26 -4.5 -59.5t-13.5 -65.5h-131q5 11 7 29.5t2 29.5q0 20 -9.5 25t-29.5 5q-18 0 -27.5 -4.5t-14.5 -14.5q-3 -8 -6.5 -17.5t-7.5 -28t-10 -48t-14 -76.5q-12 -68 -19.5 -111t-11.5 -69
t-5.5 -39t-1.5 -20q0 -17 9 -25t32 -8q19 0 30.5 7t18 20t10.5 32.5t9 43.5zM17 -238v5l82 192h124l-1 -6l-103 -191h-102z" />
    <glyph glyph-name="gcommaaccent" unicode="&#x123;" horiz-adv-x="448" 
d="M11 0zM268 293h-66l27 152h193q-3 -20 -9 -58t-15 -91q-11 -62 -20.5 -103t-18.5 -68t-18 -44t-19 -32q-23 -35 -60 -48.5t-101 -13.5q-40 0 -68.5 5t-46.5 19t-26.5 39t-8.5 66q0 18 2 42.5t7.5 65t15.5 99.5t25 146q10 56 19 94.5t18 65t18.5 45.5t21.5 36
q23 34 59.5 47t101.5 13q75 0 109.5 -21.5t39.5 -72.5q1 -6 1.5 -12t0.5 -13q0 -26 -4.5 -59.5t-13.5 -65.5h-131q5 11 7 29.5t2 29.5q0 20 -9.5 25t-29.5 5q-18 0 -27.5 -4.5t-14.5 -14.5q-3 -8 -6.5 -17.5t-7.5 -28t-10 -48t-14 -76.5q-12 -68 -19.5 -111t-11.5 -69
t-5.5 -39t-1.5 -20q0 -17 9 -25t32 -8q19 0 30.5 7t18 20t10.5 32.5t9 43.5zM17 -238v5l82 192h124l-1 -6l-103 -191h-102z" />
    <glyph glyph-name="Hbar" unicode="&#x126;" horiz-adv-x="480" 
d="M222 0l50 285h-88l-50 -285h-145l133 757h145l-20 -113h88l20 113h145l-133 -757h-145zM316 538h-88l-17 -100h88z" />
    <glyph glyph-name="hbar" unicode="&#x127;" horiz-adv-x="480" 
d="M0 0zM222 0l50 285h-88l-50 -285h-145l133 757h145l-20 -113h88l20 113h145l-133 -757h-145zM316 538h-88l-17 -100h88z" />
    <glyph glyph-name="Imacron" unicode="&#x12a;" horiz-adv-x="254" 
d="M0 0zM-8 0l133 757h145l-133 -757h-145zM31 823l19 106h360l-19 -106h-360z" />
    <glyph glyph-name="imacron" unicode="&#x12b;" horiz-adv-x="254" 
d="M0 0zM-8 0l133 757h145l-133 -757h-145zM31 823l19 106h360l-19 -106h-360z" />
    <glyph glyph-name="Ibreve" unicode="&#x12c;" horiz-adv-x="254" 
d="M0 0zM-8 0l133 757h145l-133 -757h-145zM383 962q-7 -37 -12.5 -61t-11.5 -39.5t-12.5 -25t-14.5 -16.5q-17 -19 -46 -25t-82 -6q-35 0 -59.5 2.5t-39.5 10.5t-22 23.5t-7 41.5q0 15 2.5 38t7.5 57h92q-7 -38 -7 -53q0 -17 10 -22t39 -5q23 0 33 1.5t14 6.5l6 8t5.5 11.5
t5.5 20t7 32.5h92z" />
    <glyph glyph-name="ibreve" unicode="&#x12d;" horiz-adv-x="254" 
d="M0 0zM-8 0l133 757h145l-133 -757h-145zM383 962q-7 -37 -12.5 -61t-11.5 -39.5t-12.5 -25t-14.5 -16.5q-17 -19 -46 -25t-82 -6q-35 0 -59.5 2.5t-39.5 10.5t-22 23.5t-7 41.5q0 15 2.5 38t7.5 57h92q-7 -38 -7 -53q0 -17 10 -22t39 -5q23 0 33 1.5t14 6.5l6 8t5.5 11.5
t5.5 20t7 32.5h92z" />
    <glyph glyph-name="Iogonek" unicode="&#x12e;" horiz-adv-x="254" 
d="M99 -200q-9 -11 -38.5 -24.5t-77.5 -13.5q-105 0 -105 80q0 18 4.5 37.5t17 38t34 34.5t54.5 28l136 777h145l-133 -757q-21 -8 -40.5 -15.5t-34 -17t-23.5 -22.5t-9 -32q0 -30 39 -30q14 0 25 3.5t19 6.5h4z" />
    <glyph glyph-name="iogonek" unicode="&#x12f;" horiz-adv-x="254" 
d="M0 0zM99 -200q-9 -11 -38.5 -24.5t-77.5 -13.5q-105 0 -105 80q0 18 4.5 37.5t17 38t34 34.5t54.5 28l136 777h145l-133 -757q-21 -8 -40.5 -15.5t-34 -17t-23.5 -22.5t-9 -32q0 -30 39 -30q14 0 25 3.5t19 6.5h4z" />
    <glyph glyph-name="Idotaccent" unicode="&#x130;" horiz-adv-x="254" 
d="M0 0zM-8 0l133 757h145l-133 -757h-145zM147 810l21 123h121l-21 -123h-121z" />
    <glyph glyph-name="dotlessi" unicode="&#x131;" horiz-adv-x="254" 
d="M0 0zM-8 0l133 757h145l-133 -757h-145z" />
    <glyph glyph-name="IJ" unicode="&#x132;" horiz-adv-x="652" 
d="M0 0zM-8 0l133 757h145l-133 -757h-145zM532 757h145l-65 -367q-15 -86 -27 -144t-23 -96.5t-21 -61.5t-22 -39q-24 -34 -61.5 -48t-104.5 -14q-83 0 -114.5 30t-31.5 94q0 84 27 179h126q-7 -37 -10 -59.5t-3 -39.5q0 -20 5 -27.5t25 -7.5t29.5 4t14.5 14q3 8 6.5 19
t8.5 33t12.5 59.5t18.5 100.5z" />
    <glyph glyph-name="ij" unicode="&#x133;" horiz-adv-x="652" 
d="M0 0zM-8 0l133 757h145l-133 -757h-145zM532 757h145l-65 -367q-15 -86 -27 -144t-23 -96.5t-21 -61.5t-22 -39q-24 -34 -61.5 -48t-104.5 -14q-83 0 -114.5 30t-31.5 94q0 84 27 179h126q-7 -37 -10 -59.5t-3 -39.5q0 -20 5 -27.5t25 -7.5t29.5 4t14.5 14q3 8 6.5 19
t8.5 33t12.5 59.5t18.5 100.5z" />
    <glyph glyph-name="Kcommaaccent" unicode="&#x136;" horiz-adv-x="483" 
d="M0 0zM233 0l-31 340h-9q-1 -13 -3 -27.5t-4 -28.5l-50 -284h-145l133 757h145l-49 -276q-2 -12 -4.5 -21.5t-4.5 -19.5h9l145 317h151l-1 -5l-166 -346l42 -401v-5h-158zM27 -238v5l82 192h124l-1 -6l-103 -191h-102z" />
    <glyph glyph-name="kcommaaccent" unicode="&#x137;" horiz-adv-x="483" 
d="M0 0zM233 0l-31 340h-9q-1 -13 -3 -27.5t-4 -28.5l-50 -284h-145l133 757h145l-49 -276q-2 -12 -4.5 -21.5t-4.5 -19.5h9l145 317h151l-1 -5l-166 -346l42 -401v-5h-158zM27 -238v5l82 192h124l-1 -6l-103 -191h-102z" />
    <glyph glyph-name="Lacute" unicode="&#x139;" horiz-adv-x="373" 
d="M0 0zM-9 0l133 757h141l-104 -589h146l-29 -168h-287zM204 789l1 5l110 168h127l-1 -6l-132 -167h-105z" />
    <glyph glyph-name="lacute" unicode="&#x13a;" horiz-adv-x="373" 
d="M0 0zM-9 0l133 757h141l-104 -589h146l-29 -168h-287zM204 789l1 5l110 168h127l-1 -6l-132 -167h-105z" />
    <glyph glyph-name="Lcommaaccent" unicode="&#x13b;" horiz-adv-x="373" 
d="M0 0zM-9 0l133 757h141l-104 -589h146l-29 -168h-287zM-15 -238v5l82 192h124l-1 -6l-103 -191h-102z" />
    <glyph glyph-name="lcommaaccent" unicode="&#x13c;" horiz-adv-x="373" 
d="M0 0zM-9 0l133 757h141l-104 -589h146l-29 -168h-287zM-15 -238v5l82 192h124l-1 -6l-103 -191h-102z" />
    <glyph glyph-name="Lcaron" unicode="&#x13d;" horiz-adv-x="394" 
d="M0 0zM-9 0l133 757h141l-104 -589h146l-29 -168h-287zM259 591v5l82 192h124l-1 -6l-103 -191h-102z" />
    <glyph glyph-name="lcaron" unicode="&#x13e;" horiz-adv-x="394" 
d="M0 0zM-9 0l133 757h141l-104 -589h146l-29 -168h-287zM259 591v5l82 192h124l-1 -6l-103 -191h-102z" />
    <glyph glyph-name="Ldot" unicode="&#x13f;" horiz-adv-x="380" 
d="M0 0zM-9 0l133 757h141l-104 -589h146l-29 -168h-287zM233 347l21 123h121l-21 -123h-121z" />
    <glyph glyph-name="ldot" unicode="&#x140;" horiz-adv-x="380" 
d="M0 0zM-9 0l133 757h141l-104 -589h146l-29 -168h-287zM233 347l21 123h121l-21 -123h-121z" />
    <glyph glyph-name="Lslash" unicode="&#x141;" horiz-adv-x="373" 
d="M-9 0l68 390l-28 -15h-4l21 123l33 18l43 241h142l-28 -157l108 58h4l-22 -122l-112 -61l-54 -307h145l-29 -168h-287z" />
    <glyph glyph-name="lslash" unicode="&#x142;" horiz-adv-x="373" 
d="M0 0zM-9 0l68 390l-28 -15h-4l21 123l33 18l43 241h142l-28 -157l108 58h4l-22 -122l-112 -61l-54 -307h145l-29 -168h-287z" />
    <glyph glyph-name="Nacute" unicode="&#x143;" horiz-adv-x="471" 
d="M0 0zM286 0l-89 417h-6l-72 -417h-129l133 757h139l48 -275h6l47 275h129l-133 -757h-73zM252 789l1 5l110 168h127l-1 -6l-132 -167h-105z" />
    <glyph glyph-name="nacute" unicode="&#x144;" horiz-adv-x="471" 
d="M0 0zM286 0l-89 417h-6l-72 -417h-129l133 757h139l48 -275h6l47 275h129l-133 -757h-73zM252 789l1 5l110 168h127l-1 -6l-132 -167h-105z" />
    <glyph glyph-name="Ncommaaccent" unicode="&#x145;" horiz-adv-x="471" 
d="M0 0zM286 0l-89 417h-6l-72 -417h-129l133 757h139l48 -275h6l47 275h129l-133 -757h-73zM47 -238v5l82 192h124l-1 -6l-103 -191h-102z" />
    <glyph glyph-name="ncommaaccent" unicode="&#x146;" horiz-adv-x="471" 
d="M0 0zM286 0l-89 417h-6l-72 -417h-129l133 757h139l48 -275h6l47 275h129l-133 -757h-73zM47 -238v5l82 192h124l-1 -6l-103 -191h-102z" />
    <glyph glyph-name="Ncaron" unicode="&#x147;" horiz-adv-x="471" 
d="M0 0zM286 0l-89 417h-6l-72 -417h-129l133 757h139l48 -275h6l47 275h129l-133 -757h-73zM265 789l-82 167l1 6h110l31 -69h10l54 69h111l-1 -6l-141 -167h-93z" />
    <glyph glyph-name="ncaron" unicode="&#x148;" horiz-adv-x="471" 
d="M0 0zM286 0l-89 417h-6l-72 -417h-129l133 757h139l48 -275h6l47 275h129l-133 -757h-73zM265 789l-82 167l1 6h110l31 -69h10l54 69h111l-1 -6l-141 -167h-93z" />
    <glyph glyph-name="Eng" unicode="&#x14a;" horiz-adv-x="471" 
d="M110 -104h6q9 -2 19 -3.5t24 -1.5q16 0 27 3t17.5 11t11 22t8.5 37l31 176l-58 266h-6l-71 -406h-129l133 757h139l49 -263h6l46 263h129l-140 -796q-6 -33 -11.5 -56t-12 -40.5t-14.5 -30.5t-18 -26q-11 -13 -22.5 -21.5t-27 -14t-36.5 -8t-51 -2.5q-6 0 -16.5 1
t-21.5 2.5t-20 4t-12 5.5z" />
    <glyph glyph-name="eng" unicode="&#x14b;" horiz-adv-x="471" 
d="M0 0zM110 -104h6q9 -2 19 -3.5t24 -1.5q16 0 27 3t17.5 11t11 22t8.5 37l31 176l-58 266h-6l-71 -406h-129l133 757h139l49 -263h6l46 263h129l-140 -796q-6 -33 -11.5 -56t-12 -40.5t-14.5 -30.5t-18 -26q-11 -13 -22.5 -21.5t-27 -14t-36.5 -8t-51 -2.5q-6 0 -16.5 1
t-21.5 2.5t-20 4t-12 5.5z" />
    <glyph glyph-name="Omacron" unicode="&#x14c;" 
d="M11 0zM323 49q-23 -35 -60 -48.5t-101 -13.5q-38 0 -66.5 5t-47.5 19t-28 39t-9 66q0 17 2 41t7 58.5t12.5 82t19.5 113.5q13 77 24 126.5t20.5 81.5t19.5 51.5t22 37.5q23 34 60 48t102 14q39 0 67 -5t46.5 -19.5t27.5 -40t9 -65.5q0 -17 -2 -40.5t-7 -58.5t-13 -84
t-20 -117q-13 -75 -23.5 -123t-20 -79.5t-19.5 -51.5t-22 -37zM230 174q3 7 6.5 17.5t8 31t11 53.5t15.5 86q11 63 18 104t10.5 65.5t4.5 37t1 20.5q0 15 -7.5 20.5t-24.5 5.5t-25.5 -4.5t-12.5 -14.5q-4 -7 -7.5 -18t-9 -33.5t-12.5 -60.5t-18 -101q-9 -50 -14.5 -83.5
t-9 -56t-4.5 -35.5t-1 -21q0 -16 5.5 -23.5t27.5 -7.5q17 0 25 4t13 14zM129 823l19 106h360l-19 -106h-360z" />
    <glyph glyph-name="omacron" unicode="&#x14d;" 
d="M11 0zM323 49q-23 -35 -60 -48.5t-101 -13.5q-38 0 -66.5 5t-47.5 19t-28 39t-9 66q0 17 2 41t7 58.5t12.5 82t19.5 113.5q13 77 24 126.5t20.5 81.5t19.5 51.5t22 37.5q23 34 60 48t102 14q39 0 67 -5t46.5 -19.5t27.5 -40t9 -65.5q0 -17 -2 -40.5t-7 -58.5t-13 -84
t-20 -117q-13 -75 -23.5 -123t-20 -79.5t-19.5 -51.5t-22 -37zM230 174q3 7 6.5 17.5t8 31t11 53.5t15.5 86q11 63 18 104t10.5 65.5t4.5 37t1 20.5q0 15 -7.5 20.5t-24.5 5.5t-25.5 -4.5t-12.5 -14.5q-4 -7 -7.5 -18t-9 -33.5t-12.5 -60.5t-18 -101q-9 -50 -14.5 -83.5
t-9 -56t-4.5 -35.5t-1 -21q0 -16 5.5 -23.5t27.5 -7.5q17 0 25 4t13 14zM129 823l19 106h360l-19 -106h-360z" />
    <glyph glyph-name="Obreve" unicode="&#x14e;" 
d="M11 0zM323 49q-23 -35 -60 -48.5t-101 -13.5q-38 0 -66.5 5t-47.5 19t-28 39t-9 66q0 17 2 41t7 58.5t12.5 82t19.5 113.5q13 77 24 126.5t20.5 81.5t19.5 51.5t22 37.5q23 34 60 48t102 14q39 0 67 -5t46.5 -19.5t27.5 -40t9 -65.5q0 -17 -2 -40.5t-7 -58.5t-13 -84
t-20 -117q-13 -75 -23.5 -123t-20 -79.5t-19.5 -51.5t-22 -37zM230 174q3 7 6.5 17.5t8 31t11 53.5t15.5 86q11 63 18 104t10.5 65.5t4.5 37t1 20.5q0 15 -7.5 20.5t-24.5 5.5t-25.5 -4.5t-12.5 -14.5q-4 -7 -7.5 -18t-9 -33.5t-12.5 -60.5t-18 -101q-9 -50 -14.5 -83.5
t-9 -56t-4.5 -35.5t-1 -21q0 -16 5.5 -23.5t27.5 -7.5q17 0 25 4t13 14zM481 962q-7 -37 -12.5 -61t-11.5 -39.5t-12.5 -25t-14.5 -16.5q-17 -19 -46 -25t-82 -6q-35 0 -59.5 2.5t-39.5 10.5t-22 23.5t-7 41.5q0 15 2.5 38t7.5 57h92q-7 -38 -7 -53q0 -17 10 -22t39 -5
q23 0 33 1.5t14 6.5l6 8t5.5 11.5t5.5 20t7 32.5h92z" />
    <glyph glyph-name="obreve" unicode="&#x14f;" 
d="M11 0zM323 49q-23 -35 -60 -48.5t-101 -13.5q-38 0 -66.5 5t-47.5 19t-28 39t-9 66q0 17 2 41t7 58.5t12.5 82t19.5 113.5q13 77 24 126.5t20.5 81.5t19.5 51.5t22 37.5q23 34 60 48t102 14q39 0 67 -5t46.5 -19.5t27.5 -40t9 -65.5q0 -17 -2 -40.5t-7 -58.5t-13 -84
t-20 -117q-13 -75 -23.5 -123t-20 -79.5t-19.5 -51.5t-22 -37zM230 174q3 7 6.5 17.5t8 31t11 53.5t15.5 86q11 63 18 104t10.5 65.5t4.5 37t1 20.5q0 15 -7.5 20.5t-24.5 5.5t-25.5 -4.5t-12.5 -14.5q-4 -7 -7.5 -18t-9 -33.5t-12.5 -60.5t-18 -101q-9 -50 -14.5 -83.5
t-9 -56t-4.5 -35.5t-1 -21q0 -16 5.5 -23.5t27.5 -7.5q17 0 25 4t13 14zM481 962q-7 -37 -12.5 -61t-11.5 -39.5t-12.5 -25t-14.5 -16.5q-17 -19 -46 -25t-82 -6q-35 0 -59.5 2.5t-39.5 10.5t-22 23.5t-7 41.5q0 15 2.5 38t7.5 57h92q-7 -38 -7 -53q0 -17 10 -22t39 -5
q23 0 33 1.5t14 6.5l6 8t5.5 11.5t5.5 20t7 32.5h92z" />
    <glyph glyph-name="Ohungarumlaut" unicode="&#x150;" 
d="M11 0zM323 49q-23 -35 -60 -48.5t-101 -13.5q-38 0 -66.5 5t-47.5 19t-28 39t-9 66q0 17 2 41t7 58.5t12.5 82t19.5 113.5q13 77 24 126.5t20.5 81.5t19.5 51.5t22 37.5q23 34 60 48t102 14q39 0 67 -5t46.5 -19.5t27.5 -40t9 -65.5q0 -17 -2 -40.5t-7 -58.5t-13 -84
t-20 -117q-13 -75 -23.5 -123t-20 -79.5t-19.5 -51.5t-22 -37zM230 174q3 7 6.5 17.5t8 31t11 53.5t15.5 86q11 63 18 104t10.5 65.5t4.5 37t1 20.5q0 15 -7.5 20.5t-24.5 5.5t-25.5 -4.5t-12.5 -14.5q-4 -7 -7.5 -18t-9 -33.5t-12.5 -60.5t-18 -101q-9 -50 -14.5 -83.5
t-9 -56t-4.5 -35.5t-1 -21q0 -16 5.5 -23.5t27.5 -7.5q17 0 25 4t13 14zM333 789l1 5l111 168h126l-1 -6l-132 -167h-105zM157 789l1 5l110 168h127l-1 -6l-132 -167h-105z" />
    <glyph glyph-name="ohungarumlaut" unicode="&#x151;" 
d="M11 0zM323 49q-23 -35 -60 -48.5t-101 -13.5q-38 0 -66.5 5t-47.5 19t-28 39t-9 66q0 17 2 41t7 58.5t12.5 82t19.5 113.5q13 77 24 126.5t20.5 81.5t19.5 51.5t22 37.5q23 34 60 48t102 14q39 0 67 -5t46.5 -19.5t27.5 -40t9 -65.5q0 -17 -2 -40.5t-7 -58.5t-13 -84
t-20 -117q-13 -75 -23.5 -123t-20 -79.5t-19.5 -51.5t-22 -37zM230 174q3 7 6.5 17.5t8 31t11 53.5t15.5 86q11 63 18 104t10.5 65.5t4.5 37t1 20.5q0 15 -7.5 20.5t-24.5 5.5t-25.5 -4.5t-12.5 -14.5q-4 -7 -7.5 -18t-9 -33.5t-12.5 -60.5t-18 -101q-9 -50 -14.5 -83.5
t-9 -56t-4.5 -35.5t-1 -21q0 -16 5.5 -23.5t27.5 -7.5q17 0 25 4t13 14zM333 789l1 5l111 168h126l-1 -6l-132 -167h-105zM157 789l1 5l110 168h127l-1 -6l-132 -167h-105z" />
    <glyph glyph-name="OE" unicode="&#x152;" horiz-adv-x="624" 
d="M163 0q-43 0 -71.5 6t-46 20.5t-25 38.5t-7.5 60q0 17 1 40.5t5.5 60t13.5 89.5t25 128q12 55 21 94.5t17 67.5t15.5 47.5t16.5 34.5q22 37 59.5 53.5t108.5 16.5h351l-28 -160h-161l-24 -133h159l-27 -153h-159l-25 -143h160l-29 -168h-350zM318 598h-45q-17 0 -25.5 -4
t-12.5 -12q-4 -7 -7.5 -16.5t-7.5 -26t-9 -43t-12 -67.5q-11 -63 -18 -103.5t-10.5 -66t-5 -39t-1.5 -21.5q0 -16 5 -24t28 -8h45z" />
    <glyph glyph-name="oe" unicode="&#x153;" horiz-adv-x="624" 
d="M13 0zM163 0q-43 0 -71.5 6t-46 20.5t-25 38.5t-7.5 60q0 17 1 40.5t5.5 60t13.5 89.5t25 128q12 55 21 94.5t17 67.5t15.5 47.5t16.5 34.5q22 37 59.5 53.5t108.5 16.5h351l-28 -160h-161l-24 -133h159l-27 -153h-159l-25 -143h160l-29 -168h-350zM318 598h-45
q-17 0 -25.5 -4t-12.5 -12q-4 -7 -7.5 -16.5t-7.5 -26t-9 -43t-12 -67.5q-11 -63 -18 -103.5t-10.5 -66t-5 -39t-1.5 -21.5q0 -16 5 -24t28 -8h45z" />
    <glyph glyph-name="Racute" unicode="&#x154;" horiz-adv-x="460" 
d="M0 0zM214 0q-1 6 -1.5 12.5t-0.5 15.5q0 20 2 55t5 71.5t5 66.5t2 39q0 23 -5 29t-15 6h-22l-52 -295h-141l133 757h206q70 0 99 -25.5t29 -77.5q0 -14 -1 -27t-3 -29.5t-5.5 -38t-8.5 -51.5q-7 -42 -15 -66.5t-18 -39.5t-23 -23.5t-29 -17.5l-1 -6q7 -8 11 -15.5
t6.5 -18.5t3.5 -27t1 -40q0 -54 -6 -118.5t-6 -135.5h-150zM248 436q20 0 32 20t17 53q6 31 7.5 42.5t1.5 18.5q0 20 -8.5 25.5t-24.5 5.5h-36l-29 -165h40zM241 789l1 5l110 168h127l-1 -6l-132 -167h-105z" />
    <glyph glyph-name="racute" unicode="&#x155;" horiz-adv-x="460" 
d="M0 0zM214 0q-1 6 -1.5 12.5t-0.5 15.5q0 20 2 55t5 71.5t5 66.5t2 39q0 23 -5 29t-15 6h-22l-52 -295h-141l133 757h206q70 0 99 -25.5t29 -77.5q0 -14 -1 -27t-3 -29.5t-5.5 -38t-8.5 -51.5q-7 -42 -15 -66.5t-18 -39.5t-23 -23.5t-29 -17.5l-1 -6q7 -8 11 -15.5
t6.5 -18.5t3.5 -27t1 -40q0 -54 -6 -118.5t-6 -135.5h-150zM248 436q20 0 32 20t17 53q6 31 7.5 42.5t1.5 18.5q0 20 -8.5 25.5t-24.5 5.5h-36l-29 -165h40zM241 789l1 5l110 168h127l-1 -6l-132 -167h-105z" />
    <glyph glyph-name="Rcommaaccent" unicode="&#x156;" horiz-adv-x="460" 
d="M0 0zM214 0q-1 6 -1.5 12.5t-0.5 15.5q0 20 2 55t5 71.5t5 66.5t2 39q0 23 -5 29t-15 6h-22l-52 -295h-141l133 757h206q70 0 99 -25.5t29 -77.5q0 -14 -1 -27t-3 -29.5t-5.5 -38t-8.5 -51.5q-7 -42 -15 -66.5t-18 -39.5t-23 -23.5t-29 -17.5l-1 -6q7 -8 11 -15.5
t6.5 -18.5t3.5 -27t1 -40q0 -54 -6 -118.5t-6 -135.5h-150zM248 436q20 0 32 20t17 53q6 31 7.5 42.5t1.5 18.5q0 20 -8.5 25.5t-24.5 5.5h-36l-29 -165h40zM23 -238v5l82 192h124l-1 -6l-103 -191h-102z" />
    <glyph glyph-name="rcommaaccent" unicode="&#x157;" horiz-adv-x="460" 
d="M0 0zM214 0q-1 6 -1.5 12.5t-0.5 15.5q0 20 2 55t5 71.5t5 66.5t2 39q0 23 -5 29t-15 6h-22l-52 -295h-141l133 757h206q70 0 99 -25.5t29 -77.5q0 -14 -1 -27t-3 -29.5t-5.5 -38t-8.5 -51.5q-7 -42 -15 -66.5t-18 -39.5t-23 -23.5t-29 -17.5l-1 -6q7 -8 11 -15.5
t6.5 -18.5t3.5 -27t1 -40q0 -54 -6 -118.5t-6 -135.5h-150zM248 436q20 0 32 20t17 53q6 31 7.5 42.5t1.5 18.5q0 20 -8.5 25.5t-24.5 5.5h-36l-29 -165h40zM23 -238v5l82 192h124l-1 -6l-103 -191h-102z" />
    <glyph glyph-name="Rcaron" unicode="&#x158;" horiz-adv-x="460" 
d="M0 0zM214 0q-1 6 -1.5 12.5t-0.5 15.5q0 20 2 55t5 71.5t5 66.5t2 39q0 23 -5 29t-15 6h-22l-52 -295h-141l133 757h206q70 0 99 -25.5t29 -77.5q0 -14 -1 -27t-3 -29.5t-5.5 -38t-8.5 -51.5q-7 -42 -15 -66.5t-18 -39.5t-23 -23.5t-29 -17.5l-1 -6q7 -8 11 -15.5
t6.5 -18.5t3.5 -27t1 -40q0 -54 -6 -118.5t-6 -135.5h-150zM248 436q20 0 32 20t17 53q6 31 7.5 42.5t1.5 18.5q0 20 -8.5 25.5t-24.5 5.5h-36l-29 -165h40zM254 789l-82 167l1 6h110l31 -69h10l54 69h111l-1 -6l-141 -167h-93z" />
    <glyph glyph-name="rcaron" unicode="&#x159;" horiz-adv-x="460" 
d="M0 0zM214 0q-1 6 -1.5 12.5t-0.5 15.5q0 20 2 55t5 71.5t5 66.5t2 39q0 23 -5 29t-15 6h-22l-52 -295h-141l133 757h206q70 0 99 -25.5t29 -77.5q0 -14 -1 -27t-3 -29.5t-5.5 -38t-8.5 -51.5q-7 -42 -15 -66.5t-18 -39.5t-23 -23.5t-29 -17.5l-1 -6q7 -8 11 -15.5
t6.5 -18.5t3.5 -27t1 -40q0 -54 -6 -118.5t-6 -135.5h-150zM248 436q20 0 32 20t17 53q6 31 7.5 42.5t1.5 18.5q0 20 -8.5 25.5t-24.5 5.5h-36l-29 -165h40zM254 789l-82 167l1 6h110l31 -69h10l54 69h111l-1 -6l-141 -167h-93z" />
    <glyph glyph-name="Sacute" unicode="&#x15a;" horiz-adv-x="422" 
d="M0 0zM277 522q6 35 8 47t2 18q0 17 -8 23.5t-27 6.5q-26 0 -34 -12t-14 -35q-4 -15 -5 -26t-1 -17q0 -18 5 -28.5t16 -18.5q18 -13 33.5 -22t29 -16.5t26 -15t23.5 -16.5q18 -15 28 -32.5t10 -54.5q0 -19 -2.5 -44t-8.5 -57q-12 -68 -28.5 -113t-42 -72t-62 -38.5
t-87.5 -11.5q-72 0 -106 24t-34 84q0 34 8 78t22 80h118q-5 -12 -8.5 -34t-3.5 -36q0 -20 8 -27.5t27 -7.5q27 0 37.5 12.5t15.5 38.5q5 24 6.5 35t1.5 16q0 17 -5 28.5t-18 22.5q-14 12 -30.5 22t-33 19t-31.5 19.5t-27 24.5q-11 13 -17 29t-6 39q0 28 4 59.5t16 85.5
q10 45 23 77t35 53t55.5 31t83.5 10q75 0 108.5 -23t33.5 -83q0 -35 -6.5 -72t-20.5 -70h-117zM225 789l1 5l110 168h127l-1 -6l-132 -167h-105z" />
    <glyph glyph-name="sacute" unicode="&#x15b;" horiz-adv-x="422" 
d="M0 0zM277 522q6 35 8 47t2 18q0 17 -8 23.5t-27 6.5q-26 0 -34 -12t-14 -35q-4 -15 -5 -26t-1 -17q0 -18 5 -28.5t16 -18.5q18 -13 33.5 -22t29 -16.5t26 -15t23.5 -16.5q18 -15 28 -32.5t10 -54.5q0 -19 -2.5 -44t-8.5 -57q-12 -68 -28.5 -113t-42 -72t-62 -38.5
t-87.5 -11.5q-72 0 -106 24t-34 84q0 34 8 78t22 80h118q-5 -12 -8.5 -34t-3.5 -36q0 -20 8 -27.5t27 -7.5q27 0 37.5 12.5t15.5 38.5q5 24 6.5 35t1.5 16q0 17 -5 28.5t-18 22.5q-14 12 -30.5 22t-33 19t-31.5 19.5t-27 24.5q-11 13 -17 29t-6 39q0 28 4 59.5t16 85.5
q10 45 23 77t35 53t55.5 31t83.5 10q75 0 108.5 -23t33.5 -83q0 -35 -6.5 -72t-20.5 -70h-117zM225 789l1 5l110 168h127l-1 -6l-132 -167h-105z" />
    <glyph glyph-name="Scedilla" unicode="&#x15e;" horiz-adv-x="422" 
d="M0 0zM277 522q6 35 8 47t2 18q0 17 -8 23.5t-27 6.5q-26 0 -34 -12t-14 -35q-4 -15 -5 -26t-1 -17q0 -18 5 -28.5t16 -18.5q18 -13 33.5 -22t29 -16.5t26 -15t23.5 -16.5q18 -15 28 -32.5t10 -54.5q0 -19 -2.5 -44t-8.5 -57q-12 -68 -28.5 -113t-42 -72t-62 -38.5
t-87.5 -11.5q-72 0 -106 24t-34 84q0 34 8 78t22 80h118q-5 -12 -8.5 -34t-3.5 -36q0 -20 8 -27.5t27 -7.5q27 0 37.5 12.5t15.5 38.5q5 24 6.5 35t1.5 16q0 17 -5 28.5t-18 22.5q-14 12 -30.5 22t-33 19t-31.5 19.5t-27 24.5q-11 13 -17 29t-6 39q0 28 4 59.5t16 85.5
q10 45 23 77t35 53t55.5 31t83.5 10q75 0 108.5 -23t33.5 -83q0 -35 -6.5 -72t-20.5 -70h-117zM-13 -238v5l82 192h124l-1 -6l-103 -191h-102z" />
    <glyph glyph-name="scedilla" unicode="&#x15f;" horiz-adv-x="422" 
d="M0 0zM277 522q6 35 8 47t2 18q0 17 -8 23.5t-27 6.5q-26 0 -34 -12t-14 -35q-4 -15 -5 -26t-1 -17q0 -18 5 -28.5t16 -18.5q18 -13 33.5 -22t29 -16.5t26 -15t23.5 -16.5q18 -15 28 -32.5t10 -54.5q0 -19 -2.5 -44t-8.5 -57q-12 -68 -28.5 -113t-42 -72t-62 -38.5
t-87.5 -11.5q-72 0 -106 24t-34 84q0 34 8 78t22 80h118q-5 -12 -8.5 -34t-3.5 -36q0 -20 8 -27.5t27 -7.5q27 0 37.5 12.5t15.5 38.5q5 24 6.5 35t1.5 16q0 17 -5 28.5t-18 22.5q-14 12 -30.5 22t-33 19t-31.5 19.5t-27 24.5q-11 13 -17 29t-6 39q0 28 4 59.5t16 85.5
q10 45 23 77t35 53t55.5 31t83.5 10q75 0 108.5 -23t33.5 -83q0 -35 -6.5 -72t-20.5 -70h-117zM-13 -238v5l82 192h124l-1 -6l-103 -191h-102z" />
    <glyph glyph-name="Scaron" unicode="&#x160;" horiz-adv-x="422" 
d="M0 0zM277 522q6 35 8 47t2 18q0 17 -8 23.5t-27 6.5q-26 0 -34 -12t-14 -35q-4 -15 -5 -26t-1 -17q0 -18 5 -28.5t16 -18.5q18 -13 33.5 -22t29 -16.5t26 -15t23.5 -16.5q18 -15 28 -32.5t10 -54.5q0 -19 -2.5 -44t-8.5 -57q-12 -68 -28.5 -113t-42 -72t-62 -38.5
t-87.5 -11.5q-72 0 -106 24t-34 84q0 34 8 78t22 80h118q-5 -12 -8.5 -34t-3.5 -36q0 -20 8 -27.5t27 -7.5q27 0 37.5 12.5t15.5 38.5q5 24 6.5 35t1.5 16q0 17 -5 28.5t-18 22.5q-14 12 -30.5 22t-33 19t-31.5 19.5t-27 24.5q-11 13 -17 29t-6 39q0 28 4 59.5t16 85.5
q10 45 23 77t35 53t55.5 31t83.5 10q75 0 108.5 -23t33.5 -83q0 -35 -6.5 -72t-20.5 -70h-117zM241 789l-82 167l1 6h110l31 -69h10l54 69h111l-1 -6l-141 -167h-93z" />
    <glyph glyph-name="scaron" unicode="&#x161;" horiz-adv-x="422" 
d="M0 0zM277 522q6 35 8 47t2 18q0 17 -8 23.5t-27 6.5q-26 0 -34 -12t-14 -35q-4 -15 -5 -26t-1 -17q0 -18 5 -28.5t16 -18.5q18 -13 33.5 -22t29 -16.5t26 -15t23.5 -16.5q18 -15 28 -32.5t10 -54.5q0 -19 -2.5 -44t-8.5 -57q-12 -68 -28.5 -113t-42 -72t-62 -38.5
t-87.5 -11.5q-72 0 -106 24t-34 84q0 34 8 78t22 80h118q-5 -12 -8.5 -34t-3.5 -36q0 -20 8 -27.5t27 -7.5q27 0 37.5 12.5t15.5 38.5q5 24 6.5 35t1.5 16q0 17 -5 28.5t-18 22.5q-14 12 -30.5 22t-33 19t-31.5 19.5t-27 24.5q-11 13 -17 29t-6 39q0 28 4 59.5t16 85.5
q10 45 23 77t35 53t55.5 31t83.5 10q75 0 108.5 -23t33.5 -83q0 -35 -6.5 -72t-20.5 -70h-117zM241 789l-82 167l1 6h110l31 -69h10l54 69h111l-1 -6l-141 -167h-93z" />
    <glyph glyph-name="uni0162" unicode="&#x162;" horiz-adv-x="423" 
d="M0 0zM79 0l105 597h-107l28 160h355l-28 -160h-107l-105 -597h-141zM-1 -238v5l82 192h124l-1 -6l-103 -191h-102z" />
    <glyph glyph-name="uni0163" unicode="&#x163;" horiz-adv-x="423" 
d="M0 0zM79 0l105 597h-107l28 160h355l-28 -160h-107l-105 -597h-141zM-1 -238v5l82 192h124l-1 -6l-103 -191h-102z" />
    <glyph glyph-name="Tcaron" unicode="&#x164;" horiz-adv-x="423" 
d="M77 0zM79 0l105 597h-107l28 160h355l-28 -160h-107l-105 -597h-141zM241 789l-82 167l1 6h110l31 -69h10l54 69h111l-1 -6l-141 -167h-93z" />
    <glyph glyph-name="tcaron" unicode="&#x165;" horiz-adv-x="423" 
d="M77 0zM79 0l105 597h-107l28 160h355l-28 -160h-107l-105 -597h-141zM241 789l-82 167l1 6h110l31 -69h10l54 69h111l-1 -6l-141 -167h-93z" />
    <glyph glyph-name="Tbar" unicode="&#x166;" horiz-adv-x="423" 
d="M79 0l60 341h-76l21 124h76l24 132h-107l28 160h355l-28 -160h-107l-24 -132h75l-21 -124h-75l-60 -341h-141z" />
    <glyph glyph-name="tbar" unicode="&#x167;" horiz-adv-x="423" 
d="M63 0zM79 0l60 341h-76l21 124h76l24 132h-107l28 160h355l-28 -160h-107l-24 -132h75l-21 -124h-75l-60 -341h-141z" />
    <glyph glyph-name="Utilde" unicode="&#x168;" horiz-adv-x="460" 
d="M11 0zM344 757h141l-92 -524q-9 -47 -17.5 -78t-16 -52t-16 -34.5t-17.5 -26.5q-11 -16 -25.5 -26.5t-33.5 -17t-44 -9t-57 -2.5q-39 0 -68 4.5t-48.5 18t-29 38t-9.5 65.5q0 20 3 49t11 71l92 524h145l-92 -524q-3 -18 -5 -31t-2 -21q0 -17 8 -21t27 -4q12 0 20.5 2
t14 10t10 23.5t9.5 41.5zM498 856q-26 -32 -53 -46.5t-59 -14.5q-23 0 -43 7t-39 15.5t-37.5 15.5t-37.5 7q-28 0 -51 -13.5t-49 -44.5h-4l19 110q18 23 42.5 40.5t57.5 17.5q27 0 49 -7t41.5 -15.5t37.5 -15.5t36 -7q28 0 52.5 12.5t50.5 44.5h5z" />
    <glyph glyph-name="utilde" unicode="&#x169;" horiz-adv-x="460" 
d="M11 0zM344 757h141l-92 -524q-9 -47 -17.5 -78t-16 -52t-16 -34.5t-17.5 -26.5q-11 -16 -25.5 -26.5t-33.5 -17t-44 -9t-57 -2.5q-39 0 -68 4.5t-48.5 18t-29 38t-9.5 65.5q0 20 3 49t11 71l92 524h145l-92 -524q-3 -18 -5 -31t-2 -21q0 -17 8 -21t27 -4q12 0 20.5 2
t14 10t10 23.5t9.5 41.5zM498 856q-26 -32 -53 -46.5t-59 -14.5q-23 0 -43 7t-39 15.5t-37.5 15.5t-37.5 7q-28 0 -51 -13.5t-49 -44.5h-4l19 110q18 23 42.5 40.5t57.5 17.5q27 0 49 -7t41.5 -15.5t37.5 -15.5t36 -7q28 0 52.5 12.5t50.5 44.5h5z" />
    <glyph glyph-name="Umacron" unicode="&#x16a;" horiz-adv-x="460" 
d="M11 0zM344 757h141l-92 -524q-9 -47 -17.5 -78t-16 -52t-16 -34.5t-17.5 -26.5q-11 -16 -25.5 -26.5t-33.5 -17t-44 -9t-57 -2.5q-39 0 -68 4.5t-48.5 18t-29 38t-9.5 65.5q0 20 3 49t11 71l92 524h145l-92 -524q-3 -18 -5 -31t-2 -21q0 -17 8 -21t27 -4q12 0 20.5 2
t14 10t10 23.5t9.5 41.5zM132 823l19 106h360l-19 -106h-360z" />
    <glyph glyph-name="umacron" unicode="&#x16b;" horiz-adv-x="460" 
d="M11 0zM344 757h141l-92 -524q-9 -47 -17.5 -78t-16 -52t-16 -34.5t-17.5 -26.5q-11 -16 -25.5 -26.5t-33.5 -17t-44 -9t-57 -2.5q-39 0 -68 4.5t-48.5 18t-29 38t-9.5 65.5q0 20 3 49t11 71l92 524h145l-92 -524q-3 -18 -5 -31t-2 -21q0 -17 8 -21t27 -4q12 0 20.5 2
t14 10t10 23.5t9.5 41.5zM132 823l19 106h360l-19 -106h-360z" />
    <glyph glyph-name="Ubreve" unicode="&#x16c;" horiz-adv-x="460" 
d="M11 0zM344 757h141l-92 -524q-9 -47 -17.5 -78t-16 -52t-16 -34.5t-17.5 -26.5q-11 -16 -25.5 -26.5t-33.5 -17t-44 -9t-57 -2.5q-39 0 -68 4.5t-48.5 18t-29 38t-9.5 65.5q0 20 3 49t11 71l92 524h145l-92 -524q-3 -18 -5 -31t-2 -21q0 -17 8 -21t27 -4q12 0 20.5 2
t14 10t10 23.5t9.5 41.5zM485 962q-7 -37 -12.5 -61t-11.5 -39.5t-12.5 -25t-14.5 -16.5q-17 -19 -46 -25t-82 -6q-35 0 -59.5 2.5t-39.5 10.5t-22 23.5t-7 41.5q0 15 2.5 38t7.5 57h92q-7 -38 -7 -53q0 -17 10 -22t39 -5q23 0 33 1.5t14 6.5l6 8t5.5 11.5t5.5 20t7 32.5h92
z" />
    <glyph glyph-name="ubreve" unicode="&#x16d;" horiz-adv-x="460" 
d="M11 0zM344 757h141l-92 -524q-9 -47 -17.5 -78t-16 -52t-16 -34.5t-17.5 -26.5q-11 -16 -25.5 -26.5t-33.5 -17t-44 -9t-57 -2.5q-39 0 -68 4.5t-48.5 18t-29 38t-9.5 65.5q0 20 3 49t11 71l92 524h145l-92 -524q-3 -18 -5 -31t-2 -21q0 -17 8 -21t27 -4q12 0 20.5 2
t14 10t10 23.5t9.5 41.5zM485 962q-7 -37 -12.5 -61t-11.5 -39.5t-12.5 -25t-14.5 -16.5q-17 -19 -46 -25t-82 -6q-35 0 -59.5 2.5t-39.5 10.5t-22 23.5t-7 41.5q0 15 2.5 38t7.5 57h92q-7 -38 -7 -53q0 -17 10 -22t39 -5q23 0 33 1.5t14 6.5l6 8t5.5 11.5t5.5 20t7 32.5h92
z" />
    <glyph glyph-name="Uring" unicode="&#x16e;" horiz-adv-x="460" 
d="M11 0zM344 757h141l-92 -524q-9 -47 -17.5 -78t-16 -52t-16 -34.5t-17.5 -26.5q-11 -16 -25.5 -26.5t-33.5 -17t-44 -9t-57 -2.5q-39 0 -68 4.5t-48.5 18t-29 38t-9.5 65.5q0 20 3 49t11 71l92 524h145l-92 -524q-3 -18 -5 -31t-2 -21q0 -17 8 -21t27 -4q12 0 20.5 2
t14 10t10 23.5t9.5 41.5zM384 790q-10 -9 -29 -12t-51 -3q-47 0 -65.5 7t-18.5 35q0 8 2 27t9 50q5 25 10 35t16 18q10 8 28.5 11.5t51.5 3.5q46 0 65 -7t19 -35q0 -8 -1.5 -23t-7.5 -48q-5 -26 -11 -38.5t-17 -20.5zM343 839q3 2 5.5 7t5.5 23q3 16 3 23q0 8 -4.5 11
t-24.5 3q-14 0 -20 -1t-10 -3t-5.5 -7t-4.5 -20q-2 -14 -3 -20t-1 -9q0 -8 6 -9.5t25 -1.5q14 0 19 1t9 3z" />
    <glyph glyph-name="uring" unicode="&#x16f;" horiz-adv-x="460" 
d="M11 0zM344 757h141l-92 -524q-9 -47 -17.5 -78t-16 -52t-16 -34.5t-17.5 -26.5q-11 -16 -25.5 -26.5t-33.5 -17t-44 -9t-57 -2.5q-39 0 -68 4.5t-48.5 18t-29 38t-9.5 65.5q0 20 3 49t11 71l92 524h145l-92 -524q-3 -18 -5 -31t-2 -21q0 -17 8 -21t27 -4q12 0 20.5 2
t14 10t10 23.5t9.5 41.5zM384 790q-10 -9 -29 -12t-51 -3q-47 0 -65.5 7t-18.5 35q0 8 2 27t9 50q5 25 10 35t16 18q10 8 28.5 11.5t51.5 3.5q46 0 65 -7t19 -35q0 -8 -1.5 -23t-7.5 -48q-5 -26 -11 -38.5t-17 -20.5zM343 839q3 2 5.5 7t5.5 23q3 16 3 23q0 8 -4.5 11
t-24.5 3q-14 0 -20 -1t-10 -3t-5.5 -7t-4.5 -20q-2 -14 -3 -20t-1 -9q0 -8 6 -9.5t25 -1.5q14 0 19 1t9 3z" />
    <glyph glyph-name="Uhungarumlaut" unicode="&#x170;" horiz-adv-x="460" 
d="M11 0zM344 757h141l-92 -524q-9 -47 -17.5 -78t-16 -52t-16 -34.5t-17.5 -26.5q-11 -16 -25.5 -26.5t-33.5 -17t-44 -9t-57 -2.5q-39 0 -68 4.5t-48.5 18t-29 38t-9.5 65.5q0 20 3 49t11 71l92 524h145l-92 -524q-3 -18 -5 -31t-2 -21q0 -17 8 -21t27 -4q12 0 20.5 2
t14 10t10 23.5t9.5 41.5zM337 789l1 5l111 168h126l-1 -6l-132 -167h-105zM161 789l1 5l110 168h127l-1 -6l-132 -167h-105z" />
    <glyph glyph-name="uhungarumlaut" unicode="&#x171;" horiz-adv-x="460" 
d="M11 0zM344 757h141l-92 -524q-9 -47 -17.5 -78t-16 -52t-16 -34.5t-17.5 -26.5q-11 -16 -25.5 -26.5t-33.5 -17t-44 -9t-57 -2.5q-39 0 -68 4.5t-48.5 18t-29 38t-9.5 65.5q0 20 3 49t11 71l92 524h145l-92 -524q-3 -18 -5 -31t-2 -21q0 -17 8 -21t27 -4q12 0 20.5 2
t14 10t10 23.5t9.5 41.5zM337 789l1 5l111 168h126l-1 -6l-132 -167h-105zM161 789l1 5l110 168h127l-1 -6l-132 -167h-105z" />
    <glyph glyph-name="Uogonek" unicode="&#x172;" horiz-adv-x="460" 
d="M236 -200q-9 -11 -39 -24.5t-79 -13.5q-105 0 -105 81q0 19 5.5 40t20 40.5t40 36t66.5 27.5q-33 1 -57.5 7t-41.5 20.5t-25.5 38.5t-8.5 60q0 20 3 49t11 71l92 524h145l-92 -524q-6 -35 -6 -50q0 -18 8 -22.5t26 -4.5q13 0 21 2t14 10t10 23t9 42l92 524h141l-92 -524
q-10 -47 -18 -78t-16 -52t-16 -35t-17 -26q-23 -30 -55 -42q-21 -7 -40 -14.5t-34 -17.5t-23.5 -23.5t-8.5 -31.5q0 -16 9 -23t30 -7q14 0 24.5 3.5t18.5 6.5h5z" />
    <glyph glyph-name="uogonek" unicode="&#x173;" horiz-adv-x="460" 
d="M12 0zM236 -200q-9 -11 -39 -24.5t-79 -13.5q-105 0 -105 81q0 19 5.5 40t20 40.5t40 36t66.5 27.5q-33 1 -57.5 7t-41.5 20.5t-25.5 38.5t-8.5 60q0 20 3 49t11 71l92 524h145l-92 -524q-6 -35 -6 -50q0 -18 8 -22.5t26 -4.5q13 0 21 2t14 10t10 23t9 42l92 524h141
l-92 -524q-10 -47 -18 -78t-16 -52t-16 -35t-17 -26q-23 -30 -55 -42q-21 -7 -40 -14.5t-34 -17.5t-23.5 -23.5t-8.5 -31.5q0 -16 9 -23t30 -7q14 0 24.5 3.5t18.5 6.5h5z" />
    <glyph glyph-name="Wcircumflex" unicode="&#x174;" horiz-adv-x="695" 
d="M33 0zM341 0l34 464h-10l-131 -464h-201l73 757h141l-61 -515h10l153 515h143l-28 -515h10l120 515h137l-191 -757h-199zM477 789l-31 69h-9l-55 -69h-113l1 5l140 168h93l83 -168l-1 -5h-108z" />
    <glyph glyph-name="wcircumflex" unicode="&#x175;" horiz-adv-x="695" 
d="M33 0zM341 0l34 464h-10l-131 -464h-201l73 757h141l-61 -515h10l153 515h143l-28 -515h10l120 515h137l-191 -757h-199zM477 789l-31 69h-9l-55 -69h-113l1 5l140 168h93l83 -168l-1 -5h-108z" />
    <glyph glyph-name="Ycircumflex" unicode="&#x176;" horiz-adv-x="446" 
d="M87 0zM87 0l50 287l-42 465l1 5h146l4 -245h9l95 245h141l-1 -5l-204 -481l-47 -271h-152zM351 789l-31 69h-9l-55 -69h-113l1 5l140 168h93l83 -168l-1 -5h-108z" />
    <glyph glyph-name="ycircumflex" unicode="&#x177;" horiz-adv-x="446" 
d="M87 0zM87 0l50 287l-42 465l1 5h146l4 -245h9l95 245h141l-1 -5l-204 -481l-47 -271h-152zM351 789l-31 69h-9l-55 -69h-113l1 5l140 168h93l83 -168l-1 -5h-108z" />
    <glyph glyph-name="Ydieresis" unicode="&#x178;" horiz-adv-x="446" 
d="M87 0zM87 0l50 287l-42 465l1 5h146l4 -245h9l95 245h141l-1 -5l-204 -481l-47 -271h-152zM336 810l21 123h121l-21 -123h-121zM151 810l21 123h121l-21 -123h-121z" />
    <glyph glyph-name="Zacute" unicode="&#x179;" horiz-adv-x="453" 
d="M0 0zM-18 0l31 179l248 407l-2 10h-165l28 161h364l-15 -86l-298 -494l3 -9h200l-29 -168h-365zM250 789l1 5l110 168h127l-1 -6l-132 -167h-105z" />
    <glyph glyph-name="zacute" unicode="&#x17a;" horiz-adv-x="453" 
d="M0 0zM-18 0l31 179l248 407l-2 10h-165l28 161h364l-15 -86l-298 -494l3 -9h200l-29 -168h-365zM250 789l1 5l110 168h127l-1 -6l-132 -167h-105z" />
    <glyph glyph-name="Zdotaccent" unicode="&#x17b;" horiz-adv-x="453" 
d="M0 0zM-18 0l31 179l248 407l-2 10h-165l28 161h364l-15 -86l-298 -494l3 -9h200l-29 -168h-365zM251 810l21 123h121l-21 -123h-121z" />
    <glyph glyph-name="zdotaccent" unicode="&#x17c;" horiz-adv-x="453" 
d="M0 0zM-18 0l31 179l248 407l-2 10h-165l28 161h364l-15 -86l-298 -494l3 -9h200l-29 -168h-365zM251 810l21 123h121l-21 -123h-121z" />
    <glyph glyph-name="Zcaron" unicode="&#x17d;" horiz-adv-x="453" 
d="M0 0zM-18 0l31 179l248 407l-2 10h-165l28 161h364l-15 -86l-298 -494l3 -9h200l-29 -168h-365zM263 789l-82 167l1 6h110l31 -69h10l54 69h111l-1 -6l-141 -167h-93z" />
    <glyph glyph-name="zcaron" unicode="&#x17e;" horiz-adv-x="453" 
d="M0 0zM-18 0l31 179l248 407l-2 10h-165l28 161h364l-15 -86l-298 -494l3 -9h200l-29 -168h-365zM263 789l-82 167l1 6h110l31 -69h10l54 69h111l-1 -6l-141 -167h-93z" />
    <glyph glyph-name="florin" unicode="&#x192;" 
d="M-28 -104h6q9 -2 18.5 -3.5t23.5 -1.5q16 0 27 3t17.5 11t11 22t8.5 37l84 473h-53l21 123h53l11 61q9 49 22 83.5t35.5 56t57.5 31t88 9.5q6 0 16 -1t21 -3t20 -4t12 -5l-21 -123h-6q-8 3 -19 5t-25 2q-16 0 -26.5 -3t-17.5 -11t-11.5 -22.5t-8.5 -37.5l-7 -38h97
l-21 -123h-97l-84 -476q-9 -50 -21 -87.5t-34 -62t-58 -37t-92 -12.5q-6 0 -16.5 1t-21.5 2.5t-19.5 4t-11.5 5.5z" />
    <glyph glyph-name="Scommaaccent" unicode="&#x218;" horiz-adv-x="422" 
d="M0 0zM277 522q6 35 8 47t2 18q0 17 -8 23.5t-27 6.5q-26 0 -34 -12t-14 -35q-4 -15 -5 -26t-1 -17q0 -18 5 -28.5t16 -18.5q18 -13 33.5 -22t29 -16.5t26 -15t23.5 -16.5q18 -15 28 -32.5t10 -54.5q0 -19 -2.5 -44t-8.5 -57q-12 -68 -28.5 -113t-42 -72t-62 -38.5
t-87.5 -11.5q-72 0 -106 24t-34 84q0 34 8 78t22 80h118q-5 -12 -8.5 -34t-3.5 -36q0 -20 8 -27.5t27 -7.5q27 0 37.5 12.5t15.5 38.5q5 24 6.5 35t1.5 16q0 17 -5 28.5t-18 22.5q-14 12 -30.5 22t-33 19t-31.5 19.5t-27 24.5q-11 13 -17 29t-6 39q0 28 4 59.5t16 85.5
q10 45 23 77t35 53t55.5 31t83.5 10q75 0 108.5 -23t33.5 -83q0 -35 -6.5 -72t-20.5 -70h-117zM-13 -238v5l82 192h124l-1 -6l-103 -191h-102z" />
    <glyph glyph-name="scommaaccent" unicode="&#x219;" horiz-adv-x="422" 
d="M0 0zM277 522q6 35 8 47t2 18q0 17 -8 23.5t-27 6.5q-26 0 -34 -12t-14 -35q-4 -15 -5 -26t-1 -17q0 -18 5 -28.5t16 -18.5q18 -13 33.5 -22t29 -16.5t26 -15t23.5 -16.5q18 -15 28 -32.5t10 -54.5q0 -19 -2.5 -44t-8.5 -57q-12 -68 -28.5 -113t-42 -72t-62 -38.5
t-87.5 -11.5q-72 0 -106 24t-34 84q0 34 8 78t22 80h118q-5 -12 -8.5 -34t-3.5 -36q0 -20 8 -27.5t27 -7.5q27 0 37.5 12.5t15.5 38.5q5 24 6.5 35t1.5 16q0 17 -5 28.5t-18 22.5q-14 12 -30.5 22t-33 19t-31.5 19.5t-27 24.5q-11 13 -17 29t-6 39q0 28 4 59.5t16 85.5
q10 45 23 77t35 53t55.5 31t83.5 10q75 0 108.5 -23t33.5 -83q0 -35 -6.5 -72t-20.5 -70h-117zM-13 -238v5l82 192h124l-1 -6l-103 -191h-102z" />
    <glyph glyph-name="uni021A" unicode="&#x21a;" horiz-adv-x="423" 
d="M0 0zM79 0l105 597h-107l28 160h355l-28 -160h-107l-105 -597h-141zM-1 -238v5l82 192h124l-1 -6l-103 -191h-102z" />
    <glyph glyph-name="uni021B" unicode="&#x21b;" horiz-adv-x="423" 
d="M0 0zM79 0l105 597h-107l28 160h355l-28 -160h-107l-105 -597h-141zM-1 -238v5l82 192h124l-1 -6l-103 -191h-102z" />
    <glyph glyph-name="circumflex" unicode="&#x2c6;" horiz-adv-x="422" 
d="M304 592l-31 69h-9l-55 -69h-113l1 5l140 168h93l83 -168l-1 -5h-108z" />
    <glyph glyph-name="caron" unicode="&#x2c7;" horiz-adv-x="422" 
d="M207 592l-82 167l1 6h110l31 -69h10l54 69h111l-1 -6l-141 -167h-93z" />
    <glyph glyph-name="breve" unicode="&#x2d8;" horiz-adv-x="401" 
d="M422 765q-7 -37 -12.5 -61t-11.5 -39.5t-12.5 -25t-14.5 -16.5q-17 -19 -46 -25t-82 -6q-35 0 -59.5 2.5t-39.5 10.5t-22 23.5t-7 41.5q0 15 2.5 38t7.5 57h92q-7 -38 -7 -53q0 -17 10 -22t39 -5q23 0 33 1.5t14 6.5l6 8t5.5 11.5t5.5 20t7 32.5h92z" />
    <glyph glyph-name="dotaccent" unicode="&#x2d9;" horiz-adv-x="227" 
d="M100 613l21 123h121l-21 -123h-121z" />
    <glyph glyph-name="ring" unicode="&#x2da;" horiz-adv-x="294" 
d="M267 593q-10 -9 -29 -12t-51 -3q-47 0 -65.5 7t-18.5 35q0 8 2 27t9 50q5 25 10 35t16 18q10 8 28.5 11.5t51.5 3.5q46 0 65 -7t19 -35q0 -8 -1.5 -23t-7.5 -48q-5 -26 -11 -38.5t-17 -20.5zM226 642q3 2 5.5 7t5.5 23q3 16 3 23q0 8 -4.5 11t-24.5 3q-14 0 -20 -1
t-10 -3t-5.5 -7t-4.5 -20q-2 -14 -3 -20t-1 -9q0 -8 6 -9.5t25 -1.5q14 0 19 1t9 3z" />
    <glyph glyph-name="ogonek" unicode="&#x2db;" horiz-adv-x="338" 
d="M188 -200q-9 -11 -39 -24.5t-78 -13.5q-104 0 -104 80q0 23 7.5 48t29.5 47t62 39t105 24h54q-21 -8 -40.5 -15.5t-34 -17t-23.5 -23t-9 -31.5q0 -30 39 -30q14 0 25 3.5t19 6.5h4z" />
    <glyph glyph-name="tilde" unicode="&#x2dc;" horiz-adv-x="465" 
d="M467 659q-26 -32 -53 -46.5t-59 -14.5q-23 0 -43 7t-39 15.5t-37.5 15.5t-37.5 7q-28 0 -51 -13.5t-49 -44.5h-4l19 110q18 23 42.5 40.5t57.5 17.5q27 0 49 -7t41.5 -15.5t37.5 -15.5t36 -7q28 0 52.5 12.5t50.5 44.5h5z" />
    <glyph glyph-name="hungarumlaut" unicode="&#x2dd;" horiz-adv-x="489" 
d="M273 592l1 5l111 168h126l-1 -6l-132 -167h-105zM97 592l1 5l110 168h127l-1 -6l-132 -167h-105z" />
    <glyph glyph-name="Delta" unicode="&#x394;" 
d="M-30 0l274 757h114l-1 -757h-387zM232 441h-10l-97 -273h98z" />
    <glyph glyph-name="Omega" unicode="&#x3a9;" 
d="M186 0l24 137q8 7 19.5 34t24 66t24 86t19.5 93t13 75t7.5 46t3.5 26t1 15q0 26 -12 31.5t-38 5.5q-16 0 -27.5 -2t-20.5 -12.5t-16 -33t-14 -62.5q-19 -106 -27.5 -184.5t-8.5 -125.5q0 -48 8 -58l-24 -137h-158l29 168h53l4 8q-7 12 -12.5 23t-9 24t-5.5 28.5t-2 35.5
q0 39 8 101t25 161q14 78 27 122.5t35.5 66t60.5 27t102 5.5q46 0 77.5 -2.5t51 -11.5t28 -26.5t8.5 -47.5q0 -12 -1 -28.5t-5 -45t-12 -73.5t-21 -114q-9 -49 -19.5 -85.5t-22.5 -65t-27.5 -51t-34.5 -43.5v-8h52l-29 -168h-158z" />
    <glyph glyph-name="mu" unicode="&#x3bc;" 
d="M-52 -238l139 798h142l-68 -381q-3 -19 -4 -26.5t-1 -12.5q0 -15 7 -19.5t21 -4.5q21 0 37 16l75 428h142l-98 -560h-128l3 34l-4 2q-19 -20 -39 -30.5t-43 -15.5l-40 -228h-141z" />
    <glyph glyph-name="pi" unicode="&#x3c0;" horiz-adv-x="543" 
d="M442 25q-10 -11 -40 -24.5t-79 -13.5q-51 0 -76 20.5t-25 70.5q0 10 1 22.5t5 33.5l54 303h-73l-77 -437h-141l98 560h355l-69 -395q-3 -15 -3.5 -21t-0.5 -11q0 -17 10 -21t30 -4q14 0 24.5 3.5t17.5 6.5h5z" />
    <glyph glyph-name="Wgrave" unicode="&#x1e80;" horiz-adv-x="695" 
d="M33 0zM341 0l34 464h-10l-131 -464h-201l73 757h141l-61 -515h10l153 515h143l-28 -515h10l120 515h137l-191 -757h-199zM383 789l-77 167l1 6h123l56 -168l-1 -5h-102z" />
    <glyph glyph-name="wgrave" unicode="&#x1e81;" horiz-adv-x="695" 
d="M33 0zM341 0l34 464h-10l-131 -464h-201l73 757h141l-61 -515h10l153 515h143l-28 -515h10l120 515h137l-191 -757h-199zM383 789l-77 167l1 6h123l56 -168l-1 -5h-102z" />
    <glyph glyph-name="Wacute" unicode="&#x1e82;" horiz-adv-x="695" 
d="M33 0zM341 0l34 464h-10l-131 -464h-201l73 757h141l-61 -515h10l153 515h143l-28 -515h10l120 515h137l-191 -757h-199zM367 789l1 5l110 168h127l-1 -6l-132 -167h-105z" />
    <glyph glyph-name="wacute" unicode="&#x1e83;" horiz-adv-x="695" 
d="M33 0zM341 0l34 464h-10l-131 -464h-201l73 757h141l-61 -515h10l153 515h143l-28 -515h10l120 515h137l-191 -757h-199zM367 789l1 5l110 168h127l-1 -6l-132 -167h-105z" />
    <glyph glyph-name="Wdieresis" unicode="&#x1e84;" horiz-adv-x="695" 
d="M33 0zM341 0l34 464h-10l-131 -464h-201l73 757h141l-61 -515h10l153 515h143l-28 -515h10l120 515h137l-191 -757h-199zM463 810l21 123h121l-21 -123h-121zM278 810l21 123h121l-21 -123h-121z" />
    <glyph glyph-name="wdieresis" unicode="&#x1e85;" horiz-adv-x="695" 
d="M33 0zM341 0l34 464h-10l-131 -464h-201l73 757h141l-61 -515h10l153 515h143l-28 -515h10l120 515h137l-191 -757h-199zM463 810l21 123h121l-21 -123h-121zM278 810l21 123h121l-21 -123h-121z" />
    <glyph glyph-name="Ygrave" unicode="&#x1ef2;" horiz-adv-x="446" 
d="M87 0zM87 0l50 287l-42 465l1 5h146l4 -245h9l95 245h141l-1 -5l-204 -481l-47 -271h-152zM257 789l-77 167l1 6h123l56 -168l-1 -5h-102z" />
    <glyph glyph-name="ygrave" unicode="&#x1ef3;" horiz-adv-x="446" 
d="M87 0zM87 0l50 287l-42 465l1 5h146l4 -245h9l95 245h141l-1 -5l-204 -481l-47 -271h-152zM257 789l-77 167l1 6h123l56 -168l-1 -5h-102z" />
    <glyph glyph-name="endash" unicode="&#x2013;" horiz-adv-x="540" 
d="M34 319l22 124h459l-22 -124h-459z" />
    <glyph glyph-name="emdash" unicode="&#x2014;" horiz-adv-x="734" 
d="M34 319l22 124h653l-22 -124h-653z" />
    <glyph glyph-name="quoteleft" unicode="&#x2018;" horiz-adv-x="246" 
d="M78 494l26 148l92 146h68l-1 -6l-68 -137l2 -9h47l-25 -142h-141z" />
    <glyph glyph-name="quoteright" unicode="&#x2019;" horiz-adv-x="246" 
d="M83 494l1 6l68 137l-2 9h-46l25 142h141l-25 -147l-94 -147h-68z" />
    <glyph glyph-name="quotesinglbase" unicode="&#x201a;" horiz-adv-x="246" 
d="M-28 -142l2 6l67 137l-1 9h-46l24 141h141l-26 -147l-93 -146h-68z" />
    <glyph glyph-name="quotedblleft" unicode="&#x201c;" horiz-adv-x="449" 
d="M78 494zM78 494l26 148l92 146h68l-1 -6l-68 -137l2 -9h47l-25 -142h-141zM280 494l26 148l92 146h68l-1 -6l-68 -137l2 -9h47l-25 -142h-141z" />
    <glyph glyph-name="quotedblright" unicode="&#x201d;" horiz-adv-x="449" 
d="M83 494zM83 494l1 6l68 137l-2 9h-46l25 142h141l-25 -147l-94 -147h-68zM285 494l1 6l68 137l-2 9h-46l25 142h141l-25 -147l-94 -147h-68z" />
    <glyph glyph-name="quotedblbase" unicode="&#x201e;" horiz-adv-x="449" 
d="M0 0zM-28 -142l2 6l67 137l-1 9h-46l24 141h141l-26 -147l-93 -146h-68zM174 -142l2 6l67 137l-1 9h-46l24 141h141l-26 -147l-93 -146h-68z" />
    <glyph glyph-name="dagger" unicode="&#x2020;" horiz-adv-x="457" 
d="M161 0l-11 128l65 371h-137l15 84h137l31 174h76l-31 -174h138l-15 -84h-138l-65 -371l-55 -128h-10z" />
    <glyph glyph-name="daggerdbl" unicode="&#x2021;" horiz-adv-x="457" 
d="M128 0l30 174h-137l15 84h137l6 34l42 86l-12 87l6 34h-137l15 84h137l31 174h76l-31 -174h138l-15 -84h-138l-6 -34l-42 -87l12 -86l-6 -34h138l-15 -84h-138l-30 -174h-76z" />
    <glyph glyph-name="bullet" unicode="&#x2022;" horiz-adv-x="345" 
d="M254 253q-14 -13 -37.5 -18t-66.5 -5q-26 0 -45 1.5t-32.5 7.5t-20 18.5t-6.5 34.5q0 13 2.5 37t13.5 77q7 36 15.5 58.5t23 34.5t38.5 16t62 4q24 0 43.5 -1t33.5 -7t21.5 -18.5t7.5 -34.5q0 -13 -3 -36.5t-12 -73.5q-4 -23 -8 -38.5t-8.5 -26t-10 -17.5t-11.5 -13z" />
    <glyph glyph-name="ellipsis" unicode="&#x2026;" horiz-adv-x="875" 
d="M8 0zM8 0l26 151h141l-26 -151h-141zM305 0l26 151h141l-26 -151h-141zM602 0l26 151h141l-26 -151h-141z" />
    <glyph glyph-name="perthousand" unicode="&#x2030;" horiz-adv-x="803" 
d="M0 0zM136 341q-23 0 -39.5 1.5t-27 7.5t-15 18t-4.5 34q0 24 5 61.5t15 94.5q14 78 24 122t24.5 65t36 25.5t57.5 4.5q23 0 39.5 -1.5t27 -7.5t15.5 -18t5 -34q0 -24 -5.5 -61.5t-15.5 -94.5q-14 -79 -24 -122.5t-24.5 -64.5t-36 -25.5t-57.5 -4.5zM154 444q6 0 10 2
t7.5 13t8 34.5t12.5 66.5q8 46 12 70t4 35q0 10 -3 12t-10 2t-11 -2t-7.5 -13.5t-8 -35.5t-12.5 -68t-11.5 -67t-3.5 -34t3.5 -13t9.5 -2zM-15 0l1 5l522 752h87l-1 -5l-522 -752h-87zM373 -17q-23 0 -39.5 1.5t-27 7.5t-15 18t-4.5 34q0 24 5 61.5t15 94.5q14 78 24 122
t24.5 65t36 25.5t57.5 4.5q23 0 39.5 -1.5t27 -7.5t15.5 -18t5 -34q0 -24 -5.5 -61.5t-15.5 -94.5q-14 -79 -24 -122.5t-24.5 -64.5t-36 -25.5t-57.5 -4.5zM391 86q6 0 10 2t7.5 13t8 34.5t12.5 66.5q8 46 12 70t4 35q0 10 -3 12t-10 2t-11 -2t-7.5 -13.5t-8 -35.5
t-12.5 -68t-11.5 -67t-3.5 -34t3.5 -13t9.5 -2zM597 -17q-23 0 -39.5 1.5t-27 7.5t-15 18t-4.5 34q0 24 5 61.5t15 94.5q14 78 24 122t24.5 65t36 25.5t57.5 4.5q23 0 39.5 -1.5t27 -7.5t15.5 -18t5 -34q0 -24 -5.5 -61.5t-15.5 -94.5q-14 -79 -24 -122.5t-24.5 -64.5
t-36 -25.5t-57.5 -4.5zM615 86q6 0 10 2t7.5 13t8 34.5t12.5 66.5q8 46 12 70t4 35q0 10 -3 12t-10 2t-11 -2t-7.5 -13.5t-8 -35.5t-12.5 -68t-11.5 -67t-3.5 -34t3.5 -13t9.5 -2z" />
    <glyph glyph-name="minute" unicode="&#x2032;" horiz-adv-x="286" 
d="M55 484l141 304h134l-180 -304h-95z" />
    <glyph glyph-name="second" unicode="&#x2033;" horiz-adv-x="493" 
d="M262 484l141 304h134l-180 -304h-95zM55 484l141 304h134l-180 -304h-95z" />
    <glyph glyph-name="guilsinglleft" unicode="&#x2039;" horiz-adv-x="267" 
d="M193 182l-156 147l18 103l208 150h5l-23 -130l-105 -72l-2 -11l80 -70l-20 -117h-5z" />
    <glyph glyph-name="guilsinglright" unicode="&#x203a;" horiz-adv-x="267" 
d="M85 582l156 -147l-18 -103l-208 -150h-5l23 130l105 72l2 11l-80 70l20 117h5z" />
    <glyph glyph-name="fraction" unicode="&#x2044;" horiz-adv-x="210" 
d="M-196 0l1 5l522 752h87l-1 -5l-522 -752h-87z" />
    <glyph glyph-name="zerosuperior" unicode="&#x2070;" horiz-adv-x="295" 
d="M58 341zM144 341q-23 0 -39.5 1.5t-27 7.5t-15 18t-4.5 34q0 24 5 61.5t15 94.5q14 78 24 122t24.5 65t36 25.5t57.5 4.5q23 0 39.5 -1.5t27 -7.5t15.5 -18t5 -34q0 -24 -5.5 -61.5t-15.5 -94.5q-14 -79 -24 -122.5t-24.5 -64.5t-36 -25.5t-57.5 -4.5zM162 444q6 0 10 2
t7.5 13t8 34.5t12.5 66.5q8 46 12 70t4 35q0 10 -3 12t-10 2t-11 -2t-7.5 -13.5t-8 -35.5t-12.5 -68t-11.5 -67t-3.5 -34t3.5 -13t9.5 -2z" />
    <glyph glyph-name="foursuperior" unicode="&#x2074;" horiz-adv-x="295" 
d="M49 348zM145 348l12 69h-108l15 85l156 265h81l-47 -264h27l-15 -86h-27l-12 -69h-82zM190 590h-4l-49 -87h38z" />
    <glyph glyph-name="fivesuperior" unicode="&#x2075;" horiz-adv-x="295" 
d="M58 341zM192 669l-8 -33l2 -2q13 7 35 7q32 0 47.5 -16.5t15.5 -54.5q0 -26 -4.5 -53t-11.5 -57q-9 -38 -19 -61.5t-24.5 -36.5t-35 -17t-48.5 -4q-48 0 -65.5 17.5t-17.5 53.5q0 25 4.5 51t10.5 52h81q-5 -26 -6.5 -36t-1.5 -16q0 -19 13 -19q14 0 19.5 11.5t10.5 39.5
l4 22t2 24q0 10 -4 13t-14 3q-14 0 -26 -11l-61 22l46 199h181l-18 -98h-107z" />
    <glyph glyph-name="sixsuperior" unicode="&#x2076;" horiz-adv-x="295" 
d="M61 341zM216 644q2 4 3.5 10t1.5 13q0 8 -4.5 10t-12.5 2q-5 0 -9 -1.5t-7.5 -8t-7 -20.5t-7.5 -39q10 2 19 3t17 1q35 0 52.5 -14.5t17.5 -56.5q0 -21 -3 -42t-8 -42q-8 -37 -17.5 -60t-23.5 -36t-34 -17.5t-48 -4.5q-22 0 -38 2.5t-26 10t-15 22t-5 38.5q0 37 8 85.5
t17 96.5q12 63 22 98.5t23.5 53.5t34.5 22.5t55 4.5q47 0 67 -8.5t20 -42.5q0 -14 -2.5 -33.5t-9.5 -46.5h-80zM159 533q-7 -33 -8.5 -48.5t-1.5 -21.5q0 -10 2 -14.5t13 -4.5q4 0 7.5 1t6 5.5t5 13t5.5 24.5q5 25 5 35q0 14 -14 14q-8 0 -12 -1t-8 -3z" />
    <glyph glyph-name="sevensuperior" unicode="&#x2077;" horiz-adv-x="295" 
d="M63 348zM63 348l139 317l-2 4h-102l18 98h207l-10 -54l-154 -365h-96z" />
    <glyph glyph-name="eightsuperior" unicode="&#x2078;" horiz-adv-x="295" 
d="M53 341zM261 564q8 -6 12.5 -13.5t4.5 -25.5q0 -27 -5 -55t-13 -56q-12 -41 -36.5 -57t-79.5 -16q-52 0 -71.5 14.5t-19.5 49.5q0 12 1.5 29.5t8.5 50.5q8 38 17.5 54t25.5 25q-7 8 -11 17.5t-4 25.5q0 10 1.5 25t9.5 50q5 26 12.5 43.5t20.5 28.5t33.5 16t51.5 5
q48 0 69 -12t18 -55q-3 -58 -14.5 -92.5t-31.5 -51.5zM161 442q13 0 19.5 7t9.5 27l3.5 21t1.5 14q0 11 -4.5 12.5t-14.5 1.5q-14 0 -19 -5t-10 -30q-2 -6 -3 -14.5t-1 -15.5q0 -11 4 -14.5t14 -3.5zM189 599q10 0 15.5 6.5t11.5 38.5q3 18 3 25q0 8 -3.5 10.5t-11.5 2.5
q-12 0 -16.5 -5.5t-8.5 -25.5q-3 -16 -4 -24t-1 -13q0 -10 3.5 -12.5t11.5 -2.5z" />
    <glyph glyph-name="ninesuperior" unicode="&#x2079;" horiz-adv-x="295" 
d="M83 348zM85 348l2 12q25 33 50 71.5t40 73.5l-1 3q-5 -2 -12.5 -3t-14.5 -1q-36 0 -51 11.5t-15 45.5q0 14 3 41.5t13 73.5q5 25 12 43.5t19.5 31t34 18.5t55.5 6q50 0 70 -11.5t20 -48.5q0 -17 -2.5 -37.5t-7 -43t-10.5 -45.5t-12 -44q-17 -51 -41 -98.5t-57 -98.5h-95z
M186 587q13 0 16.5 6.5t8.5 27.5q3 14 4 24.5t1 16.5q0 10 -2 14t-12 4q-11 0 -15 -7t-10 -38q-3 -20 -4 -26t-1 -9q0 -13 14 -13z" />
    <glyph glyph-name="zeroinferior" unicode="&#x2080;" horiz-adv-x="295" 
d="M81 -17q-23 0 -39.5 1.5t-27 7.5t-15 18t-4.5 34q0 24 5 61.5t15 94.5q14 78 24 122t24.5 65t36 25.5t57.5 4.5q23 0 39.5 -1.5t27 -7.5t15.5 -18t5 -34q0 -24 -5.5 -61.5t-15.5 -94.5q-14 -79 -24 -122.5t-24.5 -64.5t-36 -25.5t-57.5 -4.5zM99 86q6 0 10 2t7.5 13
t8 34.5t12.5 66.5q8 46 12 70t4 35q0 10 -3 12t-10 2t-11 -2t-7.5 -13.5t-8 -35.5t-12.5 -68t-11.5 -67t-3.5 -34t3.5 -13t9.5 -2z" />
    <glyph glyph-name="oneinferior" unicode="&#x2081;" horiz-adv-x="295" 
d="M-12 -10l18 102h52l29 166h-54l15 86h37q10 0 17 2.5t11.5 9t8 19.5t7.5 34h74l-56 -317h49l-18 -102h-190z" />
    <glyph glyph-name="twoinferior" unicode="&#x2082;" horiz-adv-x="295" 
d="M-12 -10l18 102l73 68q21 19 33.5 31.5t19 23.5t10 25t7.5 37q2 15 3 21t1 13q0 10 -14 10q-15 0 -19 -11t-7 -29.5t-4 -36.5h-83q2 23 5.5 46t11.5 48q13 42 37 60.5t76 18.5q47 0 67.5 -15t20.5 -59q0 -12 -1.5 -30t-4.5 -36.5t-7.5 -36.5t-10.5 -30q-7 -14 -13 -24.5
t-13.5 -19.5t-17 -17.5t-21.5 -19.5l-45 -40h90l-17 -99h-195z" />
    <glyph glyph-name="threeinferior" unicode="&#x2083;" horiz-adv-x="295" 
d="M68 166l13 76h44q12 0 16.5 4.5t7.5 23.5q4 20 5 28t1 12q0 9 -4 11t-12 2q-7 0 -11.5 -1.5t-7.5 -7t-5 -17t-4 -30.5h-82q3 27 8.5 52t16.5 48q12 27 36.5 38.5t65.5 11.5q48 0 68 -11t20 -48q0 -23 -4 -45t-9 -45q-6 -26 -14 -39t-20 -23q8 -6 12.5 -13.5t4.5 -25.5
q0 -24 -4 -49t-11 -49q-6 -24 -14 -40t-21.5 -26.5t-33.5 -15t-50 -4.5q-49 0 -67.5 17t-18.5 53q0 23 4 45.5t9 44.5h81q-3 -10 -5.5 -20.5t-2.5 -22.5q0 -9 4 -12t13 -3q11 0 17 4t10 16q3 11 5.5 22.5t2.5 24.5q0 10 -4.5 12t-15.5 2h-44z" />
    <glyph glyph-name="fourinferior" unicode="&#x2084;" horiz-adv-x="295" 
d="M82 -10l12 69h-108l15 85l156 265h81l-47 -264h27l-15 -86h-27l-12 -69h-82zM127 232h-4l-49 -87h38z" />
    <glyph glyph-name="fiveinferior" unicode="&#x2085;" horiz-adv-x="295" 
d="M129 311l-8 -33l2 -2q13 7 35 7q32 0 47.5 -16.5t15.5 -54.5q0 -26 -4.5 -53t-11.5 -57q-9 -38 -19 -61.5t-24.5 -36.5t-35 -17t-48.5 -4q-48 0 -65.5 17.5t-17.5 53.5q0 25 4.5 51t10.5 52h81q-5 -26 -6.5 -36t-1.5 -16q0 -19 13 -19q14 0 19.5 11.5t10.5 39.5l4 22
t2 24q0 10 -4 13t-14 3q-14 0 -26 -11l-61 22l46 199h181l-18 -98h-107z" />
    <glyph glyph-name="sixinferior" unicode="&#x2086;" horiz-adv-x="295" 
d="M153 286q2 4 3.5 10t1.5 13q0 8 -4.5 10t-12.5 2q-5 0 -9 -1.5t-7.5 -8t-7 -20.5t-7.5 -39q10 2 19 3t17 1q35 0 52.5 -14.5t17.5 -56.5q0 -21 -3 -42t-8 -42q-8 -37 -17.5 -60t-23.5 -36t-34 -17.5t-48 -4.5q-22 0 -38 2.5t-26 10t-15 22t-5 38.5q0 37 8 85.5t17 96.5
q12 63 22 98.5t23.5 53.5t34.5 22.5t55 4.5q47 0 67 -8.5t20 -42.5q0 -14 -2.5 -33.5t-9.5 -46.5h-80zM96 175q-7 -33 -8.5 -48.5t-1.5 -21.5q0 -10 2 -14.5t13 -4.5q4 0 7.5 1t6 5.5t5 13t5.5 24.5q5 25 5 35q0 14 -14 14q-8 0 -12 -1t-8 -3z" />
    <glyph glyph-name="seveninferior" unicode="&#x2087;" horiz-adv-x="295" 
d="M0 -10l139 317l-2 4h-102l18 98h207l-10 -54l-154 -365h-96z" />
    <glyph glyph-name="eightinferior" unicode="&#x2088;" horiz-adv-x="295" 
d="M198 206q8 -6 12.5 -13.5t4.5 -25.5q0 -27 -5 -55t-13 -56q-12 -41 -36.5 -57t-79.5 -16q-52 0 -71.5 14.5t-19.5 49.5q0 12 1.5 29.5t8.5 50.5q8 38 17.5 54t25.5 25q-7 8 -11 17.5t-4 25.5q0 10 1.5 25t9.5 50q5 26 12.5 43.5t20.5 28.5t33.5 16t51.5 5q48 0 69 -12
t18 -55q-3 -58 -14.5 -92.5t-31.5 -51.5zM98 84q13 0 19.5 7t9.5 27l3.5 21t1.5 14q0 11 -4.5 12.5t-14.5 1.5q-14 0 -19 -5t-10 -30q-2 -6 -3 -14.5t-1 -15.5q0 -11 4 -14.5t14 -3.5zM126 241q10 0 15.5 6.5t11.5 38.5q3 18 3 25q0 8 -3.5 10.5t-11.5 2.5q-12 0 -16.5 -5.5
t-8.5 -25.5q-3 -16 -4 -24t-1 -13q0 -10 3.5 -12.5t11.5 -2.5z" />
    <glyph glyph-name="nineinferior" unicode="&#x2089;" horiz-adv-x="295" 
d="M22 -10l2 12q25 33 50 71.5t40 73.5l-1 3q-5 -2 -12.5 -3t-14.5 -1q-36 0 -51 11.5t-15 45.5q0 14 3 41.5t13 73.5q5 25 12 43.5t19.5 31t34 18.5t55.5 6q50 0 70 -11.5t20 -48.5q0 -17 -2.5 -37.5t-7 -43t-10.5 -45.5t-12 -44q-17 -51 -41 -98.5t-57 -98.5h-95zM123 229
q13 0 16.5 6.5t8.5 27.5q3 14 4 24.5t1 16.5q0 10 -2 14t-12 4q-11 0 -15 -7t-10 -38q-3 -20 -4 -26t-1 -9q0 -13 14 -13z" />
    <glyph glyph-name="Euro" unicode="&#x20ac;" 
d="M388 207q-2 -35 -7.5 -73t-22.5 -72q-19 -37 -57.5 -56t-109.5 -19q-45 0 -74.5 4.5t-47 15.5t-24.5 31t-7 52t5.5 79t16.5 113h-42l26 64h28l13 77h-42l25 64h28q18 94 35 150t43 85.5t64.5 38.5t99.5 9q54 0 84 -15t36 -31l-55 -144h-5q-8 17 -25.5 28t-49.5 11
q-24 0 -39.5 -4t-25.5 -17.5t-17.5 -39.5t-15.5 -71h141l-25 -64h-127l-13 -77h112l-25 -64h-99q-6 -36 -9 -60t-3 -39q0 -25 9.5 -29.5t30.5 -4.5q16 0 26 4t15.5 11.5t8 18t4.5 24.5h117z" />
    <glyph glyph-name="uni20B9" unicode="&#x20b9;" 
d="M160 0q-2 7 -2.5 13.5t-0.5 18.5q0 24 2 54.5t5 59.5t5 51t2 28q0 19 -7 26t-19 7h-114l45 113h108q17 0 28 17.5t22 67.5h-174l28 63h158q6 30 6 47q0 23 -9 29t-23 6h-133l72 156h321l-86 -140q2 -5 3 -11.5t1 -14.5q0 -24 -9 -72h45l-27 -63h-31q-9 -41 -18.5 -68
t-20 -45t-22 -29t-23.5 -18l-1 -6q15 -11 23 -25t8 -48q0 -18 -2 -42t-4 -49.5t-4 -50.5t-2 -44q0 -10 0.5 -15.5t1.5 -10.5v-5h-152z" />
    <glyph glyph-name="uni20BA" unicode="&#x20ba;" 
d="M4 0l56 322l-34 -9l12 67l34 10l13 73l-35 -10l12 67l35 10l40 227h141l-32 -182l183 54l-11 -67l-184 -55l-13 -73l184 54l-12 -67l-184 -54l-35 -200h24q13 0 21 1.5t14 9.5t11.5 26t12.5 51h143q-9 -47 -17 -78.5t-16 -53t-16 -36t-17 -27.5q-23 -34 -59.5 -47
t-100.5 -13h-170z" />
    <glyph glyph-name="trademark" unicode="&#x2122;" horiz-adv-x="707" 
d="M114 398l48 274h-67l15 85h224l-15 -85h-67l-48 -274h-90zM581 398l35 198h-10l-101 -198h-45l-31 198h-10l-35 -198h-82l63 359h125l17 -167h9l80 167h130l-63 -359h-82z" />
    <glyph glyph-name="onethird" unicode="&#x2153;" horiz-adv-x="601" 
d="M3 0zM35 348l18 102h52l29 166h-54l15 86h37q10 0 17 2.5t11.5 9t8 19.5t7.5 34h74l-56 -317h49l-18 -102h-190zM3 0l1 5l522 752h87l-1 -5l-522 -752h-87zM382 166l13 76h44q12 0 16.5 4.5t7.5 23.5q4 20 5 28t1 12q0 9 -4 11t-12 2q-7 0 -11.5 -1.5t-7.5 -7t-5 -17
t-4 -30.5h-82q3 27 8.5 52t16.5 48q12 27 36.5 38.5t65.5 11.5q48 0 68 -11t20 -48q0 -23 -4 -45t-9 -45q-6 -26 -14 -39t-20 -23q8 -6 12.5 -13.5t4.5 -25.5q0 -24 -4 -49t-11 -49q-6 -24 -14 -40t-21.5 -26.5t-33.5 -15t-50 -4.5q-49 0 -67.5 17t-18.5 53q0 23 4 45.5
t9 44.5h81q-3 -10 -5.5 -20.5t-2.5 -22.5q0 -9 4 -12t13 -3q11 0 17 4t10 16q3 11 5.5 22.5t2.5 24.5q0 10 -4.5 12t-15.5 2h-44z" />
    <glyph glyph-name="twothirds" unicode="&#x2154;" horiz-adv-x="601" 
d="M10 0zM37 348l18 102l73 68q21 19 33.5 31.5t19 23.5t10 25t7.5 37q2 15 3 21t1 13q0 10 -14 10q-15 0 -19 -11t-7 -29.5t-4 -36.5h-83q2 23 5.5 46t11.5 48q13 42 37 60.5t76 18.5q47 0 67.5 -15t20.5 -59q0 -12 -1.5 -30t-4.5 -36.5t-7.5 -36.5t-10.5 -30
q-7 -14 -13 -24.5t-13.5 -19.5t-17 -17.5t-21.5 -19.5l-45 -40h90l-17 -99h-195zM10 0l1 5l522 752h87l-1 -5l-522 -752h-87zM388 166l13 76h44q12 0 16.5 4.5t7.5 23.5q4 20 5 28t1 12q0 9 -4 11t-12 2q-7 0 -11.5 -1.5t-7.5 -7t-5 -17t-4 -30.5h-82q3 27 8.5 52t16.5 48
q12 27 36.5 38.5t65.5 11.5q48 0 68 -11t20 -48q0 -23 -4 -45t-9 -45q-6 -26 -14 -39t-20 -23q8 -6 12.5 -13.5t4.5 -25.5q0 -24 -4 -49t-11 -49q-6 -24 -14 -40t-21.5 -26.5t-33.5 -15t-50 -4.5q-49 0 -67.5 17t-18.5 53q0 23 4 45.5t9 44.5h81q-3 -10 -5.5 -20.5
t-2.5 -22.5q0 -9 4 -12t13 -3q11 0 17 4t10 16q3 11 5.5 22.5t2.5 24.5q0 10 -4.5 12t-15.5 2h-44z" />
    <glyph glyph-name="oneeighth" unicode="&#x215b;" horiz-adv-x="601" 
d="M1 0zM33 348l18 102h52l29 166h-54l15 86h37q10 0 17 2.5t11.5 9t8 19.5t7.5 34h74l-56 -317h49l-18 -102h-190zM1 0l1 5l522 752h87l-1 -5l-522 -752h-87zM514 206q8 -6 12.5 -13.5t4.5 -25.5q0 -27 -5 -55t-13 -56q-12 -41 -36.5 -57t-79.5 -16q-52 0 -71.5 14.5
t-19.5 49.5q0 12 1.5 29.5t8.5 50.5q8 38 17.5 54t25.5 25q-7 8 -11 17.5t-4 25.5q0 10 1.5 25t9.5 50q5 26 12.5 43.5t20.5 28.5t33.5 16t51.5 5q48 0 69 -12t18 -55q-3 -58 -14.5 -92.5t-31.5 -51.5zM414 84q13 0 19.5 7t9.5 27l3.5 21t1.5 14q0 11 -4.5 12.5t-14.5 1.5
q-14 0 -19 -5t-10 -30q-2 -6 -3 -14.5t-1 -15.5q0 -11 4 -14.5t14 -3.5zM442 241q10 0 15.5 6.5t11.5 38.5q3 18 3 25q0 8 -3.5 10.5t-11.5 2.5q-12 0 -16.5 -5.5t-8.5 -25.5q-3 -16 -4 -24t-1 -13q0 -10 3.5 -12.5t11.5 -2.5z" />
    <glyph glyph-name="threeeighths" unicode="&#x215c;" horiz-adv-x="601" 
d="M0 0zM125 524l13 76h44q12 0 16.5 4.5t7.5 23.5q4 20 5 28t1 12q0 9 -4 11t-12 2q-7 0 -11.5 -1.5t-7.5 -7t-5 -17t-4 -30.5h-82q3 27 8.5 52t16.5 48q12 27 36.5 38.5t65.5 11.5q48 0 68 -11t20 -48q0 -23 -4 -45t-9 -45q-6 -26 -14 -39t-20 -23q8 -6 12.5 -13.5
t4.5 -25.5q0 -24 -4 -49t-11 -49q-6 -24 -14 -40t-21.5 -26.5t-33.5 -15t-50 -4.5q-49 0 -67.5 17t-18.5 53q0 23 4 45.5t9 44.5h81q-3 -10 -5.5 -20.5t-2.5 -22.5q0 -9 4 -12t13 -3q11 0 17 4t10 16q3 11 5.5 22.5t2.5 24.5q0 10 -4.5 12t-15.5 2h-44zM-3 0l1 5l522 752h87
l-1 -5l-522 -752h-87zM508 206q8 -6 12.5 -13.5t4.5 -25.5q0 -27 -5 -55t-13 -56q-12 -41 -36.5 -57t-79.5 -16q-52 0 -71.5 14.5t-19.5 49.5q0 12 1.5 29.5t8.5 50.5q8 38 17.5 54t25.5 25q-7 8 -11 17.5t-4 25.5q0 10 1.5 25t9.5 50q5 26 12.5 43.5t20.5 28.5t33.5 16
t51.5 5q48 0 69 -12t18 -55q-3 -58 -14.5 -92.5t-31.5 -51.5zM408 84q13 0 19.5 7t9.5 27l3.5 21t1.5 14q0 11 -4.5 12.5t-14.5 1.5q-14 0 -19 -5t-10 -30q-2 -6 -3 -14.5t-1 -15.5q0 -11 4 -14.5t14 -3.5zM436 241q10 0 15.5 6.5t11.5 38.5q3 18 3 25q0 8 -3.5 10.5
t-11.5 2.5q-12 0 -16.5 -5.5t-8.5 -25.5q-3 -16 -4 -24t-1 -13q0 -10 3.5 -12.5t11.5 -2.5z" />
    <glyph glyph-name="fiveeighths" unicode="&#x215d;" horiz-adv-x="601" 
d="M0 0zM186 669l-8 -33l2 -2q13 7 35 7q32 0 47.5 -16.5t15.5 -54.5q0 -26 -4.5 -53t-11.5 -57q-9 -38 -19 -61.5t-24.5 -36.5t-35 -17t-48.5 -4q-48 0 -65.5 17.5t-17.5 53.5q0 25 4.5 51t10.5 52h81q-5 -26 -6.5 -36t-1.5 -16q0 -19 13 -19q14 0 19.5 11.5t10.5 39.5
l4 22t2 24q0 10 -4 13t-14 3q-14 0 -26 -11l-61 22l46 199h181l-18 -98h-107zM-5 0l1 5l522 752h87l-1 -5l-522 -752h-87zM508 206q8 -6 12.5 -13.5t4.5 -25.5q0 -27 -5 -55t-13 -56q-12 -41 -36.5 -57t-79.5 -16q-52 0 -71.5 14.5t-19.5 49.5q0 12 1.5 29.5t8.5 50.5
q8 38 17.5 54t25.5 25q-7 8 -11 17.5t-4 25.5q0 10 1.5 25t9.5 50q5 26 12.5 43.5t20.5 28.5t33.5 16t51.5 5q48 0 69 -12t18 -55q-3 -58 -14.5 -92.5t-31.5 -51.5zM408 84q13 0 19.5 7t9.5 27l3.5 21t1.5 14q0 11 -4.5 12.5t-14.5 1.5q-14 0 -19 -5t-10 -30q-2 -6 -3 -14.5
t-1 -15.5q0 -11 4 -14.5t14 -3.5zM436 241q10 0 15.5 6.5t11.5 38.5q3 18 3 25q0 8 -3.5 10.5t-11.5 2.5q-12 0 -16.5 -5.5t-8.5 -25.5q-3 -16 -4 -24t-1 -13q0 -10 3.5 -12.5t11.5 -2.5z" />
    <glyph glyph-name="seveneighths" unicode="&#x215e;" horiz-adv-x="601" 
d="M0 0zM66 348l139 317l-2 4h-102l18 98h207l-10 -54l-154 -365h-96zM-16 0l1 5l522 752h87l-1 -5l-522 -752h-87zM508 206q8 -6 12.5 -13.5t4.5 -25.5q0 -27 -5 -55t-13 -56q-12 -41 -36.5 -57t-79.5 -16q-52 0 -71.5 14.5t-19.5 49.5q0 12 1.5 29.5t8.5 50.5
q8 38 17.5 54t25.5 25q-7 8 -11 17.5t-4 25.5q0 10 1.5 25t9.5 50q5 26 12.5 43.5t20.5 28.5t33.5 16t51.5 5q48 0 69 -12t18 -55q-3 -58 -14.5 -92.5t-31.5 -51.5zM408 84q13 0 19.5 7t9.5 27l3.5 21t1.5 14q0 11 -4.5 12.5t-14.5 1.5q-14 0 -19 -5t-10 -30q-2 -6 -3 -14.5
t-1 -15.5q0 -11 4 -14.5t14 -3.5zM436 241q10 0 15.5 6.5t11.5 38.5q3 18 3 25q0 8 -3.5 10.5t-11.5 2.5q-12 0 -16.5 -5.5t-8.5 -25.5q-3 -16 -4 -24t-1 -13q0 -10 3.5 -12.5t11.5 -2.5z" />
    <glyph glyph-name="partialdiff" unicode="&#x2202;" 
d="M320 412q8 26 12 54t4 58q0 55 -19 84t-54 29q-14 0 -23 -4l18 131l22 4t22 2q28 0 53 -11.5t43.5 -36t29 -64t10.5 -95.5q0 -72 -13.5 -145t-34.5 -148q-18 -63 -42 -115.5t-55 -90t-70 -58.5t-87 -21q-64 0 -96 40.5t-32 118.5q0 31 5 69t15.5 76.5t27.5 75t41 65
t56.5 45.5t73.5 17q32 0 54.5 -21.5t29.5 -58.5h9zM287 291q-5 31 -20 50.5t-55 19.5q-26 0 -44 -19.5t-29 -47.5t-16.5 -58.5t-5.5 -51.5q0 -35 13.5 -53t36.5 -18q37 0 67 43.5t53 134.5z" />
    <glyph glyph-name="product" unicode="&#x220f;" 
d="M201 -238l190 1083h-160l-190 -1083h-104l210 1200h371l-211 -1200h-106z" />
    <glyph glyph-name="summation" unicode="&#x2211;" 
d="M-62 -238l4 23l283 482l-117 469l4 21h368l-23 -133h-203l80 -365l-200 -365h194l-23 -132h-367z" />
    <glyph glyph-name="minus" unicode="&#x2212;" 
d="M29 321l21 117h381l-21 -117h-381z" />
    <glyph glyph-name="radical" unicode="&#x221a;" 
d="M100 0l-17 321h-62l21 117h140l2 -252h9l198 571h108l-1 -5l-281 -752h-117z" />
    <glyph glyph-name="infinity" unicode="&#x221e;" horiz-adv-x="760" 
d="M363 263q-37 -46 -85.5 -75.5t-116.5 -29.5q-55 0 -83.5 36t-28.5 105q0 40 9.5 92t32 98t59 78t89.5 32q34 0 59 -8t44 -22.5t33.5 -34t27.5 -43.5q22 24 45 43.5t47.5 34t53 22.5t61.5 8q54 0 82.5 -34.5t28.5 -104.5q0 -41 -9.5 -93t-31 -98.5t-58 -78.5t-90.5 -32
q-34 0 -60 8t-46 22t-35 33t-28 42zM334 373q-9 18 -18.5 32.5t-21.5 25.5t-27 17t-35 6q-23 0 -37.5 -11.5t-22.5 -29t-11 -39t-3 -41.5q0 -18 9.5 -28t36.5 -10q21 0 39.5 7t34.5 18.5t30 25t26 27.5zM433 373q8 -14 17.5 -27.5t22 -25t28 -18.5t36.5 -7q24 0 38.5 11
t22.5 28.5t11 39t3 42.5q0 17 -9.5 27.5t-37.5 10.5q-38 0 -69 -23t-63 -58z" />
    <glyph glyph-name="integral" unicode="&#x222b;" 
d="M-51 -238l20 117h79q26 0 36 10.5t15 41.5l153 863q8 45 21.5 77t34 52.5t49.5 29.5t68 9h83l-21 -117h-80q-26 0 -35.5 -10.5t-15.5 -41.5l-152 -863q-8 -46 -21 -78t-34 -52t-50 -29t-68 -9h-82z" />
    <glyph glyph-name="approxequal" unicode="&#x2248;" 
d="M0 133zM391 212q-28 -35 -55.5 -49.5t-62.5 -14.5q-24 0 -45 7.5t-41 16t-39.5 16t-39.5 7.5q-30 0 -53.5 -14t-50.5 -48h-8l21 117q20 26 46.5 44.5t60.5 18.5q28 0 51.5 -7.5t44 -17t39.5 -17t39 -7.5q29 0 54.5 14t52.5 48h6zM443 512q-28 -35 -55.5 -49.5
t-62.5 -14.5q-24 0 -45 7.5t-41 16t-39.5 16t-39.5 7.5q-30 0 -53.5 -14t-50.5 -48h-8l21 117q20 26 46.5 44.5t60.5 18.5q28 0 51.5 -7.5t44 -17t39.5 -17t39 -7.5q29 0 54.5 14t52.5 48h6z" />
    <glyph glyph-name="notequal" unicode="&#x2260;" 
d="M162 192l-115 -192h-86l1 5l111 187h-66l21 116h115l87 143h-177l21 117h226l114 189h87l-1 -5l-111 -184h66l-21 -117h-115l-87 -143h177l-21 -116h-226z" />
    <glyph glyph-name="lessequal" unicode="&#x2264;" 
d="M0 0zM373 137l-344 184l21 117l408 184h5l-23 -129l-264 -111l-2 -11l225 -110l-21 -124h-5zM-38 -59l21 117h381l-21 -117h-381z" />
    <glyph glyph-name="greaterequal" unicode="&#x2265;" 
d="M0 0zM86 622l344 -184l-21 -117l-408 -184h-5l23 129l264 111l2 11l-225 110l21 124h5zM-38 -59l21 117h381l-21 -117h-381z" />
    <glyph glyph-name="lozenge" unicode="&#x25ca;" 
d="M118 0l-66 378l199 379h92l64 -379l-197 -378h-92zM301 378l-28 212h-9l-106 -212l31 -210h9z" />
    <glyph glyph-name=".ttfautohint" horiz-adv-x="197" 
d="M0 0z" />
    </font>
</defs>
</svg>
