<?xml version="1.0" standalone="no"?>
<!DOCTYPE svg PUBLIC "-//W3C//DTD SVG 1.1//EN" "http://www.w3.org/Graphics/SVG/1.1/DTD/svg11.dtd" >
<svg xmlns="http://www.w3.org/2000/svg" xmlns:xlink="http://www.w3.org/1999/xlink" version="1.1">
<metadata>
Created by FontForge 20170731 at Thu Jun 18 11:42:10 2015
 By Aleksey,,,
(c) 2013-2015 Typodermic Fonts Inc. See attached license agreement. If agreement is missing visit typodermicfonts.com for more info.
</metadata>
<defs>
<font id="BuiltTitlingSb-Regular" horiz-adv-x="393" >
  <font-face 
    font-family="Built Titling Sb"
    font-weight="600"
    font-stretch="normal"
    units-per-em="1000"
    panose-1="2 11 7 6 3 2 2 8 2 4"
    ascent="762"
    descent="-238"
    cap-height="757"
    bbox="-148 -238 774 962"
    underline-thickness="20"
    underline-position="-163"
    unicode-range="U+0017-25CA"
  />
<missing-glyph horiz-adv-x="808" 
d="M404 -169q-85 0 -146 4t-102 20.5t-65.5 50.5t-37.5 95t-16.5 153t-3.5 225t3.5 225t16.5 153t37.5 95t65.5 51t101.5 20.5t146.5 3.5t146.5 -3.5t101.5 -20.5t65.5 -51t37 -95t16 -153t3.5 -225q0 -132 -3.5 -224.5t-16 -153.5t-37 -95t-65.5 -50.5t-101.5 -20.5
t-146.5 -4zM402 212q9 34 15.5 54t11 31.5t9.5 16t11 8.5q19 11 38.5 17t41.5 20q15 10 26 22t20 30t17.5 44t18.5 65q7 28 11 51.5t4 43.5q0 54 -33.5 86t-112.5 53q-54 14 -89 14q-53 0 -83.5 -30.5t-48.5 -99.5q-8 -29 -10.5 -46.5t-2.5 -33.5l127 -33q4 42 16.5 62.5
t29.5 20.5q29 0 42 -11.5t13 -27.5q0 -8 -1.5 -16t-4.5 -20q-5 -23 -10 -36.5t-12.5 -21.5t-19 -14t-30.5 -14q-22 -10 -38.5 -19.5t-28 -21t-19.5 -26t-13 -33.5q-8 -31 -15 -57t-9 -43zM393 136l-151 40l-39 -146l151 -41z" />
    <glyph glyph-name="copyright" unicode="&#x28;C&#x29;" horiz-adv-x="544" 
d="M476 49q-12 -17 -29 -29t-41 -19.5t-57 -10.5t-78 -3t-77.5 3t-56.5 10.5t-40.5 19.5t-28.5 29q-13 17 -21.5 37t-14 55.5t-7.5 91.5t-2 146q0 89 2 145t7.5 91t14 55t21.5 38q12 17 28.5 28.5t40.5 19t56.5 11t77.5 3.5t78 -3.5t57 -11t41 -19t29 -28.5q12 -18 21 -38
t14 -55t7.5 -91t2.5 -145q0 -90 -2.5 -146t-7.5 -91.5t-14 -55.5t-21 -37zM420 91q9 12 14.5 28t9.5 46.5t5.5 81.5t1.5 132t-1.5 131.5t-5.5 80.5t-9.5 46t-14.5 28q-6 9 -17 15.5t-28 11t-42.5 6.5t-61.5 2t-61 -2t-42.5 -6.5t-28 -11t-16.5 -15.5q-9 -12 -14.5 -28
t-9 -46t-5 -80.5t-1.5 -131.5t1.5 -132t5 -82t9 -46.5t14.5 -27.5q6 -9 16.5 -15.5t28 -10.5t42.5 -6t61 -2t61.5 2t43 6t28 10.5t16.5 15.5zM359 335q1 -10 1.5 -18.5t0.5 -19.5q0 -33 -3 -56.5t-12 -37.5t-26.5 -20.5t-46.5 -6.5q-36 0 -52.5 7t-25.5 25q-4 8 -7 18.5
t-4.5 29.5t-2.5 49.5t-1 79.5t1 79t2.5 48t4.5 28t7 18q10 19 26 26t51 7t49.5 -6.5t22.5 -21.5q9 -16 12.5 -37t3.5 -54v-18t-1 -19h-62q1 11 1 18.5v16.5q0 20 -1 29t-4 18t-21 9q-17 0 -21 -9q-2 -5 -3 -10.5t-1.5 -18.5t-0.5 -37v-66v-66t0.5 -37t1.5 -19t3 -10
q2 -5 6.5 -7t15.5 -2q10 0 13.5 1.5t5.5 6.5q4 9 5 16.5t1 24.5v21t-1 21h62z" />
    <glyph glyph-name="registered" unicode="&#x28;R&#x29;" horiz-adv-x="544" 
d="M476 49q-12 -17 -29 -29t-41 -19.5t-57 -10.5t-78 -3t-77.5 3t-56.5 10.5t-40.5 19.5t-28.5 29q-13 17 -21.5 37t-14 55.5t-7.5 91.5t-2 146q0 89 2 145t7.5 91t14 55t21.5 38q12 17 28.5 28.5t40.5 19t56.5 11t77.5 3.5t78 -3.5t57 -11t41 -19t29 -28.5q12 -18 21 -38
t14 -55t7.5 -91t2.5 -145q0 -90 -2.5 -146t-7.5 -91.5t-14 -55.5t-21 -37zM420 91q9 12 14.5 28t9.5 46.5t5.5 81.5t1.5 132t-1.5 131.5t-5.5 80.5t-9.5 46t-14.5 28q-6 9 -17 15.5t-28 11t-42.5 6.5t-61.5 2t-61 -2t-42.5 -6.5t-28 -11t-16.5 -15.5q-9 -12 -14.5 -28
t-9 -46t-5 -80.5t-1.5 -131.5t1.5 -132t5 -82t9 -46.5t14.5 -27.5q6 -9 16.5 -15.5t28 -10.5t42.5 -6t61 -2t61.5 2t43 6t28 10.5t16.5 15.5zM303 180q-5 11 -9 35.5t-7 73.5q-2 37 -7 46t-13 9h-17v-164h-66v404h103q46 0 61 -24t15 -85q0 -28 -1.5 -45.5t-5.5 -28.5
t-9.5 -16.5t-12.5 -9.5v-9q5 -5 8.5 -11.5t7.5 -26.5q6 -35 8 -72t12 -72v-4h-67zM275 403q7 0 11.5 2t7 8.5t3.5 19t1 32.5q0 36 -6 45t-17 9h-25v-116h25z" />
    <glyph glyph-name="uni2117" unicode="&#x28;P&#x29;" horiz-adv-x="544" 
d="M476 49q-12 -17 -29 -29t-41 -19.5t-57 -10.5t-78 -3t-77.5 3t-56.5 10.5t-40.5 19.5t-28.5 29q-13 17 -21.5 37t-14 55.5t-7.5 91.5t-2 146q0 89 2 145t7.5 91t14 55t21.5 38q12 17 28.5 28.5t40.5 19t56.5 11t77.5 3.5t78 -3.5t57 -11t41 -19t29 -28.5q12 -18 21 -38
t14 -55t7.5 -91t2.5 -145q0 -90 -2.5 -146t-7.5 -91.5t-14 -55.5t-21 -37zM420 91q9 12 14.5 28t9.5 46.5t5.5 81.5t1.5 132t-1.5 131.5t-5.5 80.5t-9.5 46t-14.5 28q-6 9 -17 15.5t-28 11t-42.5 6.5t-61.5 2t-61 -2t-42.5 -6.5t-28 -11t-16.5 -15.5q-9 -12 -14.5 -28
t-9 -46t-5 -80.5t-1.5 -131.5t1.5 -132t5 -82t9 -46.5t14.5 -27.5q6 -9 16.5 -15.5t28 -10.5t42.5 -6t61 -2t61.5 2t43 6t28 10.5t16.5 15.5zM188 180v404h101q22 0 37 -6t24 -21t13 -41.5t4 -67.5q0 -42 -3.5 -69t-12.5 -43.5t-24 -23t-38 -6.5h-35v-126h-66zM279 371
q6 0 10 3t6.5 11.5t4 23.5t1.5 40q0 23 -1.5 36.5t-4.5 21t-7.5 10t-10.5 2.5h-23v-148h25z" />
    <glyph glyph-name=".notdef" horiz-adv-x="808" 
d="M404 -169q-85 0 -146 4t-102 20.5t-65.5 50.5t-37.5 95t-16.5 153t-3.5 225t3.5 225t16.5 153t37.5 95t65.5 51t101.5 20.5t146.5 3.5t146.5 -3.5t101.5 -20.5t65.5 -51t37 -95t16 -153t3.5 -225q0 -132 -3.5 -224.5t-16 -153.5t-37 -95t-65.5 -50.5t-101.5 -20.5
t-146.5 -4zM402 212q9 34 15.5 54t11 31.5t9.5 16t11 8.5q19 11 38.5 17t41.5 20q15 10 26 22t20 30t17.5 44t18.5 65q7 28 11 51.5t4 43.5q0 54 -33.5 86t-112.5 53q-54 14 -89 14q-53 0 -83.5 -30.5t-48.5 -99.5q-8 -29 -10.5 -46.5t-2.5 -33.5l127 -33q4 42 16.5 62.5
t29.5 20.5q29 0 42 -11.5t13 -27.5q0 -8 -1.5 -16t-4.5 -20q-5 -23 -10 -36.5t-12.5 -21.5t-19 -14t-30.5 -14q-22 -10 -38.5 -19.5t-28 -21t-19.5 -26t-13 -33.5q-8 -31 -15 -57t-9 -43zM393 136l-151 40l-39 -146l151 -41z" />
    <glyph glyph-name=".null" horiz-adv-x="0" 
 />
    <glyph glyph-name="nonmarkingreturn" horiz-adv-x="173" 
 />
    <glyph glyph-name="uni0017" horiz-adv-x="173" 
 />
    <glyph glyph-name="space" unicode=" " horiz-adv-x="173" 
 />
    <glyph glyph-name="exclam" unicode="!" horiz-adv-x="203" 
d="M51 227l-18 561h136l-17 -561h-101zM40 0v151h123v-151h-123z" />
    <glyph glyph-name="quotedbl" unicode="&#x22;" horiz-adv-x="337" 
d="M29 499zM47 499l-18 289h115l-18 -289h-79zM210 499l-18 289h115l-18 -289h-79z" />
    <glyph glyph-name="numbersign" unicode="#" 
d="M232 0v220h-72v-220h-76v220h-67v76h67v166h-67v76h67v219h76v-219h72v219h77v-219h67v-76h-67v-166h67v-76h-67v-220h-77zM232 462h-72v-166h72v166z" />
    <glyph glyph-name="dollar" unicode="$" 
d="M164 -43v124q-33 1 -58 8.5t-41.5 23.5t-24.5 42t-8 66q0 20 1.5 37t3.5 31h111q-1 -6 -1.5 -13.5t-0.5 -17.5q0 -17 1 -30.5t6 -22.5t14.5 -14t26.5 -5q33 0 41 15.5t8 59.5q0 22 -2 32t-14 21q-12 12 -32.5 22t-42.5 19.5t-43 18.5t-36 20q-13 9 -21.5 20.5t-13 29
t-6.5 42t-2 59.5q0 40 6.5 67.5t22 44.5t41.5 25.5t64 10.5v108h63v-108q70 -3 98.5 -32t28.5 -100q0 -20 -1 -35t-3 -26h-110q1 7 1 15v19q0 32 -8 47.5t-40 15.5q-27 0 -36.5 -12t-9.5 -50q0 -20 1 -31.5t4.5 -18.5t11 -11.5t20.5 -10.5q28 -13 54.5 -22.5t50.5 -20.5
q17 -8 31 -16t23.5 -21.5t15 -36t5.5 -61.5q0 -54 -6 -91.5t-21.5 -61.5t-42 -35.5t-67.5 -14.5v-125h-63z" />
    <glyph glyph-name="percent" unicode="%" horiz-adv-x="552" 
d="M21 0zM200 364q-11 -15 -28 -19t-52 -4q-36 0 -52.5 4t-27.5 19q-6 8 -10 21.5t-6 36t-2.5 55.5t-0.5 81q0 46 0.5 79t2.5 55t6 36t10 23q10 14 27 19t53 5q35 0 52 -5t28 -19q6 -9 10 -23t6.5 -36t3 -55t0.5 -79q0 -48 -0.5 -81t-3 -55.5t-6.5 -36t-10 -21.5zM136 431
q1 5 2 12.5t2 21.5t1 36.5v57.5v59t-0.5 37.5t-1.5 21.5t-2 12q-2 8 -17 8q-14 0 -17 -8q-2 -5 -3 -12.5t-1.5 -22t-0.5 -37v-58.5v-57.5t1 -36.5t2 -21.5t3 -12.5t5.5 -6.5t10.5 -1.5q14 0 16 8zM49 0v4l373 753h77v-5l-373 -752h-77zM511 6q-11 -15 -28 -19t-52 -4
q-36 0 -52.5 4t-27.5 19q-6 8 -10 21.5t-6 36t-2.5 55.5t-0.5 81q0 46 0.5 79t2.5 55t6 36t10 23q10 14 27 19t53 5q35 0 52 -5t28 -19q6 -9 10 -23t6.5 -36t3 -55t0.5 -79q0 -48 -0.5 -81t-3 -55.5t-6.5 -36t-10 -21.5zM447 73q1 5 2 12.5t2 21.5t1 36.5v57.5v59t-0.5 37.5
t-1.5 21.5t-2 12q-2 8 -17 8q-14 0 -17 -8q-2 -5 -3 -12.5t-1.5 -22t-0.5 -37v-58.5v-57.5t1 -36.5t2 -21.5t3 -12.5t5.5 -6.5t10.5 -1.5q14 0 16 8z" />
    <glyph glyph-name="ampersand" unicode="&#x26;" horiz-adv-x="469" 
d="M356 0l-35 71h-4q-13 -44 -42.5 -64t-93.5 -20q-53 0 -84 8t-47.5 32t-21.5 67.5t-5 115.5q0 55 3 89.5t14.5 57.5t34.5 40t62 37l-29 59q-8 17 -13 30t-8 26.5t-4 29.5t-1 39q0 48 6.5 77.5t23 46t45.5 22.5t75 6q39 0 64.5 -6t41 -24t21.5 -51.5t6 -89.5
q0 -43 -3 -71.5t-10.5 -48t-22 -33.5t-36.5 -29l-31 -20l47 -102h4l32 89h113v-5l-88 -196l92 -179v-4h-106zM259 190l-76 155l-16 -11q-8 -5 -12 -10t-6.5 -15.5t-3 -28.5t-0.5 -49q0 -40 1.5 -62.5t7 -34t15 -14t26.5 -2.5q12 0 19.5 1t12.5 5t9.5 12t9.5 21zM235 494
q10 6 16.5 11.5t10 15t5 25t1.5 42.5q0 25 -1.5 39.5t-5.5 21.5t-12.5 9t-21.5 2q-14 0 -22 -2t-12.5 -9t-6 -20.5t-1.5 -37.5q0 -14 1 -24t3.5 -19t6.5 -19t11 -25l10 -22z" />
    <glyph glyph-name="quotesingle" unicode="'" horiz-adv-x="174" 
d="M47 499l-18 289h115l-18 -289h-79z" />
    <glyph glyph-name="parenleft" unicode="(" 
d="M266 -238q-28 32 -53 78t-44 116t-30 169t-11 237t11 237t30 169t44 116t53 78h92v-6q-27 -37 -52 -81.5t-44 -111.5t-30 -163.5t-11 -238.5q0 -141 11 -237t30 -162t44 -111t52 -84v-5h-92z" />
    <glyph glyph-name="parenright" unicode=")" 
d="M35 -238v5q27 39 52 84t43.5 111t30 162t11.5 237q0 142 -11.5 238t-30 162t-43.5 111t-52 84v6h91q28 -32 53 -78t44 -116t30 -169t11 -237t-11 -237t-30 -169t-44 -116t-53 -78h-91z" />
    <glyph glyph-name="asterisk" unicode="*" horiz-adv-x="492" 
d="M337 369l-84 138h-10l-85 -140l-59 44l106 122l-3 11l-160 37l23 70l150 -63l8 6l-14 163h74l-14 -162l9 -6l150 64l23 -71l-158 -36l-3 -11l107 -123z" />
    <glyph glyph-name="plus" unicode="+" 
d="M150 199v134h-133v92h133v134h93v-134h133v-92h-133v-134h-93z" />
    <glyph glyph-name="comma" unicode="," horiz-adv-x="190" 
d="M38 -142v5l39 139l-3 8h-41v128h124v-134l-60 -146h-59z" />
    <glyph glyph-name="hyphen" unicode="-" horiz-adv-x="318" 
d="M21 332v98h275v-98h-275z" />
    <glyph glyph-name="period" unicode="." horiz-adv-x="189" 
d="M33 0v138h123v-138h-123z" />
    <glyph glyph-name="slash" unicode="/" 
d="M12 -153l278 1001h91l-278 -1001h-91z" />
    <glyph glyph-name="zero" unicode="0" 
d="M336 25q-9 -12 -20 -19.5t-27 -11.5t-39 -5.5t-54 -1.5q-32 0 -54 1.5t-38 5.5t-27 11.5t-20 19.5q-11 15 -17.5 40t-10.5 66t-5 101t-1 147q0 86 1 146t5 100.5t10.5 65.5t17.5 41q8 12 19 19.5t27 11.5t38.5 5.5t54.5 1.5q31 0 54 -1.5t39.5 -5.5t27.5 -11.5t19 -19.5
q11 -16 17.5 -41t10.5 -65.5t5 -100.5t1 -146q0 -87 -1 -147t-5 -101t-10.5 -66t-17.5 -40zM237 140q3 9 5.5 23t3.5 40t1.5 69t0.5 109q0 69 -0.5 113t-1.5 70t-3 39.5t-5 22.5q-5 13 -13.5 17.5t-28.5 4.5t-28 -4.5t-13 -17.5q-3 -9 -5 -22.5t-3 -39.5t-1.5 -70t-0.5 -113
q0 -66 0.5 -109t1.5 -69t3.5 -40t5.5 -23q5 -15 14 -18.5t26 -3.5t26.5 3.5t14.5 18.5z" />
    <glyph glyph-name="one" unicode="1" 
d="M38 0v131h99v396h-101v110h58q34 0 47.5 10.5t15.5 49.5l3 60h103v-626h94v-131h-319z" />
    <glyph glyph-name="two" unicode="2" 
d="M34 0v137l105 131q23 29 38.5 48.5t26 33.5t16.5 24.5t11 21.5q5 12 8 23t4.5 24.5t2 32t0.5 46.5q0 29 -0.5 47.5t-2 30t-4 18.5t-5.5 13q-5 9 -12.5 13t-27.5 4q-34 0 -42 -17q-3 -5 -4.5 -12t-3 -19.5t-2 -31t-0.5 -46.5v-32.5t1 -18.5h-116q-2 14 -2 30v46
q0 67 6.5 110.5t25 68.5t51.5 34.5t86 9.5q32 0 55.5 -3t41 -9.5t29 -17.5t19.5 -27q7 -14 13 -29.5t9.5 -36.5t5.5 -50.5t2 -72.5q0 -56 -3 -91.5t-13.5 -64.5t-30.5 -57.5t-53 -69.5l-87 -107l2 -8h179v-126h-329z" />
    <glyph glyph-name="three" unicode="3" 
d="M315 387q14 -8 25 -16t18 -26t10.5 -51t3.5 -90q0 -71 -6.5 -113.5t-25.5 -65.5t-54 -30.5t-92 -7.5q-56 0 -90 12t-52 39t-24 71t-6 109q0 17 0.5 27t1.5 17h115q-1 -8 -1 -15v-20q0 -39 2 -61t8 -32.5t17 -13t29 -2.5q20 0 32 2.5t18 13t8 31t2 57.5q0 28 -0.5 45.5
t-1.5 29t-4 17.5t-7 11q-6 7 -16.5 8.5t-30.5 1.5h-70v104h70q19 0 29.5 2t15.5 12.5t6.5 31.5t1.5 59t-1.5 59.5t-6.5 32t-16 13t-29 2.5t-28.5 -2.5t-16.5 -12t-7.5 -29.5t-1.5 -55v-22t1 -15h-115q-1 8 -1 17v25q0 59 5.5 99.5t23 66t51 36.5t89.5 11q52 0 84.5 -6
t51.5 -27.5t26 -63t7 -111.5q0 -44 -2 -72t-7.5 -46.5t-15 -29.5t-23.5 -20v-7z" />
    <glyph glyph-name="four" unicode="4" 
d="M212 0v140h-197v123l193 494h121v-508h49v-109h-49v-140h-117zM216 406q0 53 3 85h-7l-6 -22t-10 -29l-67 -183l4 -8h83v157z" />
    <glyph glyph-name="five" unicode="5" 
d="M40 418l20 339h300v-126h-193l-7 -127l3 -1q11 8 29.5 13.5t47.5 5.5q32 0 54 -7t39 -27q19 -23 28 -65.5t9 -116.5q0 -55 -2 -95.5t-6 -71t-10 -52.5t-14 -38q-17 -35 -50.5 -48.5t-97.5 -13.5q-62 0 -93 14.5t-47 48.5q-14 30 -19.5 71t-5.5 101q0 21 0.5 36t2.5 32
h114q-1 -8 -1.5 -19t-0.5 -24q0 -27 0.5 -45t2 -29.5t3.5 -19t6 -14.5q6 -12 14.5 -16.5t27.5 -4.5q22 0 30.5 4.5t12.5 15.5q3 9 5 20t3 28.5t1.5 45t0.5 70.5q0 39 -2.5 62t-9 34t-17 14t-25.5 3q-16 0 -30.5 -8t-25.5 -19z" />
    <glyph glyph-name="six" unicode="6" 
d="M248 549q1 5 1 10.5v13.5q0 40 -5 54q-5 13 -13 17t-34 4q-21 0 -28.5 -6.5t-15.5 -29.5q-2 -7 -3.5 -17t-2.5 -27.5t-1.5 -44t-0.5 -66.5l3 -2q16 6 35.5 10.5t40.5 4.5q36 0 63.5 -8t45.5 -31.5t27 -66t9 -111.5q0 -48 -2 -84t-6.5 -62t-12 -44.5t-18.5 -32.5
q-20 -25 -49.5 -34t-83.5 -9q-28 0 -49.5 1.5t-38 7t-28.5 15t-21 24.5q-12 19 -19 43.5t-11 63.5t-5.5 96t-1.5 141q0 73 1 128.5t4.5 96.5t9.5 69.5t16 46.5q9 17 21.5 27t29.5 15t40 6.5t52 1.5q65 0 98.5 -9t48.5 -40q17 -35 17 -118v-27t-2 -27h-111zM248 296
q0 24 -2.5 39.5t-8.5 23.5t-15.5 11t-23.5 3q-37 0 -53 -18v-77q0 -36 0.5 -59.5t2 -38t3.5 -23.5t5 -17q5 -13 14.5 -17.5t28.5 -4.5q17 0 24 3.5t12 12.5q4 7 6.5 15.5t4 24t2 40t0.5 62.5v20z" />
    <glyph glyph-name="seven" unicode="7" 
d="M66 0l157 622l-3 9h-196v126h344v-76l-167 -681h-135z" />
    <glyph glyph-name="eight" unicode="8" 
d="M317 387q15 -8 26 -16t17.5 -26t9.5 -51t3 -90q0 -36 -1.5 -63t-4.5 -47t-8.5 -34.5t-13.5 -26.5q-9 -14 -21.5 -23t-30 -14t-41 -7t-56.5 -2t-56.5 2t-41 7t-30 14t-21.5 23q-8 12 -13.5 26.5t-8.5 34.5t-4.5 47t-1.5 63q0 57 3 90t9.5 51t17.5 26t26 16v7
q-15 10 -24.5 21.5t-15 30t-7 46.5t-1.5 70q0 72 7 113.5t25.5 62.5t51.5 26.5t85 5.5t85 -5.5t51.5 -26.5t25.5 -62.5t7 -113.5q0 -42 -1.5 -70t-7 -46.5t-15 -30t-24.5 -21.5v-7zM196 116q16 0 27.5 1.5t18.5 11.5t10 31.5t3 60.5q0 27 -0.5 44t-1 28.5t-2 18t-4.5 11.5
q-5 10 -15 13.5t-36 3.5t-36 -3.5t-15 -13.5q-3 -5 -4.5 -11.5t-2 -18t-1 -28.5t-0.5 -44q0 -39 3 -60.5t10 -31.5t18.5 -11.5t27.5 -1.5zM237 447q3 3 5 8.5t3.5 16.5t2 28.5t0.5 45.5q0 25 -0.5 41t-1.5 26.5t-3 16t-6 10.5q-6 8 -14 10t-27 2t-27 -2t-14 -10
q-4 -5 -6 -10.5t-3 -16t-1.5 -26.5t-0.5 -41q0 -28 0.5 -45.5t2 -28.5t3.5 -16.5t5 -8.5q6 -8 14.5 -10t26.5 -2t26.5 2t14.5 10z" />
    <glyph glyph-name="nine" unicode="9" 
d="M101 0v7q20 34 39.5 72.5t36 76.5t29.5 75t22 70l-8 5q-6 -5 -25 -10.5t-46 -5.5q-36 0 -58 7.5t-37 27.5q-9 12 -14.5 27t-9.5 38.5t-5.5 57t-1.5 81.5q0 41 1 72.5t4 54.5t8 40t13 29q9 15 21 23.5t29 13.5t41 6.5t56 1.5q30 0 52 -1.5t38.5 -5.5t28.5 -11t22 -18
q11 -12 17.5 -28.5t10 -40.5t4.5 -58.5t1 -83.5q0 -73 -8 -140t-24.5 -131t-40.5 -126.5t-56 -125.5h-140zM239 404q2 7 3.5 16.5t2.5 23t1.5 33.5t0.5 49q0 44 -2 69t-7.5 37t-16 14.5t-27.5 2.5q-19 0 -25.5 -2t-11.5 -9q-4 -5 -6 -12t-3.5 -19t-2 -31.5t-0.5 -47.5
q0 -45 1.5 -71.5t6.5 -40t14.5 -17t24.5 -3.5q21 0 31 2.5t16 5.5z" />
    <glyph glyph-name="colon" unicode=":" horiz-adv-x="212" 
d="M44 0v138h123v-138h-123zM44 409v138h123v-138h-123z" />
    <glyph glyph-name="semicolon" unicode=";" horiz-adv-x="213" 
d="M49 -142v5l39 139l-3 8h-41v128h124v-134l-60 -146h-59zM44 409v138h123v-138h-123z" />
    <glyph glyph-name="less" unicode="&#x3c;" 
d="M371 149l-354 184v92l354 184h5v-103l-249 -122v-10l249 -121v-104h-5z" />
    <glyph glyph-name="equal" unicode="=" 
d="M17 211v92h359v-92h-359zM17 455v93h359v-93h-359z" />
    <glyph glyph-name="greater" unicode="&#x3e;" 
d="M22 149h-5v104l249 121v10l-249 122v103h5l354 -184v-92z" />
    <glyph glyph-name="question" unicode="?" horiz-adv-x="362" 
d="M125 227q-3 25 -3 98q0 39 11 61q8 16 20.5 29.5t30.5 29.5q15 14 23.5 23.5t13.5 21.5q2 6 3.5 12t2 14.5t1 21.5t0.5 34q0 33 -2 46.5t-7 20.5t-12.5 9t-24.5 2t-26.5 -2.5t-14.5 -11.5t-6.5 -22.5t-1.5 -41.5v-29t1 -21h-103q-3 13 -4.5 28t-1.5 46q0 35 2 59t10 48
q12 38 43.5 52.5t101.5 14.5q65 0 100 -16t49 -63q6 -21 7.5 -46t1.5 -66q0 -40 -1 -66.5t-5 -44.5t-10.5 -31t-17.5 -26q-14 -18 -31.5 -32.5t-28.5 -28.5q-5 -6 -8.5 -12.5t-5.5 -15.5t-2.5 -22t-0.5 -32v-23t1 -18h-105zM115 0v151h123v-151h-123z" />
    <glyph glyph-name="at" unicode="@" horiz-adv-x="581" 
d="M559 -13q2 -5 2 -10.5v-14.5q0 -22 -2 -43t-9 -40t-20.5 -35t-35.5 -28q-14 -8 -29 -13t-37 -8t-53.5 -4.5t-77.5 -1.5q-49 0 -86.5 3.5t-65.5 12.5t-48 24.5t-34 38.5q-9 15 -15 36t-10 61.5t-6 107.5t-2 174t2.5 173.5t8 105.5t14 58.5t19.5 33.5q29 36 83 49.5
t138 13.5q74 0 120 -10t75 -33q15 -12 26 -30t18 -53t10.5 -94t3.5 -154q0 -74 -0.5 -117.5t-3 -67.5t-6 -35t-9.5 -21q-11 -19 -29.5 -25.5t-55.5 -6.5q-23 0 -38.5 2.5t-25.5 7t-16.5 10t-10.5 11.5h-9q-10 -12 -26 -21.5t-46 -9.5q-17 0 -30.5 4t-22.5 16
q-7 9 -11.5 20.5t-7 31t-3.5 50.5t-1 79q0 57 1 95t4 62t8 37t12 22q10 12 21 16t28 4q23 0 37 -10t23 -24l4 1l3 23h72v-324q0 -20 5.5 -28t24.5 -8q11 0 16 2.5t8 7.5q2 4 3 10t1.5 25.5t0.5 58.5v108q0 79 -2 125.5t-6 72.5t-10 37t-15 19q-9 9 -19.5 14.5t-26.5 9
t-38.5 5t-55.5 1.5q-54 0 -82.5 -6.5t-48.5 -23.5q-10 -8 -16.5 -21t-10.5 -45.5t-5.5 -92t-1.5 -161.5q0 -85 0.5 -138.5t2.5 -86.5t5.5 -50t9.5 -30q6 -14 16 -23.5t28.5 -16t47 -9.5t70.5 -3q40 0 66 1t41.5 3.5t24.5 8t17 14.5q8 10 11 20.5t3 26.5q0 20 -1 23h87z
M330 369q-8 8 -14.5 10.5t-15.5 2.5q-13 0 -17 -10q-2 -3 -3 -8.5t-2 -19t-1.5 -37.5t-0.5 -65v-26q0 -29 0.5 -46t1 -26.5t2 -14.5t3.5 -9q4 -11 19 -11q19 0 28 15v245z" />
    <glyph glyph-name="A" unicode="A" horiz-adv-x="386" 
d="M245 0l-15 190h-78l-15 -190h-123l78 757h207l73 -757h-127zM196 633h-9l-30 -323h68z" />
    <glyph glyph-name="B" unicode="B" horiz-adv-x="399" 
d="M33 0v757h191q43 0 71.5 -10t46 -34t25 -63t7.5 -97q0 -44 -2.5 -71t-8.5 -44t-15 -26.5t-22 -17.5v-7q15 -9 26 -17.5t17.5 -26t9.5 -50t3 -89.5q0 -58 -7 -97t-24 -63t-45 -34t-70 -10h-203zM212 119q13 0 21.5 4t13.5 15t7.5 30.5t2.5 50.5q0 36 -2.5 59t-7.5 36
t-13.5 17.5t-21.5 4.5h-56v-217h56zM206 434q13 0 21.5 4.5t13.5 16t7 31.5t2 52q0 37 -2.5 57t-8 30t-14 12t-20.5 2h-49v-205h50z" />
    <glyph glyph-name="C" unicode="C" 
d="M364 290q2 -14 2.5 -28.5t0.5 -39.5q0 -60 -6.5 -104t-24.5 -73t-50.5 -43.5t-84.5 -14.5q-64 0 -97 13.5t-50 48.5q-8 16 -14 38t-10 59t-5.5 94t-1.5 145q0 94 2.5 151t6.5 91t10 51t13 31q17 34 48 47.5t94 13.5q57 0 87 -11t46 -35q35 -50 35 -183v-35.5t-2 -25.5
h-117q1 11 1 22v31q0 34 -3 59t-8 36q-5 10 -12.5 15t-26.5 5q-20 0 -28.5 -5.5t-12.5 -19.5q-3 -10 -5 -22.5t-3.5 -37.5t-2 -67t-0.5 -110q0 -69 0.5 -112t2 -68.5t3.5 -39t5 -23.5q4 -14 13 -19.5t32 -5.5q33 0 39 28q5 20 6.5 46t1.5 69v15t-1 14h117z" />
    <glyph glyph-name="D" unicode="D" horiz-adv-x="409" 
d="M33 0v757h179q62 0 94 -13.5t49 -46.5q9 -17 14.5 -36.5t9.5 -53.5t5.5 -88t1.5 -140q0 -88 -2 -142.5t-5.5 -88.5t-9.5 -53.5t-14 -35.5q-8 -17 -20 -28.5t-29 -18t-40 -9.5t-54 -3h-179zM209 130q20 0 28.5 5t13.5 19q3 9 4.5 21t3 35.5t2 64t0.5 106.5
q0 65 -0.5 105.5t-1.5 64.5t-3 36.5t-5 21.5q-5 13 -14 18t-28 5h-53v-502h53z" />
    <glyph glyph-name="E" unicode="E" horiz-adv-x="346" 
d="M33 0v757h285v-125h-162v-186h159v-119h-159v-196h161v-131h-284z" />
    <glyph glyph-name="F" unicode="F" horiz-adv-x="331" 
d="M33 0v757h281v-125h-158v-199h155v-121h-155v-312h-123z" />
    <glyph glyph-name="G" unicode="G" horiz-adv-x="390" 
d="M181 313v119h186q1 -19 1.5 -53.5t0.5 -82.5q0 -60 -2 -100.5t-6 -68t-9.5 -45.5t-12.5 -33q-17 -35 -49 -48.5t-93 -13.5q-62 0 -94 13.5t-49 48.5q-8 17 -14 37.5t-10 56.5t-5.5 93t-1.5 149q0 88 1.5 143t5.5 89.5t10 53.5t14 36q9 18 21 30t29 19.5t39.5 10.5t53.5 3
q32 0 55 -3t39 -10t26.5 -18.5t19.5 -27.5q14 -27 20.5 -63.5t6.5 -88.5v-17.5t-1 -15.5h-116q1 6 1 12v21q0 16 -2.5 35t-5.5 30q-7 24 -44 24q-20 0 -29 -6t-14 -22q-2 -9 -4 -21t-3.5 -37t-2.5 -66.5t-1 -109.5q0 -72 0.5 -115t2 -68t3.5 -37t5 -21q5 -16 15 -22t31 -6
q23 0 32.5 6.5t14.5 23.5q2 9 4 23t3 30t1.5 32t0.5 30v31t-1 20h-73z" />
    <glyph glyph-name="H" unicode="H" horiz-adv-x="420" 
d="M263 0v327h-106v-327h-126v757h126v-311h106v311h125v-757h-125z" />
    <glyph glyph-name="I" unicode="I" horiz-adv-x="196" 
d="M35 0v757h126v-757h-126z" />
    <glyph glyph-name="J" unicode="J" horiz-adv-x="384" 
d="M231 757h126v-367q0 -86 -1.5 -143.5t-5 -96t-10 -62t-15.5 -41.5q-8 -16 -19 -27t-28 -18.5t-41 -11t-57 -3.5q-64 0 -98.5 19.5t-50.5 65.5q-9 27 -13 63.5t-4 86.5q0 29 0.5 44t2.5 24h110q-1 -3 -1 -13.5v-47.5q0 -22 2 -41t5 -34q4 -18 13 -27t31 -9t30.5 5.5
t12.5 19.5q3 10 5 24t3.5 40t2 69t0.5 111v370z" />
    <glyph glyph-name="K" unicode="K" horiz-adv-x="422" 
d="M272 0q-25 80 -42 136.5t-29 95t-18.5 61.5t-10 36t-5 18.5t-1.5 9.5h-9q1 -6 1.5 -13t0.5 -17.5v-26.5v-40v-260h-126v757h126v-236v-37.5t-0.5 -24t-1 -15t-0.5 -10.5h9q1 6 4 15.5t13.5 40.5t31.5 93.5t59 173.5h129v-5l-121 -340l128 -408v-4h-138z" />
    <glyph glyph-name="L" unicode="L" horiz-adv-x="317" 
d="M33 0v757h123v-626h148v-131h-271z" />
    <glyph glyph-name="M" unicode="M" horiz-adv-x="572" 
d="M429 0v523h-5q-2 -20 -6 -41t-9 -41l-95 -441h-56l-97 442q-4 19 -8 40t-6 41h-5v-523h-111v757h182l50 -274q7 -37 11 -62t7 -50h6q3 25 7.5 50t11.5 62l53 274h181v-757h-111z" />
    <glyph glyph-name="N" unicode="N" horiz-adv-x="412" 
d="M317 0l-168 466h-5v-466h-112v757h128l103 -323h5v323h113v-757h-64z" />
    <glyph glyph-name="O" unicode="O" 
d="M339 49q-17 -35 -49 -48.5t-93 -13.5q-62 0 -94.5 13.5t-48.5 48.5q-8 17 -14 37.5t-10 55.5t-5.5 91.5t-1.5 145.5t1.5 145t5.5 91t10 55t14 38q17 35 48.5 48.5t94.5 13.5q61 0 93 -13.5t49 -48.5q8 -18 14 -38t9.5 -55t5.5 -91t2 -145t-2 -145.5t-5.5 -91.5
t-9.5 -55.5t-14 -37.5zM238 143q3 10 5 22.5t3 37.5t1.5 67t0.5 112q0 71 -0.5 114t-2 67.5t-3 37t-4.5 21.5q-4 14 -13 20t-28 6q-20 0 -28.5 -5.5t-12.5 -19.5q-3 -10 -5 -22t-3.5 -37t-2 -68t-0.5 -114q0 -70 0.5 -112.5t2 -67t3.5 -37t5 -22.5q4 -14 12.5 -19.5
t28.5 -5.5q19 0 28 5.5t13 19.5z" />
    <glyph glyph-name="P" unicode="P" horiz-adv-x="391" 
d="M33 0v757h192q43 0 71.5 -12.5t45 -42.5t23 -79t6.5 -122t-6.5 -123.5t-23 -82t-45 -45.5t-71.5 -14h-69v-236h-123zM204 358q11 0 19 6.5t13.5 23t8 45t2.5 71.5q0 40 -3 65.5t-8.5 39.5t-14 19t-20.5 5h-45v-275h48z" />
    <glyph glyph-name="Q" unicode="Q" 
d="M218 -91q-3 5 -7 12.5t-8.5 20.5t-10.5 31.5t-15 45.5q-52 2 -80 14.5t-43 43.5q-8 16 -14 36t-10 53.5t-5.5 87.5t-1.5 140q0 85 1.5 139t5.5 88t10 53t14 36q17 34 48.5 47t94.5 13q61 0 93 -13t49 -47q8 -17 14 -36t9.5 -53t5.5 -88t2 -139q0 -86 -2 -140t-5.5 -87.5
t-9.5 -53.5t-14 -36q-8 -17 -20 -27t-27 -18q17 -55 29 -80t20 -38v-5h-123zM238 163q3 9 4.5 20.5t3 34.5t2 64.5t0.5 110.5q0 68 -0.5 109t-2 65t-3 35.5t-4.5 20.5q-4 14 -13 19.5t-28 5.5q-20 0 -28.5 -5.5t-12.5 -18.5q-3 -9 -5 -21t-3.5 -36t-2 -65t-0.5 -109
q0 -69 0.5 -110t2 -64.5t3.5 -35t5 -20.5q4 -14 12.5 -18.5t28.5 -4.5q19 0 27.5 4.5t13.5 18.5z" />
    <glyph glyph-name="R" unicode="R" horiz-adv-x="401" 
d="M257 0l-4 12t-3.5 15.5t-3 25.5t-4.5 41q-3 29 -5.5 67t-8.5 82q-6 41 -14 52.5t-25 11.5h-33v-307h-123v757h195q43 0 71.5 -11t44.5 -35.5t22.5 -63.5t6.5 -94q0 -63 -4.5 -98.5t-12.5 -54.5t-19 -26.5t-23 -13.5v-6q15 -11 23 -30t14 -49q8 -43 11.5 -85t9.5 -98
q2 -22 4 -36t3.5 -23.5t3 -16t3.5 -12.5v-4h-129zM198 418q12 0 21.5 2t16 13.5t10 36t3.5 69.5q0 35 -3.5 54.5t-9.5 28.5t-14.5 11t-17.5 2h-48v-217h42z" />
    <glyph glyph-name="S" unicode="S" horiz-adv-x="365" 
d="M225 522q1 8 1.5 18.5t0.5 28.5q0 44 -8.5 62.5t-40.5 18.5q-14 0 -23 -2.5t-14.5 -11.5t-7.5 -25t-2 -43q0 -24 0.5 -38t2.5 -23t6 -14.5t12 -12.5q12 -10 29 -20.5t36 -20t36.5 -19t29.5 -17.5q18 -12 29.5 -24t18.5 -31.5t9.5 -51t2.5 -82.5q0 -70 -8.5 -114.5
t-28 -69.5t-51.5 -34t-80 -9q-42 0 -71 7.5t-48 28t-27.5 57t-8.5 95.5q0 24 2 44t5 34h103q-2 -8 -2 -19v-25q0 -31 2.5 -50t8 -29.5t15 -14t23.5 -3.5q15 0 25 3t16 13.5t8.5 31t2.5 56.5q0 21 -0.5 33.5t-3 21t-7 14.5t-11.5 14q-13 13 -32.5 25t-40.5 23t-41 23t-34 25
q-12 11 -20 23t-12.5 32t-6 52t-1.5 84q0 54 8 89.5t26.5 56.5t49 29.5t75.5 8.5q47 0 77.5 -8.5t48 -28t24 -51t6.5 -77.5q0 -32 -1.5 -50.5t-5.5 -32.5h-102z" />
    <glyph glyph-name="T" unicode="T" horiz-adv-x="360" 
d="M119 0v632h-107v125h336v-125h-106v-632h-123z" />
    <glyph glyph-name="U" unicode="U" horiz-adv-x="401" 
d="M252 757h122v-536q-1 -42 -2.5 -70.5t-4.5 -48.5t-8.5 -34t-12.5 -27q-17 -31 -49.5 -42.5t-95.5 -11.5t-96 11.5t-50 42.5q-8 13 -13 27t-8.5 34t-5 48.5t-1.5 70.5v536h126v-536q0 -22 0.5 -36t1 -23.5t2 -15.5t4.5 -11q5 -9 13.5 -13t28.5 -4t28 3t13 13q3 5 4.5 11
t2 16t1 24t0.5 36v536z" />
    <glyph glyph-name="V" unicode="V" horiz-adv-x="394" 
d="M98 0l-84 757h132q10 -127 17.5 -218t12.5 -153t8 -100.5t4.5 -61.5t2.5 -35t1 -22h9q0 10 1 22t2.5 35t5 61.5t8.5 100.5t12.5 152.5t18.5 218.5h130l-88 -757h-193z" />
    <glyph glyph-name="W" unicode="W" horiz-adv-x="622" 
d="M369 0q-12 111 -20 190t-14 133t-9.5 87.5t-5 53.5t-2.5 30.5t-1 19.5h-9q0 -9 -0.5 -19.5t-2.5 -30.5t-5.5 -53.5t-9.5 -87.5t-14.5 -133t-20.5 -190h-176l-63 757h124q8 -127 14 -216.5t10 -150.5t6.5 -97.5t4 -58t2 -32t0.5 -19.5h9q0 9 1 19.5t3.5 32t7 58t12 97.5
t18 150.5t25.5 216.5h123q15 -127 26 -216.5t18.5 -150.5t11.5 -98t6.5 -58t3 -32t0.5 -19h10q0 8 0.5 19t2 32t4 58t6.5 98t10 150.5t14 216.5h117l-62 -757h-175z" />
    <glyph glyph-name="X" unicode="X" horiz-adv-x="402" 
d="M259 0q-17 91 -28 146t-17 87t-8.5 46.5t-2.5 24.5h-9q0 -10 -2.5 -24.5t-8.5 -46.5t-17 -87t-29 -146h-127v4l94 407l-77 341v5h127q15 -77 23.5 -123t13 -71.5t6.5 -36.5t2 -17h9q0 6 2 17t7 36.5t15 71.5t26 123h119v-5l-80 -340l93 -408v-4h-131z" />
    <glyph glyph-name="Y" unicode="Y" horiz-adv-x="386" 
d="M129 0v303l-123 449v5h126q18 -80 28.5 -128t16.5 -76t8.5 -41.5t3.5 -22.5h9q1 9 3.5 22.5t8.5 41.5t17.5 76t29.5 128h122v-5l-118 -448v-304h-132z" />
    <glyph glyph-name="Z" unicode="Z" horiz-adv-x="394" 
d="M23 0v141l193 482l-3 8h-183v126h346v-68l-221 -551l4 -7h211v-131h-347z" />
    <glyph glyph-name="bracketleft" unicode="[" 
d="M116 -238v1200h230v-93h-137v-1014h137v-93h-230z" />
    <glyph glyph-name="backslash" unicode="\" 
d="M290 -153l-278 1001h91l278 -1001h-91z" />
    <glyph glyph-name="bracketright" unicode="]" 
d="M47 -238v93h137v1014h-137v93h229v-1200h-229z" />
    <glyph glyph-name="asciicircum" unicode="^" 
d="M284 334l-83 286h-8l-84 -286h-92v5l138 418h84l137 -418v-5h-92z" />
    <glyph glyph-name="underscore" unicode="_" 
d="M5 -158v98h383v-98h-383z" />
    <glyph glyph-name="grave" unicode="`" horiz-adv-x="264" 
d="M144 592l-105 167v6h111l86 -169v-4h-92z" />
    <glyph glyph-name="a" unicode="a" horiz-adv-x="386" 
d="M14 0zM245 0l-15 190h-78l-15 -190h-123l78 757h207l73 -757h-127zM196 633h-9l-30 -323h68z" />
    <glyph glyph-name="b" unicode="b" horiz-adv-x="399" 
d="M33 0zM33 0v757h191q43 0 71.5 -10t46 -34t25 -63t7.5 -97q0 -44 -2.5 -71t-8.5 -44t-15 -26.5t-22 -17.5v-7q15 -9 26 -17.5t17.5 -26t9.5 -50t3 -89.5q0 -58 -7 -97t-24 -63t-45 -34t-70 -10h-203zM212 119q13 0 21.5 4t13.5 15t7.5 30.5t2.5 50.5q0 36 -2.5 59
t-7.5 36t-13.5 17.5t-21.5 4.5h-56v-217h56zM206 434q13 0 21.5 4.5t13.5 16t7 31.5t2 52q0 37 -2.5 57t-8 30t-14 12t-20.5 2h-49v-205h50z" />
    <glyph glyph-name="c" unicode="c" 
d="M23 0zM364 290q2 -14 2.5 -28.5t0.5 -39.5q0 -60 -6.5 -104t-24.5 -73t-50.5 -43.5t-84.5 -14.5q-64 0 -97 13.5t-50 48.5q-8 16 -14 38t-10 59t-5.5 94t-1.5 145q0 94 2.5 151t6.5 91t10 51t13 31q17 34 48 47.5t94 13.5q57 0 87 -11t46 -35q35 -50 35 -183v-35.5
t-2 -25.5h-117q1 11 1 22v31q0 34 -3 59t-8 36q-5 10 -12.5 15t-26.5 5q-20 0 -28.5 -5.5t-12.5 -19.5q-3 -10 -5 -22.5t-3.5 -37.5t-2 -67t-0.5 -110q0 -69 0.5 -112t2 -68.5t3.5 -39t5 -23.5q4 -14 13 -19.5t32 -5.5q33 0 39 28q5 20 6.5 46t1.5 69v15t-1 14h117z" />
    <glyph glyph-name="d" unicode="d" horiz-adv-x="409" 
d="M33 0zM33 0v757h179q62 0 94 -13.5t49 -46.5q9 -17 14.5 -36.5t9.5 -53.5t5.5 -88t1.5 -140q0 -88 -2 -142.5t-5.5 -88.5t-9.5 -53.5t-14 -35.5q-8 -17 -20 -28.5t-29 -18t-40 -9.5t-54 -3h-179zM209 130q20 0 28.5 5t13.5 19q3 9 4.5 21t3 35.5t2 64t0.5 106.5
q0 65 -0.5 105.5t-1.5 64.5t-3 36.5t-5 21.5q-5 13 -14 18t-28 5h-53v-502h53z" />
    <glyph glyph-name="e" unicode="e" horiz-adv-x="346" 
d="M33 0zM33 0v757h285v-125h-162v-186h159v-119h-159v-196h161v-131h-284z" />
    <glyph glyph-name="f" unicode="f" horiz-adv-x="331" 
d="M33 0zM33 0v757h281v-125h-158v-199h155v-121h-155v-312h-123z" />
    <glyph glyph-name="g" unicode="g" horiz-adv-x="390" 
d="M23 0zM181 313v119h186q1 -19 1.5 -53.5t0.5 -82.5q0 -60 -2 -100.5t-6 -68t-9.5 -45.5t-12.5 -33q-17 -35 -49 -48.5t-93 -13.5q-62 0 -94 13.5t-49 48.5q-8 17 -14 37.5t-10 56.5t-5.5 93t-1.5 149q0 88 1.5 143t5.5 89.5t10 53.5t14 36q9 18 21 30t29 19.5t39.5 10.5
t53.5 3q32 0 55 -3t39 -10t26.5 -18.5t19.5 -27.5q14 -27 20.5 -63.5t6.5 -88.5v-17.5t-1 -15.5h-116q1 6 1 12v21q0 16 -2.5 35t-5.5 30q-7 24 -44 24q-20 0 -29 -6t-14 -22q-2 -9 -4 -21t-3.5 -37t-2.5 -66.5t-1 -109.5q0 -72 0.5 -115t2 -68t3.5 -37t5 -21q5 -16 15 -22
t31 -6q23 0 32.5 6.5t14.5 23.5q2 9 4 23t3 30t1.5 32t0.5 30v31t-1 20h-73z" />
    <glyph glyph-name="h" unicode="h" horiz-adv-x="420" 
d="M31 0zM263 0v327h-106v-327h-126v757h126v-311h106v311h125v-757h-125z" />
    <glyph glyph-name="i" unicode="i" horiz-adv-x="196" 
d="M35 0zM35 0v757h126v-757h-126z" />
    <glyph glyph-name="j" unicode="j" horiz-adv-x="384" 
d="M14 0zM231 757h126v-367q0 -86 -1.5 -143.5t-5 -96t-10 -62t-15.5 -41.5q-8 -16 -19 -27t-28 -18.5t-41 -11t-57 -3.5q-64 0 -98.5 19.5t-50.5 65.5q-9 27 -13 63.5t-4 86.5q0 29 0.5 44t2.5 24h110q-1 -3 -1 -13.5v-47.5q0 -22 2 -41t5 -34q4 -18 13 -27t31 -9t30.5 5.5
t12.5 19.5q3 10 5 24t3.5 40t2 69t0.5 111v370z" />
    <glyph glyph-name="k" unicode="k" horiz-adv-x="422" 
d="M33 0zM272 0q-25 80 -42 136.5t-29 95t-18.5 61.5t-10 36t-5 18.5t-1.5 9.5h-9q1 -6 1.5 -13t0.5 -17.5v-26.5v-40v-260h-126v757h126v-236v-37.5t-0.5 -24t-1 -15t-0.5 -10.5h9q1 6 4 15.5t13.5 40.5t31.5 93.5t59 173.5h129v-5l-121 -340l128 -408v-4h-138z" />
    <glyph glyph-name="l" unicode="l" horiz-adv-x="317" 
d="M33 0zM33 0v757h123v-626h148v-131h-271z" />
    <glyph glyph-name="m" unicode="m" horiz-adv-x="572" 
d="M31 0zM429 0v523h-5q-2 -20 -6 -41t-9 -41l-95 -441h-56l-97 442q-4 19 -8 40t-6 41h-5v-523h-111v757h182l50 -274q7 -37 11 -62t7 -50h6q3 25 7.5 50t11.5 62l53 274h181v-757h-111z" />
    <glyph glyph-name="n" unicode="n" horiz-adv-x="412" 
d="M32 0zM317 0l-168 466h-5v-466h-112v757h128l103 -323h5v323h113v-757h-64z" />
    <glyph glyph-name="o" unicode="o" 
d="M23 0zM339 49q-17 -35 -49 -48.5t-93 -13.5q-62 0 -94.5 13.5t-48.5 48.5q-8 17 -14 37.5t-10 55.5t-5.5 91.5t-1.5 145.5t1.5 145t5.5 91t10 55t14 38q17 35 48.5 48.5t94.5 13.5q61 0 93 -13.5t49 -48.5q8 -18 14 -38t9.5 -55t5.5 -91t2 -145t-2 -145.5t-5.5 -91.5
t-9.5 -55.5t-14 -37.5zM238 143q3 10 5 22.5t3 37.5t1.5 67t0.5 112q0 71 -0.5 114t-2 67.5t-3 37t-4.5 21.5q-4 14 -13 20t-28 6q-20 0 -28.5 -5.5t-12.5 -19.5q-3 -10 -5 -22t-3.5 -37t-2 -68t-0.5 -114q0 -70 0.5 -112.5t2 -67t3.5 -37t5 -22.5q4 -14 12.5 -19.5
t28.5 -5.5q19 0 28 5.5t13 19.5z" />
    <glyph glyph-name="p" unicode="p" horiz-adv-x="391" 
d="M33 0zM33 0v757h192q43 0 71.5 -12.5t45 -42.5t23 -79t6.5 -122t-6.5 -123.5t-23 -82t-45 -45.5t-71.5 -14h-69v-236h-123zM204 358q11 0 19 6.5t13.5 23t8 45t2.5 71.5q0 40 -3 65.5t-8.5 39.5t-14 19t-20.5 5h-45v-275h48z" />
    <glyph glyph-name="q" unicode="q" 
d="M23 0zM218 -91q-3 5 -7 12.5t-8.5 20.5t-10.5 31.5t-15 45.5q-52 2 -80 14.5t-43 43.5q-8 16 -14 36t-10 53.5t-5.5 87.5t-1.5 140q0 85 1.5 139t5.5 88t10 53t14 36q17 34 48.5 47t94.5 13q61 0 93 -13t49 -47q8 -17 14 -36t9.5 -53t5.5 -88t2 -139q0 -86 -2 -140
t-5.5 -87.5t-9.5 -53.5t-14 -36q-8 -17 -20 -27t-27 -18q17 -55 29 -80t20 -38v-5h-123zM238 163q3 9 4.5 20.5t3 34.5t2 64.5t0.5 110.5q0 68 -0.5 109t-2 65t-3 35.5t-4.5 20.5q-4 14 -13 19.5t-28 5.5q-20 0 -28.5 -5.5t-12.5 -18.5q-3 -9 -5 -21t-3.5 -36t-2 -65
t-0.5 -109q0 -69 0.5 -110t2 -64.5t3.5 -35t5 -20.5q4 -14 12.5 -18.5t28.5 -4.5q19 0 27.5 4.5t13.5 18.5z" />
    <glyph glyph-name="r" unicode="r" horiz-adv-x="401" 
d="M33 0zM257 0l-4 12t-3.5 15.5t-3 25.5t-4.5 41q-3 29 -5.5 67t-8.5 82q-6 41 -14 52.5t-25 11.5h-33v-307h-123v757h195q43 0 71.5 -11t44.5 -35.5t22.5 -63.5t6.5 -94q0 -63 -4.5 -98.5t-12.5 -54.5t-19 -26.5t-23 -13.5v-6q15 -11 23 -30t14 -49q8 -43 11.5 -85
t9.5 -98q2 -22 4 -36t3.5 -23.5t3 -16t3.5 -12.5v-4h-129zM198 418q12 0 21.5 2t16 13.5t10 36t3.5 69.5q0 35 -3.5 54.5t-9.5 28.5t-14.5 11t-17.5 2h-48v-217h42z" />
    <glyph glyph-name="s" unicode="s" horiz-adv-x="365" 
d="M19 0zM225 522q1 8 1.5 18.5t0.5 28.5q0 44 -8.5 62.5t-40.5 18.5q-14 0 -23 -2.5t-14.5 -11.5t-7.5 -25t-2 -43q0 -24 0.5 -38t2.5 -23t6 -14.5t12 -12.5q12 -10 29 -20.5t36 -20t36.5 -19t29.5 -17.5q18 -12 29.5 -24t18.5 -31.5t9.5 -51t2.5 -82.5q0 -70 -8.5 -114.5
t-28 -69.5t-51.5 -34t-80 -9q-42 0 -71 7.5t-48 28t-27.5 57t-8.5 95.5q0 24 2 44t5 34h103q-2 -8 -2 -19v-25q0 -31 2.5 -50t8 -29.5t15 -14t23.5 -3.5q15 0 25 3t16 13.5t8.5 31t2.5 56.5q0 21 -0.5 33.5t-3 21t-7 14.5t-11.5 14q-13 13 -32.5 25t-40.5 23t-41 23t-34 25
q-12 11 -20 23t-12.5 32t-6 52t-1.5 84q0 54 8 89.5t26.5 56.5t49 29.5t75.5 8.5q47 0 77.5 -8.5t48 -28t24 -51t6.5 -77.5q0 -32 -1.5 -50.5t-5.5 -32.5h-102z" />
    <glyph glyph-name="t" unicode="t" horiz-adv-x="360" 
d="M12 0zM119 0v632h-107v125h336v-125h-106v-632h-123z" />
    <glyph glyph-name="u" unicode="u" horiz-adv-x="401" 
d="M27 0zM252 757h122v-536q-1 -42 -2.5 -70.5t-4.5 -48.5t-8.5 -34t-12.5 -27q-17 -31 -49.5 -42.5t-95.5 -11.5t-96 11.5t-50 42.5q-8 13 -13 27t-8.5 34t-5 48.5t-1.5 70.5v536h126v-536q0 -22 0.5 -36t1 -23.5t2 -15.5t4.5 -11q5 -9 13.5 -13t28.5 -4t28 3t13 13
q3 5 4.5 11t2 16t1 24t0.5 36v536z" />
    <glyph glyph-name="v" unicode="v" horiz-adv-x="394" 
d="M14 0zM98 0l-84 757h132q10 -127 17.5 -218t12.5 -153t8 -100.5t4.5 -61.5t2.5 -35t1 -22h9q0 10 1 22t2.5 35t5 61.5t8.5 100.5t12.5 152.5t18.5 218.5h130l-88 -757h-193z" />
    <glyph glyph-name="w" unicode="w" horiz-adv-x="622" 
d="M16 0zM369 0q-12 111 -20 190t-14 133t-9.5 87.5t-5 53.5t-2.5 30.5t-1 19.5h-9q0 -9 -0.5 -19.5t-2.5 -30.5t-5.5 -53.5t-9.5 -87.5t-14.5 -133t-20.5 -190h-176l-63 757h124q8 -127 14 -216.5t10 -150.5t6.5 -97.5t4 -58t2 -32t0.5 -19.5h9q0 9 1 19.5t3.5 32t7 58
t12 97.5t18 150.5t25.5 216.5h123q15 -127 26 -216.5t18.5 -150.5t11.5 -98t6.5 -58t3 -32t0.5 -19h10q0 8 0.5 19t2 32t4 58t6.5 98t10 150.5t14 216.5h117l-62 -757h-175z" />
    <glyph glyph-name="x" unicode="x" horiz-adv-x="402" 
d="M10 0zM259 0q-17 91 -28 146t-17 87t-8.5 46.5t-2.5 24.5h-9q0 -10 -2.5 -24.5t-8.5 -46.5t-17 -87t-29 -146h-127v4l94 407l-77 341v5h127q15 -77 23.5 -123t13 -71.5t6.5 -36.5t2 -17h9q0 6 2 17t7 36.5t15 71.5t26 123h119v-5l-80 -340l93 -408v-4h-131z" />
    <glyph glyph-name="y" unicode="y" horiz-adv-x="386" 
d="M6 0zM129 0v303l-123 449v5h126q18 -80 28.5 -128t16.5 -76t8.5 -41.5t3.5 -22.5h9q1 9 3.5 22.5t8.5 41.5t17.5 76t29.5 128h122v-5l-118 -448v-304h-132z" />
    <glyph glyph-name="z" unicode="z" horiz-adv-x="394" 
d="M23 0zM23 0v141l193 482l-3 8h-183v126h346v-68l-221 -551l4 -7h211v-131h-347z" />
    <glyph glyph-name="braceleft" unicode="{" 
d="M277 -238q-39 0 -64 9t-39.5 29.5t-19.5 53t-5 79.5q0 39 3.5 77t8 75.5t8 74t3.5 72.5q0 26 -2 42t-7 25t-15 12.5t-25 3.5h-43v93h43q15 0 25 3.5t15 12.5t7 25.5t2 42.5q0 36 -3.5 72t-8 73.5t-8 76t-3.5 77.5q0 46 5.5 78.5t20 53t39 30t63.5 9.5h86v-93h-79
q-25 0 -34 -11t-9 -40q0 -41 3.5 -84.5t8 -88.5t8.5 -91t4 -92q0 -36 -13 -60.5t-34 -35.5v-9q21 -11 34 -35t13 -60q0 -45 -4 -91.5t-8.5 -92t-8 -89t-3.5 -83.5q0 -29 9 -40t34 -11h79v-93h-86z" />
    <glyph glyph-name="bar" unicode="|" 
d="M150 -238v1200h93v-1200h-93z" />
    <glyph glyph-name="braceright" unicode="}" 
d="M30 -238v93h79q24 0 33 11t9 40q0 46 -4 91.5t-8.5 90t-8 88t-3.5 86.5q0 36 13 60t34 35v9q-21 11 -34 35.5t-13 60.5q0 45 3.5 91t8 91.5t8.5 89t4 84.5q0 29 -9 40t-33 11h-79v93h85q71 0 99.5 -35t28.5 -117q0 -46 -3.5 -90t-8 -86.5t-8 -83t-3.5 -79.5q0 -37 10 -50
t39 -13h44v-93h-44q-29 0 -39 -13t-10 -50q0 -40 3.5 -81t8 -83.5t8 -86t3.5 -87.5q0 -82 -28.5 -117t-99.5 -35h-85z" />
    <glyph glyph-name="asciitilde" unicode="~" 
d="M376 365q-20 -29 -43.5 -41.5t-55.5 -12.5q-24 0 -44.5 5.5t-43.5 17.5q-13 7 -22 11.5t-17.5 7.5t-17.5 4t-22 1q-26 0 -46.5 -13t-39.5 -42h-7v94q14 23 35.5 38.5t53.5 15.5q29 0 53.5 -6t49.5 -20q22 -13 37.5 -17.5t34.5 -4.5q26 0 48 12.5t41 41.5h6v-92z" />
    <glyph glyph-name="nonbreakingspace" unicode="&#xa0;" horiz-adv-x="173" 
 />
    <glyph glyph-name="exclamdown" unicode="&#xa1;" horiz-adv-x="203" 
d="M34 -229l17 561h101l18 -561h-136zM40 408v151h123v-151h-123z" />
    <glyph glyph-name="cent" unicode="&#xa2;" 
d="M169 -43v124q-48 2 -74 13t-41 35q-8 13 -14 29.5t-10 44.5t-6 72.5t-2 113.5q0 67 2 111t6 72.5t10 45t14 29.5q14 23 41 33.5t74 12.5v108h62v-108q40 -2 67 -12.5t43.5 -32.5t23.5 -55.5t7 -80.5v-18.5t-1 -20.5h-121q1 5 1 9.5v9.5q0 33 -1.5 52.5t-7.5 30.5
q-5 9 -13.5 12t-28.5 3t-28.5 -4.5t-12.5 -13.5q-3 -7 -5 -17.5t-3.5 -30t-2 -51t-0.5 -81.5t0.5 -82t2 -52t3.5 -30.5t5 -17.5q4 -8 12.5 -12t28.5 -4q18 0 28 3t15.5 13.5t6.5 29.5t1 51v11t-1 11h121q2 -12 2 -24v-24q0 -29 -2.5 -60t-16 -58t-42.5 -45t-81 -21v-124h-62
z" />
    <glyph glyph-name="sterling" unicode="&#xa3;" 
d="M376 19q-14 -14 -33 -23t-49 -9q-37 0 -59 19.5t-27 54.5h-9q-12 -30 -39 -52t-74 -22q-12 0 -28.5 5.5t-28.5 22.5v114l25 -5t18 -2q23 0 33 21t10 71q0 20 -4.5 34.5t-13.5 33.5h-80v63h42l3 4q-21 36 -30 76t-9 99q0 47 2 79t6 54t10 37t14 28q8 14 19.5 23t28 14.5
t40 8t55.5 2.5q51 0 83.5 -8.5t51.5 -33t26 -68t7 -113.5v-47.5t-1 -28.5h-116q1 7 1 15.5v22.5q0 32 -0.5 53.5t-2 35t-3 21.5t-4.5 14q-4 8 -13 11.5t-29 3.5q-18 0 -26.5 -2.5t-13.5 -8.5q-3 -4 -5.5 -10t-4 -17.5t-2 -30t-0.5 -46.5q0 -34 2 -55.5t9 -40t20 -39.5
t34 -53h134v-63h-112l-3 -4q7 -29 7 -63q0 -47 -10 -77q7 -8 19 -12t36 -4q29 0 47 8.5t39 22.5h8v-134z" />
    <glyph glyph-name="currency" unicode="&#xa4;" horiz-adv-x="612" 
d="M440 186q-29 -19 -61.5 -29.5t-70.5 -10.5t-72 10.5t-61 30.5l-78 -82l-64 62l81 79q-40 58 -40 133q0 71 40 134l-80 76l63 63l77 -81q55 44 134 44q72 0 133 -44l74 81l63 -63l-78 -76q19 -29 30 -62.5t11 -71.5t-11 -72t-30 -61l78 -79q-3 -3 -11.5 -12t-19 -19
t-19.5 -19l-12 -12zM308 239q28 0 53.5 11t44.5 30t30 44.5t11 54.5q0 28 -11 54t-30 45t-44.5 30.5t-53.5 11.5q-29 0 -54.5 -11.5t-44.5 -30.5t-30 -45t-11 -54q0 -29 11 -54.5t30 -44.5t44.5 -30t54.5 -11z" />
    <glyph glyph-name="yen" unicode="&#xa5;" 
d="M134 0v128h-107v63h107v76h-107v62h104l-121 423v5h126l56 -255h10l57 255h123v-5l-118 -423h98v-62h-101v-76h101v-63h-101v-128h-127z" />
    <glyph glyph-name="brokenbar" unicode="&#xa6;" 
d="M150 -238v478h93v-478h-93zM150 511v451h93v-451h-93z" />
    <glyph glyph-name="section" unicode="&#xa7;" horiz-adv-x="424" 
d="M127 98q-2 -8 -2 -16.5v-21.5q0 -28 2.5 -44.5t8 -24.5t14 -10.5t21.5 -2.5q15 0 24 2.5t14.5 11.5t7.5 26.5t2 47.5q0 16 -0.5 26t-1.5 16t-3.5 10.5t-5.5 10.5q-8 12 -26 23t-40 22t-44 22.5t-37 24.5q-12 10 -19 23.5t-11 32.5t-5.5 45.5t-1.5 62.5q0 35 4 60.5t13 43
t24 28.5t36 17q-2 15 -3 33.5t-1 43.5q0 46 6.5 76.5t23 49t45 26t73.5 7.5q41 0 69 -6t45 -22t24 -43.5t7 -70.5q0 -27 -1.5 -43.5t-4.5 -28.5h-95q1 8 1.5 16.5t0.5 24.5q0 38 -9 53.5t-37 15.5q-26 0 -35.5 -13.5t-9.5 -56.5q0 -31 2 -42.5t11 -21.5q10 -11 26 -20.5
t35 -19t40 -21t42 -25.5q13 -9 21.5 -18t13 -25t6.5 -42.5t2 -69.5q0 -44 -4 -73.5t-13 -50.5t-23 -34.5t-34 -23.5q1 -9 1 -20v-25q0 -56 -7 -93.5t-24.5 -60t-48 -32t-77.5 -9.5q-38 0 -65 6.5t-44.5 23t-26 46t-8.5 74.5q0 23 2 44t4 35h96zM284 218q5 10 7 27.5t2 46.5
q0 19 -2 32t-6 22.5t-11 16t-17 13.5q-26 17 -57 31.5t-54 30.5q-11 -6 -15 -19t-4 -49q0 -28 3.5 -43.5t9.5 -24t14 -13t18 -10.5q15 -9 28.5 -15.5t26.5 -12.5t27 -13.5t30 -19.5z" />
    <glyph glyph-name="dieresis" unicode="&#xa8;" horiz-adv-x="349" 
d="M210 615v118h106v-118h-106zM33 615v118h106v-118h-106z" />
    <glyph glyph-name="ordfeminine" unicode="&#xaa;" horiz-adv-x="240" 
d="M227 399q-2 -5 -10 -10.5t-25 -5.5q-16 0 -25 4t-15 10q-8 -5 -22 -9.5t-34 -4.5q-21 0 -35 3t-22.5 14.5t-12 32.5t-3.5 57q0 33 3 53.5t12.5 31.5t27 15t46.5 4q7 0 12 -0.5t10 -1.5v27q0 19 -3 23t-14 4q-13 0 -16 -4t-3 -23q0 -9 1 -14h-68q-1 5 -1 9v9
q0 27 3.5 43.5t13.5 26.5t26.5 13.5t43.5 3.5q30 0 47 -6.5t26 -19t11.5 -31t2.5 -43.5v-154q0 -13 8 -13q7 0 12 3h3v-47zM134 536q-8 2 -17 2q-18 0 -21.5 -7t-3.5 -40q0 -14 0.5 -22t2 -12t5.5 -5t10 -1q19 0 24 5v80z" />
    <glyph glyph-name="guillemotleft" unicode="&#xab;" horiz-adv-x="398" 
d="M21 195zM192 195l-171 145v80l171 147h5v-104l-97 -79v-9l97 -77v-103h-5zM371 195l-171 145v80l171 147h5v-104l-97 -79v-9l97 -77v-103h-5z" />
    <glyph glyph-name="logicalnot" unicode="&#xac;" 
d="M284 0v345h-267v93h359v-438h-92z" />
    <glyph glyph-name="macron" unicode="&#xaf;" horiz-adv-x="407" 
d="M38 637v84h330v-84h-330z" />
    <glyph glyph-name="degree" unicode="&#xb0;" horiz-adv-x="292" 
d="M246 472q-11 -16 -34 -21.5t-67 -5.5q-43 0 -65.5 5.5t-33.5 21.5q-6 7 -10 16t-6.5 24.5t-4 40.5t-1.5 64t1 63.5t4 39.5t7 24t10 17q11 14 34 20.5t65 6.5q43 0 66.5 -6.5t34.5 -20.5q6 -8 10 -17t6.5 -24.5t3.5 -39.5t1 -63t-1 -64t-3.5 -40.5t-6.5 -24.5t-10 -16z
M189 703q-4 5 -13 7t-31 2q-20 0 -29 -2t-14 -7q-3 -3 -5.5 -8t-3.5 -14t-1.5 -24t-0.5 -39q0 -25 0.5 -40t1.5 -24t3.5 -13.5t5.5 -8.5q4 -4 13.5 -5.5t29.5 -1.5q22 0 31 1.5t13 5.5t6 8.5t3 13.5t1.5 24t0.5 40t-0.5 40t-1.5 24t-3 13.5t-6 7.5z" />
    <glyph glyph-name="plusminus" unicode="&#xb1;" 
d="M17 0zM150 199v134h-133v92h133v134h93v-134h133v-92h-133v-134h-93zM17 -47v92h359v-92h-359z" />
    <glyph glyph-name="twosuperior" unicode="&#xb2;" horiz-adv-x="246" 
d="M24 348zM29 348v82l57 72q26 33 36 45.5t14 21.5q5 12 5.5 24t0.5 42q0 22 -0.5 34.5t-3 18.5t-6.5 7.5t-11 1.5q-8 0 -12.5 -1.5t-7 -7.5t-3 -18.5t-0.5 -34.5v-18.5t1 -14.5h-74q-1 7 -1 17v30q0 38 4 62.5t14.5 38.5t29.5 19.5t49 5.5q28 0 47 -5.5t31 -20.5t17 -42.5
t5 -70.5q0 -31 -1.5 -50.5t-7.5 -35.5t-17 -32t-29 -38l-43 -53h95v-79h-189z" />
    <glyph glyph-name="threesuperior" unicode="&#xb3;" horiz-adv-x="246" 
d="M22 341zM77 528v68h44q15 0 18.5 7.5t3.5 43.5q0 18 -0.5 28.5t-3 15.5t-7 6t-11.5 1q-8 0 -13 -1t-7.5 -5.5t-3 -14t-0.5 -26.5v-13.5t1 -12.5h-73q-1 8 -1 14.5v13.5q0 34 3 57t13.5 37.5t29.5 21t51 6.5q30 0 48.5 -3.5t29.5 -16t15 -36t4 -63.5q0 -23 -1.5 -38
t-4.5 -25.5t-8 -17t-12 -11.5q7 -4 13 -9t10 -15.5t6 -28.5t2 -47q0 -40 -4 -64t-15 -37t-31 -17.5t-52 -4.5t-51.5 6.5t-30 22t-14 40.5t-3.5 61q0 6 0.5 13t1.5 17h73q-1 -7 -1 -13v-12q0 -19 1 -29.5t3.5 -16t7.5 -6.5t13 -1q17 0 21.5 7.5t4.5 42.5q0 20 -1 31
t-3.5 16.5t-7.5 6.5t-14 1h-44z" />
    <glyph glyph-name="acute" unicode="&#xb4;" horiz-adv-x="264" 
d="M28 592v4l85 169h111v-6l-105 -167h-91z" />
    <glyph glyph-name="paragraph" unicode="&#xb6;" horiz-adv-x="494" 
d="M361 -102v760h-79v-760h-99v471h-47q-35 0 -58.5 9.5t-37 32.5t-19 60.5t-5.5 94.5q0 53 7.5 89.5t22 59t36.5 32.5t51 10h327v-859h-99z" />
    <glyph glyph-name="periodcentered" unicode="&#xb7;" horiz-adv-x="189" 
d="M33 312zM33 312v138h123v-138h-123z" />
    <glyph glyph-name="cedilla" unicode="&#xb8;" horiz-adv-x="231" 
d="M33 -238v5l57 192h107v-6l-75 -191h-89z" />
    <glyph glyph-name="onesuperior" unicode="&#xb9;" horiz-adv-x="246" 
d="M30 348zM31 348v82h53v202h-54v70h37q21 0 25 13t4 52h68v-337h50v-82h-183z" />
    <glyph glyph-name="ordmasculine" unicode="&#xba;" horiz-adv-x="232" 
d="M191 412q-10 -17 -26.5 -23t-48.5 -6t-48.5 6t-26.5 23q-4 7 -7 15t-5.5 22.5t-3.5 38t-1 60.5q0 36 1 59t3.5 37t5.5 22.5t7 16.5q8 15 26 21t49 6t49 -6t26 -21q4 -8 7 -16.5t5.5 -22.5t3.5 -37t1 -59q0 -37 -1 -60.5t-3.5 -38t-5.5 -22.5t-7 -15zM116 454q7 0 11 2.5
t6 12.5t2.5 29t0.5 51q0 33 -1 52.5t-3 29t-6 12t-10 2.5t-10 -2.5t-6 -12t-3 -29t-1 -52.5q0 -32 0.5 -51t2.5 -29t6 -12.5t11 -2.5z" />
    <glyph glyph-name="guillemotright" unicode="&#xbb;" horiz-adv-x="398" 
d="M21 195zM25 195h-4v103l97 78v9l-97 79v103h4l172 -146v-81zM204 195h-4v103l97 78v9l-97 79v103h4l172 -146v-81z" />
    <glyph glyph-name="onequarter" unicode="&#xbc;" horiz-adv-x="552" 
d="M20 0zM21 348v82h53v202h-54v70h37q21 0 25 13t4 52h68v-337h50v-82h-183zM58 0v4l373 753h77v-5l-373 -752h-77zM431 -10v75h-107v75l106 269h75v-273h27v-71h-27v-75h-74zM433 229h-4l-34 -93h38v93z" />
    <glyph glyph-name="onehalf" unicode="&#xbd;" horiz-adv-x="552" 
d="M15 0zM16 348v82h53v202h-54v70h37q21 0 25 13t4 52h68v-337h50v-82h-183zM52 0v4l373 753h77v-5l-373 -752h-77zM347 -10v82l57 72q26 33 36 45.5t14 21.5q5 12 5.5 24t0.5 42q0 22 -0.5 34.5t-3 18.5t-6.5 7.5t-11 1.5q-8 0 -12.5 -1.5t-7 -7.5t-3 -18.5t-0.5 -34.5
v-18.5t1 -14.5h-74q-1 7 -1 17v30q0 38 4 62.5t14.5 38.5t29.5 19.5t49 5.5q28 0 47 -5.5t31 -20.5t17 -42.5t5 -70.5q0 -31 -1.5 -50.5t-7.5 -35.5t-17 -32t-29 -38l-43 -53h95v-79h-189z" />
    <glyph glyph-name="threequarters" unicode="&#xbe;" horiz-adv-x="552" 
d="M17 0zM72 528v68h44q15 0 18.5 7.5t3.5 43.5q0 18 -0.5 28.5t-3 15.5t-7 6t-11.5 1q-8 0 -13 -1t-7.5 -5.5t-3 -14t-0.5 -26.5v-13.5t1 -12.5h-73q-1 8 -1 14.5v13.5q0 34 3 57t13.5 37.5t29.5 21t51 6.5q30 0 48.5 -3.5t29.5 -16t15 -36t4 -63.5q0 -23 -1.5 -38
t-4.5 -25.5t-8 -17t-12 -11.5q7 -4 13 -9t10 -15.5t6 -28.5t2 -47q0 -40 -4 -64t-15 -37t-31 -17.5t-52 -4.5t-51.5 6.5t-30 22t-14 40.5t-3.5 61q0 6 0.5 13t1.5 17h73q-1 -7 -1 -13v-12q0 -19 1 -29.5t3.5 -16t7.5 -6.5t13 -1q17 0 21.5 7.5t4.5 42.5q0 20 -1 31
t-3.5 16.5t-7.5 6.5t-14 1h-44zM60 0v4l373 753h77v-5l-373 -752h-77zM434 -10v75h-107v75l106 269h75v-273h27v-71h-27v-75h-74zM436 229h-4l-34 -93h38v93z" />
    <glyph glyph-name="questiondown" unicode="&#xbf;" horiz-adv-x="362" 
d="M331 38q3 -13 4.5 -28t1.5 -46q0 -35 -2 -59t-10 -48q-12 -38 -43.5 -52.5t-101.5 -14.5q-65 0 -100.5 16t-48.5 63q-6 21 -7.5 46t-1.5 66q0 40 1 66.5t5 44.5t10.5 30.5t17.5 26.5q14 18 31.5 32.5t28.5 28.5q5 6 8.5 12.5t5.5 15.5t2.5 21.5t0.5 32.5v23t-1 18h105
q3 -26 3 -98q0 -39 -11 -61q-8 -16 -20.5 -29.5t-30.5 -29.5q-15 -14 -23.5 -23.5t-13.5 -21.5q-2 -6 -3.5 -12t-2.5 -14.5t-1 -21.5v-34q0 -33 2 -46.5t7 -20.5t12.5 -9t24.5 -2t26.5 2.5t14.5 11.5t6.5 22.5t1.5 41.5v29t-1 21h103zM124 409v151h123v-151h-123z" />
    <glyph glyph-name="Agrave" unicode="&#xc0;" horiz-adv-x="386" 
d="M14 0zM245 0l-15 190h-78l-15 -190h-123l78 757h207l73 -757h-127zM196 633h-9l-30 -323h68zM161 789l-105 167v6h111l86 -169v-4h-92z" />
    <glyph glyph-name="Aacute" unicode="&#xc1;" horiz-adv-x="386" 
d="M14 0zM245 0l-15 190h-78l-15 -190h-123l78 757h207l73 -757h-127zM196 633h-9l-30 -323h68zM132 789v4l85 169h111v-6l-105 -167h-91z" />
    <glyph glyph-name="Acircumflex" unicode="&#xc2;" horiz-adv-x="386" 
d="M14 0zM245 0l-15 190h-78l-15 -190h-123l78 757h207l73 -757h-127zM196 633h-9l-30 -323h68zM243 789l-46 80h-9l-47 -80h-98v4l108 169h82l109 -169v-4h-99z" />
    <glyph glyph-name="Atilde" unicode="&#xc3;" horiz-adv-x="386" 
d="M14 0zM245 0l-15 190h-78l-15 -190h-123l78 757h207l73 -757h-127zM196 633h-9l-30 -323h68zM363 858q-18 -28 -41 -40t-54 -12q-22 0 -42 6t-39 17q-22 12 -38.5 17.5t-37.5 5.5q-26 0 -45.5 -12.5t-37.5 -38.5h-5v89q13 20 34.5 34.5t51.5 14.5q47 0 88 -21
q27 -14 43 -19t33 -5q25 0 46 11.5t39 38.5h5v-86z" />
    <glyph glyph-name="Adieresis" unicode="&#xc4;" horiz-adv-x="386" 
d="M14 0zM245 0l-15 190h-78l-15 -190h-123l78 757h207l73 -757h-127zM196 633h-9l-30 -323h68zM228 812v118h106v-118h-106zM51 812v118h106v-118h-106z" />
    <glyph glyph-name="Aring" unicode="&#xc5;" horiz-adv-x="386" 
d="M14 0zM245 0l-15 190h-78l-15 -190h-123l78 757h207l73 -757h-127zM196 633h-9l-30 -323h68zM265 790q-8 -9 -24.5 -12t-48.5 -3t-48.5 3t-24.5 12q-4 4 -7 8.5t-5 13t-3 21.5t-1 35q0 21 1 34.5t2.5 22t4.5 13.5t8 9q8 8 24.5 11.5t48.5 3.5t48.5 -3.5t24.5 -11.5
q4 -4 7.5 -9t5.5 -13.5t3 -22t1 -34.5q0 -22 -1 -35t-3.5 -21.5t-5.5 -13t-7 -8.5zM219 829q4 3 5.5 9t1.5 31q0 26 -1.5 32t-5.5 9q-2 2 -7.5 3.5t-19.5 1.5t-19.5 -1t-8.5 -4q-4 -3 -5 -9t-1 -32q0 -25 1 -31.5t5 -8.5q3 -2 8.5 -3t19.5 -1t19.5 1t7.5 3z" />
    <glyph glyph-name="AE" unicode="&#xc6;" horiz-adv-x="545" 
d="M230 0v190h-78l-15 -190h-123l78 757h424v-125h-163v-186h160v-119h-160v-196h162v-131h-285zM230 633h-43l-30 -323h73v323z" />
    <glyph glyph-name="Ccedilla" unicode="&#xc7;" 
d="M23 0zM364 290q2 -14 2.5 -28.5t0.5 -39.5q0 -60 -6.5 -104t-24.5 -73t-50.5 -43.5t-84.5 -14.5q-64 0 -97 13.5t-50 48.5q-8 16 -14 38t-10 59t-5.5 94t-1.5 145q0 94 2.5 151t6.5 91t10 51t13 31q17 34 48 47.5t94 13.5q57 0 87 -11t46 -35q35 -50 35 -183v-35.5
t-2 -25.5h-117q1 11 1 22v31q0 34 -3 59t-8 36q-5 10 -12.5 15t-26.5 5q-20 0 -28.5 -5.5t-12.5 -19.5q-3 -10 -5 -22.5t-3.5 -37.5t-2 -67t-0.5 -110q0 -69 0.5 -112t2 -68.5t3.5 -39t5 -23.5q4 -14 13 -19.5t32 -5.5q33 0 39 28q5 20 6.5 46t1.5 69v15t-1 14h117zM81 -238
v5l57 192h107v-6l-75 -191h-89z" />
    <glyph glyph-name="Egrave" unicode="&#xc8;" horiz-adv-x="346" 
d="M33 0zM33 0v757h285v-125h-162v-186h159v-119h-159v-196h161v-131h-284zM146 789l-105 167v6h111l86 -169v-4h-92z" />
    <glyph glyph-name="Eacute" unicode="&#xc9;" horiz-adv-x="346" 
d="M33 0zM33 0v757h285v-125h-162v-186h159v-119h-159v-196h161v-131h-284zM115 789v4l85 169h111v-6l-105 -167h-91z" />
    <glyph glyph-name="Ecircumflex" unicode="&#xca;" horiz-adv-x="346" 
d="M29 0zM33 0v757h285v-125h-162v-186h159v-119h-159v-196h161v-131h-284zM229 789l-46 80h-9l-47 -80h-98v4l108 169h82l109 -169v-4h-99z" />
    <glyph glyph-name="Edieresis" unicode="&#xcb;" horiz-adv-x="346" 
d="M33 0zM33 0v757h285v-125h-162v-186h159v-119h-159v-196h161v-131h-284zM212 812v118h106v-118h-106zM35 812v118h106v-118h-106z" />
    <glyph glyph-name="Igrave" unicode="&#xcc;" horiz-adv-x="196" 
d="M0 0zM35 0v757h126v-757h-126zM67 789l-105 167v6h111l86 -169v-4h-92z" />
    <glyph glyph-name="Iacute" unicode="&#xcd;" horiz-adv-x="196" 
d="M35 0zM35 0v757h126v-757h-126zM38 789v4l85 169h111v-6l-105 -167h-91z" />
    <glyph glyph-name="Icircumflex" unicode="&#xce;" horiz-adv-x="196" 
d="M0 0zM35 0v757h126v-757h-126zM149 789l-46 80h-9l-47 -80h-98v4l108 169h82l109 -169v-4h-99z" />
    <glyph glyph-name="Idieresis" unicode="&#xcf;" horiz-adv-x="196" 
d="M0 0zM35 0v757h126v-757h-126zM134 812v118h106v-118h-106zM-43 812v118h106v-118h-106z" />
    <glyph glyph-name="Eth" unicode="&#xd0;" horiz-adv-x="408" 
d="M33 0v327h-30v119h30v311h179q62 0 94 -13.5t49 -46.5q9 -17 14.5 -36.5t9.5 -53.5t5.5 -88t1.5 -140q0 -88 -2 -142.5t-5.5 -88.5t-9.5 -53.5t-14 -35.5q-8 -17 -20 -28.5t-29 -18t-40 -9.5t-54 -3h-179zM211 130q20 0 28 5t13 19q3 9 5 21t3 35.5t1.5 64t0.5 106.5
q0 65 -0.5 105.5t-1.5 64.5t-3 36.5t-5 21.5q-5 13 -13.5 18t-27.5 5h-59v-186h70v-119h-70v-197h59z" />
    <glyph glyph-name="Ntilde" unicode="&#xd1;" horiz-adv-x="412" 
d="M32 0zM317 0l-168 466h-5v-466h-112v757h128l103 -323h5v323h113v-757h-64zM376 858q-18 -28 -41 -40t-54 -12q-22 0 -42 6t-39 17q-22 12 -38.5 17.5t-37.5 5.5q-26 0 -45.5 -12.5t-37.5 -38.5h-5v89q13 20 34.5 34.5t51.5 14.5q47 0 88 -21q27 -14 43 -19t33 -5
q25 0 46 11.5t39 38.5h5v-86z" />
    <glyph glyph-name="Ograve" unicode="&#xd2;" 
d="M23 0zM339 49q-17 -35 -49 -48.5t-93 -13.5q-62 0 -94.5 13.5t-48.5 48.5q-8 17 -14 37.5t-10 55.5t-5.5 91.5t-1.5 145.5t1.5 145t5.5 91t10 55t14 38q17 35 48.5 48.5t94.5 13.5q61 0 93 -13.5t49 -48.5q8 -18 14 -38t9.5 -55t5.5 -91t2 -145t-2 -145.5t-5.5 -91.5
t-9.5 -55.5t-14 -37.5zM238 143q3 10 5 22.5t3 37.5t1.5 67t0.5 112q0 71 -0.5 114t-2 67.5t-3 37t-4.5 21.5q-4 14 -13 20t-28 6q-20 0 -28.5 -5.5t-12.5 -19.5q-3 -10 -5 -22t-3.5 -37t-2 -68t-0.5 -114q0 -70 0.5 -112.5t2 -67t3.5 -37t5 -22.5q4 -14 12.5 -19.5
t28.5 -5.5q19 0 28 5.5t13 19.5zM165 789l-105 167v6h111l86 -169v-4h-92z" />
    <glyph glyph-name="Oacute" unicode="&#xd3;" 
d="M23 0zM339 49q-17 -35 -49 -48.5t-93 -13.5q-62 0 -94.5 13.5t-48.5 48.5q-8 17 -14 37.5t-10 55.5t-5.5 91.5t-1.5 145.5t1.5 145t5.5 91t10 55t14 38q17 35 48.5 48.5t94.5 13.5q61 0 93 -13.5t49 -48.5q8 -18 14 -38t9.5 -55t5.5 -91t2 -145t-2 -145.5t-5.5 -91.5
t-9.5 -55.5t-14 -37.5zM238 143q3 10 5 22.5t3 37.5t1.5 67t0.5 112q0 71 -0.5 114t-2 67.5t-3 37t-4.5 21.5q-4 14 -13 20t-28 6q-20 0 -28.5 -5.5t-12.5 -19.5q-3 -10 -5 -22t-3.5 -37t-2 -68t-0.5 -114q0 -70 0.5 -112.5t2 -67t3.5 -37t5 -22.5q4 -14 12.5 -19.5
t28.5 -5.5q19 0 28 5.5t13 19.5zM136 789v4l85 169h111v-6l-105 -167h-91z" />
    <glyph glyph-name="Ocircumflex" unicode="&#xd4;" 
d="M23 0zM339 49q-17 -35 -49 -48.5t-93 -13.5q-62 0 -94.5 13.5t-48.5 48.5q-8 17 -14 37.5t-10 55.5t-5.5 91.5t-1.5 145.5t1.5 145t5.5 91t10 55t14 38q17 35 48.5 48.5t94.5 13.5q61 0 93 -13.5t49 -48.5q8 -18 14 -38t9.5 -55t5.5 -91t2 -145t-2 -145.5t-5.5 -91.5
t-9.5 -55.5t-14 -37.5zM238 143q3 10 5 22.5t3 37.5t1.5 67t0.5 112q0 71 -0.5 114t-2 67.5t-3 37t-4.5 21.5q-4 14 -13 20t-28 6q-20 0 -28.5 -5.5t-12.5 -19.5q-3 -10 -5 -22t-3.5 -37t-2 -68t-0.5 -114q0 -70 0.5 -112.5t2 -67t3.5 -37t5 -22.5q4 -14 12.5 -19.5
t28.5 -5.5q19 0 28 5.5t13 19.5zM247 789l-46 80h-9l-47 -80h-98v4l108 169h82l109 -169v-4h-99z" />
    <glyph glyph-name="Otilde" unicode="&#xd5;" 
d="M23 0zM339 49q-17 -35 -49 -48.5t-93 -13.5q-62 0 -94.5 13.5t-48.5 48.5q-8 17 -14 37.5t-10 55.5t-5.5 91.5t-1.5 145.5t1.5 145t5.5 91t10 55t14 38q17 35 48.5 48.5t94.5 13.5q61 0 93 -13.5t49 -48.5q8 -18 14 -38t9.5 -55t5.5 -91t2 -145t-2 -145.5t-5.5 -91.5
t-9.5 -55.5t-14 -37.5zM238 143q3 10 5 22.5t3 37.5t1.5 67t0.5 112q0 71 -0.5 114t-2 67.5t-3 37t-4.5 21.5q-4 14 -13 20t-28 6q-20 0 -28.5 -5.5t-12.5 -19.5q-3 -10 -5 -22t-3.5 -37t-2 -68t-0.5 -114q0 -70 0.5 -112.5t2 -67t3.5 -37t5 -22.5q4 -14 12.5 -19.5
t28.5 -5.5q19 0 28 5.5t13 19.5zM367 858q-18 -28 -41 -40t-54 -12q-22 0 -42 6t-39 17q-22 12 -38.5 17.5t-37.5 5.5q-26 0 -45.5 -12.5t-37.5 -38.5h-5v89q13 20 34.5 34.5t51.5 14.5q47 0 88 -21q27 -14 43 -19t33 -5q25 0 46 11.5t39 38.5h5v-86z" />
    <glyph glyph-name="Odieresis" unicode="&#xd6;" 
d="M23 0zM339 49q-17 -35 -49 -48.5t-93 -13.5q-62 0 -94.5 13.5t-48.5 48.5q-8 17 -14 37.5t-10 55.5t-5.5 91.5t-1.5 145.5t1.5 145t5.5 91t10 55t14 38q17 35 48.5 48.5t94.5 13.5q61 0 93 -13.5t49 -48.5q8 -18 14 -38t9.5 -55t5.5 -91t2 -145t-2 -145.5t-5.5 -91.5
t-9.5 -55.5t-14 -37.5zM238 143q3 10 5 22.5t3 37.5t1.5 67t0.5 112q0 71 -0.5 114t-2 67.5t-3 37t-4.5 21.5q-4 14 -13 20t-28 6q-20 0 -28.5 -5.5t-12.5 -19.5q-3 -10 -5 -22t-3.5 -37t-2 -68t-0.5 -114q0 -70 0.5 -112.5t2 -67t3.5 -37t5 -22.5q4 -14 12.5 -19.5
t28.5 -5.5q19 0 28 5.5t13 19.5zM232 812v118h106v-118h-106zM55 812v118h106v-118h-106z" />
    <glyph glyph-name="multiply" unicode="&#xd7;" 
d="M298 211l-102 102l-102 -102l-66 66l102 102l-101 101l66 66l101 -102l101 102l66 -66l-101 -101l103 -102z" />
    <glyph glyph-name="Oslash" unicode="&#xd8;" 
d="M30 -130l40 153q-11 12 -16 26q-8 17 -14 37.5t-10 55.5t-5.5 91.5t-1.5 145.5t1.5 145t5.5 91t10 55t14 38q17 35 48.5 48.5t94.5 13.5q40 0 69 -6l24 89h60l-31 -116q6 -6 10.5 -13.5t9.5 -15.5q8 -18 14 -38t9.5 -55t5.5 -91t2 -145t-2 -145.5t-5.5 -91.5t-9.5 -55.5
t-14 -37.5q-17 -35 -49 -48.5t-93 -13.5q-47 0 -75 7l-32 -124h-60zM159 133q8 -15 38 -15q19 0 28 5.5t13 19.5q3 10 5 22.5t3 37.5t1.5 67t0.5 112q0 29 1 52.5t1 44.5h-4q-3 -21 -7.5 -43t-11.5 -48zM146 288q2 20 6.5 43.5t11.5 46.5l68 257q-9 13 -35 13
q-20 0 -28.5 -5.5t-12.5 -19.5q-3 -10 -5 -22t-3.5 -37t-2 -68t-0.5 -114q0 -29 -0.5 -51.5t-2.5 -42.5h4z" />
    <glyph glyph-name="Ugrave" unicode="&#xd9;" horiz-adv-x="401" 
d="M27 0zM252 757h122v-536q-1 -42 -2.5 -70.5t-4.5 -48.5t-8.5 -34t-12.5 -27q-17 -31 -49.5 -42.5t-95.5 -11.5t-96 11.5t-50 42.5q-8 13 -13 27t-8.5 34t-5 48.5t-1.5 70.5v536h126v-536q0 -22 0.5 -36t1 -23.5t2 -15.5t4.5 -11q5 -9 13.5 -13t28.5 -4t28 3t13 13
q3 5 4.5 11t2 16t1 24t0.5 36v536zM169 789l-105 167v6h111l86 -169v-4h-92z" />
    <glyph glyph-name="Uacute" unicode="&#xda;" horiz-adv-x="401" 
d="M27 0zM252 757h122v-536q-1 -42 -2.5 -70.5t-4.5 -48.5t-8.5 -34t-12.5 -27q-17 -31 -49.5 -42.5t-95.5 -11.5t-96 11.5t-50 42.5q-8 13 -13 27t-8.5 34t-5 48.5t-1.5 70.5v536h126v-536q0 -22 0.5 -36t1 -23.5t2 -15.5t4.5 -11q5 -9 13.5 -13t28.5 -4t28 3t13 13
q3 5 4.5 11t2 16t1 24t0.5 36v536zM140 789v4l85 169h111v-6l-105 -167h-91z" />
    <glyph glyph-name="Ucircumflex" unicode="&#xdb;" horiz-adv-x="401" 
d="M27 0zM252 757h122v-536q-1 -42 -2.5 -70.5t-4.5 -48.5t-8.5 -34t-12.5 -27q-17 -31 -49.5 -42.5t-95.5 -11.5t-96 11.5t-50 42.5q-8 13 -13 27t-8.5 34t-5 48.5t-1.5 70.5v536h126v-536q0 -22 0.5 -36t1 -23.5t2 -15.5t4.5 -11q5 -9 13.5 -13t28.5 -4t28 3t13 13
q3 5 4.5 11t2 16t1 24t0.5 36v536zM251 789l-46 80h-9l-47 -80h-98v4l108 169h82l109 -169v-4h-99z" />
    <glyph glyph-name="Udieresis" unicode="&#xdc;" horiz-adv-x="401" 
d="M27 0zM252 757h122v-536q-1 -42 -2.5 -70.5t-4.5 -48.5t-8.5 -34t-12.5 -27q-17 -31 -49.5 -42.5t-95.5 -11.5t-96 11.5t-50 42.5q-8 13 -13 27t-8.5 34t-5 48.5t-1.5 70.5v536h126v-536q0 -22 0.5 -36t1 -23.5t2 -15.5t4.5 -11q5 -9 13.5 -13t28.5 -4t28 3t13 13
q3 5 4.5 11t2 16t1 24t0.5 36v536zM236 812v118h106v-118h-106zM59 812v118h106v-118h-106z" />
    <glyph glyph-name="Yacute" unicode="&#xdd;" horiz-adv-x="386" 
d="M6 0zM129 0v303l-123 449v5h126q18 -80 28.5 -128t16.5 -76t8.5 -41.5t3.5 -22.5h9q1 9 3.5 22.5t8.5 41.5t17.5 76t29.5 128h122v-5l-118 -448v-304h-132zM133 789v4l85 169h111v-6l-105 -167h-91z" />
    <glyph glyph-name="Thorn" unicode="&#xde;" horiz-adv-x="392" 
d="M33 0v757h123v-116h70q43 0 71 -13t44.5 -43.5t23 -80.5t6.5 -124t-6.5 -125.5t-23 -83.5t-44.5 -46t-71 -14h-70v-111h-123zM205 233q12 0 20 5.5t13 21.5t7 45.5t2 77.5q0 43 -2.5 69.5t-7.5 41t-14 19t-21 4.5h-46v-284h49z" />
    <glyph glyph-name="germandbls" unicode="&#xdf;" horiz-adv-x="564" 
d="M60 0v587q0 60 6.5 92.5t23.5 50.5q20 22 58 29.5t89 7.5q59 0 86 -8t42 -24q20 -22 24.5 -57.5t4.5 -95.5v-42q0 -23 4 -31t19 -18q14 -10 25 -16.5t20.5 -12.5l19 -12t21.5 -15t19.5 -18t11.5 -25t5.5 -44t1.5 -74q0 -57 -1.5 -97.5t-5 -68.5t-9 -46t-12.5 -29
q-17 -28 -51 -37t-86 -9q-50 0 -77.5 8.5t-43.5 34.5q-14 24 -19 58.5t-5 74.5q0 18 0.5 28.5t2.5 22.5h101q-1 -5 -1 -14v-35q0 -35 6.5 -51.5t37.5 -16.5q37 0 44 29q5 21 7 49t2 67q0 45 -8 74.5t-19 37.5q-32 22 -50 34.5t-28 20t-15 12t-10 9.5q-6 6 -10 14.5
t-6.5 22.5t-3.5 37t-1 58v31q0 29 -2 41t-8 20q-5 6 -12.5 8.5t-24.5 2.5q-18 0 -27.5 -3t-15.5 -13q-5 -8 -6 -18t-1 -38v-593h-123z" />
    <glyph glyph-name="agrave" unicode="&#xe0;" horiz-adv-x="386" 
d="M14 0zM245 0l-15 190h-78l-15 -190h-123l78 757h207l73 -757h-127zM196 633h-9l-30 -323h68zM161 789l-105 167v6h111l86 -169v-4h-92z" />
    <glyph glyph-name="aacute" unicode="&#xe1;" horiz-adv-x="386" 
d="M14 0zM245 0l-15 190h-78l-15 -190h-123l78 757h207l73 -757h-127zM196 633h-9l-30 -323h68zM132 789v4l85 169h111v-6l-105 -167h-91z" />
    <glyph glyph-name="acircumflex" unicode="&#xe2;" horiz-adv-x="386" 
d="M14 0zM245 0l-15 190h-78l-15 -190h-123l78 757h207l73 -757h-127zM196 633h-9l-30 -323h68zM243 789l-46 80h-9l-47 -80h-98v4l108 169h82l109 -169v-4h-99z" />
    <glyph glyph-name="atilde" unicode="&#xe3;" horiz-adv-x="386" 
d="M14 0zM245 0l-15 190h-78l-15 -190h-123l78 757h207l73 -757h-127zM196 633h-9l-30 -323h68zM363 858q-18 -28 -41 -40t-54 -12q-22 0 -42 6t-39 17q-22 12 -38.5 17.5t-37.5 5.5q-26 0 -45.5 -12.5t-37.5 -38.5h-5v89q13 20 34.5 34.5t51.5 14.5q47 0 88 -21
q27 -14 43 -19t33 -5q25 0 46 11.5t39 38.5h5v-86z" />
    <glyph glyph-name="adieresis" unicode="&#xe4;" horiz-adv-x="386" 
d="M14 0zM245 0l-15 190h-78l-15 -190h-123l78 757h207l73 -757h-127zM196 633h-9l-30 -323h68zM228 812v118h106v-118h-106zM51 812v118h106v-118h-106z" />
    <glyph glyph-name="aring" unicode="&#xe5;" horiz-adv-x="386" 
d="M14 0zM245 0l-15 190h-78l-15 -190h-123l78 757h207l73 -757h-127zM196 633h-9l-30 -323h68zM265 790q-8 -9 -24.5 -12t-48.5 -3t-48.5 3t-24.5 12q-4 4 -7 8.5t-5 13t-3 21.5t-1 35q0 21 1 34.5t2.5 22t4.5 13.5t8 9q8 8 24.5 11.5t48.5 3.5t48.5 -3.5t24.5 -11.5
q4 -4 7.5 -9t5.5 -13.5t3 -22t1 -34.5q0 -22 -1 -35t-3.5 -21.5t-5.5 -13t-7 -8.5zM219 829q4 3 5.5 9t1.5 31q0 26 -1.5 32t-5.5 9q-2 2 -7.5 3.5t-19.5 1.5t-19.5 -1t-8.5 -4q-4 -3 -5 -9t-1 -32q0 -25 1 -31.5t5 -8.5q3 -2 8.5 -3t19.5 -1t19.5 1t7.5 3z" />
    <glyph glyph-name="ae" unicode="&#xe6;" horiz-adv-x="545" 
d="M14 0zM230 0v190h-78l-15 -190h-123l78 757h424v-125h-163v-186h160v-119h-160v-196h162v-131h-285zM230 633h-43l-30 -323h73v323z" />
    <glyph glyph-name="ccedilla" unicode="&#xe7;" 
d="M23 0zM364 290q2 -14 2.5 -28.5t0.5 -39.5q0 -60 -6.5 -104t-24.5 -73t-50.5 -43.5t-84.5 -14.5q-64 0 -97 13.5t-50 48.5q-8 16 -14 38t-10 59t-5.5 94t-1.5 145q0 94 2.5 151t6.5 91t10 51t13 31q17 34 48 47.5t94 13.5q57 0 87 -11t46 -35q35 -50 35 -183v-35.5
t-2 -25.5h-117q1 11 1 22v31q0 34 -3 59t-8 36q-5 10 -12.5 15t-26.5 5q-20 0 -28.5 -5.5t-12.5 -19.5q-3 -10 -5 -22.5t-3.5 -37.5t-2 -67t-0.5 -110q0 -69 0.5 -112t2 -68.5t3.5 -39t5 -23.5q4 -14 13 -19.5t32 -5.5q33 0 39 28q5 20 6.5 46t1.5 69v15t-1 14h117zM81 -238
v5l57 192h107v-6l-75 -191h-89z" />
    <glyph glyph-name="egrave" unicode="&#xe8;" horiz-adv-x="346" 
d="M33 0zM33 0v757h285v-125h-162v-186h159v-119h-159v-196h161v-131h-284zM146 789l-105 167v6h111l86 -169v-4h-92z" />
    <glyph glyph-name="eacute" unicode="&#xe9;" horiz-adv-x="346" 
d="M33 0zM33 0v757h285v-125h-162v-186h159v-119h-159v-196h161v-131h-284zM115 789v4l85 169h111v-6l-105 -167h-91z" />
    <glyph glyph-name="ecircumflex" unicode="&#xea;" horiz-adv-x="346" 
d="M29 0zM33 0v757h285v-125h-162v-186h159v-119h-159v-196h161v-131h-284zM229 789l-46 80h-9l-47 -80h-98v4l108 169h82l109 -169v-4h-99z" />
    <glyph glyph-name="edieresis" unicode="&#xeb;" horiz-adv-x="346" 
d="M33 0zM33 0v757h285v-125h-162v-186h159v-119h-159v-196h161v-131h-284zM212 812v118h106v-118h-106zM35 812v118h106v-118h-106z" />
    <glyph glyph-name="igrave" unicode="&#xec;" horiz-adv-x="196" 
d="M0 0zM35 0v757h126v-757h-126zM67 789l-105 167v6h111l86 -169v-4h-92z" />
    <glyph glyph-name="iacute" unicode="&#xed;" horiz-adv-x="196" 
d="M35 0zM35 0v757h126v-757h-126zM38 789v4l85 169h111v-6l-105 -167h-91z" />
    <glyph glyph-name="icircumflex" unicode="&#xee;" horiz-adv-x="196" 
d="M0 0zM35 0v757h126v-757h-126zM149 789l-46 80h-9l-47 -80h-98v4l108 169h82l109 -169v-4h-99z" />
    <glyph glyph-name="idieresis" unicode="&#xef;" horiz-adv-x="196" 
d="M0 0zM35 0v757h126v-757h-126zM134 812v118h106v-118h-106zM-43 812v118h106v-118h-106z" />
    <glyph glyph-name="eth" unicode="&#xf0;" horiz-adv-x="408" 
d="M3 0zM33 0v327h-30v119h30v311h179q62 0 94 -13.5t49 -46.5q9 -17 14.5 -36.5t9.5 -53.5t5.5 -88t1.5 -140q0 -88 -2 -142.5t-5.5 -88.5t-9.5 -53.5t-14 -35.5q-8 -17 -20 -28.5t-29 -18t-40 -9.5t-54 -3h-179zM211 130q20 0 28 5t13 19q3 9 5 21t3 35.5t1.5 64
t0.5 106.5q0 65 -0.5 105.5t-1.5 64.5t-3 36.5t-5 21.5q-5 13 -13.5 18t-27.5 5h-59v-186h70v-119h-70v-197h59z" />
    <glyph glyph-name="ntilde" unicode="&#xf1;" horiz-adv-x="412" 
d="M32 0zM317 0l-168 466h-5v-466h-112v757h128l103 -323h5v323h113v-757h-64zM376 858q-18 -28 -41 -40t-54 -12q-22 0 -42 6t-39 17q-22 12 -38.5 17.5t-37.5 5.5q-26 0 -45.5 -12.5t-37.5 -38.5h-5v89q13 20 34.5 34.5t51.5 14.5q47 0 88 -21q27 -14 43 -19t33 -5
q25 0 46 11.5t39 38.5h5v-86z" />
    <glyph glyph-name="ograve" unicode="&#xf2;" 
d="M23 0zM339 49q-17 -35 -49 -48.5t-93 -13.5q-62 0 -94.5 13.5t-48.5 48.5q-8 17 -14 37.5t-10 55.5t-5.5 91.5t-1.5 145.5t1.5 145t5.5 91t10 55t14 38q17 35 48.5 48.5t94.5 13.5q61 0 93 -13.5t49 -48.5q8 -18 14 -38t9.5 -55t5.5 -91t2 -145t-2 -145.5t-5.5 -91.5
t-9.5 -55.5t-14 -37.5zM238 143q3 10 5 22.5t3 37.5t1.5 67t0.5 112q0 71 -0.5 114t-2 67.5t-3 37t-4.5 21.5q-4 14 -13 20t-28 6q-20 0 -28.5 -5.5t-12.5 -19.5q-3 -10 -5 -22t-3.5 -37t-2 -68t-0.5 -114q0 -70 0.5 -112.5t2 -67t3.5 -37t5 -22.5q4 -14 12.5 -19.5
t28.5 -5.5q19 0 28 5.5t13 19.5zM165 789l-105 167v6h111l86 -169v-4h-92z" />
    <glyph glyph-name="oacute" unicode="&#xf3;" 
d="M23 0zM339 49q-17 -35 -49 -48.5t-93 -13.5q-62 0 -94.5 13.5t-48.5 48.5q-8 17 -14 37.5t-10 55.5t-5.5 91.5t-1.5 145.5t1.5 145t5.5 91t10 55t14 38q17 35 48.5 48.5t94.5 13.5q61 0 93 -13.5t49 -48.5q8 -18 14 -38t9.5 -55t5.5 -91t2 -145t-2 -145.5t-5.5 -91.5
t-9.5 -55.5t-14 -37.5zM238 143q3 10 5 22.5t3 37.5t1.5 67t0.5 112q0 71 -0.5 114t-2 67.5t-3 37t-4.5 21.5q-4 14 -13 20t-28 6q-20 0 -28.5 -5.5t-12.5 -19.5q-3 -10 -5 -22t-3.5 -37t-2 -68t-0.5 -114q0 -70 0.5 -112.5t2 -67t3.5 -37t5 -22.5q4 -14 12.5 -19.5
t28.5 -5.5q19 0 28 5.5t13 19.5zM136 789v4l85 169h111v-6l-105 -167h-91z" />
    <glyph glyph-name="ocircumflex" unicode="&#xf4;" 
d="M23 0zM339 49q-17 -35 -49 -48.5t-93 -13.5q-62 0 -94.5 13.5t-48.5 48.5q-8 17 -14 37.5t-10 55.5t-5.5 91.5t-1.5 145.5t1.5 145t5.5 91t10 55t14 38q17 35 48.5 48.5t94.5 13.5q61 0 93 -13.5t49 -48.5q8 -18 14 -38t9.5 -55t5.5 -91t2 -145t-2 -145.5t-5.5 -91.5
t-9.5 -55.5t-14 -37.5zM238 143q3 10 5 22.5t3 37.5t1.5 67t0.5 112q0 71 -0.5 114t-2 67.5t-3 37t-4.5 21.5q-4 14 -13 20t-28 6q-20 0 -28.5 -5.5t-12.5 -19.5q-3 -10 -5 -22t-3.5 -37t-2 -68t-0.5 -114q0 -70 0.5 -112.5t2 -67t3.5 -37t5 -22.5q4 -14 12.5 -19.5
t28.5 -5.5q19 0 28 5.5t13 19.5zM247 789l-46 80h-9l-47 -80h-98v4l108 169h82l109 -169v-4h-99z" />
    <glyph glyph-name="otilde" unicode="&#xf5;" 
d="M23 0zM339 49q-17 -35 -49 -48.5t-93 -13.5q-62 0 -94.5 13.5t-48.5 48.5q-8 17 -14 37.5t-10 55.5t-5.5 91.5t-1.5 145.5t1.5 145t5.5 91t10 55t14 38q17 35 48.5 48.5t94.5 13.5q61 0 93 -13.5t49 -48.5q8 -18 14 -38t9.5 -55t5.5 -91t2 -145t-2 -145.5t-5.5 -91.5
t-9.5 -55.5t-14 -37.5zM238 143q3 10 5 22.5t3 37.5t1.5 67t0.5 112q0 71 -0.5 114t-2 67.5t-3 37t-4.5 21.5q-4 14 -13 20t-28 6q-20 0 -28.5 -5.5t-12.5 -19.5q-3 -10 -5 -22t-3.5 -37t-2 -68t-0.5 -114q0 -70 0.5 -112.5t2 -67t3.5 -37t5 -22.5q4 -14 12.5 -19.5
t28.5 -5.5q19 0 28 5.5t13 19.5zM367 858q-18 -28 -41 -40t-54 -12q-22 0 -42 6t-39 17q-22 12 -38.5 17.5t-37.5 5.5q-26 0 -45.5 -12.5t-37.5 -38.5h-5v89q13 20 34.5 34.5t51.5 14.5q47 0 88 -21q27 -14 43 -19t33 -5q25 0 46 11.5t39 38.5h5v-86z" />
    <glyph glyph-name="odieresis" unicode="&#xf6;" 
d="M23 0zM339 49q-17 -35 -49 -48.5t-93 -13.5q-62 0 -94.5 13.5t-48.5 48.5q-8 17 -14 37.5t-10 55.5t-5.5 91.5t-1.5 145.5t1.5 145t5.5 91t10 55t14 38q17 35 48.5 48.5t94.5 13.5q61 0 93 -13.5t49 -48.5q8 -18 14 -38t9.5 -55t5.5 -91t2 -145t-2 -145.5t-5.5 -91.5
t-9.5 -55.5t-14 -37.5zM238 143q3 10 5 22.5t3 37.5t1.5 67t0.5 112q0 71 -0.5 114t-2 67.5t-3 37t-4.5 21.5q-4 14 -13 20t-28 6q-20 0 -28.5 -5.5t-12.5 -19.5q-3 -10 -5 -22t-3.5 -37t-2 -68t-0.5 -114q0 -70 0.5 -112.5t2 -67t3.5 -37t5 -22.5q4 -14 12.5 -19.5
t28.5 -5.5q19 0 28 5.5t13 19.5zM232 812v118h106v-118h-106zM55 812v118h106v-118h-106z" />
    <glyph glyph-name="divide" unicode="&#xf7;" 
d="M17 95zM17 333v92h359v-92h-359zM135 525v138h123v-138h-123zM135 95v138h123v-138h-123z" />
    <glyph glyph-name="oslash" unicode="&#xf8;" 
d="M23 0zM30 -130l40 153q-11 12 -16 26q-8 17 -14 37.5t-10 55.5t-5.5 91.5t-1.5 145.5t1.5 145t5.5 91t10 55t14 38q17 35 48.5 48.5t94.5 13.5q40 0 69 -6l24 89h60l-31 -116q6 -6 10.5 -13.5t9.5 -15.5q8 -18 14 -38t9.5 -55t5.5 -91t2 -145t-2 -145.5t-5.5 -91.5
t-9.5 -55.5t-14 -37.5q-17 -35 -49 -48.5t-93 -13.5q-47 0 -75 7l-32 -124h-60zM159 133q8 -15 38 -15q19 0 28 5.5t13 19.5q3 10 5 22.5t3 37.5t1.5 67t0.5 112q0 29 1 52.5t1 44.5h-4q-3 -21 -7.5 -43t-11.5 -48zM146 288q2 20 6.5 43.5t11.5 46.5l68 257q-9 13 -35 13
q-20 0 -28.5 -5.5t-12.5 -19.5q-3 -10 -5 -22t-3.5 -37t-2 -68t-0.5 -114q0 -29 -0.5 -51.5t-2.5 -42.5h4z" />
    <glyph glyph-name="ugrave" unicode="&#xf9;" horiz-adv-x="401" 
d="M27 0zM252 757h122v-536q-1 -42 -2.5 -70.5t-4.5 -48.5t-8.5 -34t-12.5 -27q-17 -31 -49.5 -42.5t-95.5 -11.5t-96 11.5t-50 42.5q-8 13 -13 27t-8.5 34t-5 48.5t-1.5 70.5v536h126v-536q0 -22 0.5 -36t1 -23.5t2 -15.5t4.5 -11q5 -9 13.5 -13t28.5 -4t28 3t13 13
q3 5 4.5 11t2 16t1 24t0.5 36v536zM169 789l-105 167v6h111l86 -169v-4h-92z" />
    <glyph glyph-name="uacute" unicode="&#xfa;" horiz-adv-x="401" 
d="M27 0zM252 757h122v-536q-1 -42 -2.5 -70.5t-4.5 -48.5t-8.5 -34t-12.5 -27q-17 -31 -49.5 -42.5t-95.5 -11.5t-96 11.5t-50 42.5q-8 13 -13 27t-8.5 34t-5 48.5t-1.5 70.5v536h126v-536q0 -22 0.5 -36t1 -23.5t2 -15.5t4.5 -11q5 -9 13.5 -13t28.5 -4t28 3t13 13
q3 5 4.5 11t2 16t1 24t0.5 36v536zM140 789v4l85 169h111v-6l-105 -167h-91z" />
    <glyph glyph-name="ucircumflex" unicode="&#xfb;" horiz-adv-x="401" 
d="M27 0zM252 757h122v-536q-1 -42 -2.5 -70.5t-4.5 -48.5t-8.5 -34t-12.5 -27q-17 -31 -49.5 -42.5t-95.5 -11.5t-96 11.5t-50 42.5q-8 13 -13 27t-8.5 34t-5 48.5t-1.5 70.5v536h126v-536q0 -22 0.5 -36t1 -23.5t2 -15.5t4.5 -11q5 -9 13.5 -13t28.5 -4t28 3t13 13
q3 5 4.5 11t2 16t1 24t0.5 36v536zM251 789l-46 80h-9l-47 -80h-98v4l108 169h82l109 -169v-4h-99z" />
    <glyph glyph-name="udieresis" unicode="&#xfc;" horiz-adv-x="401" 
d="M27 0zM252 757h122v-536q-1 -42 -2.5 -70.5t-4.5 -48.5t-8.5 -34t-12.5 -27q-17 -31 -49.5 -42.5t-95.5 -11.5t-96 11.5t-50 42.5q-8 13 -13 27t-8.5 34t-5 48.5t-1.5 70.5v536h126v-536q0 -22 0.5 -36t1 -23.5t2 -15.5t4.5 -11q5 -9 13.5 -13t28.5 -4t28 3t13 13
q3 5 4.5 11t2 16t1 24t0.5 36v536zM236 812v118h106v-118h-106zM59 812v118h106v-118h-106z" />
    <glyph glyph-name="yacute" unicode="&#xfd;" horiz-adv-x="386" 
d="M6 0zM129 0v303l-123 449v5h126q18 -80 28.5 -128t16.5 -76t8.5 -41.5t3.5 -22.5h9q1 9 3.5 22.5t8.5 41.5t17.5 76t29.5 128h122v-5l-118 -448v-304h-132zM133 789v4l85 169h111v-6l-105 -167h-91z" />
    <glyph glyph-name="thorn" unicode="&#xfe;" horiz-adv-x="392" 
d="M33 0zM33 0v757h123v-116h70q43 0 71 -13t44.5 -43.5t23 -80.5t6.5 -124t-6.5 -125.5t-23 -83.5t-44.5 -46t-71 -14h-70v-111h-123zM205 233q12 0 20 5.5t13 21.5t7 45.5t2 77.5q0 43 -2.5 69.5t-7.5 41t-14 19t-21 4.5h-46v-284h49z" />
    <glyph glyph-name="ydieresis" unicode="&#xff;" horiz-adv-x="386" 
d="M6 0zM129 0v303l-123 449v5h126q18 -80 28.5 -128t16.5 -76t8.5 -41.5t3.5 -22.5h9q1 9 3.5 22.5t8.5 41.5t17.5 76t29.5 128h122v-5l-118 -448v-304h-132zM229 812v118h106v-118h-106zM52 812v118h106v-118h-106z" />
    <glyph glyph-name="Amacron" unicode="&#x100;" horiz-adv-x="386" 
d="M14 0zM245 0l-15 190h-78l-15 -190h-123l78 757h207l73 -757h-127zM196 633h-9l-30 -323h68zM27 834v84h330v-84h-330z" />
    <glyph glyph-name="amacron" unicode="&#x101;" horiz-adv-x="386" 
d="M14 0zM245 0l-15 190h-78l-15 -190h-123l78 757h207l73 -757h-127zM196 633h-9l-30 -323h68zM27 834v84h330v-84h-330z" />
    <glyph glyph-name="Abreve" unicode="&#x102;" horiz-adv-x="386" 
d="M14 0zM245 0l-15 190h-78l-15 -190h-123l78 757h207l73 -757h-127zM196 633h-9l-30 -323h68zM333 962q0 -38 -2 -61.5t-5 -39t-7.5 -25t-11.5 -18.5q-14 -17 -39 -23t-75 -6t-75 6t-39 23q-7 8 -11.5 17.5t-7.5 25t-5 39.5t-2 62h82q0 -26 0.5 -41t2 -24t3.5 -14t5 -9
q5 -7 13 -9t34 -2q24 0 33 2t14 9q3 4 5 9t3.5 14t2 24t0.5 41h82z" />
    <glyph glyph-name="abreve" unicode="&#x103;" horiz-adv-x="386" 
d="M14 0zM245 0l-15 190h-78l-15 -190h-123l78 757h207l73 -757h-127zM196 633h-9l-30 -323h68zM333 962q0 -38 -2 -61.5t-5 -39t-7.5 -25t-11.5 -18.5q-14 -17 -39 -23t-75 -6t-75 6t-39 23q-7 8 -11.5 17.5t-7.5 25t-5 39.5t-2 62h82q0 -26 0.5 -41t2 -24t3.5 -14t5 -9
q5 -7 13 -9t34 -2q24 0 33 2t14 9q3 4 5 9t3.5 14t2 24t0.5 41h82z" />
    <glyph glyph-name="Aogonek" unicode="&#x104;" horiz-adv-x="386" 
d="M371 -206q-7 -10 -32.5 -21t-70.5 -11q-58 0 -87 25.5t-29 81.5q0 35 20 65.5t74 49.5l-16 206h-78l-15 -190h-123l78 757h207l73 -757q-22 -8 -40.5 -16t-32 -18t-21.5 -22.5t-8 -29.5q0 -56 53 -56q15 0 25.5 3t18.5 7h4v-74zM196 633h-9l-30 -323h68z" />
    <glyph glyph-name="aogonek" unicode="&#x105;" horiz-adv-x="386" 
d="M14 0zM371 -206q-7 -10 -32.5 -21t-70.5 -11q-58 0 -87 25.5t-29 81.5q0 35 20 65.5t74 49.5l-16 206h-78l-15 -190h-123l78 757h207l73 -757q-22 -8 -40.5 -16t-32 -18t-21.5 -22.5t-8 -29.5q0 -56 53 -56q15 0 25.5 3t18.5 7h4v-74zM196 633h-9l-30 -323h68z" />
    <glyph glyph-name="Cacute" unicode="&#x106;" 
d="M23 0zM364 290q2 -14 2.5 -28.5t0.5 -39.5q0 -60 -6.5 -104t-24.5 -73t-50.5 -43.5t-84.5 -14.5q-64 0 -97 13.5t-50 48.5q-8 16 -14 38t-10 59t-5.5 94t-1.5 145q0 94 2.5 151t6.5 91t10 51t13 31q17 34 48 47.5t94 13.5q57 0 87 -11t46 -35q35 -50 35 -183v-35.5
t-2 -25.5h-117q1 11 1 22v31q0 34 -3 59t-8 36q-5 10 -12.5 15t-26.5 5q-20 0 -28.5 -5.5t-12.5 -19.5q-3 -10 -5 -22.5t-3.5 -37.5t-2 -67t-0.5 -110q0 -69 0.5 -112t2 -68.5t3.5 -39t5 -23.5q4 -14 13 -19.5t32 -5.5q33 0 39 28q5 20 6.5 46t1.5 69v15t-1 14h117zM136 789
v4l85 169h111v-6l-105 -167h-91z" />
    <glyph glyph-name="cacute" unicode="&#x107;" 
d="M23 0zM364 290q2 -14 2.5 -28.5t0.5 -39.5q0 -60 -6.5 -104t-24.5 -73t-50.5 -43.5t-84.5 -14.5q-64 0 -97 13.5t-50 48.5q-8 16 -14 38t-10 59t-5.5 94t-1.5 145q0 94 2.5 151t6.5 91t10 51t13 31q17 34 48 47.5t94 13.5q57 0 87 -11t46 -35q35 -50 35 -183v-35.5
t-2 -25.5h-117q1 11 1 22v31q0 34 -3 59t-8 36q-5 10 -12.5 15t-26.5 5q-20 0 -28.5 -5.5t-12.5 -19.5q-3 -10 -5 -22.5t-3.5 -37.5t-2 -67t-0.5 -110q0 -69 0.5 -112t2 -68.5t3.5 -39t5 -23.5q4 -14 13 -19.5t32 -5.5q33 0 39 28q5 20 6.5 46t1.5 69v15t-1 14h117zM136 789
v4l85 169h111v-6l-105 -167h-91z" />
    <glyph glyph-name="Cdotaccent" unicode="&#x10a;" 
d="M23 0zM364 290q2 -14 2.5 -28.5t0.5 -39.5q0 -60 -6.5 -104t-24.5 -73t-50.5 -43.5t-84.5 -14.5q-64 0 -97 13.5t-50 48.5q-8 16 -14 38t-10 59t-5.5 94t-1.5 145q0 94 2.5 151t6.5 91t10 51t13 31q17 34 48 47.5t94 13.5q57 0 87 -11t46 -35q35 -50 35 -183v-35.5
t-2 -25.5h-117q1 11 1 22v31q0 34 -3 59t-8 36q-5 10 -12.5 15t-26.5 5q-20 0 -28.5 -5.5t-12.5 -19.5q-3 -10 -5 -22.5t-3.5 -37.5t-2 -67t-0.5 -110q0 -69 0.5 -112t2 -68.5t3.5 -39t5 -23.5q4 -14 13 -19.5t32 -5.5q33 0 39 28q5 20 6.5 46t1.5 69v15t-1 14h117zM145 812
v118h106v-118h-106z" />
    <glyph glyph-name="cdotaccent" unicode="&#x10b;" 
d="M23 0zM364 290q2 -14 2.5 -28.5t0.5 -39.5q0 -60 -6.5 -104t-24.5 -73t-50.5 -43.5t-84.5 -14.5q-64 0 -97 13.5t-50 48.5q-8 16 -14 38t-10 59t-5.5 94t-1.5 145q0 94 2.5 151t6.5 91t10 51t13 31q17 34 48 47.5t94 13.5q57 0 87 -11t46 -35q35 -50 35 -183v-35.5
t-2 -25.5h-117q1 11 1 22v31q0 34 -3 59t-8 36q-5 10 -12.5 15t-26.5 5q-20 0 -28.5 -5.5t-12.5 -19.5q-3 -10 -5 -22.5t-3.5 -37.5t-2 -67t-0.5 -110q0 -69 0.5 -112t2 -68.5t3.5 -39t5 -23.5q4 -14 13 -19.5t32 -5.5q33 0 39 28q5 20 6.5 46t1.5 69v15t-1 14h117zM145 812
v118h106v-118h-106z" />
    <glyph glyph-name="Ccaron" unicode="&#x10c;" 
d="M23 0zM364 290q2 -14 2.5 -28.5t0.5 -39.5q0 -60 -6.5 -104t-24.5 -73t-50.5 -43.5t-84.5 -14.5q-64 0 -97 13.5t-50 48.5q-8 16 -14 38t-10 59t-5.5 94t-1.5 145q0 94 2.5 151t6.5 91t10 51t13 31q17 34 48 47.5t94 13.5q57 0 87 -11t46 -35q35 -50 35 -183v-35.5
t-2 -25.5h-117q1 11 1 22v31q0 34 -3 59t-8 36q-5 10 -12.5 15t-26.5 5q-20 0 -28.5 -5.5t-12.5 -19.5q-3 -10 -5 -22.5t-3.5 -37.5t-2 -67t-0.5 -110q0 -69 0.5 -112t2 -68.5t3.5 -39t5 -23.5q4 -14 13 -19.5t32 -5.5q33 0 39 28q5 20 6.5 46t1.5 69v15t-1 14h117zM154 789
l-109 168v5h99l47 -80h9l46 80h98v-5l-108 -168h-82z" />
    <glyph glyph-name="ccaron" unicode="&#x10d;" 
d="M23 0zM364 290q2 -14 2.5 -28.5t0.5 -39.5q0 -60 -6.5 -104t-24.5 -73t-50.5 -43.5t-84.5 -14.5q-64 0 -97 13.5t-50 48.5q-8 16 -14 38t-10 59t-5.5 94t-1.5 145q0 94 2.5 151t6.5 91t10 51t13 31q17 34 48 47.5t94 13.5q57 0 87 -11t46 -35q35 -50 35 -183v-35.5
t-2 -25.5h-117q1 11 1 22v31q0 34 -3 59t-8 36q-5 10 -12.5 15t-26.5 5q-20 0 -28.5 -5.5t-12.5 -19.5q-3 -10 -5 -22.5t-3.5 -37.5t-2 -67t-0.5 -110q0 -69 0.5 -112t2 -68.5t3.5 -39t5 -23.5q4 -14 13 -19.5t32 -5.5q33 0 39 28q5 20 6.5 46t1.5 69v15t-1 14h117zM154 789
l-109 168v5h99l47 -80h9l46 80h98v-5l-108 -168h-82z" />
    <glyph glyph-name="Dcaron" unicode="&#x10e;" horiz-adv-x="409" 
d="M33 0zM33 0v757h179q62 0 94 -13.5t49 -46.5q9 -17 14.5 -36.5t9.5 -53.5t5.5 -88t1.5 -140q0 -88 -2 -142.5t-5.5 -88.5t-9.5 -53.5t-14 -35.5q-8 -17 -20 -28.5t-29 -18t-40 -9.5t-54 -3h-179zM209 130q20 0 28.5 5t13.5 19q3 9 4.5 21t3 35.5t2 64t0.5 106.5
q0 65 -0.5 105.5t-1.5 64.5t-3 36.5t-5 21.5q-5 13 -14 18t-28 5h-53v-502h53zM156 789l-109 168v5h99l47 -80h9l46 80h98v-5l-108 -168h-82z" />
    <glyph glyph-name="dcaron" unicode="&#x10f;" horiz-adv-x="409" 
d="M33 0zM33 0v757h179q62 0 94 -13.5t49 -46.5q9 -17 14.5 -36.5t9.5 -53.5t5.5 -88t1.5 -140q0 -88 -2 -142.5t-5.5 -88.5t-9.5 -53.5t-14 -35.5q-8 -17 -20 -28.5t-29 -18t-40 -9.5t-54 -3h-179zM209 130q20 0 28.5 5t13.5 19q3 9 4.5 21t3 35.5t2 64t0.5 106.5
q0 65 -0.5 105.5t-1.5 64.5t-3 36.5t-5 21.5q-5 13 -14 18t-28 5h-53v-502h53zM156 789l-109 168v5h99l47 -80h9l46 80h98v-5l-108 -168h-82z" />
    <glyph glyph-name="Dcroat" unicode="&#x110;" horiz-adv-x="408" 
d="M3 0zM33 0v327h-30v119h30v311h179q62 0 94 -13.5t49 -46.5q9 -17 14.5 -36.5t9.5 -53.5t5.5 -88t1.5 -140q0 -88 -2 -142.5t-5.5 -88.5t-9.5 -53.5t-14 -35.5q-8 -17 -20 -28.5t-29 -18t-40 -9.5t-54 -3h-179zM211 130q20 0 28 5t13 19q3 9 5 21t3 35.5t1.5 64
t0.5 106.5q0 65 -0.5 105.5t-1.5 64.5t-3 36.5t-5 21.5q-5 13 -13.5 18t-27.5 5h-59v-186h70v-119h-70v-197h59z" />
    <glyph glyph-name="dcroat" unicode="&#x111;" horiz-adv-x="408" 
d="M3 0zM33 0v327h-30v119h30v311h179q62 0 94 -13.5t49 -46.5q9 -17 14.5 -36.5t9.5 -53.5t5.5 -88t1.5 -140q0 -88 -2 -142.5t-5.5 -88.5t-9.5 -53.5t-14 -35.5q-8 -17 -20 -28.5t-29 -18t-40 -9.5t-54 -3h-179zM211 130q20 0 28 5t13 19q3 9 5 21t3 35.5t1.5 64
t0.5 106.5q0 65 -0.5 105.5t-1.5 64.5t-3 36.5t-5 21.5q-5 13 -13.5 18t-27.5 5h-59v-186h70v-119h-70v-197h59z" />
    <glyph glyph-name="Emacron" unicode="&#x112;" horiz-adv-x="346" 
d="M11 0zM33 0v757h285v-125h-162v-186h159v-119h-159v-196h161v-131h-284zM11 834v84h330v-84h-330z" />
    <glyph glyph-name="emacron" unicode="&#x113;" horiz-adv-x="346" 
d="M11 0zM33 0v757h285v-125h-162v-186h159v-119h-159v-196h161v-131h-284zM11 834v84h330v-84h-330z" />
    <glyph glyph-name="Ebreve" unicode="&#x114;" horiz-adv-x="346" 
d="M33 0zM33 0v757h285v-125h-162v-186h159v-119h-159v-196h161v-131h-284zM316 962q0 -38 -2 -61.5t-5 -39t-7.5 -25t-11.5 -18.5q-14 -17 -39 -23t-75 -6t-75 6t-39 23q-7 8 -11.5 17.5t-7.5 25t-5 39.5t-2 62h82q0 -26 0.5 -41t2 -24t3.5 -14t5 -9q5 -7 13 -9t34 -2
q24 0 33 2t14 9q3 4 5 9t3.5 14t2 24t0.5 41h82z" />
    <glyph glyph-name="ebreve" unicode="&#x115;" horiz-adv-x="346" 
d="M33 0zM33 0v757h285v-125h-162v-186h159v-119h-159v-196h161v-131h-284zM316 962q0 -38 -2 -61.5t-5 -39t-7.5 -25t-11.5 -18.5q-14 -17 -39 -23t-75 -6t-75 6t-39 23q-7 8 -11.5 17.5t-7.5 25t-5 39.5t-2 62h82q0 -26 0.5 -41t2 -24t3.5 -14t5 -9q5 -7 13 -9t34 -2
q24 0 33 2t14 9q3 4 5 9t3.5 14t2 24t0.5 41h82z" />
    <glyph glyph-name="Edotaccent" unicode="&#x116;" horiz-adv-x="346" 
d="M33 0zM33 0v757h285v-125h-162v-186h159v-119h-159v-196h161v-131h-284zM123 812v118h106v-118h-106z" />
    <glyph glyph-name="edotaccent" unicode="&#x117;" horiz-adv-x="346" 
d="M33 0zM33 0v757h285v-125h-162v-186h159v-119h-159v-196h161v-131h-284zM123 812v118h106v-118h-106z" />
    <glyph glyph-name="Eogonek" unicode="&#x118;" horiz-adv-x="346" 
d="M316 -206q-7 -10 -32.5 -21t-70.5 -11q-58 0 -87 25.5t-29 81.5q0 22 8 43t27.5 38.5t52 30.5t82.5 19h-234v757h285v-125h-162v-186h159v-119h-159v-196h161v-131q-22 -8 -40.5 -16t-32 -18t-21.5 -22.5t-8 -29.5q0 -56 53 -56q15 0 25.5 3t18.5 7h4v-74z" />
    <glyph glyph-name="eogonek" unicode="&#x119;" horiz-adv-x="346" 
d="M33 0zM316 -206q-7 -10 -32.5 -21t-70.5 -11q-58 0 -87 25.5t-29 81.5q0 22 8 43t27.5 38.5t52 30.5t82.5 19h-234v757h285v-125h-162v-186h159v-119h-159v-196h161v-131q-22 -8 -40.5 -16t-32 -18t-21.5 -22.5t-8 -29.5q0 -56 53 -56q15 0 25.5 3t18.5 7h4v-74z" />
    <glyph glyph-name="Ecaron" unicode="&#x11a;" horiz-adv-x="346" 
d="M27 0zM33 0v757h285v-125h-162v-186h159v-119h-159v-196h161v-131h-284zM136 789l-109 168v5h99l47 -80h9l46 80h98v-5l-108 -168h-82z" />
    <glyph glyph-name="ecaron" unicode="&#x11b;" horiz-adv-x="346" 
d="M27 0zM33 0v757h285v-125h-162v-186h159v-119h-159v-196h161v-131h-284zM136 789l-109 168v5h99l47 -80h9l46 80h98v-5l-108 -168h-82z" />
    <glyph glyph-name="Gbreve" unicode="&#x11e;" horiz-adv-x="390" 
d="M23 0zM181 313v119h186q1 -19 1.5 -53.5t0.5 -82.5q0 -60 -2 -100.5t-6 -68t-9.5 -45.5t-12.5 -33q-17 -35 -49 -48.5t-93 -13.5q-62 0 -94 13.5t-49 48.5q-8 17 -14 37.5t-10 56.5t-5.5 93t-1.5 149q0 88 1.5 143t5.5 89.5t10 53.5t14 36q9 18 21 30t29 19.5t39.5 10.5
t53.5 3q32 0 55 -3t39 -10t26.5 -18.5t19.5 -27.5q14 -27 20.5 -63.5t6.5 -88.5v-17.5t-1 -15.5h-116q1 6 1 12v21q0 16 -2.5 35t-5.5 30q-7 24 -44 24q-20 0 -29 -6t-14 -22q-2 -9 -4 -21t-3.5 -37t-2.5 -66.5t-1 -109.5q0 -72 0.5 -115t2 -68t3.5 -37t5 -21q5 -16 15 -22
t31 -6q23 0 32.5 6.5t14.5 23.5q2 9 4 23t3 30t1.5 32t0.5 30v31t-1 20h-73zM336 962q0 -38 -2 -61.5t-5 -39t-7.5 -25t-11.5 -18.5q-14 -17 -39 -23t-75 -6t-75 6t-39 23q-7 8 -11.5 17.5t-7.5 25t-5 39.5t-2 62h82q0 -26 0.5 -41t2 -24t3.5 -14t5 -9q5 -7 13 -9t34 -2
q24 0 33 2t14 9q3 4 5 9t3.5 14t2 24t0.5 41h82z" />
    <glyph glyph-name="gbreve" unicode="&#x11f;" horiz-adv-x="390" 
d="M23 0zM181 313v119h186q1 -19 1.5 -53.5t0.5 -82.5q0 -60 -2 -100.5t-6 -68t-9.5 -45.5t-12.5 -33q-17 -35 -49 -48.5t-93 -13.5q-62 0 -94 13.5t-49 48.5q-8 17 -14 37.5t-10 56.5t-5.5 93t-1.5 149q0 88 1.5 143t5.5 89.5t10 53.5t14 36q9 18 21 30t29 19.5t39.5 10.5
t53.5 3q32 0 55 -3t39 -10t26.5 -18.5t19.5 -27.5q14 -27 20.5 -63.5t6.5 -88.5v-17.5t-1 -15.5h-116q1 6 1 12v21q0 16 -2.5 35t-5.5 30q-7 24 -44 24q-20 0 -29 -6t-14 -22q-2 -9 -4 -21t-3.5 -37t-2.5 -66.5t-1 -109.5q0 -72 0.5 -115t2 -68t3.5 -37t5 -21q5 -16 15 -22
t31 -6q23 0 32.5 6.5t14.5 23.5q2 9 4 23t3 30t1.5 32t0.5 30v31t-1 20h-73zM336 962q0 -38 -2 -61.5t-5 -39t-7.5 -25t-11.5 -18.5q-14 -17 -39 -23t-75 -6t-75 6t-39 23q-7 8 -11.5 17.5t-7.5 25t-5 39.5t-2 62h82q0 -26 0.5 -41t2 -24t3.5 -14t5 -9q5 -7 13 -9t34 -2
q24 0 33 2t14 9q3 4 5 9t3.5 14t2 24t0.5 41h82z" />
    <glyph glyph-name="Gdotaccent" unicode="&#x120;" horiz-adv-x="390" 
d="M23 0zM181 313v119h186q1 -19 1.5 -53.5t0.5 -82.5q0 -60 -2 -100.5t-6 -68t-9.5 -45.5t-12.5 -33q-17 -35 -49 -48.5t-93 -13.5q-62 0 -94 13.5t-49 48.5q-8 17 -14 37.5t-10 56.5t-5.5 93t-1.5 149q0 88 1.5 143t5.5 89.5t10 53.5t14 36q9 18 21 30t29 19.5t39.5 10.5
t53.5 3q32 0 55 -3t39 -10t26.5 -18.5t19.5 -27.5q14 -27 20.5 -63.5t6.5 -88.5v-17.5t-1 -15.5h-116q1 6 1 12v21q0 16 -2.5 35t-5.5 30q-7 24 -44 24q-20 0 -29 -6t-14 -22q-2 -9 -4 -21t-3.5 -37t-2.5 -66.5t-1 -109.5q0 -72 0.5 -115t2 -68t3.5 -37t5 -21q5 -16 15 -22
t31 -6q23 0 32.5 6.5t14.5 23.5q2 9 4 23t3 30t1.5 32t0.5 30v31t-1 20h-73zM144 812v118h106v-118h-106z" />
    <glyph glyph-name="gdotaccent" unicode="&#x121;" horiz-adv-x="390" 
d="M23 0zM181 313v119h186q1 -19 1.5 -53.5t0.5 -82.5q0 -60 -2 -100.5t-6 -68t-9.5 -45.5t-12.5 -33q-17 -35 -49 -48.5t-93 -13.5q-62 0 -94 13.5t-49 48.5q-8 17 -14 37.5t-10 56.5t-5.5 93t-1.5 149q0 88 1.5 143t5.5 89.5t10 53.5t14 36q9 18 21 30t29 19.5t39.5 10.5
t53.5 3q32 0 55 -3t39 -10t26.5 -18.5t19.5 -27.5q14 -27 20.5 -63.5t6.5 -88.5v-17.5t-1 -15.5h-116q1 6 1 12v21q0 16 -2.5 35t-5.5 30q-7 24 -44 24q-20 0 -29 -6t-14 -22q-2 -9 -4 -21t-3.5 -37t-2.5 -66.5t-1 -109.5q0 -72 0.5 -115t2 -68t3.5 -37t5 -21q5 -16 15 -22
t31 -6q23 0 32.5 6.5t14.5 23.5q2 9 4 23t3 30t1.5 32t0.5 30v31t-1 20h-73zM144 812v118h106v-118h-106z" />
    <glyph glyph-name="Gcommaaccent" unicode="&#x122;" horiz-adv-x="390" 
d="M23 0zM181 313v119h186q1 -19 1.5 -53.5t0.5 -82.5q0 -60 -2 -100.5t-6 -68t-9.5 -45.5t-12.5 -33q-17 -35 -49 -48.5t-93 -13.5q-62 0 -94 13.5t-49 48.5q-8 17 -14 37.5t-10 56.5t-5.5 93t-1.5 149q0 88 1.5 143t5.5 89.5t10 53.5t14 36q9 18 21 30t29 19.5t39.5 10.5
t53.5 3q32 0 55 -3t39 -10t26.5 -18.5t19.5 -27.5q14 -27 20.5 -63.5t6.5 -88.5v-17.5t-1 -15.5h-116q1 6 1 12v21q0 16 -2.5 35t-5.5 30q-7 24 -44 24q-20 0 -29 -6t-14 -22q-2 -9 -4 -21t-3.5 -37t-2.5 -66.5t-1 -109.5q0 -72 0.5 -115t2 -68t3.5 -37t5 -21q5 -16 15 -22
t31 -6q23 0 32.5 6.5t14.5 23.5q2 9 4 23t3 30t1.5 32t0.5 30v31t-1 20h-73zM93 -238v5l57 192h107v-6l-75 -191h-89z" />
    <glyph glyph-name="gcommaaccent" unicode="&#x123;" horiz-adv-x="390" 
d="M23 0zM181 313v119h186q1 -19 1.5 -53.5t0.5 -82.5q0 -60 -2 -100.5t-6 -68t-9.5 -45.5t-12.5 -33q-17 -35 -49 -48.5t-93 -13.5q-62 0 -94 13.5t-49 48.5q-8 17 -14 37.5t-10 56.5t-5.5 93t-1.5 149q0 88 1.5 143t5.5 89.5t10 53.5t14 36q9 18 21 30t29 19.5t39.5 10.5
t53.5 3q32 0 55 -3t39 -10t26.5 -18.5t19.5 -27.5q14 -27 20.5 -63.5t6.5 -88.5v-17.5t-1 -15.5h-116q1 6 1 12v21q0 16 -2.5 35t-5.5 30q-7 24 -44 24q-20 0 -29 -6t-14 -22q-2 -9 -4 -21t-3.5 -37t-2.5 -66.5t-1 -109.5q0 -72 0.5 -115t2 -68t3.5 -37t5 -21q5 -16 15 -22
t31 -6q23 0 32.5 6.5t14.5 23.5q2 9 4 23t3 30t1.5 32t0.5 30v31t-1 20h-73zM93 -238v5l57 192h107v-6l-75 -191h-89z" />
    <glyph glyph-name="Hbar" unicode="&#x126;" horiz-adv-x="420" 
d="M263 0v315h-106v-315h-126v757h126v-117h106v117h125v-757h-125zM263 556h-106v-122h106v122z" />
    <glyph glyph-name="hbar" unicode="&#x127;" horiz-adv-x="420" 
d="M31 0zM263 0v315h-106v-315h-126v757h126v-117h106v117h125v-757h-125zM263 556h-106v-122h106v122z" />
    <glyph glyph-name="Imacron" unicode="&#x12a;" horiz-adv-x="246" 
d="M0 0zM60 0v757h126v-757h-126zM-42 834v84h330v-84h-330z" />
    <glyph glyph-name="imacron" unicode="&#x12b;" horiz-adv-x="246" 
d="M0 0zM60 0v757h126v-757h-126zM-42 834v84h330v-84h-330z" />
    <glyph glyph-name="Ibreve" unicode="&#x12c;" horiz-adv-x="196" 
d="M0 0zM35 0v757h126v-757h-126zM238 962q0 -38 -2 -61.5t-5 -39t-7.5 -25t-11.5 -18.5q-14 -17 -39 -23t-75 -6t-75 6t-39 23q-7 8 -11.5 17.5t-7.5 25t-5 39.5t-2 62h82q0 -26 0.5 -41t2 -24t3.5 -14t5 -9q5 -7 13 -9t34 -2q24 0 33 2t14 9q3 4 5 9t3.5 14t2 24t0.5 41
h82z" />
    <glyph glyph-name="ibreve" unicode="&#x12d;" horiz-adv-x="196" 
d="M0 0zM35 0v757h126v-757h-126zM238 962q0 -38 -2 -61.5t-5 -39t-7.5 -25t-11.5 -18.5q-14 -17 -39 -23t-75 -6t-75 6t-39 23q-7 8 -11.5 17.5t-7.5 25t-5 39.5t-2 62h82q0 -26 0.5 -41t2 -24t3.5 -14t5 -9q5 -7 13 -9t34 -2q24 0 33 2t14 9q3 4 5 9t3.5 14t2 24t0.5 41
h82z" />
    <glyph glyph-name="Iogonek" unicode="&#x12e;" horiz-adv-x="196" 
d="M160 -206q-7 -10 -32.5 -21t-70.5 -11q-58 0 -87 25.5t-29 81.5q0 35 20 65.5t74 49.5v773h126v-757q-22 -8 -40.5 -16t-32 -18t-21.5 -22.5t-8 -29.5q0 -56 53 -56q15 0 25.5 3t18.5 7h4v-74z" />
    <glyph glyph-name="iogonek" unicode="&#x12f;" horiz-adv-x="196" 
d="M0 0zM160 -206q-7 -10 -32.5 -21t-70.5 -11q-58 0 -87 25.5t-29 81.5q0 35 20 65.5t74 49.5v773h126v-757q-22 -8 -40.5 -16t-32 -18t-21.5 -22.5t-8 -29.5q0 -56 53 -56q15 0 25.5 3t18.5 7h4v-74z" />
    <glyph glyph-name="Idotaccent" unicode="&#x130;" horiz-adv-x="196" 
d="M35 0zM35 0v757h126v-757h-126zM45 812v118h106v-118h-106z" />
    <glyph glyph-name="dotlessi" unicode="&#x131;" horiz-adv-x="196" 
d="M35 0zM35 0v757h126v-757h-126z" />
    <glyph glyph-name="IJ" unicode="&#x132;" horiz-adv-x="580" 
d="M35 0zM35 0v757h126v-757h-126zM427 757h126v-367q0 -86 -1.5 -143.5t-5 -96t-10 -62t-15.5 -41.5q-8 -16 -19 -27t-28 -18.5t-41 -11t-57 -3.5q-64 0 -98.5 19.5t-50.5 65.5q-9 27 -13 63.5t-4 86.5q0 29 0.5 44t2.5 24h110q-1 -3 -1 -13.5v-47.5q0 -22 2 -41t5 -34
q4 -18 13 -27t31 -9t30.5 5.5t12.5 19.5q3 10 5 24t3.5 40t2 69t0.5 111v370z" />
    <glyph glyph-name="ij" unicode="&#x133;" horiz-adv-x="580" 
d="M35 0zM35 0v757h126v-757h-126zM427 757h126v-367q0 -86 -1.5 -143.5t-5 -96t-10 -62t-15.5 -41.5q-8 -16 -19 -27t-28 -18.5t-41 -11t-57 -3.5q-64 0 -98.5 19.5t-50.5 65.5q-9 27 -13 63.5t-4 86.5q0 29 0.5 44t2.5 24h110q-1 -3 -1 -13.5v-47.5q0 -22 2 -41t5 -34
q4 -18 13 -27t31 -9t30.5 5.5t12.5 19.5q3 10 5 24t3.5 40t2 69t0.5 111v370z" />
    <glyph glyph-name="Kcommaaccent" unicode="&#x136;" horiz-adv-x="422" 
d="M33 0zM272 0q-25 80 -42 136.5t-29 95t-18.5 61.5t-10 36t-5 18.5t-1.5 9.5h-9q1 -6 1.5 -13t0.5 -17.5v-26.5v-40v-260h-126v757h126v-236v-37.5t-0.5 -24t-1 -15t-0.5 -10.5h9q1 6 4 15.5t13.5 40.5t31.5 93.5t59 173.5h129v-5l-121 -340l128 -408v-4h-138zM106 -238v5
l57 192h107v-6l-75 -191h-89z" />
    <glyph glyph-name="kcommaaccent" unicode="&#x137;" horiz-adv-x="422" 
d="M33 0zM272 0q-25 80 -42 136.5t-29 95t-18.5 61.5t-10 36t-5 18.5t-1.5 9.5h-9q1 -6 1.5 -13t0.5 -17.5v-26.5v-40v-260h-126v757h126v-236v-37.5t-0.5 -24t-1 -15t-0.5 -10.5h9q1 6 4 15.5t13.5 40.5t31.5 93.5t59 173.5h129v-5l-121 -340l128 -408v-4h-138zM106 -238v5
l57 192h107v-6l-75 -191h-89z" />
    <glyph glyph-name="Lacute" unicode="&#x139;" horiz-adv-x="317" 
d="M33 0zM33 0v757h123v-626h148v-131h-271zM91 789v4l85 169h111v-6l-105 -167h-91z" />
    <glyph glyph-name="lacute" unicode="&#x13a;" horiz-adv-x="317" 
d="M33 0zM33 0v757h123v-626h148v-131h-271zM91 789v4l85 169h111v-6l-105 -167h-91z" />
    <glyph glyph-name="Lcommaaccent" unicode="&#x13b;" horiz-adv-x="317" 
d="M33 0zM33 0v757h123v-626h148v-131h-271zM61 -238v5l57 192h107v-6l-75 -191h-89z" />
    <glyph glyph-name="lcommaaccent" unicode="&#x13c;" horiz-adv-x="317" 
d="M33 0zM33 0v757h123v-626h148v-131h-271zM61 -238v5l57 192h107v-6l-75 -191h-89z" />
    <glyph glyph-name="Lcaron" unicode="&#x13d;" horiz-adv-x="328" 
d="M33 0zM33 0v757h123v-626h148v-131h-271zM179 591v5l57 192h107v-6l-75 -191h-89z" />
    <glyph glyph-name="lcaron" unicode="&#x13e;" horiz-adv-x="328" 
d="M33 0zM33 0v757h123v-626h148v-131h-271zM179 591v5l57 192h107v-6l-75 -191h-89z" />
    <glyph glyph-name="Ldot" unicode="&#x13f;" horiz-adv-x="331" 
d="M33 0zM33 0v757h123v-626h148v-131h-271zM207 339v118h106v-118h-106z" />
    <glyph glyph-name="ldot" unicode="&#x140;" horiz-adv-x="331" 
d="M33 0zM33 0v757h123v-626h148v-131h-271zM207 339v118h106v-118h-106z" />
    <glyph glyph-name="Lslash" unicode="&#x141;" horiz-adv-x="319" 
d="M32 0v403l-24 -13h-5v108l29 17v242h123v-171l100 59h4v-107l-104 -62v-345h148v-131h-271z" />
    <glyph glyph-name="lslash" unicode="&#x142;" horiz-adv-x="319" 
d="M3 0zM32 0v403l-24 -13h-5v108l29 17v242h123v-171l100 59h4v-107l-104 -62v-345h148v-131h-271z" />
    <glyph glyph-name="Nacute" unicode="&#x143;" horiz-adv-x="412" 
d="M32 0zM317 0l-168 466h-5v-466h-112v757h128l103 -323h5v323h113v-757h-64zM151 789v4l85 169h111v-6l-105 -167h-91z" />
    <glyph glyph-name="nacute" unicode="&#x144;" horiz-adv-x="412" 
d="M32 0zM317 0l-168 466h-5v-466h-112v757h128l103 -323h5v323h113v-757h-64zM151 789v4l85 169h111v-6l-105 -167h-91z" />
    <glyph glyph-name="Ncommaaccent" unicode="&#x145;" horiz-adv-x="412" 
d="M32 0zM317 0l-168 466h-5v-466h-112v757h128l103 -323h5v323h113v-757h-64zM112 -238v5l57 192h107v-6l-75 -191h-89z" />
    <glyph glyph-name="ncommaaccent" unicode="&#x146;" horiz-adv-x="412" 
d="M32 0zM317 0l-168 466h-5v-466h-112v757h128l103 -323h5v323h113v-757h-64zM112 -238v5l57 192h107v-6l-75 -191h-89z" />
    <glyph glyph-name="Ncaron" unicode="&#x147;" horiz-adv-x="412" 
d="M32 0zM317 0l-168 466h-5v-466h-112v757h128l103 -323h5v323h113v-757h-64zM166 789l-109 168v5h99l47 -80h9l46 80h98v-5l-108 -168h-82z" />
    <glyph glyph-name="ncaron" unicode="&#x148;" horiz-adv-x="412" 
d="M32 0zM317 0l-168 466h-5v-466h-112v757h128l103 -323h5v323h113v-757h-64zM166 789l-109 168v5h99l47 -80h9l46 80h98v-5l-108 -168h-82z" />
    <glyph glyph-name="Eng" unicode="&#x14a;" horiz-adv-x="412" 
d="M162 -130h7q16 -6 42 -6q17 0 28 3t17.5 11.5t9 23t2.5 37.5v197l-119 330h-5v-466h-112v757h128l103 -323h5v323h113v-818q0 -49 -6 -83t-22.5 -55t-46.5 -30t-77 -9q-20 0 -39.5 4t-27.5 8v96z" />
    <glyph glyph-name="eng" unicode="&#x14b;" horiz-adv-x="412" 
d="M32 0zM162 -130h7q16 -6 42 -6q17 0 28 3t17.5 11.5t9 23t2.5 37.5v197l-119 330h-5v-466h-112v757h128l103 -323h5v323h113v-818q0 -49 -6 -83t-22.5 -55t-46.5 -30t-77 -9q-20 0 -39.5 4t-27.5 8v96z" />
    <glyph glyph-name="Omacron" unicode="&#x14c;" 
d="M23 0zM339 49q-17 -35 -49 -48.5t-93 -13.5q-62 0 -94.5 13.5t-48.5 48.5q-8 17 -14 37.5t-10 55.5t-5.5 91.5t-1.5 145.5t1.5 145t5.5 91t10 55t14 38q17 35 48.5 48.5t94.5 13.5q61 0 93 -13.5t49 -48.5q8 -18 14 -38t9.5 -55t5.5 -91t2 -145t-2 -145.5t-5.5 -91.5
t-9.5 -55.5t-14 -37.5zM238 143q3 10 5 22.5t3 37.5t1.5 67t0.5 112q0 71 -0.5 114t-2 67.5t-3 37t-4.5 21.5q-4 14 -13 20t-28 6q-20 0 -28.5 -5.5t-12.5 -19.5q-3 -10 -5 -22t-3.5 -37t-2 -68t-0.5 -114q0 -70 0.5 -112.5t2 -67t3.5 -37t5 -22.5q4 -14 12.5 -19.5
t28.5 -5.5q19 0 28 5.5t13 19.5zM32 834v84h330v-84h-330z" />
    <glyph glyph-name="omacron" unicode="&#x14d;" 
d="M23 0zM339 49q-17 -35 -49 -48.5t-93 -13.5q-62 0 -94.5 13.5t-48.5 48.5q-8 17 -14 37.5t-10 55.5t-5.5 91.5t-1.5 145.5t1.5 145t5.5 91t10 55t14 38q17 35 48.5 48.5t94.5 13.5q61 0 93 -13.5t49 -48.5q8 -18 14 -38t9.5 -55t5.5 -91t2 -145t-2 -145.5t-5.5 -91.5
t-9.5 -55.5t-14 -37.5zM238 143q3 10 5 22.5t3 37.5t1.5 67t0.5 112q0 71 -0.5 114t-2 67.5t-3 37t-4.5 21.5q-4 14 -13 20t-28 6q-20 0 -28.5 -5.5t-12.5 -19.5q-3 -10 -5 -22t-3.5 -37t-2 -68t-0.5 -114q0 -70 0.5 -112.5t2 -67t3.5 -37t5 -22.5q4 -14 12.5 -19.5
t28.5 -5.5q19 0 28 5.5t13 19.5zM32 834v84h330v-84h-330z" />
    <glyph glyph-name="Obreve" unicode="&#x14e;" 
d="M23 0zM339 49q-17 -35 -49 -48.5t-93 -13.5q-62 0 -94.5 13.5t-48.5 48.5q-8 17 -14 37.5t-10 55.5t-5.5 91.5t-1.5 145.5t1.5 145t5.5 91t10 55t14 38q17 35 48.5 48.5t94.5 13.5q61 0 93 -13.5t49 -48.5q8 -18 14 -38t9.5 -55t5.5 -91t2 -145t-2 -145.5t-5.5 -91.5
t-9.5 -55.5t-14 -37.5zM238 143q3 10 5 22.5t3 37.5t1.5 67t0.5 112q0 71 -0.5 114t-2 67.5t-3 37t-4.5 21.5q-4 14 -13 20t-28 6q-20 0 -28.5 -5.5t-12.5 -19.5q-3 -10 -5 -22t-3.5 -37t-2 -68t-0.5 -114q0 -70 0.5 -112.5t2 -67t3.5 -37t5 -22.5q4 -14 12.5 -19.5
t28.5 -5.5q19 0 28 5.5t13 19.5zM336 962q0 -38 -2 -61.5t-5 -39t-7.5 -25t-11.5 -18.5q-14 -17 -39 -23t-75 -6t-75 6t-39 23q-7 8 -11.5 17.5t-7.5 25t-5 39.5t-2 62h82q0 -26 0.5 -41t2 -24t3.5 -14t5 -9q5 -7 13 -9t34 -2q24 0 33 2t14 9q3 4 5 9t3.5 14t2 24t0.5 41h82
z" />
    <glyph glyph-name="obreve" unicode="&#x14f;" 
d="M23 0zM339 49q-17 -35 -49 -48.5t-93 -13.5q-62 0 -94.5 13.5t-48.5 48.5q-8 17 -14 37.5t-10 55.5t-5.5 91.5t-1.5 145.5t1.5 145t5.5 91t10 55t14 38q17 35 48.5 48.5t94.5 13.5q61 0 93 -13.5t49 -48.5q8 -18 14 -38t9.5 -55t5.5 -91t2 -145t-2 -145.5t-5.5 -91.5
t-9.5 -55.5t-14 -37.5zM238 143q3 10 5 22.5t3 37.5t1.5 67t0.5 112q0 71 -0.5 114t-2 67.5t-3 37t-4.5 21.5q-4 14 -13 20t-28 6q-20 0 -28.5 -5.5t-12.5 -19.5q-3 -10 -5 -22t-3.5 -37t-2 -68t-0.5 -114q0 -70 0.5 -112.5t2 -67t3.5 -37t5 -22.5q4 -14 12.5 -19.5
t28.5 -5.5q19 0 28 5.5t13 19.5zM336 962q0 -38 -2 -61.5t-5 -39t-7.5 -25t-11.5 -18.5q-14 -17 -39 -23t-75 -6t-75 6t-39 23q-7 8 -11.5 17.5t-7.5 25t-5 39.5t-2 62h82q0 -26 0.5 -41t2 -24t3.5 -14t5 -9q5 -7 13 -9t34 -2q24 0 33 2t14 9q3 4 5 9t3.5 14t2 24t0.5 41h82
z" />
    <glyph glyph-name="Ohungarumlaut" unicode="&#x150;" 
d="M23 0zM339 49q-17 -35 -49 -48.5t-93 -13.5q-62 0 -94.5 13.5t-48.5 48.5q-8 17 -14 37.5t-10 55.5t-5.5 91.5t-1.5 145.5t1.5 145t5.5 91t10 55t14 38q17 35 48.5 48.5t94.5 13.5q61 0 93 -13.5t49 -48.5q8 -18 14 -38t9.5 -55t5.5 -91t2 -145t-2 -145.5t-5.5 -91.5
t-9.5 -55.5t-14 -37.5zM238 143q3 10 5 22.5t3 37.5t1.5 67t0.5 112q0 71 -0.5 114t-2 67.5t-3 37t-4.5 21.5q-4 14 -13 20t-28 6q-20 0 -28.5 -5.5t-12.5 -19.5q-3 -10 -5 -22t-3.5 -37t-2 -68t-0.5 -114q0 -70 0.5 -112.5t2 -67t3.5 -37t5 -22.5q4 -14 12.5 -19.5
t28.5 -5.5q19 0 28 5.5t13 19.5zM219 789v4l86 169h110v-6l-104 -167h-92zM53 789v4l85 169h111v-6l-105 -167h-91z" />
    <glyph glyph-name="ohungarumlaut" unicode="&#x151;" 
d="M23 0zM339 49q-17 -35 -49 -48.5t-93 -13.5q-62 0 -94.5 13.5t-48.5 48.5q-8 17 -14 37.5t-10 55.5t-5.5 91.5t-1.5 145.5t1.5 145t5.5 91t10 55t14 38q17 35 48.5 48.5t94.5 13.5q61 0 93 -13.5t49 -48.5q8 -18 14 -38t9.5 -55t5.5 -91t2 -145t-2 -145.5t-5.5 -91.5
t-9.5 -55.5t-14 -37.5zM238 143q3 10 5 22.5t3 37.5t1.5 67t0.5 112q0 71 -0.5 114t-2 67.5t-3 37t-4.5 21.5q-4 14 -13 20t-28 6q-20 0 -28.5 -5.5t-12.5 -19.5q-3 -10 -5 -22t-3.5 -37t-2 -68t-0.5 -114q0 -70 0.5 -112.5t2 -67t3.5 -37t5 -22.5q4 -14 12.5 -19.5
t28.5 -5.5q19 0 28 5.5t13 19.5zM219 789v4l86 169h110v-6l-104 -167h-92zM53 789v4l85 169h111v-6l-105 -167h-91z" />
    <glyph glyph-name="OE" unicode="&#x152;" horiz-adv-x="567" 
d="M196 0q-62 0 -94 12t-48 47q-8 17 -14 36t-10 53t-5.5 88.5t-1.5 142.5q0 86 1.5 140t5.5 87.5t9.5 53.5t14.5 37q17 33 49 46.5t93 13.5h342v-125h-163v-186h160v-119h-160v-196h162v-131h-341zM253 632h-53q-20 0 -28.5 -5t-12.5 -18q-3 -9 -5.5 -21.5t-3.5 -36.5
t-1.5 -64.5t-0.5 -105.5q0 -66 0.5 -106.5t2 -64t3.5 -35.5t5 -21q4 -14 12.5 -19t28.5 -5h53v502z" />
    <glyph glyph-name="oe" unicode="&#x153;" horiz-adv-x="567" 
d="M23 0zM196 0q-62 0 -94 12t-48 47q-8 17 -14 36t-10 53t-5.5 88.5t-1.5 142.5q0 86 1.5 140t5.5 87.5t9.5 53.5t14.5 37q17 33 49 46.5t93 13.5h342v-125h-163v-186h160v-119h-160v-196h162v-131h-341zM253 632h-53q-20 0 -28.5 -5t-12.5 -18q-3 -9 -5.5 -21.5
t-3.5 -36.5t-1.5 -64.5t-0.5 -105.5q0 -66 0.5 -106.5t2 -64t3.5 -35.5t5 -21q4 -14 12.5 -19t28.5 -5h53v502z" />
    <glyph glyph-name="Racute" unicode="&#x154;" horiz-adv-x="401" 
d="M33 0zM257 0l-4 12t-3.5 15.5t-3 25.5t-4.5 41q-3 29 -5.5 67t-8.5 82q-6 41 -14 52.5t-25 11.5h-33v-307h-123v757h195q43 0 71.5 -11t44.5 -35.5t22.5 -63.5t6.5 -94q0 -63 -4.5 -98.5t-12.5 -54.5t-19 -26.5t-23 -13.5v-6q15 -11 23 -30t14 -49q8 -43 11.5 -85
t9.5 -98q2 -22 4 -36t3.5 -23.5t3 -16t3.5 -12.5v-4h-129zM198 418q12 0 21.5 2t16 13.5t10 36t3.5 69.5q0 35 -3.5 54.5t-9.5 28.5t-14.5 11t-17.5 2h-48v-217h42zM132 789v4l85 169h111v-6l-105 -167h-91z" />
    <glyph glyph-name="racute" unicode="&#x155;" horiz-adv-x="401" 
d="M33 0zM257 0l-4 12t-3.5 15.5t-3 25.5t-4.5 41q-3 29 -5.5 67t-8.5 82q-6 41 -14 52.5t-25 11.5h-33v-307h-123v757h195q43 0 71.5 -11t44.5 -35.5t22.5 -63.5t6.5 -94q0 -63 -4.5 -98.5t-12.5 -54.5t-19 -26.5t-23 -13.5v-6q15 -11 23 -30t14 -49q8 -43 11.5 -85
t9.5 -98q2 -22 4 -36t3.5 -23.5t3 -16t3.5 -12.5v-4h-129zM198 418q12 0 21.5 2t16 13.5t10 36t3.5 69.5q0 35 -3.5 54.5t-9.5 28.5t-14.5 11t-17.5 2h-48v-217h42zM132 789v4l85 169h111v-6l-105 -167h-91z" />
    <glyph glyph-name="Rcommaaccent" unicode="&#x156;" horiz-adv-x="401" 
d="M33 0zM257 0l-4 12t-3.5 15.5t-3 25.5t-4.5 41q-3 29 -5.5 67t-8.5 82q-6 41 -14 52.5t-25 11.5h-33v-307h-123v757h195q43 0 71.5 -11t44.5 -35.5t22.5 -63.5t6.5 -94q0 -63 -4.5 -98.5t-12.5 -54.5t-19 -26.5t-23 -13.5v-6q15 -11 23 -30t14 -49q8 -43 11.5 -85
t9.5 -98q2 -22 4 -36t3.5 -23.5t3 -16t3.5 -12.5v-4h-129zM198 418q12 0 21.5 2t16 13.5t10 36t3.5 69.5q0 35 -3.5 54.5t-9.5 28.5t-14.5 11t-17.5 2h-48v-217h42zM98 -238v5l57 192h107v-6l-75 -191h-89z" />
    <glyph glyph-name="rcommaaccent" unicode="&#x157;" horiz-adv-x="401" 
d="M33 0zM257 0l-4 12t-3.5 15.5t-3 25.5t-4.5 41q-3 29 -5.5 67t-8.5 82q-6 41 -14 52.5t-25 11.5h-33v-307h-123v757h195q43 0 71.5 -11t44.5 -35.5t22.5 -63.5t6.5 -94q0 -63 -4.5 -98.5t-12.5 -54.5t-19 -26.5t-23 -13.5v-6q15 -11 23 -30t14 -49q8 -43 11.5 -85
t9.5 -98q2 -22 4 -36t3.5 -23.5t3 -16t3.5 -12.5v-4h-129zM198 418q12 0 21.5 2t16 13.5t10 36t3.5 69.5q0 35 -3.5 54.5t-9.5 28.5t-14.5 11t-17.5 2h-48v-217h42zM98 -238v5l57 192h107v-6l-75 -191h-89z" />
    <glyph glyph-name="Rcaron" unicode="&#x158;" horiz-adv-x="401" 
d="M33 0zM257 0l-4 12t-3.5 15.5t-3 25.5t-4.5 41q-3 29 -5.5 67t-8.5 82q-6 41 -14 52.5t-25 11.5h-33v-307h-123v757h195q43 0 71.5 -11t44.5 -35.5t22.5 -63.5t6.5 -94q0 -63 -4.5 -98.5t-12.5 -54.5t-19 -26.5t-23 -13.5v-6q15 -11 23 -30t14 -49q8 -43 11.5 -85
t9.5 -98q2 -22 4 -36t3.5 -23.5t3 -16t3.5 -12.5v-4h-129zM198 418q12 0 21.5 2t16 13.5t10 36t3.5 69.5q0 35 -3.5 54.5t-9.5 28.5t-14.5 11t-17.5 2h-48v-217h42zM156 789l-109 168v5h99l47 -80h9l46 80h98v-5l-108 -168h-82z" />
    <glyph glyph-name="rcaron" unicode="&#x159;" horiz-adv-x="401" 
d="M33 0zM257 0l-4 12t-3.5 15.5t-3 25.5t-4.5 41q-3 29 -5.5 67t-8.5 82q-6 41 -14 52.5t-25 11.5h-33v-307h-123v757h195q43 0 71.5 -11t44.5 -35.5t22.5 -63.5t6.5 -94q0 -63 -4.5 -98.5t-12.5 -54.5t-19 -26.5t-23 -13.5v-6q15 -11 23 -30t14 -49q8 -43 11.5 -85
t9.5 -98q2 -22 4 -36t3.5 -23.5t3 -16t3.5 -12.5v-4h-129zM198 418q12 0 21.5 2t16 13.5t10 36t3.5 69.5q0 35 -3.5 54.5t-9.5 28.5t-14.5 11t-17.5 2h-48v-217h42zM156 789l-109 168v5h99l47 -80h9l46 80h98v-5l-108 -168h-82z" />
    <glyph glyph-name="Sacute" unicode="&#x15a;" horiz-adv-x="365" 
d="M19 0zM225 522q1 8 1.5 18.5t0.5 28.5q0 44 -8.5 62.5t-40.5 18.5q-14 0 -23 -2.5t-14.5 -11.5t-7.5 -25t-2 -43q0 -24 0.5 -38t2.5 -23t6 -14.5t12 -12.5q12 -10 29 -20.5t36 -20t36.5 -19t29.5 -17.5q18 -12 29.5 -24t18.5 -31.5t9.5 -51t2.5 -82.5q0 -70 -8.5 -114.5
t-28 -69.5t-51.5 -34t-80 -9q-42 0 -71 7.5t-48 28t-27.5 57t-8.5 95.5q0 24 2 44t5 34h103q-2 -8 -2 -19v-25q0 -31 2.5 -50t8 -29.5t15 -14t23.5 -3.5q15 0 25 3t16 13.5t8.5 31t2.5 56.5q0 21 -0.5 33.5t-3 21t-7 14.5t-11.5 14q-13 13 -32.5 25t-40.5 23t-41 23t-34 25
q-12 11 -20 23t-12.5 32t-6 52t-1.5 84q0 54 8 89.5t26.5 56.5t49 29.5t75.5 8.5q47 0 77.5 -8.5t48 -28t24 -51t6.5 -77.5q0 -32 -1.5 -50.5t-5.5 -32.5h-102zM122 789v4l85 169h111v-6l-105 -167h-91z" />
    <glyph glyph-name="sacute" unicode="&#x15b;" horiz-adv-x="365" 
d="M19 0zM225 522q1 8 1.5 18.5t0.5 28.5q0 44 -8.5 62.5t-40.5 18.5q-14 0 -23 -2.5t-14.5 -11.5t-7.5 -25t-2 -43q0 -24 0.5 -38t2.5 -23t6 -14.5t12 -12.5q12 -10 29 -20.5t36 -20t36.5 -19t29.5 -17.5q18 -12 29.5 -24t18.5 -31.5t9.5 -51t2.5 -82.5q0 -70 -8.5 -114.5
t-28 -69.5t-51.5 -34t-80 -9q-42 0 -71 7.5t-48 28t-27.5 57t-8.5 95.5q0 24 2 44t5 34h103q-2 -8 -2 -19v-25q0 -31 2.5 -50t8 -29.5t15 -14t23.5 -3.5q15 0 25 3t16 13.5t8.5 31t2.5 56.5q0 21 -0.5 33.5t-3 21t-7 14.5t-11.5 14q-13 13 -32.5 25t-40.5 23t-41 23t-34 25
q-12 11 -20 23t-12.5 32t-6 52t-1.5 84q0 54 8 89.5t26.5 56.5t49 29.5t75.5 8.5q47 0 77.5 -8.5t48 -28t24 -51t6.5 -77.5q0 -32 -1.5 -50.5t-5.5 -32.5h-102zM122 789v4l85 169h111v-6l-105 -167h-91z" />
    <glyph glyph-name="Scedilla" unicode="&#x15e;" horiz-adv-x="365" 
d="M19 0zM225 522q1 8 1.5 18.5t0.5 28.5q0 44 -8.5 62.5t-40.5 18.5q-14 0 -23 -2.5t-14.5 -11.5t-7.5 -25t-2 -43q0 -24 0.5 -38t2.5 -23t6 -14.5t12 -12.5q12 -10 29 -20.5t36 -20t36.5 -19t29.5 -17.5q18 -12 29.5 -24t18.5 -31.5t9.5 -51t2.5 -82.5q0 -70 -8.5 -114.5
t-28 -69.5t-51.5 -34t-80 -9q-42 0 -71 7.5t-48 28t-27.5 57t-8.5 95.5q0 24 2 44t5 34h103q-2 -8 -2 -19v-25q0 -31 2.5 -50t8 -29.5t15 -14t23.5 -3.5q15 0 25 3t16 13.5t8.5 31t2.5 56.5q0 21 -0.5 33.5t-3 21t-7 14.5t-11.5 14q-13 13 -32.5 25t-40.5 23t-41 23t-34 25
q-12 11 -20 23t-12.5 32t-6 52t-1.5 84q0 54 8 89.5t26.5 56.5t49 29.5t75.5 8.5q47 0 77.5 -8.5t48 -28t24 -51t6.5 -77.5q0 -32 -1.5 -50.5t-5.5 -32.5h-102zM67 -238v5l57 192h107v-6l-75 -191h-89z" />
    <glyph glyph-name="scedilla" unicode="&#x15f;" horiz-adv-x="365" 
d="M19 0zM225 522q1 8 1.5 18.5t0.5 28.5q0 44 -8.5 62.5t-40.5 18.5q-14 0 -23 -2.5t-14.5 -11.5t-7.5 -25t-2 -43q0 -24 0.5 -38t2.5 -23t6 -14.5t12 -12.5q12 -10 29 -20.5t36 -20t36.5 -19t29.5 -17.5q18 -12 29.5 -24t18.5 -31.5t9.5 -51t2.5 -82.5q0 -70 -8.5 -114.5
t-28 -69.5t-51.5 -34t-80 -9q-42 0 -71 7.5t-48 28t-27.5 57t-8.5 95.5q0 24 2 44t5 34h103q-2 -8 -2 -19v-25q0 -31 2.5 -50t8 -29.5t15 -14t23.5 -3.5q15 0 25 3t16 13.5t8.5 31t2.5 56.5q0 21 -0.5 33.5t-3 21t-7 14.5t-11.5 14q-13 13 -32.5 25t-40.5 23t-41 23t-34 25
q-12 11 -20 23t-12.5 32t-6 52t-1.5 84q0 54 8 89.5t26.5 56.5t49 29.5t75.5 8.5q47 0 77.5 -8.5t48 -28t24 -51t6.5 -77.5q0 -32 -1.5 -50.5t-5.5 -32.5h-102zM67 -238v5l57 192h107v-6l-75 -191h-89z" />
    <glyph glyph-name="Scaron" unicode="&#x160;" horiz-adv-x="365" 
d="M19 0zM225 522q1 8 1.5 18.5t0.5 28.5q0 44 -8.5 62.5t-40.5 18.5q-14 0 -23 -2.5t-14.5 -11.5t-7.5 -25t-2 -43q0 -24 0.5 -38t2.5 -23t6 -14.5t12 -12.5q12 -10 29 -20.5t36 -20t36.5 -19t29.5 -17.5q18 -12 29.5 -24t18.5 -31.5t9.5 -51t2.5 -82.5q0 -70 -8.5 -114.5
t-28 -69.5t-51.5 -34t-80 -9q-42 0 -71 7.5t-48 28t-27.5 57t-8.5 95.5q0 24 2 44t5 34h103q-2 -8 -2 -19v-25q0 -31 2.5 -50t8 -29.5t15 -14t23.5 -3.5q15 0 25 3t16 13.5t8.5 31t2.5 56.5q0 21 -0.5 33.5t-3 21t-7 14.5t-11.5 14q-13 13 -32.5 25t-40.5 23t-41 23t-34 25
q-12 11 -20 23t-12.5 32t-6 52t-1.5 84q0 54 8 89.5t26.5 56.5t49 29.5t75.5 8.5q47 0 77.5 -8.5t48 -28t24 -51t6.5 -77.5q0 -32 -1.5 -50.5t-5.5 -32.5h-102zM142 789l-109 168v5h99l47 -80h9l46 80h98v-5l-108 -168h-82z" />
    <glyph glyph-name="scaron" unicode="&#x161;" horiz-adv-x="365" 
d="M19 0zM225 522q1 8 1.5 18.5t0.5 28.5q0 44 -8.5 62.5t-40.5 18.5q-14 0 -23 -2.5t-14.5 -11.5t-7.5 -25t-2 -43q0 -24 0.5 -38t2.5 -23t6 -14.5t12 -12.5q12 -10 29 -20.5t36 -20t36.5 -19t29.5 -17.5q18 -12 29.5 -24t18.5 -31.5t9.5 -51t2.5 -82.5q0 -70 -8.5 -114.5
t-28 -69.5t-51.5 -34t-80 -9q-42 0 -71 7.5t-48 28t-27.5 57t-8.5 95.5q0 24 2 44t5 34h103q-2 -8 -2 -19v-25q0 -31 2.5 -50t8 -29.5t15 -14t23.5 -3.5q15 0 25 3t16 13.5t8.5 31t2.5 56.5q0 21 -0.5 33.5t-3 21t-7 14.5t-11.5 14q-13 13 -32.5 25t-40.5 23t-41 23t-34 25
q-12 11 -20 23t-12.5 32t-6 52t-1.5 84q0 54 8 89.5t26.5 56.5t49 29.5t75.5 8.5q47 0 77.5 -8.5t48 -28t24 -51t6.5 -77.5q0 -32 -1.5 -50.5t-5.5 -32.5h-102zM142 789l-109 168v5h99l47 -80h9l46 80h98v-5l-108 -168h-82z" />
    <glyph glyph-name="uni0162" unicode="&#x162;" horiz-adv-x="360" 
d="M12 0zM119 0v632h-107v125h336v-125h-106v-632h-123zM69 -238v5l57 192h107v-6l-75 -191h-89z" />
    <glyph glyph-name="uni0163" unicode="&#x163;" horiz-adv-x="360" 
d="M12 0zM119 0v632h-107v125h336v-125h-106v-632h-123zM69 -238v5l57 192h107v-6l-75 -191h-89z" />
    <glyph glyph-name="Tcaron" unicode="&#x164;" horiz-adv-x="360" 
d="M12 0zM119 0v632h-107v125h336v-125h-106v-632h-123zM140 789l-109 168v5h99l47 -80h9l46 80h98v-5l-108 -168h-82z" />
    <glyph glyph-name="tcaron" unicode="&#x165;" horiz-adv-x="360" 
d="M12 0zM119 0v632h-107v125h336v-125h-106v-632h-123zM140 789l-109 168v5h99l47 -80h9l46 80h98v-5l-108 -168h-82z" />
    <glyph glyph-name="Tbar" unicode="&#x166;" horiz-adv-x="360" 
d="M119 0v411h-77v98h77v123h-107v125h336v-125h-106v-123h75v-98h-75v-411h-123z" />
    <glyph glyph-name="tbar" unicode="&#x167;" horiz-adv-x="360" 
d="M12 0zM119 0v411h-77v98h77v123h-107v125h336v-125h-106v-123h75v-98h-75v-411h-123z" />
    <glyph glyph-name="Utilde" unicode="&#x168;" horiz-adv-x="401" 
d="M27 0zM252 757h122v-536q-1 -42 -2.5 -70.5t-4.5 -48.5t-8.5 -34t-12.5 -27q-17 -31 -49.5 -42.5t-95.5 -11.5t-96 11.5t-50 42.5q-8 13 -13 27t-8.5 34t-5 48.5t-1.5 70.5v536h126v-536q0 -22 0.5 -36t1 -23.5t2 -15.5t4.5 -11q5 -9 13.5 -13t28.5 -4t28 3t13 13
q3 5 4.5 11t2 16t1 24t0.5 36v536zM371 858q-18 -28 -41 -40t-54 -12q-22 0 -42 6t-39 17q-22 12 -38.5 17.5t-37.5 5.5q-26 0 -45.5 -12.5t-37.5 -38.5h-5v89q13 20 34.5 34.5t51.5 14.5q47 0 88 -21q27 -14 43 -19t33 -5q25 0 46 11.5t39 38.5h5v-86z" />
    <glyph glyph-name="utilde" unicode="&#x169;" horiz-adv-x="401" 
d="M27 0zM252 757h122v-536q-1 -42 -2.5 -70.5t-4.5 -48.5t-8.5 -34t-12.5 -27q-17 -31 -49.5 -42.5t-95.5 -11.5t-96 11.5t-50 42.5q-8 13 -13 27t-8.5 34t-5 48.5t-1.5 70.5v536h126v-536q0 -22 0.5 -36t1 -23.5t2 -15.5t4.5 -11q5 -9 13.5 -13t28.5 -4t28 3t13 13
q3 5 4.5 11t2 16t1 24t0.5 36v536zM371 858q-18 -28 -41 -40t-54 -12q-22 0 -42 6t-39 17q-22 12 -38.5 17.5t-37.5 5.5q-26 0 -45.5 -12.5t-37.5 -38.5h-5v89q13 20 34.5 34.5t51.5 14.5q47 0 88 -21q27 -14 43 -19t33 -5q25 0 46 11.5t39 38.5h5v-86z" />
    <glyph glyph-name="Umacron" unicode="&#x16a;" horiz-adv-x="401" 
d="M27 0zM252 757h122v-536q-1 -42 -2.5 -70.5t-4.5 -48.5t-8.5 -34t-12.5 -27q-17 -31 -49.5 -42.5t-95.5 -11.5t-96 11.5t-50 42.5q-8 13 -13 27t-8.5 34t-5 48.5t-1.5 70.5v536h126v-536q0 -22 0.5 -36t1 -23.5t2 -15.5t4.5 -11q5 -9 13.5 -13t28.5 -4t28 3t13 13
q3 5 4.5 11t2 16t1 24t0.5 36v536zM36 834v84h330v-84h-330z" />
    <glyph glyph-name="umacron" unicode="&#x16b;" horiz-adv-x="401" 
d="M27 0zM252 757h122v-536q-1 -42 -2.5 -70.5t-4.5 -48.5t-8.5 -34t-12.5 -27q-17 -31 -49.5 -42.5t-95.5 -11.5t-96 11.5t-50 42.5q-8 13 -13 27t-8.5 34t-5 48.5t-1.5 70.5v536h126v-536q0 -22 0.5 -36t1 -23.5t2 -15.5t4.5 -11q5 -9 13.5 -13t28.5 -4t28 3t13 13
q3 5 4.5 11t2 16t1 24t0.5 36v536zM36 834v84h330v-84h-330z" />
    <glyph glyph-name="Ubreve" unicode="&#x16c;" horiz-adv-x="401" 
d="M27 0zM252 757h122v-536q-1 -42 -2.5 -70.5t-4.5 -48.5t-8.5 -34t-12.5 -27q-17 -31 -49.5 -42.5t-95.5 -11.5t-96 11.5t-50 42.5q-8 13 -13 27t-8.5 34t-5 48.5t-1.5 70.5v536h126v-536q0 -22 0.5 -36t1 -23.5t2 -15.5t4.5 -11q5 -9 13.5 -13t28.5 -4t28 3t13 13
q3 5 4.5 11t2 16t1 24t0.5 36v536zM340 962q0 -38 -2 -61.5t-5 -39t-7.5 -25t-11.5 -18.5q-14 -17 -39 -23t-75 -6t-75 6t-39 23q-7 8 -11.5 17.5t-7.5 25t-5 39.5t-2 62h82q0 -26 0.5 -41t2 -24t3.5 -14t5 -9q5 -7 13 -9t34 -2q24 0 33 2t14 9q3 4 5 9t3.5 14t2 24t0.5 41
h82z" />
    <glyph glyph-name="ubreve" unicode="&#x16d;" horiz-adv-x="401" 
d="M27 0zM252 757h122v-536q-1 -42 -2.5 -70.5t-4.5 -48.5t-8.5 -34t-12.5 -27q-17 -31 -49.5 -42.5t-95.5 -11.5t-96 11.5t-50 42.5q-8 13 -13 27t-8.5 34t-5 48.5t-1.5 70.5v536h126v-536q0 -22 0.5 -36t1 -23.5t2 -15.5t4.5 -11q5 -9 13.5 -13t28.5 -4t28 3t13 13
q3 5 4.5 11t2 16t1 24t0.5 36v536zM340 962q0 -38 -2 -61.5t-5 -39t-7.5 -25t-11.5 -18.5q-14 -17 -39 -23t-75 -6t-75 6t-39 23q-7 8 -11.5 17.5t-7.5 25t-5 39.5t-2 62h82q0 -26 0.5 -41t2 -24t3.5 -14t5 -9q5 -7 13 -9t34 -2q24 0 33 2t14 9q3 4 5 9t3.5 14t2 24t0.5 41
h82z" />
    <glyph glyph-name="Uring" unicode="&#x16e;" horiz-adv-x="401" 
d="M27 0zM252 757h122v-536q-1 -42 -2.5 -70.5t-4.5 -48.5t-8.5 -34t-12.5 -27q-17 -31 -49.5 -42.5t-95.5 -11.5t-96 11.5t-50 42.5q-8 13 -13 27t-8.5 34t-5 48.5t-1.5 70.5v536h126v-536q0 -22 0.5 -36t1 -23.5t2 -15.5t4.5 -11q5 -9 13.5 -13t28.5 -4t28 3t13 13
q3 5 4.5 11t2 16t1 24t0.5 36v536zM275 790q-8 -9 -24.5 -12t-48.5 -3t-48.5 3t-24.5 12q-4 4 -7 8.5t-5 13t-3 21.5t-1 35q0 21 1 34.5t2.5 22t4.5 13.5t8 9q8 8 24.5 11.5t48.5 3.5t48.5 -3.5t24.5 -11.5q4 -4 7.5 -9t5.5 -13.5t3 -22t1 -34.5q0 -22 -1 -35t-3.5 -21.5
t-5.5 -13t-7 -8.5zM229 829q4 3 5.5 9t1.5 31q0 26 -1.5 32t-5.5 9q-2 2 -7.5 3.5t-19.5 1.5t-19.5 -1t-8.5 -4q-4 -3 -5 -9t-1 -32q0 -25 1 -31.5t5 -8.5q3 -2 8.5 -3t19.5 -1t19.5 1t7.5 3z" />
    <glyph glyph-name="uring" unicode="&#x16f;" horiz-adv-x="401" 
d="M27 0zM252 757h122v-536q-1 -42 -2.5 -70.5t-4.5 -48.5t-8.5 -34t-12.5 -27q-17 -31 -49.5 -42.5t-95.5 -11.5t-96 11.5t-50 42.5q-8 13 -13 27t-8.5 34t-5 48.5t-1.5 70.5v536h126v-536q0 -22 0.5 -36t1 -23.5t2 -15.5t4.5 -11q5 -9 13.5 -13t28.5 -4t28 3t13 13
q3 5 4.5 11t2 16t1 24t0.5 36v536zM275 790q-8 -9 -24.5 -12t-48.5 -3t-48.5 3t-24.5 12q-4 4 -7 8.5t-5 13t-3 21.5t-1 35q0 21 1 34.5t2.5 22t4.5 13.5t8 9q8 8 24.5 11.5t48.5 3.5t48.5 -3.5t24.5 -11.5q4 -4 7.5 -9t5.5 -13.5t3 -22t1 -34.5q0 -22 -1 -35t-3.5 -21.5
t-5.5 -13t-7 -8.5zM229 829q4 3 5.5 9t1.5 31q0 26 -1.5 32t-5.5 9q-2 2 -7.5 3.5t-19.5 1.5t-19.5 -1t-8.5 -4q-4 -3 -5 -9t-1 -32q0 -25 1 -31.5t5 -8.5q3 -2 8.5 -3t19.5 -1t19.5 1t7.5 3z" />
    <glyph glyph-name="Uhungarumlaut" unicode="&#x170;" horiz-adv-x="401" 
d="M27 0zM252 757h122v-536q-1 -42 -2.5 -70.5t-4.5 -48.5t-8.5 -34t-12.5 -27q-17 -31 -49.5 -42.5t-95.5 -11.5t-96 11.5t-50 42.5q-8 13 -13 27t-8.5 34t-5 48.5t-1.5 70.5v536h126v-536q0 -22 0.5 -36t1 -23.5t2 -15.5t4.5 -11q5 -9 13.5 -13t28.5 -4t28 3t13 13
q3 5 4.5 11t2 16t1 24t0.5 36v536zM223 789v4l86 169h110v-6l-104 -167h-92zM57 789v4l85 169h111v-6l-105 -167h-91z" />
    <glyph glyph-name="uhungarumlaut" unicode="&#x171;" horiz-adv-x="401" 
d="M27 0zM252 757h122v-536q-1 -42 -2.5 -70.5t-4.5 -48.5t-8.5 -34t-12.5 -27q-17 -31 -49.5 -42.5t-95.5 -11.5t-96 11.5t-50 42.5q-8 13 -13 27t-8.5 34t-5 48.5t-1.5 70.5v536h126v-536q0 -22 0.5 -36t1 -23.5t2 -15.5t4.5 -11q5 -9 13.5 -13t28.5 -4t28 3t13 13
q3 5 4.5 11t2 16t1 24t0.5 36v536zM223 789v4l86 169h110v-6l-104 -167h-92zM57 789v4l85 169h111v-6l-105 -167h-91z" />
    <glyph glyph-name="Uogonek" unicode="&#x172;" horiz-adv-x="401" 
d="M299 -206q-7 -10 -32.5 -21t-70.5 -11q-58 0 -87 25.5t-29 81.5q0 37 22 68.5t83 49.5q-55 2 -84.5 13.5t-45.5 40.5q-8 13 -13 27t-8.5 34t-5 48.5t-1.5 70.5v536h126v-536q0 -22 0.5 -36t1 -23.5t2 -15.5t4.5 -11q5 -9 13.5 -13t28.5 -4t28 3t13 13q3 5 4.5 11t2 16
t1 24t0.5 36v536h122v-536q-1 -42 -2.5 -70.5t-4.5 -48.5t-8.5 -34t-12.5 -27q-17 -31 -54 -44q-41 -14 -67.5 -32t-26.5 -51q0 -56 53 -56q15 0 25.5 3t18.5 7h4v-74z" />
    <glyph glyph-name="uogonek" unicode="&#x173;" horiz-adv-x="401" 
d="M27 0zM299 -206q-7 -10 -32.5 -21t-70.5 -11q-58 0 -87 25.5t-29 81.5q0 37 22 68.5t83 49.5q-55 2 -84.5 13.5t-45.5 40.5q-8 13 -13 27t-8.5 34t-5 48.5t-1.5 70.5v536h126v-536q0 -22 0.5 -36t1 -23.5t2 -15.5t4.5 -11q5 -9 13.5 -13t28.5 -4t28 3t13 13q3 5 4.5 11
t2 16t1 24t0.5 36v536h122v-536q-1 -42 -2.5 -70.5t-4.5 -48.5t-8.5 -34t-12.5 -27q-17 -31 -54 -44q-41 -14 -67.5 -32t-26.5 -51q0 -56 53 -56q15 0 25.5 3t18.5 7h4v-74z" />
    <glyph glyph-name="Wcircumflex" unicode="&#x174;" horiz-adv-x="622" 
d="M16 0zM369 0q-12 111 -20 190t-14 133t-9.5 87.5t-5 53.5t-2.5 30.5t-1 19.5h-9q0 -9 -0.5 -19.5t-2.5 -30.5t-5.5 -53.5t-9.5 -87.5t-14.5 -133t-20.5 -190h-176l-63 757h124q8 -127 14 -216.5t10 -150.5t6.5 -97.5t4 -58t2 -32t0.5 -19.5h9q0 9 1 19.5t3.5 32t7 58
t12 97.5t18 150.5t25.5 216.5h123q15 -127 26 -216.5t18.5 -150.5t11.5 -98t6.5 -58t3 -32t0.5 -19h10q0 8 0.5 19t2 32t4 58t6.5 98t10 150.5t14 216.5h117l-62 -757h-175zM365 789l-46 80h-9l-47 -80h-98v4l108 169h82l109 -169v-4h-99z" />
    <glyph glyph-name="wcircumflex" unicode="&#x175;" horiz-adv-x="622" 
d="M16 0zM369 0q-12 111 -20 190t-14 133t-9.5 87.5t-5 53.5t-2.5 30.5t-1 19.5h-9q0 -9 -0.5 -19.5t-2.5 -30.5t-5.5 -53.5t-9.5 -87.5t-14.5 -133t-20.5 -190h-176l-63 757h124q8 -127 14 -216.5t10 -150.5t6.5 -97.5t4 -58t2 -32t0.5 -19.5h9q0 9 1 19.5t3.5 32t7 58
t12 97.5t18 150.5t25.5 216.5h123q15 -127 26 -216.5t18.5 -150.5t11.5 -98t6.5 -58t3 -32t0.5 -19h10q0 8 0.5 19t2 32t4 58t6.5 98t10 150.5t14 216.5h117l-62 -757h-175zM365 789l-46 80h-9l-47 -80h-98v4l108 169h82l109 -169v-4h-99z" />
    <glyph glyph-name="Ycircumflex" unicode="&#x176;" horiz-adv-x="386" 
d="M6 0zM129 0v303l-123 449v5h126q18 -80 28.5 -128t16.5 -76t8.5 -41.5t3.5 -22.5h9q1 9 3.5 22.5t8.5 41.5t17.5 76t29.5 128h122v-5l-118 -448v-304h-132zM244 789l-46 80h-9l-47 -80h-98v4l108 169h82l109 -169v-4h-99z" />
    <glyph glyph-name="ycircumflex" unicode="&#x177;" horiz-adv-x="386" 
d="M6 0zM129 0v303l-123 449v5h126q18 -80 28.5 -128t16.5 -76t8.5 -41.5t3.5 -22.5h9q1 9 3.5 22.5t8.5 41.5t17.5 76t29.5 128h122v-5l-118 -448v-304h-132zM244 789l-46 80h-9l-47 -80h-98v4l108 169h82l109 -169v-4h-99z" />
    <glyph glyph-name="Ydieresis" unicode="&#x178;" horiz-adv-x="386" 
d="M6 0zM129 0v303l-123 449v5h126q18 -80 28.5 -128t16.5 -76t8.5 -41.5t3.5 -22.5h9q1 9 3.5 22.5t8.5 41.5t17.5 76t29.5 128h122v-5l-118 -448v-304h-132zM229 812v118h106v-118h-106zM52 812v118h106v-118h-106z" />
    <glyph glyph-name="Zacute" unicode="&#x179;" horiz-adv-x="394" 
d="M23 0zM23 0v141l193 482l-3 8h-183v126h346v-68l-221 -551l4 -7h211v-131h-347zM146 789v4l85 169h111v-6l-105 -167h-91z" />
    <glyph glyph-name="zacute" unicode="&#x17a;" horiz-adv-x="394" 
d="M23 0zM23 0v141l193 482l-3 8h-183v126h346v-68l-221 -551l4 -7h211v-131h-347zM146 789v4l85 169h111v-6l-105 -167h-91z" />
    <glyph glyph-name="Zdotaccent" unicode="&#x17b;" horiz-adv-x="394" 
d="M23 0zM23 0v141l193 482l-3 8h-183v126h346v-68l-221 -551l4 -7h211v-131h-347zM152 812v118h106v-118h-106z" />
    <glyph glyph-name="zdotaccent" unicode="&#x17c;" horiz-adv-x="394" 
d="M23 0zM23 0v141l193 482l-3 8h-183v126h346v-68l-221 -551l4 -7h211v-131h-347zM152 812v118h106v-118h-106z" />
    <glyph glyph-name="Zcaron" unicode="&#x17d;" horiz-adv-x="394" 
d="M23 0zM23 0v141l193 482l-3 8h-183v126h346v-68l-221 -551l4 -7h211v-131h-347zM156 789l-109 168v5h99l47 -80h9l46 80h98v-5l-108 -168h-82z" />
    <glyph glyph-name="zcaron" unicode="&#x17e;" horiz-adv-x="394" 
d="M23 0zM23 0v141l193 482l-3 8h-183v126h346v-68l-221 -551l4 -7h211v-131h-347zM156 789l-109 168v5h99l47 -80h9l46 80h98v-5l-108 -168h-82z" />
    <glyph glyph-name="florin" unicode="&#x192;" 
d="M23 -130h6q8 -2 18.5 -4t24.5 -2q18 0 29 3t17.5 11.5t8.5 23.5t2 38v522h-52v98h52v80q0 39 5.5 69t22.5 50.5t48.5 31t84.5 10.5q6 0 16 -1t20.5 -2.5t19 -4t12.5 -4.5v-97h-5q-9 3 -20 5t-25 2q-35 0 -45.5 -15t-10.5 -61v-63h102v-98h-102v-505q0 -50 -4 -86.5
t-20 -60.5t-48 -36t-89 -12q-6 0 -16.5 1t-20.5 2.5t-19 3.5t-12 5v96z" />
    <glyph glyph-name="Scommaaccent" unicode="&#x218;" horiz-adv-x="365" 
d="M19 0zM225 522q1 8 1.5 18.5t0.5 28.5q0 44 -8.5 62.5t-40.5 18.5q-14 0 -23 -2.5t-14.5 -11.5t-7.5 -25t-2 -43q0 -24 0.5 -38t2.5 -23t6 -14.5t12 -12.5q12 -10 29 -20.5t36 -20t36.5 -19t29.5 -17.5q18 -12 29.5 -24t18.5 -31.5t9.5 -51t2.5 -82.5q0 -70 -8.5 -114.5
t-28 -69.5t-51.5 -34t-80 -9q-42 0 -71 7.5t-48 28t-27.5 57t-8.5 95.5q0 24 2 44t5 34h103q-2 -8 -2 -19v-25q0 -31 2.5 -50t8 -29.5t15 -14t23.5 -3.5q15 0 25 3t16 13.5t8.5 31t2.5 56.5q0 21 -0.5 33.5t-3 21t-7 14.5t-11.5 14q-13 13 -32.5 25t-40.5 23t-41 23t-34 25
q-12 11 -20 23t-12.5 32t-6 52t-1.5 84q0 54 8 89.5t26.5 56.5t49 29.5t75.5 8.5q47 0 77.5 -8.5t48 -28t24 -51t6.5 -77.5q0 -32 -1.5 -50.5t-5.5 -32.5h-102zM67 -238v5l57 192h107v-6l-75 -191h-89z" />
    <glyph glyph-name="scommaaccent" unicode="&#x219;" horiz-adv-x="365" 
d="M19 0zM225 522q1 8 1.5 18.5t0.5 28.5q0 44 -8.5 62.5t-40.5 18.5q-14 0 -23 -2.5t-14.5 -11.5t-7.5 -25t-2 -43q0 -24 0.5 -38t2.5 -23t6 -14.5t12 -12.5q12 -10 29 -20.5t36 -20t36.5 -19t29.5 -17.5q18 -12 29.5 -24t18.5 -31.5t9.5 -51t2.5 -82.5q0 -70 -8.5 -114.5
t-28 -69.5t-51.5 -34t-80 -9q-42 0 -71 7.5t-48 28t-27.5 57t-8.5 95.5q0 24 2 44t5 34h103q-2 -8 -2 -19v-25q0 -31 2.5 -50t8 -29.5t15 -14t23.5 -3.5q15 0 25 3t16 13.5t8.5 31t2.5 56.5q0 21 -0.5 33.5t-3 21t-7 14.5t-11.5 14q-13 13 -32.5 25t-40.5 23t-41 23t-34 25
q-12 11 -20 23t-12.5 32t-6 52t-1.5 84q0 54 8 89.5t26.5 56.5t49 29.5t75.5 8.5q47 0 77.5 -8.5t48 -28t24 -51t6.5 -77.5q0 -32 -1.5 -50.5t-5.5 -32.5h-102zM67 -238v5l57 192h107v-6l-75 -191h-89z" />
    <glyph glyph-name="uni021A" unicode="&#x21a;" horiz-adv-x="360" 
d="M12 0zM119 0v632h-107v125h336v-125h-106v-632h-123zM69 -238v5l57 192h107v-6l-75 -191h-89z" />
    <glyph glyph-name="uni021B" unicode="&#x21b;" horiz-adv-x="360" 
d="M12 0zM119 0v632h-107v125h336v-125h-106v-632h-123zM69 -238v5l57 192h107v-6l-75 -191h-89z" />
    <glyph glyph-name="circumflex" unicode="&#x2c6;" horiz-adv-x="366" 
d="M233 592l-46 80h-9l-47 -80h-98v4l108 169h82l109 -169v-4h-99z" />
    <glyph glyph-name="caron" unicode="&#x2c7;" horiz-adv-x="366" 
d="M142 592l-109 168v5h99l47 -80h9l46 80h98v-5l-108 -168h-82z" />
    <glyph glyph-name="breve" unicode="&#x2d8;" horiz-adv-x="346" 
d="M313 765q0 -38 -2 -61.5t-5 -39t-7.5 -25t-11.5 -18.5q-14 -17 -39 -23t-75 -6t-75 6t-39 23q-7 8 -11.5 17.5t-7.5 25t-5 39.5t-2 62h82q0 -26 0.5 -41t2 -24t3.5 -14t5 -9q5 -7 13 -9t34 -2q24 0 33 2t14 9q3 4 5 9t3.5 14t2 24t0.5 41h82z" />
    <glyph glyph-name="dotaccent" unicode="&#x2d9;" horiz-adv-x="173" 
d="M33 615v118h106v-118h-106z" />
    <glyph glyph-name="ring" unicode="&#x2da;" horiz-adv-x="245" 
d="M195 593q-8 -9 -24.5 -12t-48.5 -3t-48.5 3t-24.5 12q-4 4 -7 8.5t-5 13t-3 21.5t-1 35q0 21 1 34.5t2.5 22t4.5 13.5t8 9q8 8 24.5 11.5t48.5 3.5t48.5 -3.5t24.5 -11.5q4 -4 7.5 -9t5.5 -13.5t3 -22t1 -34.5q0 -22 -1 -35t-3.5 -21.5t-5.5 -13t-7 -8.5zM149 632
q4 3 5.5 9t1.5 31q0 26 -1.5 32t-5.5 9q-2 2 -7.5 3.5t-19.5 1.5t-19.5 -1t-8.5 -4q-4 -3 -5 -9t-1 -32q0 -25 1 -31.5t5 -8.5q3 -2 8.5 -3t19.5 -1t19.5 1t7.5 3z" />
    <glyph glyph-name="ogonek" unicode="&#x2db;" horiz-adv-x="287" 
d="M252 -206q-7 -10 -32.5 -21t-70.5 -11q-58 0 -87 25.5t-29 81.5q0 22 8 43t27.5 38.5t52 30.5t82.5 19h50q-22 -8 -40.5 -16t-32 -18t-21.5 -22.5t-8 -29.5q0 -56 53 -56q15 0 25.5 3t18.5 7h4v-74z" />
    <glyph glyph-name="tilde" unicode="&#x2dc;" horiz-adv-x="407" 
d="M373 661q-18 -28 -41 -40t-54 -12q-22 0 -42 6t-39 17q-22 12 -38.5 17.5t-37.5 5.5q-26 0 -45.5 -12.5t-37.5 -38.5h-5v89q13 20 34.5 34.5t51.5 14.5q47 0 88 -21q27 -14 43 -19t33 -5q25 0 46 11.5t39 38.5h5v-86z" />
    <glyph glyph-name="hungarumlaut" unicode="&#x2dd;" horiz-adv-x="429" 
d="M194 592v4l86 169h110v-6l-104 -167h-92zM28 592v4l85 169h111v-6l-105 -167h-91z" />
    <glyph glyph-name="Delta" unicode="&#x394;" 
d="M13 0l135 757h103l128 -757h-366zM188 502h-9l-58 -371h114z" />
    <glyph glyph-name="Omega" unicode="&#x3a9;" 
d="M216 0v117q10 15 18.5 43.5t14.5 75t9.5 112.5t3.5 156q0 53 -2 79.5t-9 41.5q-6 14 -18 18.5t-37 4.5q-26 0 -38 -5.5t-17 -19.5q-6 -15 -8 -40.5t-2 -78.5q0 -90 3 -156t9 -112.5t14 -75t19 -43.5v-117h-150v131h57l2 6q-17 23 -29.5 48t-20.5 67.5t-11.5 110
t-3.5 174.5q0 47 1 81t5 58t10.5 39.5t17.5 25.5q18 17 50.5 23t91.5 6q57 0 90.5 -6t52.5 -23q11 -10 17.5 -25.5t10.5 -39.5t5 -58t1 -81q0 -107 -3.5 -174.5t-11.5 -110t-20.5 -67.5t-29.5 -48l2 -6h56v-131h-150z" />
    <glyph glyph-name="mu" unicode="&#x3bc;" 
d="M31 -238v798h123v-409q0 -33 8.5 -48t32.5 -15q15 0 26 7.5t18 18.5v446h123v-560h-112l-6 32q-14 -20 -38 -28.5t-52 -8.5v-233h-123z" />
    <glyph glyph-name="pi" unicode="&#x3c0;" horiz-adv-x="481" 
d="M458 19q-8 -10 -33 -21t-73 -11q-57 0 -85.5 27t-28.5 96v352h-81v-462h-123v560h327v-427q0 -27 9.5 -39t37.5 -12q16 0 26.5 3.5t17.5 8.5h6v-75z" />
    <glyph glyph-name="Wgrave" unicode="&#x1e80;" horiz-adv-x="622" 
d="M16 0zM369 0q-12 111 -20 190t-14 133t-9.5 87.5t-5 53.5t-2.5 30.5t-1 19.5h-9q0 -9 -0.5 -19.5t-2.5 -30.5t-5.5 -53.5t-9.5 -87.5t-14.5 -133t-20.5 -190h-176l-63 757h124q8 -127 14 -216.5t10 -150.5t6.5 -97.5t4 -58t2 -32t0.5 -19.5h9q0 9 1 19.5t3.5 32t7 58
t12 97.5t18 150.5t25.5 216.5h123q15 -127 26 -216.5t18.5 -150.5t11.5 -98t6.5 -58t3 -32t0.5 -19h10q0 8 0.5 19t2 32t4 58t6.5 98t10 150.5t14 216.5h117l-62 -757h-175zM282 789l-105 167v6h111l86 -169v-4h-92z" />
    <glyph glyph-name="wgrave" unicode="&#x1e81;" horiz-adv-x="622" 
d="M16 0zM369 0q-12 111 -20 190t-14 133t-9.5 87.5t-5 53.5t-2.5 30.5t-1 19.5h-9q0 -9 -0.5 -19.5t-2.5 -30.5t-5.5 -53.5t-9.5 -87.5t-14.5 -133t-20.5 -190h-176l-63 757h124q8 -127 14 -216.5t10 -150.5t6.5 -97.5t4 -58t2 -32t0.5 -19.5h9q0 9 1 19.5t3.5 32t7 58
t12 97.5t18 150.5t25.5 216.5h123q15 -127 26 -216.5t18.5 -150.5t11.5 -98t6.5 -58t3 -32t0.5 -19h10q0 8 0.5 19t2 32t4 58t6.5 98t10 150.5t14 216.5h117l-62 -757h-175zM282 789l-105 167v6h111l86 -169v-4h-92z" />
    <glyph glyph-name="Wacute" unicode="&#x1e82;" horiz-adv-x="622" 
d="M16 0zM369 0q-12 111 -20 190t-14 133t-9.5 87.5t-5 53.5t-2.5 30.5t-1 19.5h-9q0 -9 -0.5 -19.5t-2.5 -30.5t-5.5 -53.5t-9.5 -87.5t-14.5 -133t-20.5 -190h-176l-63 757h124q8 -127 14 -216.5t10 -150.5t6.5 -97.5t4 -58t2 -32t0.5 -19.5h9q0 9 1 19.5t3.5 32t7 58
t12 97.5t18 150.5t25.5 216.5h123q15 -127 26 -216.5t18.5 -150.5t11.5 -98t6.5 -58t3 -32t0.5 -19h10q0 8 0.5 19t2 32t4 58t6.5 98t10 150.5t14 216.5h117l-62 -757h-175zM253 789v4l85 169h111v-6l-105 -167h-91z" />
    <glyph glyph-name="wacute" unicode="&#x1e83;" horiz-adv-x="622" 
d="M16 0zM369 0q-12 111 -20 190t-14 133t-9.5 87.5t-5 53.5t-2.5 30.5t-1 19.5h-9q0 -9 -0.5 -19.5t-2.5 -30.5t-5.5 -53.5t-9.5 -87.5t-14.5 -133t-20.5 -190h-176l-63 757h124q8 -127 14 -216.5t10 -150.5t6.5 -97.5t4 -58t2 -32t0.5 -19.5h9q0 9 1 19.5t3.5 32t7 58
t12 97.5t18 150.5t25.5 216.5h123q15 -127 26 -216.5t18.5 -150.5t11.5 -98t6.5 -58t3 -32t0.5 -19h10q0 8 0.5 19t2 32t4 58t6.5 98t10 150.5t14 216.5h117l-62 -757h-175zM253 789v4l85 169h111v-6l-105 -167h-91z" />
    <glyph glyph-name="Wdieresis" unicode="&#x1e84;" horiz-adv-x="622" 
d="M16 0zM369 0q-12 111 -20 190t-14 133t-9.5 87.5t-5 53.5t-2.5 30.5t-1 19.5h-9q0 -9 -0.5 -19.5t-2.5 -30.5t-5.5 -53.5t-9.5 -87.5t-14.5 -133t-20.5 -190h-176l-63 757h124q8 -127 14 -216.5t10 -150.5t6.5 -97.5t4 -58t2 -32t0.5 -19.5h9q0 9 1 19.5t3.5 32t7 58
t12 97.5t18 150.5t25.5 216.5h123q15 -127 26 -216.5t18.5 -150.5t11.5 -98t6.5 -58t3 -32t0.5 -19h10q0 8 0.5 19t2 32t4 58t6.5 98t10 150.5t14 216.5h117l-62 -757h-175zM346 812v118h106v-118h-106zM169 812v118h106v-118h-106z" />
    <glyph glyph-name="wdieresis" unicode="&#x1e85;" horiz-adv-x="622" 
d="M16 0zM369 0q-12 111 -20 190t-14 133t-9.5 87.5t-5 53.5t-2.5 30.5t-1 19.5h-9q0 -9 -0.5 -19.5t-2.5 -30.5t-5.5 -53.5t-9.5 -87.5t-14.5 -133t-20.5 -190h-176l-63 757h124q8 -127 14 -216.5t10 -150.5t6.5 -97.5t4 -58t2 -32t0.5 -19.5h9q0 9 1 19.5t3.5 32t7 58
t12 97.5t18 150.5t25.5 216.5h123q15 -127 26 -216.5t18.5 -150.5t11.5 -98t6.5 -58t3 -32t0.5 -19h10q0 8 0.5 19t2 32t4 58t6.5 98t10 150.5t14 216.5h117l-62 -757h-175zM346 812v118h106v-118h-106zM169 812v118h106v-118h-106z" />
    <glyph glyph-name="Ygrave" unicode="&#x1ef2;" horiz-adv-x="386" 
d="M6 0zM129 0v303l-123 449v5h126q18 -80 28.5 -128t16.5 -76t8.5 -41.5t3.5 -22.5h9q1 9 3.5 22.5t8.5 41.5t17.5 76t29.5 128h122v-5l-118 -448v-304h-132zM163 789l-105 167v6h111l86 -169v-4h-92z" />
    <glyph glyph-name="ygrave" unicode="&#x1ef3;" horiz-adv-x="386" 
d="M6 0zM129 0v303l-123 449v5h126q18 -80 28.5 -128t16.5 -76t8.5 -41.5t3.5 -22.5h9q1 9 3.5 22.5t8.5 41.5t17.5 76t29.5 128h122v-5l-118 -448v-304h-132zM163 789l-105 167v6h111l86 -169v-4h-92z" />
    <glyph glyph-name="endash" unicode="&#x2013;" horiz-adv-x="476" 
d="M21 332v98h433v-98h-433z" />
    <glyph glyph-name="emdash" unicode="&#x2014;" horiz-adv-x="660" 
d="M21 332v98h617v-98h-617z" />
    <glyph glyph-name="quoteleft" unicode="&#x2018;" horiz-adv-x="190" 
d="M33 507v135l60 146h59v-6l-39 -139l3 -7h41v-129h-124z" />
    <glyph glyph-name="quoteright" unicode="&#x2019;" horiz-adv-x="190" 
d="M38 507v5l39 139l-3 8h-41v129h124v-135l-60 -146h-59z" />
    <glyph glyph-name="quotesinglbase" unicode="&#x201a;" horiz-adv-x="190" 
d="M38 -142v5l39 139l-3 8h-41v128h124v-134l-60 -146h-59z" />
    <glyph glyph-name="quotedblleft" unicode="&#x201c;" horiz-adv-x="380" 
d="M33 507zM33 507v135l60 146h59v-6l-39 -139l3 -7h41v-129h-124zM223 507v135l60 146h59v-6l-39 -139l3 -7h41v-129h-124z" />
    <glyph glyph-name="quotedblright" unicode="&#x201d;" horiz-adv-x="380" 
d="M33 507zM38 507v5l39 139l-3 8h-41v129h124v-135l-60 -146h-59zM228 507v5l39 139l-3 8h-41v129h124v-135l-60 -146h-59z" />
    <glyph glyph-name="quotedblbase" unicode="&#x201e;" horiz-adv-x="380" 
d="M33 0zM38 -142v5l39 139l-3 8h-41v128h124v-134l-60 -146h-59zM228 -142v5l39 139l-3 8h-41v128h124v-134l-60 -146h-59z" />
    <glyph glyph-name="dagger" unicode="&#x2020;" horiz-adv-x="414" 
d="M201 0l-29 137v384h-139v68h139v168h68v-168h140v-68h-140v-384l-29 -137h-10z" />
    <glyph glyph-name="daggerdbl" unicode="&#x2021;" horiz-adv-x="414" 
d="M172 0v167h-139v68h139v55l24 88l-24 89v54h-139v68h139v168h68v-168h140v-68h-140v-54l-24 -89l24 -88v-55h140v-68h-140v-167h-68z" />
    <glyph glyph-name="bullet" unicode="&#x2022;" horiz-adv-x="293" 
d="M240 269q-11 -11 -32 -15.5t-62 -4.5q-39 0 -60.5 4.5t-32.5 15.5q-5 5 -8.5 11.5t-6 17.5t-4 29t-1.5 47q0 28 1 46.5t3.5 29.5t6.5 17.5t9 12.5q11 11 32.5 15t60.5 4q41 0 62 -4t32 -15q5 -6 9 -12.5t6.5 -17.5t3.5 -29.5t1 -46.5q0 -29 -1 -46.5t-3.5 -29t-6.5 -17.5
t-9 -12z" />
    <glyph glyph-name="ellipsis" unicode="&#x2026;" horiz-adv-x="725" 
d="M43 0zM43 0v138h123v-138h-123zM301 0v138h123v-138h-123zM559 0v138h123v-138h-123z" />
    <glyph glyph-name="perthousand" unicode="&#x2030;" horiz-adv-x="736" 
d="M18 0zM197 364q-11 -15 -28 -19t-52 -4q-36 0 -52.5 4t-27.5 19q-6 8 -10 21.5t-6 36t-2.5 55.5t-0.5 81q0 46 0.5 79t2.5 55t6 36t10 23q10 14 27 19t53 5q35 0 52 -5t28 -19q6 -9 10 -23t6.5 -36t3 -55t0.5 -79q0 -48 -0.5 -81t-3 -55.5t-6.5 -36t-10 -21.5zM133 431
q1 5 2 12.5t2 21.5t1 36.5v57.5v59t-0.5 37.5t-1.5 21.5t-2 12q-2 8 -17 8q-14 0 -17 -8q-2 -5 -3 -12.5t-1.5 -22t-0.5 -37v-58.5v-57.5t1 -36.5t2 -21.5t3 -12.5t5.5 -6.5t10.5 -1.5q14 0 16 8zM33 0v4l373 753h77v-5l-373 -752h-77zM482 6q-11 -15 -28 -19t-52 -4
q-36 0 -52.5 4t-27.5 19q-6 8 -10 21.5t-6 36t-2.5 55.5t-0.5 81q0 46 0.5 79t2.5 55t6 36t10 23q10 14 27 19t53 5q35 0 52 -5t28 -19q6 -9 10 -23t6.5 -36t3 -55t0.5 -79q0 -48 -0.5 -81t-3 -55.5t-6.5 -36t-10 -21.5zM418 73q1 5 2 12.5t2 21.5t1 36.5v57.5v59t-0.5 37.5
t-1.5 21.5t-2 12q-2 8 -17 8q-14 0 -17 -8q-2 -5 -3 -12.5t-1.5 -22t-0.5 -37v-58.5v-57.5t1 -36.5t2 -21.5t3 -12.5t5.5 -6.5t10.5 -1.5q14 0 16 8zM695 6q-11 -15 -28 -19t-52 -4q-36 0 -52.5 4t-27.5 19q-6 8 -10 21.5t-6 36t-2.5 55.5t-0.5 81q0 46 0.5 79t2.5 55t6 36
t10 23q10 14 27 19t53 5q35 0 52 -5t28 -19q6 -9 10 -23t6.5 -36t3 -55t0.5 -79q0 -48 -0.5 -81t-3 -55.5t-6.5 -36t-10 -21.5zM631 73q1 5 2 12.5t2 21.5t1 36.5v57.5v59t-0.5 37.5t-1.5 21.5t-2 12q-2 8 -17 8q-14 0 -17 -8q-2 -5 -3 -12.5t-1.5 -22t-0.5 -37v-58.5v-57.5
t1 -36.5t2 -21.5t3 -12.5t5.5 -6.5t10.5 -1.5q14 0 16 8z" />
    <glyph glyph-name="minute" unicode="&#x2032;" horiz-adv-x="230" 
d="M13 484l87 304h116l-119 -304h-84z" />
    <glyph glyph-name="second" unicode="&#x2033;" horiz-adv-x="420" 
d="M203 484l87 304h116l-119 -304h-84zM13 484l87 304h116l-119 -304h-84z" />
    <glyph glyph-name="guilsinglleft" unicode="&#x2039;" horiz-adv-x="219" 
d="M192 195l-171 145v80l171 147h5v-104l-97 -79v-9l97 -77v-103h-5z" />
    <glyph glyph-name="guilsinglright" unicode="&#x203a;" horiz-adv-x="219" 
d="M25 195h-4v103l97 78v9l-97 79v103h4l172 -146v-81z" />
    <glyph glyph-name="fraction" unicode="&#x2044;" horiz-adv-x="155" 
d="M-148 0v4l373 753h77v-5l-373 -752h-77z" />
    <glyph glyph-name="zerosuperior" unicode="&#x2070;" horiz-adv-x="246" 
d="M23 341zM202 364q-11 -15 -28 -19t-52 -4q-36 0 -52.5 4t-27.5 19q-6 8 -10 21.5t-6 36t-2.5 55.5t-0.5 81q0 46 0.5 79t2.5 55t6 36t10 23q10 14 27 19t53 5q35 0 52 -5t28 -19q6 -9 10 -23t6.5 -36t3 -55t0.5 -79q0 -48 -0.5 -81t-3 -55.5t-6.5 -36t-10 -21.5zM138 431
q1 5 2 12.5t2 21.5t1 36.5v57.5v59t-0.5 37.5t-1.5 21.5t-2 12q-2 8 -17 8q-14 0 -17 -8q-2 -5 -3 -12.5t-1.5 -22t-0.5 -37v-58.5v-57.5t1 -36.5t2 -21.5t3 -12.5t5.5 -6.5t10.5 -1.5q14 0 16 8z" />
    <glyph glyph-name="foursuperior" unicode="&#x2074;" horiz-adv-x="246" 
d="M18 348zM125 348v75h-107v75l106 269h75v-273h27v-71h-27v-75h-74zM127 587h-4l-34 -93h38v93z" />
    <glyph glyph-name="fivesuperior" unicode="&#x2075;" horiz-adv-x="246" 
d="M24 341zM32 574l11 193h173v-79h-106l-3 -53l3 -1q6 2 15 4.5t20 2.5q19 0 33 -5t24 -18.5t15 -37.5t5 -62q0 -58 -4.5 -93t-16 -53.5t-31.5 -24.5t-51 -6q-35 0 -53 8.5t-27 28.5q-8 18 -11.5 40.5t-3.5 54.5v24t1 18h73q-1 -8 -1 -14.5v-13.5q0 -23 1 -35.5t3.5 -19
t7 -8t12.5 -1.5q7 0 11.5 2t7 11t3 27.5t0.5 52.5q0 38 -5 46.5t-18 8.5q-17 0 -29 -15z" />
    <glyph glyph-name="sixsuperior" unicode="&#x2076;" horiz-adv-x="246" 
d="M23 341zM143 644q1 5 1 8.5v9.5q0 21 -3 28t-19 7q-6 0 -10 -1.5t-6.5 -7.5t-4 -18t-1.5 -33v-30q17 5 37 5q21 0 36.5 -4.5t26 -17.5t16 -37t5.5 -63q0 -51 -5 -80.5t-16.5 -44.5t-30.5 -19.5t-47 -4.5q-32 0 -49.5 5.5t-28.5 23.5q-7 11 -11 24.5t-6.5 35t-3 52.5
t-0.5 76q0 74 2.5 117.5t12.5 65.5t29.5 28t54.5 6q30 0 48.5 -4t29 -15t14 -29.5t3.5 -47.5v-18t-2 -17h-72zM100 504v-31t0.5 -20t1.5 -13t3 -9q4 -8 18 -8q6 0 9.5 2.5t6 10.5t3.5 24t1 43q0 31 -4 38.5t-16 7.5q-16 0 -23 -7v-38z" />
    <glyph glyph-name="sevensuperior" unicode="&#x2077;" horiz-adv-x="246" 
d="M23 348zM44 348l88 336l-2 4h-107v79h197v-47l-90 -372h-86z" />
    <glyph glyph-name="eightsuperior" unicode="&#x2078;" horiz-adv-x="246" 
d="M21 341zM194 565q7 -4 12.5 -9t9.5 -16t5.5 -29t1.5 -47q0 -42 -5 -66t-16.5 -37t-31 -16.5t-48.5 -3.5t-48.5 3.5t-31 16.5t-16.5 37t-5 66q0 29 1.5 47t5.5 29t9 16t13 9q-8 6 -12.5 12.5t-7.5 17t-4 25t-1 36.5q0 40 4 64t15 36t29.5 15.5t48.5 3.5t48.5 -3.5
t29.5 -15.5t15 -36t4 -64q0 -22 -1 -36.5t-4 -25t-8 -17t-12 -12.5zM122 422q8 0 13 1.5t7.5 6.5t3.5 15.5t1 27.5q0 20 -0.5 31.5t-3 17.5t-7.5 7.5t-14 1.5t-14 -1.5t-7.5 -7.5t-3 -17.5t-0.5 -31.5q0 -17 1 -27.5t3.5 -15.5t7.5 -6.5t13 -1.5zM122 594q7 0 11 1.5t6.5 7
t3 16t0.5 29.5q0 35 -3.5 43t-17.5 8t-17.5 -8t-3.5 -43q0 -19 0.5 -29.5t3 -16t6.5 -7t11 -1.5z" />
    <glyph glyph-name="ninesuperior" unicode="&#x2079;" horiz-adv-x="246" 
d="M23 348zM65 348v11q20 35 38 75.5t28 75.5l-2 2q-5 -3 -14 -5.5t-19 -2.5q-20 0 -33.5 3t-22.5 16.5t-13 40.5t-4 75q0 47 4 74t14.5 41t30 17.5t50.5 3.5q35 0 51.5 -4.5t27.5 -17.5q13 -15 17 -40t4 -77q0 -80 -18.5 -148.5t-53.5 -139.5h-85zM120 573q7 0 11.5 1.5
t7 7.5t3.5 19t1 36q0 22 -1 34t-3 18t-6.5 7.5t-11.5 1.5q-6 0 -10.5 -1.5t-6.5 -7.5t-3 -18t-1 -33q0 -23 0.5 -35.5t2.5 -19.5t6 -8.5t11 -1.5z" />
    <glyph glyph-name="zeroinferior" unicode="&#x2080;" horiz-adv-x="246" 
d="M202 6q-11 -15 -28 -19t-52 -4q-36 0 -52.5 4t-27.5 19q-6 8 -10 21.5t-6 36t-2.5 55.5t-0.5 81q0 46 0.5 79t2.5 55t6 36t10 23q10 14 27 19t53 5q35 0 52 -5t28 -19q6 -9 10 -23t6.5 -36t3 -55t0.5 -79q0 -48 -0.5 -81t-3 -55.5t-6.5 -36t-10 -21.5zM138 73q1 5 2 12.5
t2 21.5t1 36.5v57.5v59t-0.5 37.5t-1.5 21.5t-2 12q-2 8 -17 8q-14 0 -17 -8q-2 -5 -3 -12.5t-1.5 -22t-0.5 -37v-58.5v-57.5t1 -36.5t2 -21.5t3 -12.5t5.5 -6.5t10.5 -1.5q14 0 16 8z" />
    <glyph glyph-name="oneinferior" unicode="&#x2081;" horiz-adv-x="246" 
d="M31 -10v82h53v202h-54v70h37q21 0 25 13t4 52h68v-337h50v-82h-183z" />
    <glyph glyph-name="twoinferior" unicode="&#x2082;" horiz-adv-x="246" 
d="M29 -10v82l57 72q26 33 36 45.5t14 21.5q5 12 5.5 24t0.5 42q0 22 -0.5 34.5t-3 18.5t-6.5 7.5t-11 1.5q-8 0 -12.5 -1.5t-7 -7.5t-3 -18.5t-0.5 -34.5v-18.5t1 -14.5h-74q-1 7 -1 17v30q0 38 4 62.5t14.5 38.5t29.5 19.5t49 5.5q28 0 47 -5.5t31 -20.5t17 -42.5t5 -70.5
q0 -31 -1.5 -50.5t-7.5 -35.5t-17 -32t-29 -38l-43 -53h95v-79h-189z" />
    <glyph glyph-name="threeinferior" unicode="&#x2083;" horiz-adv-x="246" 
d="M77 170v68h44q15 0 18.5 7.5t3.5 43.5q0 18 -0.5 28.5t-3 15.5t-7 6t-11.5 1q-8 0 -13 -1t-7.5 -5.5t-3 -14t-0.5 -26.5v-13.5t1 -12.5h-73q-1 8 -1 14.5v13.5q0 34 3 57t13.5 37.5t29.5 21t51 6.5q30 0 48.5 -3.5t29.5 -16t15 -36t4 -63.5q0 -23 -1.5 -38t-4.5 -25.5
t-8 -17t-12 -11.5q7 -4 13 -9t10 -15.5t6 -28.5t2 -47q0 -40 -4 -64t-15 -37t-31 -17.5t-52 -4.5t-51.5 6.5t-30 22t-14 40.5t-3.5 61q0 6 0.5 13t1.5 17h73q-1 -7 -1 -13v-12q0 -19 1 -29.5t3.5 -16t7.5 -6.5t13 -1q17 0 21.5 7.5t4.5 42.5q0 20 -1 31t-3.5 16.5t-7.5 6.5
t-14 1h-44z" />
    <glyph glyph-name="fourinferior" unicode="&#x2084;" horiz-adv-x="246" 
d="M125 -10v75h-107v75l106 269h75v-273h27v-71h-27v-75h-74zM127 229h-4l-34 -93h38v93z" />
    <glyph glyph-name="fiveinferior" unicode="&#x2085;" horiz-adv-x="246" 
d="M32 216l11 193h173v-79h-106l-3 -53l3 -1q6 2 15 4.5t20 2.5q19 0 33 -5t24 -18.5t15 -37.5t5 -62q0 -58 -4.5 -93t-16 -53.5t-31.5 -24.5t-51 -6q-35 0 -53 8.5t-27 28.5q-8 18 -11.5 40.5t-3.5 54.5v24t1 18h73q-1 -8 -1 -14.5v-13.5q0 -23 1 -35.5t3.5 -19t7 -8
t12.5 -1.5q7 0 11.5 2t7 11t3 27.5t0.5 52.5q0 38 -5 46.5t-18 8.5q-17 0 -29 -15z" />
    <glyph glyph-name="sixinferior" unicode="&#x2086;" horiz-adv-x="246" 
d="M143 286q1 5 1 8.5v9.5q0 21 -3 28t-19 7q-6 0 -10 -1.5t-6.5 -7.5t-4 -18t-1.5 -33v-30q17 5 37 5q21 0 36.5 -4.5t26 -17.5t16 -37t5.5 -63q0 -51 -5 -80.5t-16.5 -44.5t-30.5 -19.5t-47 -4.5q-32 0 -49.5 5.5t-28.5 23.5q-7 11 -11 24.5t-6.5 35t-3 52.5t-0.5 76
q0 74 2.5 117.5t12.5 65.5t29.5 28t54.5 6q30 0 48.5 -4t29 -15t14 -29.5t3.5 -47.5v-18t-2 -17h-72zM100 146v-31t0.5 -20t1.5 -13t3 -9q4 -8 18 -8q6 0 9.5 2.5t6 10.5t3.5 24t1 43q0 31 -4 38.5t-16 7.5q-16 0 -23 -7v-38z" />
    <glyph glyph-name="seveninferior" unicode="&#x2087;" horiz-adv-x="246" 
d="M44 -10l88 336l-2 4h-107v79h197v-47l-90 -372h-86z" />
    <glyph glyph-name="eightinferior" unicode="&#x2088;" horiz-adv-x="246" 
d="M194 207q7 -4 12.5 -9t9.5 -16t5.5 -29t1.5 -47q0 -42 -5 -66t-16.5 -37t-31 -16.5t-48.5 -3.5t-48.5 3.5t-31 16.5t-16.5 37t-5 66q0 29 1.5 47t5.5 29t9 16t13 9q-8 6 -12.5 12.5t-7.5 17t-4 25t-1 36.5q0 40 4 64t15 36t29.5 15.5t48.5 3.5t48.5 -3.5t29.5 -15.5
t15 -36t4 -64q0 -22 -1 -36.5t-4 -25t-8 -17t-12 -12.5zM122 64q8 0 13 1.5t7.5 6.5t3.5 15.5t1 27.5q0 20 -0.5 31.5t-3 17.5t-7.5 7.5t-14 1.5t-14 -1.5t-7.5 -7.5t-3 -17.5t-0.5 -31.5q0 -17 1 -27.5t3.5 -15.5t7.5 -6.5t13 -1.5zM122 236q7 0 11 1.5t6.5 7t3 16
t0.5 29.5q0 35 -3.5 43t-17.5 8t-17.5 -8t-3.5 -43q0 -19 0.5 -29.5t3 -16t6.5 -7t11 -1.5z" />
    <glyph glyph-name="nineinferior" unicode="&#x2089;" horiz-adv-x="246" 
d="M65 -10v11q20 35 38 75.5t28 75.5l-2 2q-5 -3 -14 -5.5t-19 -2.5q-20 0 -33.5 3t-22.5 16.5t-13 40.5t-4 75q0 47 4 74t14.5 41t30 17.5t50.5 3.5q35 0 51.5 -4.5t27.5 -17.5q13 -15 17 -40t4 -77q0 -80 -18.5 -148.5t-53.5 -139.5h-85zM120 215q7 0 11.5 1.5t7 7.5
t3.5 19t1 36q0 22 -1 34t-3 18t-6.5 7.5t-11.5 1.5q-6 0 -10.5 -1.5t-6.5 -7.5t-3 -18t-1 -33q0 -23 0.5 -35.5t2.5 -19.5t6 -8.5t11 -1.5z" />
    <glyph glyph-name="Euro" unicode="&#x20ac;" 
d="M374 207q2 -20 3 -34.5t1 -28.5q0 -32 -3.5 -54.5t-13.5 -45.5q-13 -30 -44 -43.5t-92 -13.5q-57 0 -90.5 8t-51.5 40q-17 30 -23.5 88t-7.5 159h-40l12 63h28v78h-40l12 63h28q0 58 1.5 97.5t6 66.5t11.5 44.5t19 32.5q20 26 51.5 34.5t85.5 8.5q57 0 87.5 -16t39.5 -30
q-6 -29 -13 -57.5t-13 -57.5h-5q-11 18 -30 30t-52 12q-32 0 -43.5 -4.5t-19.5 -15.5q-4 -6 -6.5 -15.5t-4 -25.5t-2 -41t-0.5 -63h141l-12 -63h-129v-78h114l-12 -63h-102q0 -36 0.5 -60.5t1.5 -41.5t2.5 -27.5t4.5 -18.5q5 -13 15 -17t33 -4q18 0 27.5 3.5t14 12t5 21.5
t0.5 32v12t-1 13h106z" />
    <glyph glyph-name="uni20B9" unicode="&#x20b9;" 
d="M205 0q-3 8 -5.5 17t-4.5 24t-4.5 38t-4.5 61q-3 41 -5.5 66t-7.5 38t-13.5 17t-21.5 4h-109l21 92h104q23 0 33 21.5t11 77.5h-175l15 62h161q0 45 -2.5 68t-8 33t-14 11t-20.5 1h-129l38 126h290v-2l-46 -112q4 -6 7 -15t5 -23.5t3 -35.5t1 -51h43l-14 -62h-30
q-2 -40 -7 -67t-12.5 -45t-17.5 -28.5t-23 -16.5v-6q13 -6 22 -14.5t15 -22t10 -35t7 -54.5q4 -46 6.5 -74t5 -45t4.5 -26.5t4 -17.5v-4h-131z" />
    <glyph glyph-name="uni20BA" unicode="&#x20ba;" 
d="M45 0v318l-30 -10v66l30 11v74l-30 -11v67l30 11v231h123v-187l175 64v-66l-175 -66v-74l175 65v-67l-175 -64v-232h34q17 0 25 2t14 12q3 6 5.5 13.5t4 20t2 31.5t0.5 46h125q-1 -48 -3.5 -79.5t-6.5 -53.5t-9 -36t-11 -27q-17 -34 -49 -46.5t-93 -12.5h-161z" />
    <glyph glyph-name="trademark" unicode="&#x2122;" horiz-adv-x="635" 
d="M85 398v290h-65v69h211v-69h-66v-290h-80zM528 398v230h-9l-67 -230h-42l-67 230h-9v-230h-74v359h117l47 -197h10l52 197h115v-359h-73z" />
    <glyph glyph-name="onethird" unicode="&#x2153;" horiz-adv-x="552" 
d="M15 0zM16 348v82h53v202h-54v70h37q21 0 25 13t4 52h68v-337h50v-82h-183zM54 0v4l373 753h77v-5l-373 -752h-77zM386 170v68h44q15 0 18.5 7.5t3.5 43.5q0 18 -0.5 28.5t-3 15.5t-7 6t-11.5 1q-8 0 -13 -1t-7.5 -5.5t-3 -14t-0.5 -26.5v-13.5t1 -12.5h-73q-1 8 -1 14.5
v13.5q0 34 3 57t13.5 37.5t29.5 21t51 6.5q30 0 48.5 -3.5t29.5 -16t15 -36t4 -63.5q0 -23 -1.5 -38t-4.5 -25.5t-8 -17t-12 -11.5q7 -4 13 -9t10 -15.5t6 -28.5t2 -47q0 -40 -4 -64t-15 -37t-31 -17.5t-52 -4.5t-51.5 6.5t-30 22t-14 40.5t-3.5 61q0 6 0.5 13t1.5 17h73
q-1 -7 -1 -13v-12q0 -19 1 -29.5t3.5 -16t7.5 -6.5t13 -1q17 0 21.5 7.5t4.5 42.5q0 20 -1 31t-3.5 16.5t-7.5 6.5t-14 1h-44z" />
    <glyph glyph-name="twothirds" unicode="&#x2154;" horiz-adv-x="552" 
d="M15 0zM20 348v82l57 72q26 33 36 45.5t14 21.5q5 12 5.5 24t0.5 42q0 22 -0.5 34.5t-3 18.5t-6.5 7.5t-11 1.5q-8 0 -12.5 -1.5t-7 -7.5t-3 -18.5t-0.5 -34.5v-18.5t1 -14.5h-74q-1 7 -1 17v30q0 38 4 62.5t14.5 38.5t29.5 19.5t49 5.5q28 0 47 -5.5t31 -20.5t17 -42.5
t5 -70.5q0 -31 -1.5 -50.5t-7.5 -35.5t-17 -32t-29 -38l-43 -53h95v-79h-189zM58 0v4l373 753h77v-5l-373 -752h-77zM390 170v68h44q15 0 18.5 7.5t3.5 43.5q0 18 -0.5 28.5t-3 15.5t-7 6t-11.5 1q-8 0 -13 -1t-7.5 -5.5t-3 -14t-0.5 -26.5v-13.5t1 -12.5h-73q-1 8 -1 14.5
v13.5q0 34 3 57t13.5 37.5t29.5 21t51 6.5q30 0 48.5 -3.5t29.5 -16t15 -36t4 -63.5q0 -23 -1.5 -38t-4.5 -25.5t-8 -17t-12 -11.5q7 -4 13 -9t10 -15.5t6 -28.5t2 -47q0 -40 -4 -64t-15 -37t-31 -17.5t-52 -4.5t-51.5 6.5t-30 22t-14 40.5t-3.5 61q0 6 0.5 13t1.5 17h73
q-1 -7 -1 -13v-12q0 -19 1 -29.5t3.5 -16t7.5 -6.5t13 -1q17 0 21.5 7.5t4.5 42.5q0 20 -1 31t-3.5 16.5t-7.5 6.5t-14 1h-44z" />
    <glyph glyph-name="oneeighth" unicode="&#x215b;" horiz-adv-x="552" 
d="M15 0zM16 348v82h53v202h-54v70h37q21 0 25 13t4 52h68v-337h50v-82h-183zM54 0v4l373 753h77v-5l-373 -752h-77zM511 207q7 -4 12.5 -9t9.5 -16t5.5 -29t1.5 -47q0 -42 -5 -66t-16.5 -37t-31 -16.5t-48.5 -3.5t-48.5 3.5t-31 16.5t-16.5 37t-5 66q0 29 1.5 47t5.5 29
t9 16t13 9q-8 6 -12.5 12.5t-7.5 17t-4 25t-1 36.5q0 40 4 64t15 36t29.5 15.5t48.5 3.5t48.5 -3.5t29.5 -15.5t15 -36t4 -64q0 -22 -1 -36.5t-4 -25t-8 -17t-12 -12.5zM439 64q8 0 13 1.5t7.5 6.5t3.5 15.5t1 27.5q0 20 -0.5 31.5t-3 17.5t-7.5 7.5t-14 1.5t-14 -1.5
t-7.5 -7.5t-3 -17.5t-0.5 -31.5q0 -17 1 -27.5t3.5 -15.5t7.5 -6.5t13 -1.5zM439 236q7 0 11 1.5t6.5 7t3 16t0.5 29.5q0 35 -3.5 43t-17.5 8t-17.5 -8t-3.5 -43q0 -19 0.5 -29.5t3 -16t6.5 -7t11 -1.5z" />
    <glyph glyph-name="threeeighths" unicode="&#x215c;" horiz-adv-x="552" 
d="M19 0zM74 528v68h44q15 0 18.5 7.5t3.5 43.5q0 18 -0.5 28.5t-3 15.5t-7 6t-11.5 1q-8 0 -13 -1t-7.5 -5.5t-3 -14t-0.5 -26.5v-13.5t1 -12.5h-73q-1 8 -1 14.5v13.5q0 34 3 57t13.5 37.5t29.5 21t51 6.5q30 0 48.5 -3.5t29.5 -16t15 -36t4 -63.5q0 -23 -1.5 -38
t-4.5 -25.5t-8 -17t-12 -11.5q7 -4 13 -9t10 -15.5t6 -28.5t2 -47q0 -40 -4 -64t-15 -37t-31 -17.5t-52 -4.5t-51.5 6.5t-30 22t-14 40.5t-3.5 61q0 6 0.5 13t1.5 17h73q-1 -7 -1 -13v-12q0 -19 1 -29.5t3.5 -16t7.5 -6.5t13 -1q17 0 21.5 7.5t4.5 42.5q0 20 -1 31
t-3.5 16.5t-7.5 6.5t-14 1h-44zM51 0v4l373 753h77v-5l-373 -752h-77zM504 207q7 -4 12.5 -9t9.5 -16t5.5 -29t1.5 -47q0 -42 -5 -66t-16.5 -37t-31 -16.5t-48.5 -3.5t-48.5 3.5t-31 16.5t-16.5 37t-5 66q0 29 1.5 47t5.5 29t9 16t13 9q-8 6 -12.5 12.5t-7.5 17t-4 25
t-1 36.5q0 40 4 64t15 36t29.5 15.5t48.5 3.5t48.5 -3.5t29.5 -15.5t15 -36t4 -64q0 -22 -1 -36.5t-4 -25t-8 -17t-12 -12.5zM432 64q8 0 13 1.5t7.5 6.5t3.5 15.5t1 27.5q0 20 -0.5 31.5t-3 17.5t-7.5 7.5t-14 1.5t-14 -1.5t-7.5 -7.5t-3 -17.5t-0.5 -31.5q0 -17 1 -27.5
t3.5 -15.5t7.5 -6.5t13 -1.5zM432 236q7 0 11 1.5t6.5 7t3 16t0.5 29.5q0 35 -3.5 43t-17.5 8t-17.5 -8t-3.5 -43q0 -19 0.5 -29.5t3 -16t6.5 -7t11 -1.5z" />
    <glyph glyph-name="fiveeighths" unicode="&#x215d;" horiz-adv-x="552" 
d="M16 0zM24 574l11 193h173v-79h-106l-3 -53l3 -1q6 2 15 4.5t20 2.5q19 0 33 -5t24 -18.5t15 -37.5t5 -62q0 -58 -4.5 -93t-16 -53.5t-31.5 -24.5t-51 -6q-35 0 -53 8.5t-27 28.5q-8 18 -11.5 40.5t-3.5 54.5v24t1 18h73q-1 -8 -1 -14.5v-13.5q0 -23 1 -35.5t3.5 -19t7 -8
t12.5 -1.5q7 0 11.5 2t7 11t3 27.5t0.5 52.5q0 38 -5 46.5t-18 8.5q-17 0 -29 -15zM43 0v4l373 753h77v-5l-373 -752h-77zM500 207q7 -4 12.5 -9t9.5 -16t5.5 -29t1.5 -47q0 -42 -5 -66t-16.5 -37t-31 -16.5t-48.5 -3.5t-48.5 3.5t-31 16.5t-16.5 37t-5 66q0 29 1.5 47
t5.5 29t9 16t13 9q-8 6 -12.5 12.5t-7.5 17t-4 25t-1 36.5q0 40 4 64t15 36t29.5 15.5t48.5 3.5t48.5 -3.5t29.5 -15.5t15 -36t4 -64q0 -22 -1 -36.5t-4 -25t-8 -17t-12 -12.5zM428 64q8 0 13 1.5t7.5 6.5t3.5 15.5t1 27.5q0 20 -0.5 31.5t-3 17.5t-7.5 7.5t-14 1.5
t-14 -1.5t-7.5 -7.5t-3 -17.5t-0.5 -31.5q0 -17 1 -27.5t3.5 -15.5t7.5 -6.5t13 -1.5zM428 236q7 0 11 1.5t6.5 7t3 16t0.5 29.5q0 35 -3.5 43t-17.5 8t-17.5 -8t-3.5 -43q0 -19 0.5 -29.5t3 -16t6.5 -7t11 -1.5z" />
    <glyph glyph-name="seveneighths" unicode="&#x215e;" horiz-adv-x="552" 
d="M22 0zM43 348l88 336l-2 4h-107v79h197v-47l-90 -372h-86zM33 0v4l373 753h77v-5l-373 -752h-77zM498 207q7 -4 12.5 -9t9.5 -16t5.5 -29t1.5 -47q0 -42 -5 -66t-16.5 -37t-31 -16.5t-48.5 -3.5t-48.5 3.5t-31 16.5t-16.5 37t-5 66q0 29 1.5 47t5.5 29t9 16t13 9
q-8 6 -12.5 12.5t-7.5 17t-4 25t-1 36.5q0 40 4 64t15 36t29.5 15.5t48.5 3.5t48.5 -3.5t29.5 -15.5t15 -36t4 -64q0 -22 -1 -36.5t-4 -25t-8 -17t-12 -12.5zM426 64q8 0 13 1.5t7.5 6.5t3.5 15.5t1 27.5q0 20 -0.5 31.5t-3 17.5t-7.5 7.5t-14 1.5t-14 -1.5t-7.5 -7.5
t-3 -17.5t-0.5 -31.5q0 -17 1 -27.5t3.5 -15.5t7.5 -6.5t13 -1.5zM426 236q7 0 11 1.5t6.5 7t3 16t0.5 29.5q0 35 -3.5 43t-17.5 8t-17.5 -8t-3.5 -43q0 -19 0.5 -29.5t3 -16t6.5 -7t11 -1.5z" />
    <glyph glyph-name="partialdiff" unicode="&#x2202;" 
d="M284 415q1 10 1 20v23q0 57 -8 96t-21.5 63.5t-31.5 35.5t-38 11q-13 0 -23 -3l-4 103q9 2 20 4t22 2q29 0 59.5 -15t55.5 -54t41 -105.5t16 -168.5q0 -93 -9 -173.5t-32 -140t-61.5 -94t-97.5 -34.5q-75 0 -114.5 59t-39.5 182q0 74 12 124.5t33 82t50 45.5t64 14
q33 0 58.5 -19.5t38.5 -57.5h9zM272 311q-11 37 -30.5 57t-57.5 20q-34 0 -52.5 -39t-18.5 -124q0 -73 18.5 -106t49.5 -33q41 0 63 58.5t28 166.5z" />
    <glyph glyph-name="product" unicode="&#x220f;" 
d="M278 -238v1107h-164v-1107h-93v1200h350v-1200h-93z" />
    <glyph glyph-name="summation" unicode="&#x2211;" 
d="M23 -238v20l189 477l-189 479v19h346v-105h-201l143 -393l-143 -393h201v-104h-346z" />
    <glyph glyph-name="minus" unicode="&#x2212;" 
d="M17 333v92h359v-92h-359z" />
    <glyph glyph-name="radical" unicode="&#x221a;" 
d="M136 0l-70 333h-59v92h131l47 -278h9l98 610h93v-7l-142 -750h-107z" />
    <glyph glyph-name="infinity" unicode="&#x221e;" horiz-adv-x="685" 
d="M341 287q-29 -47 -71 -73t-104 -26q-64 0 -99.5 47.5t-35.5 142.5q0 97 35.5 143.5t99.5 46.5q62 0 102 -26.5t73 -74.5q35 47 76 74t103 27q63 0 98.5 -46.5t35.5 -143.5q0 -95 -34.5 -142.5t-99.5 -47.5q-63 0 -104.5 26t-74.5 73zM299 374q-26 38 -53 59.5t-65 21.5
q-37 0 -46.5 -20.5t-9.5 -56.5q0 -20 1.5 -35.5t7.5 -26t17 -16t30 -5.5q41 0 69 23.5t49 55.5zM386 374q22 -32 50 -55.5t68 -23.5q39 0 48 21t9 62q0 36 -9.5 56.5t-47.5 20.5t-65.5 -21.5t-52.5 -59.5z" />
    <glyph glyph-name="integral" unicode="&#x222b;" 
d="M32 -238v93h70q29 0 38.5 12t9.5 46v898q0 42 7.5 71t24 47t42.5 25.5t64 7.5h73v-93h-70q-29 0 -38.5 -12.5t-9.5 -46.5v-897q0 -41 -7.5 -70t-24 -47t-43 -26t-63.5 -8h-73z" />
    <glyph glyph-name="approxequal" unicode="&#x2248;" 
d="M17 173zM376 235q-20 -29 -43.5 -41.5t-55.5 -12.5q-24 0 -44.5 5.5t-43.5 17.5q-13 7 -22 11.5t-17.5 7.5t-17.5 4t-22 1q-26 0 -46.5 -13t-39.5 -42h-7v94q14 23 35.5 38.5t53.5 15.5q29 0 53.5 -6t49.5 -20q22 -13 37.5 -17.5t34.5 -4.5q26 0 48 12.5t41 41.5h6v-92z
M376 495q-20 -29 -43.5 -41.5t-55.5 -12.5q-24 0 -44.5 5.5t-43.5 17.5q-13 7 -22 11.5t-17.5 7.5t-17.5 4t-22 1q-26 0 -46.5 -13t-39.5 -42h-7v94q14 23 35.5 38.5t53.5 15.5q29 0 53.5 -6t49.5 -20q22 -13 37.5 -17.5t34.5 -4.5q26 0 48 12.5t41 41.5h6v-92z" />
    <glyph glyph-name="notequal" unicode="&#x2260;" 
d="M166 211l-89 -211h-77v4l87 207h-70v92h108l64 152h-172v93h211l88 209h77v-5l-86 -204h69v-93h-108l-64 -152h172v-92h-210z" />
    <glyph glyph-name="lessequal" unicode="&#x2264;" 
d="M17 0zM371 149l-354 184v92l354 184h5v-103l-249 -122v-10l249 -121v-104h-5zM17 -47v92h359v-92h-359z" />
    <glyph glyph-name="greaterequal" unicode="&#x2265;" 
d="M17 0zM22 149h-5v104l249 121v10l-249 122v103h5l354 -184v-92zM17 -47v92h359v-92h-359z" />
    <glyph glyph-name="lozenge" unicode="&#x25ca;" 
d="M155 0l-126 378l126 379h84l124 -379l-124 -378h-84zM270 378l-69 242h-8l-71 -242l70 -241h9z" />
    <glyph glyph-name=".ttfautohint" horiz-adv-x="173" 
d="M0 0z" />
    </font>
</defs>
</svg>
