<?xml version="1.0" standalone="no"?>
<!DOCTYPE svg PUBLIC "-//W3C//DTD SVG 1.1//EN" "http://www.w3.org/Graphics/SVG/1.1/DTD/svg11.dtd" >
<svg xmlns="http://www.w3.org/2000/svg" xmlns:xlink="http://www.w3.org/1999/xlink" version="1.1">
<metadata>
Created by FontForge 20170731 at Thu Jun 18 11:42:10 2015
 By Aleksey,,,
(c) 2013-2015 Typodermic Fonts Inc. See attached license agreement. If agreement is missing visit typodermicfonts.com for more info.
</metadata>
<defs>
<font id="BuiltTitlingEl-Regular" horiz-adv-x="215" >
  <font-face 
    font-family="Built Titling El"
    font-weight="250"
    font-stretch="normal"
    units-per-em="1000"
    panose-1="2 11 2 6 3 2 2 8 2 4"
    ascent="762"
    descent="-238"
    cap-height="757"
    bbox="-72 -238 773 962"
    underline-thickness="20"
    underline-position="-163"
    unicode-range="U+0017-25CA"
  />
<missing-glyph horiz-adv-x="805" 
d="M403 -169q-85 0 -146 4t-102 20.5t-65.5 50.5t-37.5 95t-16.5 153t-3.5 225t3.5 225t16.5 153t37.5 95t65.5 51t101.5 20.5t146.5 3.5t146.5 -3.5t101.5 -20.5t65.5 -51t37 -95t16 -153t3.5 -225q0 -132 -3.5 -224.5t-16 -153.5t-37 -95t-65.5 -50.5t-101.5 -20.5
t-146.5 -4zM401 212q9 34 15.5 54t11 31.5t9.5 16t11 8.5q19 11 38.5 17t41.5 20q15 10 26 22t20 30t17.5 44t18.5 65q7 28 11 51.5t4 43.5q0 54 -33.5 86t-112.5 53q-54 14 -89 14q-53 0 -83.5 -30.5t-48.5 -99.5q-8 -29 -10.5 -46.5t-2.5 -33.5l127 -33q4 42 16.5 62.5
t29.5 20.5q29 0 42 -11.5t13 -27.5q0 -8 -2 -16t-4 -20q-6 -23 -10.5 -36.5t-12 -21.5t-19 -14t-30.5 -14q-22 -10 -38.5 -19.5t-28 -21t-19.5 -26t-13 -33.5q-8 -31 -15 -57t-9 -43zM392 136l-151 40l-39 -146l151 -41z" />
    <glyph glyph-name="copyright" unicode="&#x28;C&#x29;" horiz-adv-x="286" 
d="M239 49q-11 -35 -32.5 -48.5t-63.5 -13.5t-63.5 13.5t-32.5 48.5q-6 17 -10 37.5t-6.5 55.5t-3.5 91.5t-1 145.5t1 145t3.5 91t6.5 55t10 38q11 35 32.5 48.5t63.5 13.5t63.5 -13.5t32.5 -48.5q6 -18 10 -38t6.5 -55t3.5 -91t1 -145t-1 -145.5t-3.5 -91.5t-6.5 -55.5
t-10 -37.5zM220 55q5 16 9 36t6.5 54.5t3.5 90t1 143.5t-1 143t-3.5 89.5t-6.5 54t-9 36.5q-9 27 -26.5 37.5t-50.5 10.5t-50.5 -10.5t-26.5 -37.5q-5 -17 -9 -36.5t-6.5 -54t-3.5 -89.5t-1 -143t1 -143.5t3.5 -90t6.5 -54.5t9 -36q8 -27 25.5 -37.5t51.5 -10.5t51.5 10.5
t25.5 37.5zM192 332q1 -10 1 -21v-22q0 -39 -2 -66t-8 -44q-6 -15 -15 -23t-24 -8q-19 0 -29 9t-15 30q-2 10 -4 22.5t-3 34t-1.5 55t-0.5 84.5t0.5 83t1.5 52.5t3 32t4 21.5q5 21 15 29.5t28 8.5q32 0 42 -34q5 -16 6 -40t1 -59v-23.5t-1 -19.5h-19q1 10 1 19.5v23.5
q0 33 -1 56t-6 37q-6 20 -23 20q-10 0 -15.5 -4.5t-8.5 -18.5q-2 -9 -3.5 -20.5t-2.5 -31t-1.5 -51t-0.5 -81.5q0 -51 0.5 -84t1.5 -54t2.5 -32.5t3.5 -20.5q3 -14 8.5 -19t16.5 -5q13 0 21 20q5 15 6.5 40t1.5 61v21.5t-1 21.5h20z" />
    <glyph glyph-name="registered" unicode="&#x28;R&#x29;" horiz-adv-x="286" 
d="M239 49q-11 -35 -32.5 -48.5t-63.5 -13.5t-63.5 13.5t-32.5 48.5q-6 17 -10 37.5t-6.5 55.5t-3.5 91.5t-1 145.5t1 145t3.5 91t6.5 55t10 38q11 35 32.5 48.5t63.5 13.5t63.5 -13.5t32.5 -48.5q6 -18 10 -38t6.5 -55t3.5 -91t1 -145t-1 -145.5t-3.5 -91.5t-6.5 -55.5
t-10 -37.5zM220 55q5 16 9 36t6.5 54.5t3.5 90t1 143.5t-1 143t-3.5 89.5t-6.5 54t-9 36.5q-9 27 -26.5 37.5t-50.5 10.5t-50.5 -10.5t-26.5 -37.5q-5 -17 -9 -36.5t-6.5 -54t-3.5 -89.5t-1 -143t1 -143.5t3.5 -90t6.5 -54.5t9 -36q8 -27 25.5 -37.5t51.5 -10.5t51.5 10.5
t25.5 37.5zM179 156q-2 10 -3 36t-3 64q-2 35 -3.5 55.5t-3.5 30.5q-4 14 -22 14h-30v-200h-20v446h57q15 0 22.5 -7.5t12.5 -20.5q9 -33 9 -94q0 -33 -1.5 -53.5t-4.5 -31.5q-2 -7 -4.5 -14t-9.5 -12v-4q7 -6 10 -19q2 -10 3.5 -32t3.5 -57q2 -38 3 -64.5t3 -36.5h-19z
M143 376q11 0 18.5 5t9.5 19q2 11 3 29.5t1 50.5q0 68 -8 88q-6 14 -16 14h-37v-206h29z" />
    <glyph glyph-name="uni2117" unicode="&#x28;P&#x29;" horiz-adv-x="286" 
d="M239 49q-11 -35 -32.5 -48.5t-63.5 -13.5t-63.5 13.5t-32.5 48.5q-6 17 -10 37.5t-6.5 55.5t-3.5 91.5t-1 145.5t1 145t3.5 91t6.5 55t10 38q11 35 32.5 48.5t63.5 13.5t63.5 -13.5t32.5 -48.5q6 -18 10 -38t6.5 -55t3.5 -91t1 -145t-1 -145.5t-3.5 -91.5t-6.5 -55.5
t-10 -37.5zM220 55q5 16 9 36t6.5 54.5t3.5 90t1 143.5t-1 143t-3.5 89.5t-6.5 54t-9 36.5q-9 27 -26.5 37.5t-50.5 10.5t-50.5 -10.5t-26.5 -37.5q-5 -17 -9 -36.5t-6.5 -54t-3.5 -89.5t-1 -143t1 -143.5t3.5 -90t6.5 -54.5t9 -36q8 -27 25.5 -37.5t51.5 -10.5t51.5 10.5
t25.5 37.5zM97 156v446h54q15 0 23.5 -7.5t13.5 -24.5t7 -42t2 -70q0 -75 -7 -109q-8 -41 -40 -41h-33v-152h-20zM150 327q9 0 13 6.5t7 20.5q7 32 7 104q0 44 -1.5 67.5t-6.5 38.5q-4 19 -18 19h-34v-256h33z" />
    <glyph glyph-name=".notdef" horiz-adv-x="805" 
d="M403 -169q-85 0 -146 4t-102 20.5t-65.5 50.5t-37.5 95t-16.5 153t-3.5 225t3.5 225t16.5 153t37.5 95t65.5 51t101.5 20.5t146.5 3.5t146.5 -3.5t101.5 -20.5t65.5 -51t37 -95t16 -153t3.5 -225q0 -132 -3.5 -224.5t-16 -153.5t-37 -95t-65.5 -50.5t-101.5 -20.5
t-146.5 -4zM401 212q9 34 15.5 54t11 31.5t9.5 16t11 8.5q19 11 38.5 17t41.5 20q15 10 26 22t20 30t17.5 44t18.5 65q7 28 11 51.5t4 43.5q0 54 -33.5 86t-112.5 53q-54 14 -89 14q-53 0 -83.5 -30.5t-48.5 -99.5q-8 -29 -10.5 -46.5t-2.5 -33.5l127 -33q4 42 16.5 62.5
t29.5 20.5q29 0 42 -11.5t13 -27.5q0 -8 -2 -16t-4 -20q-6 -23 -10.5 -36.5t-12 -21.5t-19 -14t-30.5 -14q-22 -10 -38.5 -19.5t-28 -21t-19.5 -26t-13 -33.5q-8 -31 -15 -57t-9 -43zM392 136l-151 40l-39 -146l151 -41z" />
    <glyph glyph-name=".null" horiz-adv-x="0" 
 />
    <glyph glyph-name="nonmarkingreturn" horiz-adv-x="99" 
 />
    <glyph glyph-name="uni0017" horiz-adv-x="99" 
 />
    <glyph glyph-name="space" unicode=" " horiz-adv-x="99" 
 />
    <glyph glyph-name="exclam" unicode="!" horiz-adv-x="92" 
d="M40 227l-8 561h28l-7 -561h-13zM36 0v151h20v-151h-20z" />
    <glyph glyph-name="quotedbl" unicode="&#x22;" horiz-adv-x="176" 
d="M29 545zM35 545l-6 243h28l-6 -243h-16zM124 545l-6 243h28l-6 -243h-16z" />
    <glyph glyph-name="numbersign" unicode="#" 
d="M133 0v243h-51v-243h-20v243h-39v20h39v233h-39v20h39v241h20v-241h51v241h20v-241h39v-20h-39v-233h39v-20h-39v-243h-20zM133 496h-51v-233h51v233z" />
    <glyph glyph-name="dollar" unicode="$" 
d="M94 -43v124q-19 2 -30 10.5t-18 28.5q-3 8 -5 16.5t-3 20t-1.5 26.5t-0.5 36v45.5t1 24.5h20q-1 -8 -1 -24.5v-45.5q0 -39 2 -59t7 -33q6 -14 14.5 -20t23.5 -6q16 0 25.5 5t15.5 19q8 17 11.5 43.5t3.5 71.5q0 53 -4.5 78t-14.5 36q-15 16 -32.5 27.5t-36.5 27.5
q-13 10 -24 29q-3 6 -5.5 14t-4 22.5t-2 35.5t-0.5 53q0 45 3.5 67t10.5 33q15 27 45 30v108h20v-107q18 -1 28.5 -7.5t19.5 -23.5q8 -13 10.5 -30t2.5 -55v-48.5t-1 -28.5h-20q1 12 1 28.5v48.5t-2.5 48.5t-8.5 27.5t-13.5 15.5t-24.5 4.5q-16 0 -24.5 -4.5t-14.5 -15.5
q-5 -10 -8.5 -29t-3.5 -62q0 -59 2.5 -82.5t7.5 -31.5q5 -10 11 -16.5t13 -11.5q14 -11 32 -23t35 -31q6 -8 10.5 -17t7.5 -23.5t4 -35t1 -51.5q0 -45 -4.5 -74.5t-13.5 -49.5q-15 -31 -47 -35v-124h-20z" />
    <glyph glyph-name="percent" unicode="%" horiz-adv-x="280" 
d="M15 0zM105 366q-5 -17 -15 -21t-25 -4t-25 4t-15 21q-7 19 -8.5 63.5t-1.5 128.5t2 128.5t9 64.5q5 17 14.5 20.5t24.5 3.5t24.5 -3.5t14.5 -20.5q7 -20 9 -64.5t2 -128.5t-1.5 -128.5t-8.5 -63.5zM86 372q6 17 7.5 60t1.5 126q0 82 -2 125t-8 61q-2 8 -7 9.5t-13 1.5
t-13 -1.5t-7 -9.5q-6 -18 -8 -61t-2 -125q0 -83 1.5 -126t7.5 -60q2 -8 7.5 -9.5t13.5 -1.5t13 1.5t8 9.5zM34 0v4l192 753h20v-4l-193 -753h-19zM255 8q-5 -17 -15 -21t-25 -4t-25 4t-15 21q-7 19 -8.5 63.5t-1.5 128.5t2 128.5t9 64.5q5 17 14.5 20.5t24.5 3.5t24.5 -3.5
t14.5 -20.5q7 -20 9 -64.5t2 -128.5t-1.5 -128.5t-8.5 -63.5zM236 14q6 17 7.5 60t1.5 126q0 82 -2 125t-8 61q-2 8 -7 9.5t-13 1.5t-13 -1.5t-7 -9.5q-6 -18 -8 -61t-2 -125q0 -83 1.5 -126t7.5 -60q2 -8 7.5 -9.5t13.5 -1.5t13 1.5t8 9.5z" />
    <glyph glyph-name="ampersand" unicode="&#x26;" horiz-adv-x="250" 
d="M212 0l-33 117h-4l-7 -42q-8 -49 -23.5 -68.5t-45.5 -19.5q-20 0 -33.5 6t-22.5 29t-13 67t-4 121q0 41 2 69.5t9 51t20 42.5t34 44l-17 57q-7 23 -11 39.5t-6 31.5t-2.5 32t-0.5 41q0 51 2.5 81t10 45.5t21 20.5t36.5 5q18 0 30 -5t19.5 -21.5t10.5 -48.5t3 -86
q0 -38 -1 -62.5t-5.5 -42t-13 -30.5t-23.5 -28l-32 -34l59 -205h4l36 177h20v-4l-45 -217l47 -159v-4h-21zM165 161l-68 235q-17 -20 -27.5 -37t-15.5 -37t-6.5 -46.5t-1.5 -65.5q0 -68 3 -108.5t9.5 -61.5t16.5 -27t24 -6q21 0 31 16t18 56zM130 459q13 15 20.5 26.5
t11 27.5t4.5 38t1 58q0 47 -2 75t-7.5 42.5t-13.5 19t-20 4.5q-16 0 -26 -4t-15 -18t-7 -40t-2 -70q0 -23 0.5 -38.5t2.5 -29.5t6 -30l10 -40l14 -47z" />
    <glyph glyph-name="quotesingle" unicode="'" horiz-adv-x="87" 
d="M35 545l-6 243h28l-6 -243h-16z" />
    <glyph glyph-name="parenleft" unicode="(" 
d="M166 -238q-20 32 -38 78t-31.5 116t-21.5 169t-8 237t8 237t21.5 169t31.5 116t38 78h21v-4q-21 -35 -39.5 -83t-32 -118t-21 -166.5t-7.5 -228.5t7.5 -229t20.5 -167t31.5 -118t40.5 -82v-4h-21z" />
    <glyph glyph-name="parenright" unicode=")" 
d="M27 -238v4q22 34 40.5 82t31.5 118t20.5 167t7.5 229t-7.5 228.5t-21 166.5t-32 118t-39.5 83v4h21q20 -32 38 -78t31.5 -116t21.5 -169t8 -237t-8 -237t-21.5 -169t-31.5 -116t-38 -78h-21z" />
    <glyph glyph-name="asterisk" unicode="*" horiz-adv-x="477" 
d="M260 527l-3 -4l64 -165l-23 -9l-57 168h-6l-56 -167l-24 8l65 165l-4 4l-151 -92l-13 21l156 85l-1 6l-175 26l4 24l174 -35l3 5l-117 133l18 16l111 -138l5 1l-4 178h24l-5 -178l6 -1l111 138l19 -16l-117 -132l3 -6l174 35l4 -24l-175 -26l-2 -7l156 -84l-12 -21z" />
    <glyph glyph-name="plus" unicode="+" 
d="M97 294v75h-74v20h74v74h20v-74h75v-20h-75v-75h-20z" />
    <glyph glyph-name="comma" unicode="," horiz-adv-x="87" 
d="M32 -142v4l10 145l-2 3h-8v91h23v-97l-14 -146h-9z" />
    <glyph glyph-name="hyphen" unicode="-" horiz-adv-x="180" 
d="M25 372v20h130v-20h-130z" />
    <glyph glyph-name="period" unicode="." horiz-adv-x="84" 
d="M32 0v101h20v-101h-20z" />
    <glyph glyph-name="slash" unicode="/" 
d="M0 -153l196 1001h20l-196 -1001h-20z" />
    <glyph glyph-name="zero" unicode="0" 
d="M174 30q-9 -30 -25 -36.5t-42 -6.5t-42 6t-24 37q-5 18 -8 46.5t-4.5 70.5t-2 99.5t-0.5 132.5t0.5 132t2 99t4.5 70.5t8 46.5q8 31 24 37t42 6t42 -6.5t25 -36.5q5 -18 8 -46t4.5 -69.5t2 -99t0.5 -133.5t-0.5 -133.5t-2 -99.5t-4.5 -70t-8 -46zM155 35q5 16 8 43.5
t4.5 69t1.5 98.5v133v132.5t-1.5 98t-4.5 68.5t-8 44q-6 19 -14.5 23.5t-33.5 4.5q-24 0 -33 -5t-14 -23q-5 -17 -7.5 -44.5t-4 -69t-2 -98t-0.5 -131.5t0.5 -132t2 -98.5t4 -69t7.5 -44.5q5 -18 14 -23t33 -5q25 0 33.5 4.5t14.5 23.5z" />
    <glyph glyph-name="one" unicode="1" 
d="M33 0v20h66v597h-67v20h37q18 0 25 8t8 34l2 78h15v-737h64v-20h-150z" />
    <glyph glyph-name="two" unicode="2" 
d="M23 0v27l89 211q17 41 29 71t18 57q8 35 10.5 71t2.5 87q0 37 -1 65t-3 49t-5 37t-6 30q-6 26 -16.5 35.5t-30.5 9.5q-33 0 -46 -37q-8 -24 -10.5 -64.5t-2.5 -101.5v-41.5t1 -34.5h-20q-1 19 -1 34.5v41.5q0 63 3 106.5t12 69.5q16 47 64 47q29 0 44 -13t23 -47
q3 -14 6 -30.5t5 -38t3 -50t1 -67.5q0 -51 -2.5 -88.5t-11.5 -74.5q-7 -28 -18.5 -58.5t-29.5 -72.5l-88 -206l1 -4h146v-20h-166z" />
    <glyph glyph-name="three" unicode="3" 
d="M45 222q0 -110 10.5 -162.5t50.5 -52.5q21 0 33 10t19 33t9 60.5t2 93.5t-1.5 88t-4.5 49q-9 40 -56 40h-43v20h43q23 0 31.5 3t15.5 16q3 6 5 13.5t4 22.5q2 18 2 44v62q0 61 -2.5 98.5t-9 57t-18 26t-29.5 6.5t-30 -11t-19 -35.5t-9 -63.5t-2 -95v-30h-19q-1 8 -1 15.5
v14.5q0 61 3 104t12 70t25 39t40 12t39.5 -7t24.5 -29t12 -63t3 -109q0 -72 -3 -106q-2 -17 -7 -33t-22 -29v-4q15 -5 21.5 -19.5t8.5 -29.5q3 -18 4.5 -49.5t1.5 -87.5q0 -61 -2.5 -102.5t-11.5 -67t-25.5 -36.5t-43.5 -11t-43 14t-24.5 43t-11 73.5t-2.5 104.5v23.5
t1 16.5h19v-40z" />
    <glyph glyph-name="four" unicode="4" 
d="M146 0v178h-124v26l113 553h31v-559h27v-20h-27v-178h-20zM146 691h-4l-101 -489l1 -4h104v493z" />
    <glyph glyph-name="five" unicode="5" 
d="M47 290q0 -17 -0.5 -34t-0.5 -34q0 -68 2 -106.5t10 -65.5q7 -23 17 -33t27 -10q23 0 34 10t17 36q4 16 6.5 37.5t4.5 51.5t3 70t1 94q0 66 -5 108.5t-14 65.5q-5 11 -12.5 16.5t-24.5 5.5q-11 0 -19 -2t-13 -9q-8 -10 -13 -19.5t-9 -25.5l-24 5l10 306h140v-20h-121
l-8 -202q-1 -17 -2 -32t-2 -23l4 -1q2 8 4 14t6 11q9 11 20.5 14.5t26.5 3.5q25 0 36.5 -8.5t19.5 -26.5q10 -25 15 -68.5t5 -112.5q0 -55 -1 -95.5t-3 -71t-4.5 -52.5t-6.5 -38q-8 -35 -23.5 -48.5t-47.5 -13.5q-24 0 -39 13t-24 45q-8 29 -10.5 68.5t-2.5 108.5v33t1 35
h20z" />
    <glyph glyph-name="six" unicode="6" 
d="M164 549q1 11 1 22v23q0 60 -2 90t-10 45q-7 13 -15.5 17t-29.5 4t-30 -4t-16 -20q-9 -21 -12.5 -71t-3.5 -148v-68h4q9 17 24.5 25t34.5 8q24 0 37.5 -7.5t21.5 -25.5q11 -23 16 -68t5 -118q0 -93 -4.5 -147.5t-16.5 -81.5q-9 -22 -23.5 -29.5t-36.5 -7.5q-23 0 -37.5 7
t-23.5 32q-6 17 -10.5 45t-6.5 70.5t-3 101t-1 136.5q0 81 0.5 140.5t2.5 102t5.5 69.5t9.5 44q8 23 23.5 29t40.5 6t40.5 -6t23.5 -24t10.5 -51.5t2.5 -94.5v-24t-1 -21h-20zM46 379q0 -78 0.5 -136t2.5 -98.5t5.5 -66.5t9.5 -41q7 -19 15.5 -24.5t28.5 -5.5q18 0 27 5.5
t16 22.5q11 24 14.5 75t3.5 143q0 72 -4.5 114.5t-14.5 63.5q-5 11 -14.5 16t-26.5 5q-25 0 -40 -15q-7 -7 -12.5 -14.5t-10.5 -31.5v-12z" />
    <glyph glyph-name="seven" unicode="7" 
d="M60 0l107 733l-1 4h-140v20h162v-14l-108 -743h-20z" />
    <glyph glyph-name="eight" unicode="8" 
d="M154 390q15 -5 21.5 -19.5t8.5 -29.5q3 -18 4.5 -49.5t1.5 -87.5q0 -61 -2.5 -102.5t-11.5 -67t-25.5 -36.5t-43.5 -11t-43.5 11t-25.5 36.5t-11.5 67t-2.5 102.5q0 56 1.5 87.5t4.5 49.5q2 15 8.5 29.5t21.5 19.5v4q-17 13 -22 29t-7 33q-3 34 -3 106q0 68 3 109t12 63
t24.5 29t39.5 7t39.5 -7t24.5 -29t12 -63t3 -109q0 -72 -3 -106q-2 -17 -7 -33t-22 -29v-4zM107 7q21 0 33 10t19 33t9 60.5t2 93.5t-1.5 88t-4.5 49q-9 40 -57 40t-57 -40q-3 -17 -4.5 -49t-1.5 -88t2 -93.5t9 -60.5t19 -33t33 -10zM155 420q3 6 5 13.5t4 22.5q2 18 2 44
v62q0 61 -2.5 98.5t-9 57t-18 26t-29.5 6.5t-29.5 -6.5t-18 -26t-9 -57t-2.5 -98.5v-62t2 -44q2 -15 4 -22.5t5 -13.5q7 -13 16 -16t32 -3t32 3t16 16z" />
    <glyph glyph-name="nine" unicode="9" 
d="M67 0v2q35 80 56.5 163t33.5 156l-4 1q-9 -12 -24 -22t-31 -10q-26 0 -38 7.5t-19 27.5q-8 26 -11.5 74.5t-3.5 129.5q0 89 4 139t16 73q9 17 23.5 23t37.5 6q22 0 36 -5t23 -19q14 -22 18.5 -73.5t4.5 -149.5q0 -75 -6 -141.5t-20 -131.5q-13 -63 -31 -125t-43 -125h-22
zM160 368q5 35 7 75t2 80q0 47 -0.5 81.5t-3 59.5t-6 41t-9.5 26q-7 11 -16 15t-27 4q-19 0 -27.5 -4t-15.5 -15q-11 -19 -14.5 -65.5t-3.5 -136.5q0 -78 2.5 -125.5t10.5 -71.5q7 -22 39 -22q11 0 22.5 7t19.5 16q14 17 20 35z" />
    <glyph glyph-name="colon" unicode=":" horiz-adv-x="96" 
d="M38 409v101h20v-101h-20zM38 0v101h20v-101h-20z" />
    <glyph glyph-name="semicolon" unicode=";" horiz-adv-x="99" 
d="M38 -142v4l10 145l-2 3h-8v91h23v-97l-14 -146h-9zM38 409v101h20v-101h-20z" />
    <glyph glyph-name="less" unicode="&#x3c;" 
d="M188 187l-165 184v17l165 184h4v-25l-150 -166v-4l150 -165v-25h-4z" />
    <glyph glyph-name="equal" unicode="=" 
d="M23 469v20h169v-20h-169zM23 269v20h169v-20h-169z" />
    <glyph glyph-name="greater" unicode="&#x3e;" 
d="M23 187v25l150 165v4l-150 166v25h4l165 -184v-17l-165 -184h-4z" />
    <glyph glyph-name="question" unicode="?" horiz-adv-x="201" 
d="M85 227q-1 8 -1 17.5v34.5q0 16 0.5 27t1.5 20t3.5 17.5t6.5 19.5q7 18 17 35.5t22 46.5q11 28 15.5 57t4.5 77t-2.5 80.5t-8.5 52.5t-17 29t-27 9q-15 0 -25 -7t-16 -24t-9 -45.5t-3 -70.5v-32v-20.5t0.5 -15t1.5 -13.5h-20q-1 7 -1.5 13t-0.5 14.5v21v32.5q0 48 4 80
t12.5 51.5t22.5 27.5t34 8q22 0 37 -10t23 -32.5t11.5 -59t3.5 -89.5q0 -50 -5.5 -82t-16.5 -61t-21.5 -46t-17.5 -36q-7 -18 -8.5 -31.5t-1.5 -43.5v-34.5t1 -17.5h-20zM85 0v151h20v-151h-20z" />
    <glyph glyph-name="at" unicode="@" horiz-adv-x="305" 
d="M279 -13q1 -5 1 -12v-27q0 -29 -5 -57.5t-18.5 -51t-37.5 -36.5t-63 -14q-44 0 -70.5 16t-40.5 64q-4 14 -6.5 37t-4.5 65t-3 107.5t-1 164.5q0 109 1.5 176.5t4 107t6.5 59t9 32.5q14 35 40 49t64 14q32 0 55 -10t38 -35q7 -11 12 -29t8 -53.5t4.5 -94.5t1.5 -152
q0 -71 -0.5 -113t-1.5 -66.5t-3 -36.5t-5 -23q-5 -20 -14 -27t-25 -7q-12 0 -20 5t-14 14h-4q-10 -19 -31 -19q-14 0 -22 7.5t-13 26.5q-3 11 -5 23t-3 28.5t-1.5 40.5t-0.5 59q0 58 0.5 97t2 64.5t4 41t6.5 26.5q5 14 12 18.5t17 4.5q9 0 14.5 -7t7.5 -17h4v14h20v-389
q6 -18 26 -18q8 0 13 3.5t7 14.5q3 10 4.5 21.5t2.5 35.5t1.5 65.5t0.5 112.5q0 87 -1.5 144t-4.5 92.5t-7 54t-10 28.5q-11 19 -30.5 27t-45.5 8q-32 0 -53 -11t-33 -40q-5 -12 -8.5 -30.5t-6 -57.5t-3.5 -105t-1 -174q0 -97 1 -162t2.5 -106.5t4.5 -64.5t6 -36
q11 -37 33.5 -51t58.5 -14q33 0 53 12.5t31.5 32t15.5 44.5t4 50v27t-1 12h20zM179 375q-2 35 -9 55.5t-17 20.5q-7 0 -10 -9q-3 -11 -5.5 -25.5t-4 -39.5t-2 -63t-0.5 -95q0 -34 0.5 -57t1.5 -39.5t2.5 -28t4.5 -21.5q6 -19 16 -19t14.5 4t8.5 12v305z" />
    <glyph glyph-name="A" unicode="A" horiz-adv-x="210" 
d="M169 0l-20 238h-87l-21 -238h-20l69 757h36l63 -757h-20zM116 645q-2 25 -3.5 46.5t-2.5 44.5h-4q-1 -23 -3 -44.5t-4 -46.5l-35 -387h84z" />
    <glyph glyph-name="B" unicode="B" horiz-adv-x="219" 
d="M32 0v757h90q20 0 31.5 -7t19.5 -25q5 -11 8.5 -25t6 -34t3.5 -47.5t1 -65.5t-1 -61t-2.5 -37t-3.5 -22t-5 -16q-2 -7 -8 -13t-12 -10v-4q7 -2 12.5 -7.5t8.5 -10.5q3 -6 6 -14t5 -25.5t3 -47.5t1 -81q0 -41 -1 -68t-3.5 -46t-6 -32t-9.5 -25q-16 -33 -49 -33h-95z
M127 20q13 0 19.5 5t13.5 20q4 10 7.5 20.5t5 27.5t2.5 43t1 68q0 51 -0.5 79.5t-2 44t-4 22t-6.5 12.5q-8 11 -17 15t-32 4h-62v-361h75zM114 401q23 0 31.5 3t15.5 16q3 6 5.5 13.5t3.5 21t1.5 37t0.5 61.5q0 37 -1 63.5t-2.5 45.5t-5 31.5t-7.5 22.5q-10 21 -34 21h-70
v-336h62z" />
    <glyph glyph-name="C" unicode="C" horiz-adv-x="216" 
d="M187 290q1 -17 1 -33v-35q0 -66 -3 -112t-14 -75q-9 -24 -23.5 -36t-37.5 -12q-30 0 -45.5 13.5t-23.5 48.5q-4 16 -6.5 38t-4.5 59t-3 94t-1 145t1 143t2.5 90t4.5 55t7 37q8 34 23 47t44 13q50 0 66 -54q8 -27 10.5 -68t2.5 -101v-37t-1 -30h-20q1 17 1 30v37
q0 59 -2 98.5t-10 63.5q-13 41 -47 41q-20 0 -31 -9.5t-17 -35.5q-4 -16 -6.5 -35.5t-4 -53.5t-2.5 -89t-1 -142q0 -88 1 -145t2.5 -93.5t4.5 -57.5t6 -36q6 -26 17 -36t33 -10q17 0 27 9.5t17 29.5q8 26 11 69.5t3 106.5v35.5t-1 32.5h20z" />
    <glyph glyph-name="D" unicode="D" horiz-adv-x="224" 
d="M32 0v757h84q29 0 43 -12.5t24 -47.5q5 -17 8 -36.5t4.5 -53.5t2 -88t0.5 -140q0 -92 -1 -147t-2.5 -88.5t-4 -51.5t-6.5 -34q-8 -34 -22 -46t-46 -12h-84zM116 20q23 0 32.5 8.5t15.5 33.5q4 16 6.5 34t4 51t2.5 87.5t1 144.5q0 85 -0.5 138.5t-2 87t-4.5 52t-7 34.5
q-8 26 -18 36t-30 10h-64v-717h64z" />
    <glyph glyph-name="E" unicode="E" horiz-adv-x="191" 
d="M32 0v757h134v-20h-114v-342h112v-20h-112v-355h113v-20h-133z" />
    <glyph glyph-name="F" unicode="F" horiz-adv-x="179" 
d="M32 0v757h132v-20h-112v-342h110v-20h-110v-375h-20z" />
    <glyph glyph-name="G" unicode="G" horiz-adv-x="214" 
d="M155 53q3 15 6 32t4.5 43.5t2.5 66.5t1 101v53.5t-1 25.5h-80v20h99q2 -18 2 -40.5v-58.5q0 -62 -1 -103t-2.5 -68t-4.5 -44t-6 -32q-8 -35 -23 -48.5t-44 -13.5t-44 13.5t-23 48.5q-4 17 -7 37.5t-4.5 56.5t-2.5 93t-1 149q0 88 1 143t2.5 88.5t4 51.5t5.5 32
q9 42 24.5 56t44.5 14q33 0 49.5 -18.5t20.5 -51.5q5 -40 7 -70.5t2 -64.5v-24t-1 -15h-20q1 5 1 12v27q0 32 -2 62t-7 70q-3 25 -15 39t-35 14q-20 0 -31.5 -11.5t-18.5 -43.5q-3 -12 -5.5 -29.5t-4 -50.5t-2 -88t-0.5 -142q0 -92 1 -149t2.5 -92.5t4 -55t6.5 -35.5
q6 -26 17 -36t31 -10t31 10t17 37z" />
    <glyph glyph-name="H" unicode="H" horiz-adv-x="230" 
d="M179 0v375h-128v-375h-20v757h20v-362h128v362h20v-757h-20z" />
    <glyph glyph-name="I" unicode="I" horiz-adv-x="86" 
d="M33 0v757h20v-757h-20z" />
    <glyph glyph-name="J" unicode="J" horiz-adv-x="210" 
d="M162 757h20v-367q0 -86 -1 -144t-2.5 -96.5t-4 -61.5t-6.5 -39q-8 -35 -23.5 -48.5t-45.5 -13.5q-26 0 -41 14t-23.5 43t-11 73.5t-2.5 104.5q0 36 0.5 47.5t1.5 20.5h20q-1 -9 -1.5 -20.5t-0.5 -47.5q0 -110 10 -162.5t48 -52.5q21 0 32.5 10t16.5 36q4 16 6.5 39
t4 60.5t2.5 95t1 142.5v367z" />
    <glyph glyph-name="K" unicode="K" horiz-adv-x="225" 
d="M190 0l-119 360q-6 17 -9.5 28.5t-6.5 22.5h-4q1 -12 1 -24.5v-29.5v-357h-20v757h20v-286q0 -15 -0.5 -28t-0.5 -24h4q4 11 8.5 23t9.5 25l113 290h20v-4l-134 -339l137 -410v-4h-19z" />
    <glyph glyph-name="L" unicode="L" horiz-adv-x="171" 
d="M32 0v757h20v-737h107v-20h-127z" />
    <glyph glyph-name="M" unicode="M" horiz-adv-x="301" 
d="M250 0v654v42.5t1 35.5h-4q-2 -18 -4 -35.5t-6 -42.5l-79 -654h-15l-79 654q-3 25 -5.5 42.5t-4.5 35.5h-4q1 -18 1 -35.5v-42.5v-654h-20v757h42l67 -583q3 -23 5 -45t3 -39h4q1 17 3 39t5 45l70 583h40v-757h-20z" />
    <glyph glyph-name="N" unicode="N" horiz-adv-x="226" 
d="M179 0l-124 723h-4v-723h-20v757h39l88 -520q5 -26 8.5 -51.5t6.5 -50.5h4q-2 25 -2 54.5v57.5v510h20v-757h-16z" />
    <glyph glyph-name="O" unicode="O" 
d="M41 49q-4 17 -7 37.5t-4.5 55.5t-2.5 91.5t-1 145.5t1 145t2.5 91t4.5 55t7 38q8 35 23 48.5t44 13.5t44 -13.5t23 -48.5q4 -18 6.5 -38t4 -55t2.5 -91t1 -145t-1 -145.5t-2.5 -91.5t-4 -55.5t-6.5 -37.5q-8 -35 -23 -48.5t-44 -13.5t-44 13.5t-23 48.5zM155 53
q4 17 6.5 37.5t4 55t2.5 90t1 143.5t-0.5 143t-2 89.5t-4 54.5t-6.5 37q-5 26 -16.5 36.5t-31.5 10.5t-30.5 -10t-16.5 -36q-4 -17 -6.5 -36.5t-4.5 -54t-3 -90t-1 -144.5t1 -145t2.5 -91t4 -54.5t6.5 -35.5q6 -26 17 -36t31 -10t31 10t16 36z" />
    <glyph glyph-name="P" unicode="P" 
d="M32 0v757h87q23 0 36 -12t21 -39q4 -14 7 -31.5t4.5 -40t2.5 -52t1 -68.5q0 -64 -2.5 -109.5t-9.5 -75.5q-8 -35 -22 -51t-40 -16h-65v-262h-20zM117 282q17 0 26.5 12t15.5 39q7 30 9.5 74.5t2.5 106.5q0 77 -3.5 118.5t-10.5 67.5q-6 20 -14.5 28.5t-23.5 8.5h-67v-455
h65z" />
    <glyph glyph-name="Q" unicode="Q" 
d="M155 -91q-6 11 -13.5 33t-17.5 59q-4 -1 -8 -1h-8q-29 0 -44 13t-23 48q-4 17 -6.5 37t-4.5 54.5t-3 90t-1 143.5t1 143t2.5 89t4.5 54t7 37q8 34 23 47.5t44 13.5t44 -13.5t23 -47.5q4 -17 7 -37t4.5 -54t2 -89t0.5 -143t-1 -143.5t-2.5 -90t-4 -54.5t-6.5 -37
q-10 -42 -32 -54q11 -43 19 -63t14 -31v-4h-21zM119 20q-5 20 -11 44.5t-13 53.5v4h20q6 -28 11.5 -51t10.5 -43q12 9 18 37q4 17 6.5 36.5t4 54t2.5 89t1 141.5q0 86 -0.5 140.5t-2 88t-4 53t-6.5 36.5q-5 26 -16.5 36t-31.5 10t-31 -10t-17 -36q-4 -16 -6.5 -35t-4 -53
t-2.5 -88.5t-1 -141.5q0 -88 1 -143.5t2.5 -89.5t4 -53t6.5 -35q6 -26 17 -35.5t31 -9.5h11z" />
    <glyph glyph-name="R" unicode="R" horiz-adv-x="220" 
d="M178 0l-2 20t-2 26.5t-2.5 44.5t-3.5 75q-3 64 -6 99t-6 52q-2 14 -12 21.5t-33 7.5h-59v-346h-20v757h91q36 0 52 -37q10 -24 13.5 -65t3.5 -102q0 -48 -2 -79t-5 -51t-7.5 -31.5t-9.5 -18.5t-9.5 -10t-8.5 -5v-4q8 -2 15.5 -10.5t10.5 -24.5t6 -51t6 -101
q2 -47 3.5 -74.5t2.5 -44.5t2 -26l2 -18v-4h-20zM110 366q17 0 26.5 4t17.5 15q5 7 8.5 17t5.5 28t3 47.5t1 75.5q0 59 -3 97t-11 59q-12 28 -35 28h-71v-371h58z" />
    <glyph glyph-name="S" unicode="S" horiz-adv-x="203" 
d="M48 253q-2 -14 -2.5 -36t-0.5 -55q0 -43 2.5 -70t8.5 -47q7 -20 16 -29t25 -9q32 0 45 35q8 21 11.5 54.5t3.5 93.5q0 39 -1 64.5t-3 42t-6.5 27t-10.5 19.5q-12 18 -31.5 32.5t-36.5 31.5q-9 9 -17 18.5t-14 23.5q-4 9 -6.5 19.5t-4 27.5t-2 43.5t-0.5 68.5
q0 48 3.5 77.5t12.5 48.5q17 36 58 36q22 0 35.5 -8.5t23.5 -25.5q10 -18 14 -45t4 -77q0 -34 -1 -57t-3 -35h-20q2 12 3 35t1 57q0 45 -4 70.5t-12 41.5q-13 24 -41 24q-29 0 -40 -24q-8 -17 -11 -44t-3 -74q0 -42 0.5 -67.5t1.5 -41.5t3.5 -25t5.5 -17q5 -10 12.5 -19.5
t14.5 -16.5q17 -17 36.5 -32t33.5 -34q7 -11 12 -22t8 -29t4 -45t1 -69q0 -61 -3.5 -96.5t-13.5 -59.5q-10 -23 -25 -35t-38 -12q-25 0 -39 12t-22 40q-6 20 -8.5 48t-2.5 75q0 34 0.5 55t2.5 36h20z" />
    <glyph glyph-name="T" unicode="T" horiz-adv-x="180" 
d="M81 0v737h-70v20h158v-20h-68v-737h-20z" />
    <glyph glyph-name="U" unicode="U" horiz-adv-x="220" 
d="M171 757h20v-569q0 -38 -1 -63.5t-2.5 -42.5t-4 -28.5t-6.5 -21.5q-9 -26 -25 -35.5t-42 -9.5t-42 9.5t-25 35.5q-4 10 -6.5 21.5t-4.5 28.5t-3 42.5t-1 63.5v569h20v-569q0 -37 1 -61t2.5 -40.5t4.5 -27t6 -20.5q6 -18 17.5 -25t30.5 -7t30.5 7t17.5 25q3 10 5.5 20.5
t4 26.5t2.5 40.5t1 61.5v569z" />
    <glyph glyph-name="V" unicode="V" horiz-adv-x="214" 
d="M88 0l-67 757h20l54 -619q3 -33 5 -62t4 -52h4q2 23 4 52t5 62l56 619h20l-69 -757h-36z" />
    <glyph glyph-name="W" unicode="W" horiz-adv-x="322" 
d="M210 0l-44 577q-3 40 -3 61h-4q0 -21 -3 -61l-44 -577h-36l-54 757h20l46 -676q2 -19 3 -31.5t1 -25.5h4q0 13 1 25.5t3 31.5l52 676h18l52 -676q2 -20 3 -32t1 -25h4q0 13 1 25.5t3 31.5l46 676h20l-54 -757h-36z" />
    <glyph glyph-name="X" unicode="X" horiz-adv-x="218" 
d="M178 0l-55 285q-5 26 -8 41.5t-5 31.5h-4q-2 -16 -5 -31.5t-8 -41.5l-54 -285h-20v4l79 388l-71 361v4h20l46 -251q5 -25 8 -44.5t5 -33.5h4q2 14 5.5 33.5t8.5 44.5l48 251h20v-4l-73 -357l79 -392v-4h-20z" />
    <glyph glyph-name="Y" unicode="Y" horiz-adv-x="203" 
d="M91 0v385l-77 368v4h20l55 -274q3 -17 5.5 -32l4.5 -27h4l4.5 27t5.5 32l56 274h20v-4l-78 -368v-385h-20z" />
    <glyph glyph-name="Z" unicode="Z" horiz-adv-x="216" 
d="M23 0v24l152 710l-2 3h-147v20h170v-12l-153 -722l1 -3h149v-20h-170z" />
    <glyph glyph-name="bracketleft" unicode="[" 
d="M73 -238v1200h108v-20h-88v-1160h88v-20h-108z" />
    <glyph glyph-name="backslash" unicode="\" 
d="M196 -153l-196 1001h20l196 -1001h-20z" />
    <glyph glyph-name="bracketright" unicode="]" 
d="M33 -238v20h88v1160h-88v20h108v-1200h-108z" />
    <glyph glyph-name="asciicircum" unicode="^" 
d="M172 334l-62 379h-4l-63 -379h-20v4l70 419h29l70 -419v-4h-20z" />
    <glyph glyph-name="underscore" unicode="_" 
d="M17 -86v20h181v-20h-181z" />
    <glyph glyph-name="grave" unicode="`" horiz-adv-x="156" 
d="M97 592l-76 169v4h21l71 -169v-4h-16z" />
    <glyph glyph-name="a" unicode="a" horiz-adv-x="210" 
d="M21 0zM169 0l-20 238h-87l-21 -238h-20l69 757h36l63 -757h-20zM116 645q-2 25 -3.5 46.5t-2.5 44.5h-4q-1 -23 -3 -44.5t-4 -46.5l-35 -387h84z" />
    <glyph glyph-name="b" unicode="b" horiz-adv-x="219" 
d="M32 0zM32 0v757h90q20 0 31.5 -7t19.5 -25q5 -11 8.5 -25t6 -34t3.5 -47.5t1 -65.5t-1 -61t-2.5 -37t-3.5 -22t-5 -16q-2 -7 -8 -13t-12 -10v-4q7 -2 12.5 -7.5t8.5 -10.5q3 -6 6 -14t5 -25.5t3 -47.5t1 -81q0 -41 -1 -68t-3.5 -46t-6 -32t-9.5 -25q-16 -33 -49 -33h-95z
M127 20q13 0 19.5 5t13.5 20q4 10 7.5 20.5t5 27.5t2.5 43t1 68q0 51 -0.5 79.5t-2 44t-4 22t-6.5 12.5q-8 11 -17 15t-32 4h-62v-361h75zM114 401q23 0 31.5 3t15.5 16q3 6 5.5 13.5t3.5 21t1.5 37t0.5 61.5q0 37 -1 63.5t-2.5 45.5t-5 31.5t-7.5 22.5q-10 21 -34 21h-70
v-336h62z" />
    <glyph glyph-name="c" unicode="c" horiz-adv-x="216" 
d="M26 0zM187 290q1 -17 1 -33v-35q0 -66 -3 -112t-14 -75q-9 -24 -23.5 -36t-37.5 -12q-30 0 -45.5 13.5t-23.5 48.5q-4 16 -6.5 38t-4.5 59t-3 94t-1 145t1 143t2.5 90t4.5 55t7 37q8 34 23 47t44 13q50 0 66 -54q8 -27 10.5 -68t2.5 -101v-37t-1 -30h-20q1 17 1 30v37
q0 59 -2 98.5t-10 63.5q-13 41 -47 41q-20 0 -31 -9.5t-17 -35.5q-4 -16 -6.5 -35.5t-4 -53.5t-2.5 -89t-1 -142q0 -88 1 -145t2.5 -93.5t4.5 -57.5t6 -36q6 -26 17 -36t33 -10q17 0 27 9.5t17 29.5q8 26 11 69.5t3 106.5v35.5t-1 32.5h20z" />
    <glyph glyph-name="d" unicode="d" horiz-adv-x="224" 
d="M32 0zM32 0v757h84q29 0 43 -12.5t24 -47.5q5 -17 8 -36.5t4.5 -53.5t2 -88t0.5 -140q0 -92 -1 -147t-2.5 -88.5t-4 -51.5t-6.5 -34q-8 -34 -22 -46t-46 -12h-84zM116 20q23 0 32.5 8.5t15.5 33.5q4 16 6.5 34t4 51t2.5 87.5t1 144.5q0 85 -0.5 138.5t-2 87t-4.5 52
t-7 34.5q-8 26 -18 36t-30 10h-64v-717h64z" />
    <glyph glyph-name="e" unicode="e" horiz-adv-x="191" 
d="M32 0zM32 0v757h134v-20h-114v-342h112v-20h-112v-355h113v-20h-133z" />
    <glyph glyph-name="f" unicode="f" horiz-adv-x="179" 
d="M32 0zM32 0v757h132v-20h-112v-342h110v-20h-110v-375h-20z" />
    <glyph glyph-name="g" unicode="g" horiz-adv-x="214" 
d="M26 0zM155 53q3 15 6 32t4.5 43.5t2.5 66.5t1 101v53.5t-1 25.5h-80v20h99q2 -18 2 -40.5v-58.5q0 -62 -1 -103t-2.5 -68t-4.5 -44t-6 -32q-8 -35 -23 -48.5t-44 -13.5t-44 13.5t-23 48.5q-4 17 -7 37.5t-4.5 56.5t-2.5 93t-1 149q0 88 1 143t2.5 88.5t4 51.5t5.5 32
q9 42 24.5 56t44.5 14q33 0 49.5 -18.5t20.5 -51.5q5 -40 7 -70.5t2 -64.5v-24t-1 -15h-20q1 5 1 12v27q0 32 -2 62t-7 70q-3 25 -15 39t-35 14q-20 0 -31.5 -11.5t-18.5 -43.5q-3 -12 -5.5 -29.5t-4 -50.5t-2 -88t-0.5 -142q0 -92 1 -149t2.5 -92.5t4 -55t6.5 -35.5
q6 -26 17 -36t31 -10t31 10t17 37z" />
    <glyph glyph-name="h" unicode="h" horiz-adv-x="230" 
d="M31 0zM179 0v375h-128v-375h-20v757h20v-362h128v362h20v-757h-20z" />
    <glyph glyph-name="i" unicode="i" horiz-adv-x="86" 
d="M33 0zM33 0v757h20v-757h-20z" />
    <glyph glyph-name="j" unicode="j" horiz-adv-x="210" 
d="M21 0zM162 757h20v-367q0 -86 -1 -144t-2.5 -96.5t-4 -61.5t-6.5 -39q-8 -35 -23.5 -48.5t-45.5 -13.5q-26 0 -41 14t-23.5 43t-11 73.5t-2.5 104.5q0 36 0.5 47.5t1.5 20.5h20q-1 -9 -1.5 -20.5t-0.5 -47.5q0 -110 10 -162.5t48 -52.5q21 0 32.5 10t16.5 36q4 16 6.5 39
t4 60.5t2.5 95t1 142.5v367z" />
    <glyph glyph-name="k" unicode="k" horiz-adv-x="225" 
d="M32 0zM190 0l-119 360q-6 17 -9.5 28.5t-6.5 22.5h-4q1 -12 1 -24.5v-29.5v-357h-20v757h20v-286q0 -15 -0.5 -28t-0.5 -24h4q4 11 8.5 23t9.5 25l113 290h20v-4l-134 -339l137 -410v-4h-19z" />
    <glyph glyph-name="l" unicode="l" horiz-adv-x="171" 
d="M32 0zM32 0v757h20v-737h107v-20h-127z" />
    <glyph glyph-name="m" unicode="m" horiz-adv-x="301" 
d="M31 0zM250 0v654v42.5t1 35.5h-4q-2 -18 -4 -35.5t-6 -42.5l-79 -654h-15l-79 654q-3 25 -5.5 42.5t-4.5 35.5h-4q1 -18 1 -35.5v-42.5v-654h-20v757h42l67 -583q3 -23 5 -45t3 -39h4q1 17 3 39t5 45l70 583h40v-757h-20z" />
    <glyph glyph-name="n" unicode="n" horiz-adv-x="226" 
d="M31 0zM179 0l-124 723h-4v-723h-20v757h39l88 -520q5 -26 8.5 -51.5t6.5 -50.5h4q-2 25 -2 54.5v57.5v510h20v-757h-16z" />
    <glyph glyph-name="o" unicode="o" 
d="M26 0zM41 49q-4 17 -7 37.5t-4.5 55.5t-2.5 91.5t-1 145.5t1 145t2.5 91t4.5 55t7 38q8 35 23 48.5t44 13.5t44 -13.5t23 -48.5q4 -18 6.5 -38t4 -55t2.5 -91t1 -145t-1 -145.5t-2.5 -91.5t-4 -55.5t-6.5 -37.5q-8 -35 -23 -48.5t-44 -13.5t-44 13.5t-23 48.5zM155 53
q4 17 6.5 37.5t4 55t2.5 90t1 143.5t-0.5 143t-2 89.5t-4 54.5t-6.5 37q-5 26 -16.5 36.5t-31.5 10.5t-30.5 -10t-16.5 -36q-4 -17 -6.5 -36.5t-4.5 -54t-3 -90t-1 -144.5t1 -145t2.5 -91t4 -54.5t6.5 -35.5q6 -26 17 -36t31 -10t31 10t16 36z" />
    <glyph glyph-name="p" unicode="p" 
d="M32 0zM32 0v757h87q23 0 36 -12t21 -39q4 -14 7 -31.5t4.5 -40t2.5 -52t1 -68.5q0 -64 -2.5 -109.5t-9.5 -75.5q-8 -35 -22 -51t-40 -16h-65v-262h-20zM117 282q17 0 26.5 12t15.5 39q7 30 9.5 74.5t2.5 106.5q0 77 -3.5 118.5t-10.5 67.5q-6 20 -14.5 28.5t-23.5 8.5
h-67v-455h65z" />
    <glyph glyph-name="q" unicode="q" 
d="M26 0zM155 -91q-6 11 -13.5 33t-17.5 59q-4 -1 -8 -1h-8q-29 0 -44 13t-23 48q-4 17 -6.5 37t-4.5 54.5t-3 90t-1 143.5t1 143t2.5 89t4.5 54t7 37q8 34 23 47.5t44 13.5t44 -13.5t23 -47.5q4 -17 7 -37t4.5 -54t2 -89t0.5 -143t-1 -143.5t-2.5 -90t-4 -54.5t-6.5 -37
q-10 -42 -32 -54q11 -43 19 -63t14 -31v-4h-21zM119 20q-5 20 -11 44.5t-13 53.5v4h20q6 -28 11.5 -51t10.5 -43q12 9 18 37q4 17 6.5 36.5t4 54t2.5 89t1 141.5q0 86 -0.5 140.5t-2 88t-4 53t-6.5 36.5q-5 26 -16.5 36t-31.5 10t-31 -10t-17 -36q-4 -16 -6.5 -35t-4 -53
t-2.5 -88.5t-1 -141.5q0 -88 1 -143.5t2.5 -89.5t4 -53t6.5 -35q6 -26 17 -35.5t31 -9.5h11z" />
    <glyph glyph-name="r" unicode="r" horiz-adv-x="220" 
d="M32 0zM178 0l-2 20t-2 26.5t-2.5 44.5t-3.5 75q-3 64 -6 99t-6 52q-2 14 -12 21.5t-33 7.5h-59v-346h-20v757h91q36 0 52 -37q10 -24 13.5 -65t3.5 -102q0 -48 -2 -79t-5 -51t-7.5 -31.5t-9.5 -18.5t-9.5 -10t-8.5 -5v-4q8 -2 15.5 -10.5t10.5 -24.5t6 -51t6 -101
q2 -47 3.5 -74.5t2.5 -44.5t2 -26l2 -18v-4h-20zM110 366q17 0 26.5 4t17.5 15q5 7 8.5 17t5.5 28t3 47.5t1 75.5q0 59 -3 97t-11 59q-12 28 -35 28h-71v-371h58z" />
    <glyph glyph-name="s" unicode="s" horiz-adv-x="203" 
d="M24 0zM48 253q-2 -14 -2.5 -36t-0.5 -55q0 -43 2.5 -70t8.5 -47q7 -20 16 -29t25 -9q32 0 45 35q8 21 11.5 54.5t3.5 93.5q0 39 -1 64.5t-3 42t-6.5 27t-10.5 19.5q-12 18 -31.5 32.5t-36.5 31.5q-9 9 -17 18.5t-14 23.5q-4 9 -6.5 19.5t-4 27.5t-2 43.5t-0.5 68.5
q0 48 3.5 77.5t12.5 48.5q17 36 58 36q22 0 35.5 -8.5t23.5 -25.5q10 -18 14 -45t4 -77q0 -34 -1 -57t-3 -35h-20q2 12 3 35t1 57q0 45 -4 70.5t-12 41.5q-13 24 -41 24q-29 0 -40 -24q-8 -17 -11 -44t-3 -74q0 -42 0.5 -67.5t1.5 -41.5t3.5 -25t5.5 -17q5 -10 12.5 -19.5
t14.5 -16.5q17 -17 36.5 -32t33.5 -34q7 -11 12 -22t8 -29t4 -45t1 -69q0 -61 -3.5 -96.5t-13.5 -59.5q-10 -23 -25 -35t-38 -12q-25 0 -39 12t-22 40q-6 20 -8.5 48t-2.5 75q0 34 0.5 55t2.5 36h20z" />
    <glyph glyph-name="t" unicode="t" horiz-adv-x="180" 
d="M11 0zM81 0v737h-70v20h158v-20h-68v-737h-20z" />
    <glyph glyph-name="u" unicode="u" horiz-adv-x="220" 
d="M28 0zM171 757h20v-569q0 -38 -1 -63.5t-2.5 -42.5t-4 -28.5t-6.5 -21.5q-9 -26 -25 -35.5t-42 -9.5t-42 9.5t-25 35.5q-4 10 -6.5 21.5t-4.5 28.5t-3 42.5t-1 63.5v569h20v-569q0 -37 1 -61t2.5 -40.5t4.5 -27t6 -20.5q6 -18 17.5 -25t30.5 -7t30.5 7t17.5 25
q3 10 5.5 20.5t4 26.5t2.5 40.5t1 61.5v569z" />
    <glyph glyph-name="v" unicode="v" horiz-adv-x="214" 
d="M21 0zM88 0l-67 757h20l54 -619q3 -33 5 -62t4 -52h4q2 23 4 52t5 62l56 619h20l-69 -757h-36z" />
    <glyph glyph-name="w" unicode="w" horiz-adv-x="322" 
d="M22 0zM210 0l-44 577q-3 40 -3 61h-4q0 -21 -3 -61l-44 -577h-36l-54 757h20l46 -676q2 -19 3 -31.5t1 -25.5h4q0 13 1 25.5t3 31.5l52 676h18l52 -676q2 -20 3 -32t1 -25h4q0 13 1 25.5t3 31.5l46 676h20l-54 -757h-36z" />
    <glyph glyph-name="x" unicode="x" horiz-adv-x="218" 
d="M19 0zM178 0l-55 285q-5 26 -8 41.5t-5 31.5h-4q-2 -16 -5 -31.5t-8 -41.5l-54 -285h-20v4l79 388l-71 361v4h20l46 -251q5 -25 8 -44.5t5 -33.5h4q2 14 5.5 33.5t8.5 44.5l48 251h20v-4l-73 -357l79 -392v-4h-20z" />
    <glyph glyph-name="y" unicode="y" horiz-adv-x="203" 
d="M14 0zM91 0v385l-77 368v4h20l55 -274q3 -17 5.5 -32l4.5 -27h4l4.5 27t5.5 32l56 274h20v-4l-78 -368v-385h-20z" />
    <glyph glyph-name="z" unicode="z" horiz-adv-x="216" 
d="M23 0zM23 0v24l152 710l-2 3h-147v20h170v-12l-153 -722l1 -3h149v-20h-170z" />
    <glyph glyph-name="braceleft" unicode="{" 
d="M157 -238q-40 0 -57 27t-17 63q0 55 5 109t11.5 107.5t11.5 107.5t5 110q0 25 -9.5 45.5t-35.5 20.5h-20v20h20q26 0 35.5 20t9.5 46q0 56 -5 110t-11.5 107.5t-11.5 107.5t-5 109q0 36 17 63t57 27h27v-20h-27q-31 0 -42.5 -19t-11.5 -51q0 -55 5 -109t11.5 -108
t11.5 -108t5 -109q0 -23 -7.5 -43.5t-24.5 -31.5v-3q17 -11 24.5 -31.5t7.5 -42.5q0 -55 -5 -109t-11.5 -108t-11.5 -108t-5 -109q0 -32 11.5 -51t42.5 -19h27v-20h-27z" />
    <glyph glyph-name="bar" unicode="|" 
d="M97 -238v1200h20v-1200h-20z" />
    <glyph glyph-name="braceright" unicode="}" 
d="M31 -238v20h27q31 0 42.5 19t11.5 51q0 55 -5 109t-11.5 108t-11.5 108t-5 109q0 22 7.5 42.5t24.5 31.5v3q-17 11 -24.5 31.5t-7.5 43.5q0 55 5 109t11.5 108t11.5 108t5 109q0 32 -11.5 51t-42.5 19h-27v20h27q40 0 57 -27t17 -63q0 -55 -5 -109t-11.5 -107.5
t-11.5 -107.5t-5 -110q0 -26 9.5 -46t35.5 -20h20v-20h-20q-26 0 -35.5 -20.5t-9.5 -45.5q0 -56 5 -110t11.5 -107.5t11.5 -107.5t5 -109q0 -36 -17 -63t-57 -27h-27z" />
    <glyph glyph-name="asciitilde" unicode="~" 
d="M192 377q-11 -27 -39 -27q-16 0 -28 7.5t-23 18.5q-10 11 -18.5 16t-21.5 5q-8 0 -13 -2t-11 -9q-9 -10 -11 -20h-4v24q11 27 39 27q17 0 30 -8.5t24 -20.5q15 -18 37 -18q8 0 13 2t11 9q9 10 11 20h4v-24z" />
    <glyph glyph-name="nonbreakingspace" unicode="&#xa0;" horiz-adv-x="99" 
 />
    <glyph glyph-name="exclamdown" unicode="&#xa1;" horiz-adv-x="92" 
d="M32 -228l7 561h13l8 -561h-28zM36 409v151h20v-151h-20z" />
    <glyph glyph-name="cent" unicode="&#xa2;" 
d="M103 -43v124q-22 2 -34 12.5t-19 36.5q-3 13 -5.5 28.5t-4 43t-2.5 72t-1 115.5q0 69 1 113t2.5 71.5t4 43.5t5.5 29q7 25 19 35.5t34 12.5v107h20v-108q21 -2 32.5 -12t18.5 -35q8 -29 10 -63.5t2 -74.5v-19.5t-1 -20.5h-20q1 11 1 20v20q0 38 -1.5 73t-9.5 61
q-9 32 -43 32q-35 0 -43 -32q-3 -12 -5.5 -27.5t-4 -43t-2 -71t-0.5 -111.5q0 -69 0.5 -113t2 -71.5t4 -43t5.5 -27.5q9 -33 43 -33q19 0 28.5 7t14.5 26q7 29 9 65.5t2 70.5v24.5t-1 23.5h20q1 -12 1 -23.5v-24.5q0 -35 -2 -71.5t-10 -68.5q-7 -26 -18.5 -36.5t-32.5 -12.5
v-124h-20z" />
    <glyph glyph-name="sterling" unicode="&#xa3;" 
d="M194 1q-6 -6 -14.5 -10t-23.5 -4q-20 0 -34 10t-21 25h-4q-19 -35 -47 -35q-13 0 -19 8v22h4q5 -10 15 -10q24 0 40 40t16 102q0 24 -1 44t-4 38t-8 35.5t-12 37.5h-56v20h48q-12 28 -20.5 51.5t-14 46.5t-8 47.5t-2.5 54.5q0 42 0.5 71t2.5 51t5.5 39t9.5 35
q4 13 9 22.5t12 15.5t17 9t26 3q30 0 44 -11.5t22 -40.5q4 -17 7 -33.5t4 -36t1.5 -44t0.5 -57.5v-46.5t-1 -29.5h-20q1 14 1 29.5v46.5t-0.5 54.5t-1.5 42.5t-4 35t-7 33q-5 20 -15.5 29t-30.5 9t-29 -9t-15 -27q-6 -17 -9.5 -34.5t-5.5 -39t-2.5 -49.5t-0.5 -67
q0 -31 2 -54t7 -44.5t14 -45t23 -56.5h85v-20h-77q7 -20 11.5 -37t7.5 -35t4 -38t1 -45q0 -30 -4 -56t-12 -47q4 -17 16.5 -28t29.5 -11t23 5t11 13h4v-24z" />
    <glyph glyph-name="currency" unicode="&#xa4;" horiz-adv-x="340" 
d="M293 241l-53 53q-30 -24 -70 -24t-70 25l-54 -54l-14 14l54 54q-25 30 -25 70t25 70l-53 53l14 14l52 -53q14 12 32.5 19t38.5 7t38 -7t32 -19l53 53l14 -14l-53 -53q12 -14 19 -32t7 -38t-7 -38.5t-19 -32.5l54 -53zM260 379q0 38 -26 64t-64 26t-63.5 -26t-25.5 -64
t25.5 -63.5t63.5 -25.5t64 25.5t26 63.5z" />
    <glyph glyph-name="yen" unicode="&#xa5;" 
d="M97 0v168h-69v20h69v105h-69v20h69v72l-77 368v4h20l65 -324h4l66 324h20v-4l-78 -368v-72h68v-20h-68v-105h68v-20h-68v-168h-20z" />
    <glyph glyph-name="brokenbar" unicode="&#xa6;" 
d="M97 -238v487h20v-487h-20zM97 479v483h20v-483h-20z" />
    <glyph glyph-name="section" unicode="&#xa7;" horiz-adv-x="233" 
d="M51 96q-3 -24 -3 -77q0 -37 2.5 -58.5t8.5 -38.5q7 -17 16.5 -25t26.5 -8q34 0 47 30q8 18 11.5 45t3.5 78q0 33 -1 54.5t-4 36t-7 23t-10 16.5q-11 13 -25 22.5t-28 19.5t-27 21.5t-22 27.5q-4 8 -6.5 17t-4 23.5t-2 37.5t-0.5 59q0 41 4.5 67.5t20.5 52.5q-2 14 -3 39
t-1 73q0 41 3.5 66t12.5 41q10 17 23.5 24t36.5 7t36.5 -7t23.5 -22q11 -16 15 -39t4 -65q0 -29 -1 -48.5t-3 -30.5h-21q2 11 3 30.5t1 48.5q0 38 -4 58t-12 34q-13 21 -42 21q-31 0 -42 -21q-8 -14 -11 -35.5t-3 -61.5q0 -36 0.5 -57.5t2 -35t4 -21t5.5 -14.5
q7 -15 19.5 -25.5t26.5 -20.5t28 -19.5t25 -22.5q8 -9 13 -19t8 -25t4 -38.5t1 -59.5q0 -48 -3 -81t-22 -64q2 -15 3 -36t1 -51q0 -52 -3 -82.5t-14 -50.5q-10 -20 -25.5 -30t-39.5 -10q-26 0 -40 10.5t-23 33.5q-6 17 -8.5 41.5t-2.5 64.5q0 29 0.5 46.5t2.5 30.5h20z
M175 160q6 17 8 43.5t2 70.5q0 33 -1 54.5t-4 36t-7 23t-10 16.5q-11 13 -24.5 22.5t-27.5 19.5t-26.5 22t-21.5 29h-4q-6 -14 -9 -35.5t-3 -61.5q0 -36 0.5 -57.5t2 -35t4 -21t5.5 -14.5q7 -15 19.5 -25.5t26.5 -20.5t28 -19.5t25 -22.5q8 -10 13 -24h4z" />
    <glyph glyph-name="dieresis" unicode="&#xa8;" horiz-adv-x="174" 
d="M122 623v102h20v-102h-20zM32 623v102h20v-102h-20z" />
    <glyph glyph-name="ordfeminine" unicode="&#xaa;" horiz-adv-x="139" 
d="M126 390q-4 -7 -13 -7q-11 0 -17 9q-5 -4 -12 -6.5t-16 -2.5q-12 0 -20.5 2.5t-14 13t-8 32t-2.5 59.5q0 35 2 56t6.5 31.5t12 13.5t18.5 3q20 0 28 -11l3 2v25q0 26 -1.5 42t-4 24.5t-7 11t-10.5 2.5q-14 0 -18.5 -12.5t-4.5 -54.5v-9.5t1 -9.5h-20q-1 5 -1 9v10
q0 28 2 45t7 26.5t13.5 12.5t20.5 3q13 0 21 -3t13 -13t7 -30t2 -54v-203q0 -4 3 -4t6 4h4v-17zM93 562q-8 12 -24 12q-8 0 -13 -2.5t-8 -11t-4 -25t-1 -45.5t1.5 -46t4.5 -26t8 -12t11 -3q9 0 16 3t9 6v150z" />
    <glyph glyph-name="guillemotleft" unicode="&#xab;" horiz-adv-x="204" 
d="M25 235zM104 235l-79 138v13l79 138h4v-33l-64 -110v-4l64 -109v-33h-4zM174 235l-79 138v13l79 138h4v-33l-64 -110v-4l64 -109v-33h-4z" />
    <glyph glyph-name="logicalnot" unicode="&#xac;" 
d="M172 0v418h-149v20h169v-438h-20z" />
    <glyph glyph-name="macron" unicode="&#xaf;" horiz-adv-x="224" 
d="M32 670v20h160v-20h-160z" />
    <glyph glyph-name="degree" unicode="&#xb0;" horiz-adv-x="168" 
d="M131 472q-5 -16 -16 -21.5t-32 -5.5q-20 0 -30.5 5.5t-15.5 21.5q-3 7 -4.5 16t-3 24.5t-2 40.5t-0.5 64t0.5 63.5t1.5 39.5t3 24t5 17q5 14 15.5 20.5t30.5 6.5q21 0 32 -6.5t16 -20.5q3 -8 4.5 -17t3 -24t2 -39.5t0.5 -63.5t-0.5 -64t-2 -40.5t-3 -24.5t-4.5 -16z
M112 478q2 7 4 15t3 23t1.5 39t0.5 62t-0.5 61.5t-1.5 38t-2.5 22.5t-4.5 15q-3 8 -9 11t-20 3q-12 0 -18 -3t-9 -11q-3 -7 -4.5 -15.5t-2.5 -23t-1.5 -38t-0.5 -60.5q0 -38 0.5 -62t1.5 -39t3 -23t4 -15q4 -13 27 -13q25 0 29 13z" />
    <glyph glyph-name="plusminus" unicode="&#xb1;" 
d="M23 89zM97 294v75h-74v20h74v74h20v-74h75v-20h-75v-75h-20zM23 89v20h169v-20h-169z" />
    <glyph glyph-name="twosuperior" unicode="&#xb2;" horiz-adv-x="148" 
d="M22 348zM22 348v23l51 113q9 19 15 36t10 34.5t6 37t2 44.5q0 37 -2 60t-6 36t-10 18t-13 5q-17 0 -23 -21.5t-6 -84.5v-25.5t1 -21.5h-20q-1 10 -1 21.5v25.5q0 36 1.5 60t7 38.5t15 21t25.5 6.5q14 0 23.5 -5.5t15.5 -21t8.5 -42.5t2.5 -70q0 -25 -1 -43.5t-4.5 -36
t-10 -36.5t-18.5 -44l-50 -108h82v-20h-101z" />
    <glyph glyph-name="threesuperior" unicode="&#xb3;" horiz-adv-x="148" 
d="M23 341zM44 501q-1 -7 -1 -14v-14q0 -64 6 -88t23 -24q20 0 25.5 23t5.5 80q0 31 -1.5 49t-4.5 27.5t-9 12.5t-15 3h-29v20h29q9 0 14.5 2t8.5 10t4 24t1 44q0 31 -1.5 50.5t-5 30.5t-9 14.5t-13.5 3.5t-13.5 -4.5t-9 -16.5t-5 -33t-1.5 -53v-10t1 -13h-20q-1 8 -1 13v10
q0 37 2 62t7.5 39t15 20t24.5 6t25 -4t15 -17t7 -36t2 -62q0 -24 -0.5 -39.5t-2.5 -25t-5 -15t-7 -9.5q6 -6 9.5 -12.5t5 -17.5t2 -28.5t0.5 -44.5q0 -69 -9 -96t-42 -27q-32 0 -40.5 32t-8.5 100v14t1 14h20z" />
    <glyph glyph-name="acute" unicode="&#xb4;" horiz-adv-x="156" 
d="M43 592v4l71 169h21v-4l-76 -169h-16z" />
    <glyph glyph-name="paragraph" unicode="&#xb6;" horiz-adv-x="239" 
d="M187 -102v839h-64v-839h-20v564h-26q-32 0 -43.5 33.5t-11.5 116.5q0 81 11.5 113t43.5 32h130v-859h-20z" />
    <glyph glyph-name="periodcentered" unicode="&#xb7;" horiz-adv-x="84" 
d="M32 324zM32 324v101h20v-101h-20z" />
    <glyph glyph-name="cedilla" unicode="&#xb8;" horiz-adv-x="141" 
d="M32 -238v4l56 193h21v-4l-61 -193h-16z" />
    <glyph glyph-name="onesuperior" unicode="&#xb9;" horiz-adv-x="148" 
d="M27 348zM27 348v20h36v314h-36v20h26q12 0 12 17l1 48h17v-399h37v-20h-93z" />
    <glyph glyph-name="ordmasculine" unicode="&#xba;" horiz-adv-x="142" 
d="M110 413q-5 -17 -14 -23.5t-26 -6.5t-26 6.5t-14 23.5q-2 6 -3.5 14t-2 22.5t-1 38t-0.5 60.5v59t1 37t2.5 22.5t3.5 15.5q5 16 14 22t26 6t26.5 -6t13.5 -22q2 -7 3 -15.5t2 -22.5t1 -37v-59q0 -37 -0.5 -60.5t-1 -38t-2 -22.5t-2.5 -14zM91 418q1 5 2 12.5t1.5 21
t1 36.5t0.5 60v58.5t-1 36t-2 21t-2 13.5q-3 13 -21 13q-17 0 -21 -14q-2 -6 -3 -13.5t-2 -21.5t-1 -36v-57q0 -36 0.5 -59t1 -37t1.5 -21.5t3 -12.5q4 -15 21 -15t21 15z" />
    <glyph glyph-name="guillemotright" unicode="&#xbb;" horiz-adv-x="204" 
d="M25 235zM25 235v33l64 109v4l-64 110v33h4l79 -138v-13l-79 -138h-4zM95 235v33l64 109v4l-64 110v33h4l79 -138v-13l-79 -138h-4z" />
    <glyph glyph-name="onequarter" unicode="&#xbc;" horiz-adv-x="280" 
d="M13 0zM13 348v20h36v314h-36v20h26q12 0 12 17l1 48h17v-399h37v-20h-93zM40 0v4l192 753h20v-4l-193 -753h-19zM229 -10v96h-70v21l62 302h28v-303h14v-20h-14v-96h-20zM229 339h-4l-47 -233h51v233z" />
    <glyph glyph-name="onehalf" unicode="&#xbd;" horiz-adv-x="280" 
d="M9 0zM9 348v20h36v314h-36v20h26q12 0 12 17l1 48h17v-399h37v-20h-93zM28 0v4l192 753h20v-4l-193 -753h-19zM167 -10v23l51 113q9 19 15 36t10 34.5t6 37t2 44.5q0 37 -2 60t-6 36t-10 18t-13 5q-17 0 -23 -21.5t-6 -84.5v-25.5t1 -21.5h-20q-1 10 -1 21.5v25.5
q0 36 1.5 60t7 38.5t15 21t25.5 6.5q14 0 23.5 -5.5t15.5 -21t8.5 -42.5t2.5 -70q0 -25 -1 -43.5t-4.5 -36t-10 -36.5t-18.5 -44l-50 -108h82v-20h-101z" />
    <glyph glyph-name="threequarters" unicode="&#xbe;" horiz-adv-x="280" 
d="M19 0zM40 501q-1 -7 -1 -14v-14q0 -64 6 -88t23 -24q20 0 25.5 23t5.5 80q0 31 -1.5 49t-4.5 27.5t-9 12.5t-15 3h-29v20h29q9 0 14.5 2t8.5 10t4 24t1 44q0 31 -1.5 50.5t-5 30.5t-9 14.5t-13.5 3.5t-13.5 -4.5t-9 -16.5t-5 -33t-1.5 -53v-10t1 -13h-20q-1 8 -1 13v10
q0 37 2 62t7.5 39t15 20t24.5 6t25 -4t15 -17t7 -36t2 -62q0 -24 -0.5 -39.5t-2.5 -25t-5 -15t-7 -9.5q6 -6 9.5 -12.5t5 -17.5t2 -28.5t0.5 -44.5q0 -69 -9 -96t-42 -27q-32 0 -40.5 32t-8.5 100v14t1 14h20zM44 0v4l192 753h20v-4l-193 -753h-19zM227 -10v96h-70v21
l62 302h28v-303h14v-20h-14v-96h-20zM227 339h-4l-47 -233h51v233z" />
    <glyph glyph-name="questiondown" unicode="&#xbf;" horiz-adv-x="201" 
d="M172 38q1 -7 1.5 -13t0.5 -14.5v-21v-32.5q0 -48 -4 -80t-12.5 -51.5t-22.5 -27.5t-34 -8q-23 0 -37.5 10t-22.5 32.5t-11.5 59t-3.5 89.5q0 50 5.5 82t16.5 61t21.5 46t17.5 36q7 18 8.5 31.5t1.5 43.5v34.5t-1 17.5h20q1 -8 1 -17.5v-34.5q0 -16 -0.5 -27t-1.5 -20
t-3.5 -18t-6.5 -19q-7 -18 -17 -35.5t-22 -46.5q-11 -28 -15.5 -57t-4.5 -77t2.5 -80.5t8.5 -52.5t16.5 -29t27.5 -9q15 0 25 7t16 24t9 45.5t3 70.5v31.5v21t-0.5 15t-1.5 13.5h20zM96 409v151h20v-151h-20z" />
    <glyph glyph-name="Agrave" unicode="&#xc0;" horiz-adv-x="210" 
d="M21 0zM169 0l-20 238h-87l-21 -238h-20l69 757h36l63 -757h-20zM116 645q-2 25 -3.5 46.5t-2.5 44.5h-4q-1 -23 -3 -44.5t-4 -46.5l-35 -387h84zM101 789l-76 169v4h21l71 -169v-4h-16z" />
    <glyph glyph-name="Aacute" unicode="&#xc1;" horiz-adv-x="210" 
d="M21 0zM169 0l-20 238h-87l-21 -238h-20l69 757h36l63 -757h-20zM116 645q-2 25 -3.5 46.5t-2.5 44.5h-4q-1 -23 -3 -44.5t-4 -46.5l-35 -387h84zM97 789v4l71 169h21v-4l-76 -169h-16z" />
    <glyph glyph-name="Acircumflex" unicode="&#xc2;" horiz-adv-x="210" 
d="M21 0zM169 0l-20 238h-87l-21 -238h-20l69 757h36l63 -757h-20zM116 645q-2 25 -3.5 46.5t-2.5 44.5h-4q-1 -23 -3 -44.5t-4 -46.5l-35 -387h84zM157 789l-48 141h-4l-48 -141h-20v4l60 169h20l60 -169v-4h-20z" />
    <glyph glyph-name="Atilde" unicode="&#xc3;" horiz-adv-x="210" 
d="M21 0zM169 0l-20 238h-87l-21 -238h-20l69 757h36l63 -757h-20zM116 645q-2 25 -3.5 46.5t-2.5 44.5h-4q-1 -23 -3 -44.5t-4 -46.5l-35 -387h84zM187 869q-11 -27 -37 -27q-15 0 -26.5 7.5t-21.5 18.5t-18 16t-20 5q-8 0 -12.5 -2t-10.5 -9q-7 -9 -10 -20h-4v24
q11 27 37 27q16 0 28 -8.5t23 -20.5q14 -18 35 -18q8 0 12.5 2t10.5 9q7 9 10 20h4v-24z" />
    <glyph glyph-name="Adieresis" unicode="&#xc4;" horiz-adv-x="210" 
d="M21 0zM169 0l-20 238h-87l-21 -238h-20l69 757h36l63 -757h-20zM116 645q-2 25 -3.5 46.5t-2.5 44.5h-4q-1 -23 -3 -44.5t-4 -46.5l-35 -387h84zM142 820v102h20v-102h-20zM52 820v102h20v-102h-20z" />
    <glyph glyph-name="Aring" unicode="&#xc5;" horiz-adv-x="210" 
d="M21 0zM169 0l-20 238h-87l-21 -238h-20l69 757h36l63 -757h-20zM116 645q-2 25 -3.5 46.5t-2.5 44.5h-4q-1 -23 -3 -44.5t-4 -46.5l-35 -387h84zM141 790q-5 -8 -11.5 -11.5t-22.5 -3.5t-22.5 3.5t-11.5 11.5q-2 4 -3.5 8.5t-2.5 12.5t-1.5 21.5t-0.5 36.5q0 22 0.5 35.5
t1.5 21.5t2.5 12.5t3.5 8.5q5 8 11.5 11.5t22.5 3.5t22.5 -3.5t11.5 -11.5q2 -4 3.5 -8.5t2.5 -12.5t1.5 -21.5t0.5 -35.5q0 -23 -0.5 -36.5t-1.5 -21.5t-2.5 -12.5t-3.5 -8.5zM125 801q1 2 2 5t1.5 9.5t0.5 19v34.5v34t-0.5 19t-1.5 9.5t-2 4.5q-2 4 -5.5 5t-12.5 1
t-12.5 -1t-5.5 -5q-1 -2 -2 -4.5t-1.5 -9.5t-0.5 -19v-34v-34.5t0.5 -19t1.5 -9.5t2 -5q2 -4 5.5 -5t12.5 -1t12.5 1t5.5 5z" />
    <glyph glyph-name="AE" unicode="&#xc6;" horiz-adv-x="310" 
d="M146 0v238h-84l-21 -238h-20l69 757h190v-20h-114v-342h112v-20h-112v-355h113v-20h-133zM146 737h-39l-43 -479h82v479z" />
    <glyph glyph-name="Ccedilla" unicode="&#xc7;" horiz-adv-x="216" 
d="M26 0zM187 290q1 -17 1 -33v-35q0 -66 -3 -112t-14 -75q-9 -24 -23.5 -36t-37.5 -12q-30 0 -45.5 13.5t-23.5 48.5q-4 16 -6.5 38t-4.5 59t-3 94t-1 145t1 143t2.5 90t4.5 55t7 37q8 34 23 47t44 13q50 0 66 -54q8 -27 10.5 -68t2.5 -101v-37t-1 -30h-20q1 17 1 30v37
q0 59 -2 98.5t-10 63.5q-13 41 -47 41q-20 0 -31 -9.5t-17 -35.5q-4 -16 -6.5 -35.5t-4 -53.5t-2.5 -89t-1 -142q0 -88 1 -145t2.5 -93.5t4.5 -57.5t6 -36q6 -26 17 -36t33 -10q17 0 27 9.5t17 29.5q8 26 11 69.5t3 106.5v35.5t-1 32.5h20zM40 -238v4l56 193h21v-4l-61 -193
h-16z" />
    <glyph glyph-name="Egrave" unicode="&#xc8;" horiz-adv-x="191" 
d="M17 0zM32 0v757h134v-20h-114v-342h112v-20h-112v-355h113v-20h-133zM93 789l-76 169v4h21l71 -169v-4h-16z" />
    <glyph glyph-name="Eacute" unicode="&#xc9;" horiz-adv-x="191" 
d="M32 0zM32 0v757h134v-20h-114v-342h112v-20h-112v-355h113v-20h-133zM89 789v4l71 169h21v-4l-76 -169h-16z" />
    <glyph glyph-name="Ecircumflex" unicode="&#xca;" horiz-adv-x="191" 
d="M29 0zM32 0v757h134v-20h-114v-342h112v-20h-112v-355h113v-20h-133zM149 789l-48 141h-4l-48 -141h-20v4l60 169h20l60 -169v-4h-20z" />
    <glyph glyph-name="Edieresis" unicode="&#xcb;" horiz-adv-x="191" 
d="M32 0zM32 0v757h134v-20h-114v-342h112v-20h-112v-355h113v-20h-133zM133 820v102h20v-102h-20zM43 820v102h20v-102h-20z" />
    <glyph glyph-name="Igrave" unicode="&#xcc;" horiz-adv-x="104" 
d="M0 0zM51 0v757h20v-757h-20zM55 789l-76 169v4h21l71 -169v-4h-16z" />
    <glyph glyph-name="Iacute" unicode="&#xcd;" horiz-adv-x="104" 
d="M33 0zM33 0v757h20v-757h-20zM33 789v4l71 169h21v-4l-76 -169h-16z" />
    <glyph glyph-name="Icircumflex" unicode="&#xce;" horiz-adv-x="110" 
d="M0 0zM45 0v757h20v-757h-20zM105 789l-48 141h-4l-48 -141h-20v4l60 169h20l60 -169v-4h-20z" />
    <glyph glyph-name="Idieresis" unicode="&#xcf;" horiz-adv-x="115" 
d="M2 0zM47 0v757h20v-757h-20zM92 820v102h20v-102h-20zM2 820v102h20v-102h-20z" />
    <glyph glyph-name="Eth" unicode="&#xd0;" horiz-adv-x="221" 
d="M29 0v375h-14v20h14v362h84q29 0 43 -12.5t24 -47.5q5 -17 8 -36.5t4.5 -53.5t2 -88t0.5 -140q0 -92 -1 -147t-2.5 -88.5t-4 -51.5t-6.5 -34q-8 -34 -22 -46t-46 -12h-84zM113 20q23 0 32.5 8.5t15.5 33.5q4 16 6.5 34t4 51t2.5 87.5t1 144.5q0 85 -0.5 138.5t-2 87
t-4.5 52t-7 34.5q-8 26 -18 36t-30 10h-64v-342h83v-20h-83v-355h64z" />
    <glyph glyph-name="Ntilde" unicode="&#xd1;" horiz-adv-x="226" 
d="M31 0zM179 0l-124 723h-4v-723h-20v757h39l88 -520q5 -26 8.5 -51.5t6.5 -50.5h4q-2 25 -2 54.5v57.5v510h20v-757h-16zM193 869q-11 -27 -37 -27q-15 0 -26.5 7.5t-21.5 18.5t-18 16t-20 5q-8 0 -12.5 -2t-10.5 -9q-7 -9 -10 -20h-4v24q11 27 37 27q16 0 28 -8.5
t23 -20.5q14 -18 35 -18q8 0 12.5 2t10.5 9q7 9 10 20h4v-24z" />
    <glyph glyph-name="Ograve" unicode="&#xd2;" 
d="M25 0zM41 49q-4 17 -7 37.5t-4.5 55.5t-2.5 91.5t-1 145.5t1 145t2.5 91t4.5 55t7 38q8 35 23 48.5t44 13.5t44 -13.5t23 -48.5q4 -18 6.5 -38t4 -55t2.5 -91t1 -145t-1 -145.5t-2.5 -91.5t-4 -55.5t-6.5 -37.5q-8 -35 -23 -48.5t-44 -13.5t-44 13.5t-23 48.5zM155 53
q4 17 6.5 37.5t4 55t2.5 90t1 143.5t-0.5 143t-2 89.5t-4 54.5t-6.5 37q-5 26 -16.5 36.5t-31.5 10.5t-30.5 -10t-16.5 -36q-4 -17 -6.5 -36.5t-4.5 -54t-3 -90t-1 -144.5t1 -145t2.5 -91t4 -54.5t6.5 -35.5q6 -26 17 -36t31 -10t31 10t16 36zM101 789l-76 169v4h21l71 -169
v-4h-16z" />
    <glyph glyph-name="Oacute" unicode="&#xd3;" 
d="M26 0zM41 49q-4 17 -7 37.5t-4.5 55.5t-2.5 91.5t-1 145.5t1 145t2.5 91t4.5 55t7 38q8 35 23 48.5t44 13.5t44 -13.5t23 -48.5q4 -18 6.5 -38t4 -55t2.5 -91t1 -145t-1 -145.5t-2.5 -91.5t-4 -55.5t-6.5 -37.5q-8 -35 -23 -48.5t-44 -13.5t-44 13.5t-23 48.5zM155 53
q4 17 6.5 37.5t4 55t2.5 90t1 143.5t-0.5 143t-2 89.5t-4 54.5t-6.5 37q-5 26 -16.5 36.5t-31.5 10.5t-30.5 -10t-16.5 -36q-4 -17 -6.5 -36.5t-4.5 -54t-3 -90t-1 -144.5t1 -145t2.5 -91t4 -54.5t6.5 -35.5q6 -26 17 -36t31 -10t31 10t16 36zM97 789v4l71 169h21v-4
l-76 -169h-16z" />
    <glyph glyph-name="Ocircumflex" unicode="&#xd4;" 
d="M26 0zM41 49q-4 17 -7 37.5t-4.5 55.5t-2.5 91.5t-1 145.5t1 145t2.5 91t4.5 55t7 38q8 35 23 48.5t44 13.5t44 -13.5t23 -48.5q4 -18 6.5 -38t4 -55t2.5 -91t1 -145t-1 -145.5t-2.5 -91.5t-4 -55.5t-6.5 -37.5q-8 -35 -23 -48.5t-44 -13.5t-44 13.5t-23 48.5zM155 53
q4 17 6.5 37.5t4 55t2.5 90t1 143.5t-0.5 143t-2 89.5t-4 54.5t-6.5 37q-5 26 -16.5 36.5t-31.5 10.5t-30.5 -10t-16.5 -36q-4 -17 -6.5 -36.5t-4.5 -54t-3 -90t-1 -144.5t1 -145t2.5 -91t4 -54.5t6.5 -35.5q6 -26 17 -36t31 -10t31 10t16 36zM157 789l-48 141h-4l-48 -141
h-20v4l60 169h20l60 -169v-4h-20z" />
    <glyph glyph-name="Otilde" unicode="&#xd5;" 
d="M26 0zM41 49q-4 17 -7 37.5t-4.5 55.5t-2.5 91.5t-1 145.5t1 145t2.5 91t4.5 55t7 38q8 35 23 48.5t44 13.5t44 -13.5t23 -48.5q4 -18 6.5 -38t4 -55t2.5 -91t1 -145t-1 -145.5t-2.5 -91.5t-4 -55.5t-6.5 -37.5q-8 -35 -23 -48.5t-44 -13.5t-44 13.5t-23 48.5zM155 53
q4 17 6.5 37.5t4 55t2.5 90t1 143.5t-0.5 143t-2 89.5t-4 54.5t-6.5 37q-5 26 -16.5 36.5t-31.5 10.5t-30.5 -10t-16.5 -36q-4 -17 -6.5 -36.5t-4.5 -54t-3 -90t-1 -144.5t1 -145t2.5 -91t4 -54.5t6.5 -35.5q6 -26 17 -36t31 -10t31 10t16 36zM188 869q-11 -27 -37 -27
q-15 0 -26.5 7.5t-21.5 18.5t-18 16t-20 5q-8 0 -12.5 -2t-10.5 -9q-7 -9 -10 -20h-4v24q11 27 37 27q16 0 28 -8.5t23 -20.5q14 -18 35 -18q8 0 12.5 2t10.5 9q7 9 10 20h4v-24z" />
    <glyph glyph-name="Odieresis" unicode="&#xd6;" 
d="M26 0zM41 49q-4 17 -7 37.5t-4.5 55.5t-2.5 91.5t-1 145.5t1 145t2.5 91t4.5 55t7 38q8 35 23 48.5t44 13.5t44 -13.5t23 -48.5q4 -18 6.5 -38t4 -55t2.5 -91t1 -145t-1 -145.5t-2.5 -91.5t-4 -55.5t-6.5 -37.5q-8 -35 -23 -48.5t-44 -13.5t-44 13.5t-23 48.5zM155 53
q4 17 6.5 37.5t4 55t2.5 90t1 143.5t-0.5 143t-2 89.5t-4 54.5t-6.5 37q-5 26 -16.5 36.5t-31.5 10.5t-30.5 -10t-16.5 -36q-4 -17 -6.5 -36.5t-4.5 -54t-3 -90t-1 -144.5t1 -145t2.5 -91t4 -54.5t6.5 -35.5q6 -26 17 -36t31 -10t31 10t16 36zM142 820v102h20v-102h-20z
M52 820v102h20v-102h-20z" />
    <glyph glyph-name="multiply" unicode="&#xd7;" 
d="M108 365l-60 -61l-15 15l61 60l-60 59l14 14l60 -59l59 59l14 -14l-59 -59l60 -60l-14 -15z" />
    <glyph glyph-name="Oslash" unicode="&#xd8;" 
d="M29 -130l20 151q-3 6 -4.5 13t-3.5 15q-4 17 -7 37.5t-4.5 55.5t-2.5 91.5t-1 145.5t1 145t2.5 91t4.5 55t7 38q8 35 23 48.5t44 13.5q25 0 39 -10l13 93h20l-16 -115q7 -14 11 -30q4 -18 6.5 -38t4 -55t2.5 -91t1 -145t-1 -145.5t-2.5 -91.5t-4 -55.5t-6.5 -37.5
q-8 -35 -23 -48.5t-44 -13.5q-28 0 -42 11l-17 -128h-20zM69 25q11 -18 39 -18q20 0 31 10t16 36q4 17 6.5 37.5t4 55t2.5 90t1 143.5q0 55 -0.5 96.5t-1 73t-1.5 53.5t-2 39q-1 11 -1.5 23.5t-2.5 21.5h-4q-1 -11 -2 -22.5t-3 -22.5zM57 75q1 10 2 20.5t3 21.5l82 617
q-12 16 -36 16q-20 0 -30.5 -10t-16.5 -36q-4 -17 -6.5 -36.5t-4.5 -54t-3 -90t-1 -144.5q0 -71 0.5 -121.5t1.5 -86t2.5 -58.5t3.5 -38h3z" />
    <glyph glyph-name="Ugrave" unicode="&#xd9;" horiz-adv-x="220" 
d="M28 0zM171 757h20v-569q0 -38 -1 -63.5t-2.5 -42.5t-4 -28.5t-6.5 -21.5q-9 -26 -25 -35.5t-42 -9.5t-42 9.5t-25 35.5q-4 10 -6.5 21.5t-4.5 28.5t-3 42.5t-1 63.5v569h20v-569q0 -37 1 -61t2.5 -40.5t4.5 -27t6 -20.5q6 -18 17.5 -25t30.5 -7t30.5 7t17.5 25
q3 10 5.5 20.5t4 26.5t2.5 40.5t1 61.5v569zM104 789l-76 169v4h21l71 -169v-4h-16z" />
    <glyph glyph-name="Uacute" unicode="&#xda;" horiz-adv-x="220" 
d="M28 0zM171 757h20v-569q0 -38 -1 -63.5t-2.5 -42.5t-4 -28.5t-6.5 -21.5q-9 -26 -25 -35.5t-42 -9.5t-42 9.5t-25 35.5q-4 10 -6.5 21.5t-4.5 28.5t-3 42.5t-1 63.5v569h20v-569q0 -37 1 -61t2.5 -40.5t4.5 -27t6 -20.5q6 -18 17.5 -25t30.5 -7t30.5 7t17.5 25
q3 10 5.5 20.5t4 26.5t2.5 40.5t1 61.5v569zM100 789v4l71 169h21v-4l-76 -169h-16z" />
    <glyph glyph-name="Ucircumflex" unicode="&#xdb;" horiz-adv-x="220" 
d="M28 0zM171 757h20v-569q0 -38 -1 -63.5t-2.5 -42.5t-4 -28.5t-6.5 -21.5q-9 -26 -25 -35.5t-42 -9.5t-42 9.5t-25 35.5q-4 10 -6.5 21.5t-4.5 28.5t-3 42.5t-1 63.5v569h20v-569q0 -37 1 -61t2.5 -40.5t4.5 -27t6 -20.5q6 -18 17.5 -25t30.5 -7t30.5 7t17.5 25
q3 10 5.5 20.5t4 26.5t2.5 40.5t1 61.5v569zM160 789l-48 141h-4l-48 -141h-20v4l60 169h20l60 -169v-4h-20z" />
    <glyph glyph-name="Udieresis" unicode="&#xdc;" horiz-adv-x="220" 
d="M28 0zM171 757h20v-569q0 -38 -1 -63.5t-2.5 -42.5t-4 -28.5t-6.5 -21.5q-9 -26 -25 -35.5t-42 -9.5t-42 9.5t-25 35.5q-4 10 -6.5 21.5t-4.5 28.5t-3 42.5t-1 63.5v569h20v-569q0 -37 1 -61t2.5 -40.5t4.5 -27t6 -20.5q6 -18 17.5 -25t30.5 -7t30.5 7t17.5 25
q3 10 5.5 20.5t4 26.5t2.5 40.5t1 61.5v569zM145 820v102h20v-102h-20zM55 820v102h20v-102h-20z" />
    <glyph glyph-name="Yacute" unicode="&#xdd;" horiz-adv-x="203" 
d="M14 0zM91 0v385l-77 368v4h20l55 -274q3 -17 5.5 -32l4.5 -27h4l4.5 27t5.5 32l56 274h20v-4l-78 -368v-385h-20zM91 789v4l71 169h21v-4l-76 -169h-16z" />
    <glyph glyph-name="Thorn" unicode="&#xde;" 
d="M32 0v757h20v-116h70q20 0 33.5 -13.5t21.5 -44t11 -80.5t3 -123q0 -74 -3 -125.5t-11 -83.5t-21.5 -46t-33.5 -14h-70v-111h-20zM122 131q14 0 23.5 13t15 42.5t8 77t2.5 116.5q0 67 -2.5 113.5t-8 74.5t-15 40.5t-23.5 12.5h-70v-490h70z" />
    <glyph glyph-name="germandbls" unicode="&#xdf;" horiz-adv-x="294" 
d="M42 0v640q0 34 2.5 56t10.5 37q11 20 26 27t40 7q23 0 39 -7t24 -27q11 -28 11 -93v-118q0 -23 3.5 -33.5t11.5 -20.5q13 -17 22 -28t18 -26q11 -20 14.5 -52t3.5 -94q0 -65 -1 -106t-3 -65.5t-4.5 -38t-5.5 -24.5q-8 -27 -22 -37t-40 -10q-25 0 -38 10t-20 37
q-8 30 -10 65t-2 69v22.5t1 23.5h20q-1 -12 -1 -23.5v-22.5q0 -33 2 -67t9 -62q5 -18 13.5 -25t25.5 -7q18 0 28 7t15 25q3 10 5 23t4 37.5t3 64.5t1 104q0 57 -3 88t-12 48q-9 16 -16.5 25.5t-22.5 26.5q-9 11 -14 25.5t-5 40.5v118q0 32 -2.5 51t-7.5 32q-6 14 -16.5 19
t-27.5 5q-20 0 -30.5 -5t-18.5 -19q-7 -14 -8.5 -32t-1.5 -51v-640h-20z" />
    <glyph glyph-name="agrave" unicode="&#xe0;" horiz-adv-x="210" 
d="M21 0zM169 0l-20 238h-87l-21 -238h-20l69 757h36l63 -757h-20zM116 645q-2 25 -3.5 46.5t-2.5 44.5h-4q-1 -23 -3 -44.5t-4 -46.5l-35 -387h84zM101 789l-76 169v4h21l71 -169v-4h-16z" />
    <glyph glyph-name="aacute" unicode="&#xe1;" horiz-adv-x="210" 
d="M21 0zM169 0l-20 238h-87l-21 -238h-20l69 757h36l63 -757h-20zM116 645q-2 25 -3.5 46.5t-2.5 44.5h-4q-1 -23 -3 -44.5t-4 -46.5l-35 -387h84zM97 789v4l71 169h21v-4l-76 -169h-16z" />
    <glyph glyph-name="acircumflex" unicode="&#xe2;" horiz-adv-x="210" 
d="M21 0zM169 0l-20 238h-87l-21 -238h-20l69 757h36l63 -757h-20zM116 645q-2 25 -3.5 46.5t-2.5 44.5h-4q-1 -23 -3 -44.5t-4 -46.5l-35 -387h84zM157 789l-48 141h-4l-48 -141h-20v4l60 169h20l60 -169v-4h-20z" />
    <glyph glyph-name="atilde" unicode="&#xe3;" horiz-adv-x="210" 
d="M21 0zM169 0l-20 238h-87l-21 -238h-20l69 757h36l63 -757h-20zM116 645q-2 25 -3.5 46.5t-2.5 44.5h-4q-1 -23 -3 -44.5t-4 -46.5l-35 -387h84zM187 869q-11 -27 -37 -27q-15 0 -26.5 7.5t-21.5 18.5t-18 16t-20 5q-8 0 -12.5 -2t-10.5 -9q-7 -9 -10 -20h-4v24
q11 27 37 27q16 0 28 -8.5t23 -20.5q14 -18 35 -18q8 0 12.5 2t10.5 9q7 9 10 20h4v-24z" />
    <glyph glyph-name="adieresis" unicode="&#xe4;" horiz-adv-x="210" 
d="M21 0zM169 0l-20 238h-87l-21 -238h-20l69 757h36l63 -757h-20zM116 645q-2 25 -3.5 46.5t-2.5 44.5h-4q-1 -23 -3 -44.5t-4 -46.5l-35 -387h84zM142 820v102h20v-102h-20zM52 820v102h20v-102h-20z" />
    <glyph glyph-name="aring" unicode="&#xe5;" horiz-adv-x="210" 
d="M21 0zM169 0l-20 238h-87l-21 -238h-20l69 757h36l63 -757h-20zM116 645q-2 25 -3.5 46.5t-2.5 44.5h-4q-1 -23 -3 -44.5t-4 -46.5l-35 -387h84zM141 790q-5 -8 -11.5 -11.5t-22.5 -3.5t-22.5 3.5t-11.5 11.5q-2 4 -3.5 8.5t-2.5 12.5t-1.5 21.5t-0.5 36.5q0 22 0.5 35.5
t1.5 21.5t2.5 12.5t3.5 8.5q5 8 11.5 11.5t22.5 3.5t22.5 -3.5t11.5 -11.5q2 -4 3.5 -8.5t2.5 -12.5t1.5 -21.5t0.5 -35.5q0 -23 -0.5 -36.5t-1.5 -21.5t-2.5 -12.5t-3.5 -8.5zM125 801q1 2 2 5t1.5 9.5t0.5 19v34.5v34t-0.5 19t-1.5 9.5t-2 4.5q-2 4 -5.5 5t-12.5 1
t-12.5 -1t-5.5 -5q-1 -2 -2 -4.5t-1.5 -9.5t-0.5 -19v-34v-34.5t0.5 -19t1.5 -9.5t2 -5q2 -4 5.5 -5t12.5 -1t12.5 1t5.5 5z" />
    <glyph glyph-name="ae" unicode="&#xe6;" horiz-adv-x="310" 
d="M21 0zM146 0v238h-84l-21 -238h-20l69 757h190v-20h-114v-342h112v-20h-112v-355h113v-20h-133zM146 737h-39l-43 -479h82v479z" />
    <glyph glyph-name="ccedilla" unicode="&#xe7;" horiz-adv-x="216" 
d="M26 0zM187 290q1 -17 1 -33v-35q0 -66 -3 -112t-14 -75q-9 -24 -23.5 -36t-37.5 -12q-30 0 -45.5 13.5t-23.5 48.5q-4 16 -6.5 38t-4.5 59t-3 94t-1 145t1 143t2.5 90t4.5 55t7 37q8 34 23 47t44 13q50 0 66 -54q8 -27 10.5 -68t2.5 -101v-37t-1 -30h-20q1 17 1 30v37
q0 59 -2 98.5t-10 63.5q-13 41 -47 41q-20 0 -31 -9.5t-17 -35.5q-4 -16 -6.5 -35.5t-4 -53.5t-2.5 -89t-1 -142q0 -88 1 -145t2.5 -93.5t4.5 -57.5t6 -36q6 -26 17 -36t33 -10q17 0 27 9.5t17 29.5q8 26 11 69.5t3 106.5v35.5t-1 32.5h20zM40 -238v4l56 193h21v-4l-61 -193
h-16z" />
    <glyph glyph-name="egrave" unicode="&#xe8;" horiz-adv-x="191" 
d="M17 0zM32 0v757h134v-20h-114v-342h112v-20h-112v-355h113v-20h-133zM93 789l-76 169v4h21l71 -169v-4h-16z" />
    <glyph glyph-name="eacute" unicode="&#xe9;" horiz-adv-x="191" 
d="M32 0zM32 0v757h134v-20h-114v-342h112v-20h-112v-355h113v-20h-133zM89 789v4l71 169h21v-4l-76 -169h-16z" />
    <glyph glyph-name="ecircumflex" unicode="&#xea;" horiz-adv-x="191" 
d="M29 0zM32 0v757h134v-20h-114v-342h112v-20h-112v-355h113v-20h-133zM149 789l-48 141h-4l-48 -141h-20v4l60 169h20l60 -169v-4h-20z" />
    <glyph glyph-name="edieresis" unicode="&#xeb;" horiz-adv-x="191" 
d="M32 0zM32 0v757h134v-20h-114v-342h112v-20h-112v-355h113v-20h-133zM133 820v102h20v-102h-20zM43 820v102h20v-102h-20z" />
    <glyph glyph-name="igrave" unicode="&#xec;" horiz-adv-x="104" 
d="M0 0zM51 0v757h20v-757h-20zM55 789l-76 169v4h21l71 -169v-4h-16z" />
    <glyph glyph-name="iacute" unicode="&#xed;" horiz-adv-x="104" 
d="M33 0zM33 0v757h20v-757h-20zM33 789v4l71 169h21v-4l-76 -169h-16z" />
    <glyph glyph-name="icircumflex" unicode="&#xee;" horiz-adv-x="110" 
d="M0 0zM45 0v757h20v-757h-20zM105 789l-48 141h-4l-48 -141h-20v4l60 169h20l60 -169v-4h-20z" />
    <glyph glyph-name="idieresis" unicode="&#xef;" horiz-adv-x="115" 
d="M2 0zM47 0v757h20v-757h-20zM92 820v102h20v-102h-20zM2 820v102h20v-102h-20z" />
    <glyph glyph-name="eth" unicode="&#xf0;" horiz-adv-x="221" 
d="M15 0zM29 0v375h-14v20h14v362h84q29 0 43 -12.5t24 -47.5q5 -17 8 -36.5t4.5 -53.5t2 -88t0.5 -140q0 -92 -1 -147t-2.5 -88.5t-4 -51.5t-6.5 -34q-8 -34 -22 -46t-46 -12h-84zM113 20q23 0 32.5 8.5t15.5 33.5q4 16 6.5 34t4 51t2.5 87.5t1 144.5q0 85 -0.5 138.5
t-2 87t-4.5 52t-7 34.5q-8 26 -18 36t-30 10h-64v-342h83v-20h-83v-355h64z" />
    <glyph glyph-name="ntilde" unicode="&#xf1;" horiz-adv-x="226" 
d="M31 0zM179 0l-124 723h-4v-723h-20v757h39l88 -520q5 -26 8.5 -51.5t6.5 -50.5h4q-2 25 -2 54.5v57.5v510h20v-757h-16zM193 869q-11 -27 -37 -27q-15 0 -26.5 7.5t-21.5 18.5t-18 16t-20 5q-8 0 -12.5 -2t-10.5 -9q-7 -9 -10 -20h-4v24q11 27 37 27q16 0 28 -8.5
t23 -20.5q14 -18 35 -18q8 0 12.5 2t10.5 9q7 9 10 20h4v-24z" />
    <glyph glyph-name="ograve" unicode="&#xf2;" 
d="M25 0zM41 49q-4 17 -7 37.5t-4.5 55.5t-2.5 91.5t-1 145.5t1 145t2.5 91t4.5 55t7 38q8 35 23 48.5t44 13.5t44 -13.5t23 -48.5q4 -18 6.5 -38t4 -55t2.5 -91t1 -145t-1 -145.5t-2.5 -91.5t-4 -55.5t-6.5 -37.5q-8 -35 -23 -48.5t-44 -13.5t-44 13.5t-23 48.5zM155 53
q4 17 6.5 37.5t4 55t2.5 90t1 143.5t-0.5 143t-2 89.5t-4 54.5t-6.5 37q-5 26 -16.5 36.5t-31.5 10.5t-30.5 -10t-16.5 -36q-4 -17 -6.5 -36.5t-4.5 -54t-3 -90t-1 -144.5t1 -145t2.5 -91t4 -54.5t6.5 -35.5q6 -26 17 -36t31 -10t31 10t16 36zM101 789l-76 169v4h21l71 -169
v-4h-16z" />
    <glyph glyph-name="oacute" unicode="&#xf3;" 
d="M26 0zM41 49q-4 17 -7 37.5t-4.5 55.5t-2.5 91.5t-1 145.5t1 145t2.5 91t4.5 55t7 38q8 35 23 48.5t44 13.5t44 -13.5t23 -48.5q4 -18 6.5 -38t4 -55t2.5 -91t1 -145t-1 -145.5t-2.5 -91.5t-4 -55.5t-6.5 -37.5q-8 -35 -23 -48.5t-44 -13.5t-44 13.5t-23 48.5zM155 53
q4 17 6.5 37.5t4 55t2.5 90t1 143.5t-0.5 143t-2 89.5t-4 54.5t-6.5 37q-5 26 -16.5 36.5t-31.5 10.5t-30.5 -10t-16.5 -36q-4 -17 -6.5 -36.5t-4.5 -54t-3 -90t-1 -144.5t1 -145t2.5 -91t4 -54.5t6.5 -35.5q6 -26 17 -36t31 -10t31 10t16 36zM97 789v4l71 169h21v-4
l-76 -169h-16z" />
    <glyph glyph-name="ocircumflex" unicode="&#xf4;" 
d="M26 0zM41 49q-4 17 -7 37.5t-4.5 55.5t-2.5 91.5t-1 145.5t1 145t2.5 91t4.5 55t7 38q8 35 23 48.5t44 13.5t44 -13.5t23 -48.5q4 -18 6.5 -38t4 -55t2.5 -91t1 -145t-1 -145.5t-2.5 -91.5t-4 -55.5t-6.5 -37.5q-8 -35 -23 -48.5t-44 -13.5t-44 13.5t-23 48.5zM155 53
q4 17 6.5 37.5t4 55t2.5 90t1 143.5t-0.5 143t-2 89.5t-4 54.5t-6.5 37q-5 26 -16.5 36.5t-31.5 10.5t-30.5 -10t-16.5 -36q-4 -17 -6.5 -36.5t-4.5 -54t-3 -90t-1 -144.5t1 -145t2.5 -91t4 -54.5t6.5 -35.5q6 -26 17 -36t31 -10t31 10t16 36zM157 789l-48 141h-4l-48 -141
h-20v4l60 169h20l60 -169v-4h-20z" />
    <glyph glyph-name="otilde" unicode="&#xf5;" 
d="M26 0zM41 49q-4 17 -7 37.5t-4.5 55.5t-2.5 91.5t-1 145.5t1 145t2.5 91t4.5 55t7 38q8 35 23 48.5t44 13.5t44 -13.5t23 -48.5q4 -18 6.5 -38t4 -55t2.5 -91t1 -145t-1 -145.5t-2.5 -91.5t-4 -55.5t-6.5 -37.5q-8 -35 -23 -48.5t-44 -13.5t-44 13.5t-23 48.5zM155 53
q4 17 6.5 37.5t4 55t2.5 90t1 143.5t-0.5 143t-2 89.5t-4 54.5t-6.5 37q-5 26 -16.5 36.5t-31.5 10.5t-30.5 -10t-16.5 -36q-4 -17 -6.5 -36.5t-4.5 -54t-3 -90t-1 -144.5t1 -145t2.5 -91t4 -54.5t6.5 -35.5q6 -26 17 -36t31 -10t31 10t16 36zM188 869q-11 -27 -37 -27
q-15 0 -26.5 7.5t-21.5 18.5t-18 16t-20 5q-8 0 -12.5 -2t-10.5 -9q-7 -9 -10 -20h-4v24q11 27 37 27q16 0 28 -8.5t23 -20.5q14 -18 35 -18q8 0 12.5 2t10.5 9q7 9 10 20h4v-24z" />
    <glyph glyph-name="odieresis" unicode="&#xf6;" 
d="M26 0zM41 49q-4 17 -7 37.5t-4.5 55.5t-2.5 91.5t-1 145.5t1 145t2.5 91t4.5 55t7 38q8 35 23 48.5t44 13.5t44 -13.5t23 -48.5q4 -18 6.5 -38t4 -55t2.5 -91t1 -145t-1 -145.5t-2.5 -91.5t-4 -55.5t-6.5 -37.5q-8 -35 -23 -48.5t-44 -13.5t-44 13.5t-23 48.5zM155 53
q4 17 6.5 37.5t4 55t2.5 90t1 143.5t-0.5 143t-2 89.5t-4 54.5t-6.5 37q-5 26 -16.5 36.5t-31.5 10.5t-30.5 -10t-16.5 -36q-4 -17 -6.5 -36.5t-4.5 -54t-3 -90t-1 -144.5t1 -145t2.5 -91t4 -54.5t6.5 -35.5q6 -26 17 -36t31 -10t31 10t16 36zM142 820v102h20v-102h-20z
M52 820v102h20v-102h-20z" />
    <glyph glyph-name="divide" unicode="&#xf7;" 
d="M23 168zM23 369v20h169v-20h-169zM97 489v101h20v-101h-20zM97 168v101h20v-101h-20z" />
    <glyph glyph-name="oslash" unicode="&#xf8;" 
d="M26 0zM29 -130l20 151q-3 6 -4.5 13t-3.5 15q-4 17 -7 37.5t-4.5 55.5t-2.5 91.5t-1 145.5t1 145t2.5 91t4.5 55t7 38q8 35 23 48.5t44 13.5q25 0 39 -10l13 93h20l-16 -115q7 -14 11 -30q4 -18 6.5 -38t4 -55t2.5 -91t1 -145t-1 -145.5t-2.5 -91.5t-4 -55.5t-6.5 -37.5
q-8 -35 -23 -48.5t-44 -13.5q-28 0 -42 11l-17 -128h-20zM69 25q11 -18 39 -18q20 0 31 10t16 36q4 17 6.5 37.5t4 55t2.5 90t1 143.5q0 55 -0.5 96.5t-1 73t-1.5 53.5t-2 39q-1 11 -1.5 23.5t-2.5 21.5h-4q-1 -11 -2 -22.5t-3 -22.5zM57 75q1 10 2 20.5t3 21.5l82 617
q-12 16 -36 16q-20 0 -30.5 -10t-16.5 -36q-4 -17 -6.5 -36.5t-4.5 -54t-3 -90t-1 -144.5q0 -71 0.5 -121.5t1.5 -86t2.5 -58.5t3.5 -38h3z" />
    <glyph glyph-name="ugrave" unicode="&#xf9;" horiz-adv-x="220" 
d="M28 0zM171 757h20v-569q0 -38 -1 -63.5t-2.5 -42.5t-4 -28.5t-6.5 -21.5q-9 -26 -25 -35.5t-42 -9.5t-42 9.5t-25 35.5q-4 10 -6.5 21.5t-4.5 28.5t-3 42.5t-1 63.5v569h20v-569q0 -37 1 -61t2.5 -40.5t4.5 -27t6 -20.5q6 -18 17.5 -25t30.5 -7t30.5 7t17.5 25
q3 10 5.5 20.5t4 26.5t2.5 40.5t1 61.5v569zM104 789l-76 169v4h21l71 -169v-4h-16z" />
    <glyph glyph-name="uacute" unicode="&#xfa;" horiz-adv-x="220" 
d="M28 0zM171 757h20v-569q0 -38 -1 -63.5t-2.5 -42.5t-4 -28.5t-6.5 -21.5q-9 -26 -25 -35.5t-42 -9.5t-42 9.5t-25 35.5q-4 10 -6.5 21.5t-4.5 28.5t-3 42.5t-1 63.5v569h20v-569q0 -37 1 -61t2.5 -40.5t4.5 -27t6 -20.5q6 -18 17.5 -25t30.5 -7t30.5 7t17.5 25
q3 10 5.5 20.5t4 26.5t2.5 40.5t1 61.5v569zM100 789v4l71 169h21v-4l-76 -169h-16z" />
    <glyph glyph-name="ucircumflex" unicode="&#xfb;" horiz-adv-x="220" 
d="M28 0zM171 757h20v-569q0 -38 -1 -63.5t-2.5 -42.5t-4 -28.5t-6.5 -21.5q-9 -26 -25 -35.5t-42 -9.5t-42 9.5t-25 35.5q-4 10 -6.5 21.5t-4.5 28.5t-3 42.5t-1 63.5v569h20v-569q0 -37 1 -61t2.5 -40.5t4.5 -27t6 -20.5q6 -18 17.5 -25t30.5 -7t30.5 7t17.5 25
q3 10 5.5 20.5t4 26.5t2.5 40.5t1 61.5v569zM160 789l-48 141h-4l-48 -141h-20v4l60 169h20l60 -169v-4h-20z" />
    <glyph glyph-name="udieresis" unicode="&#xfc;" horiz-adv-x="220" 
d="M28 0zM171 757h20v-569q0 -38 -1 -63.5t-2.5 -42.5t-4 -28.5t-6.5 -21.5q-9 -26 -25 -35.5t-42 -9.5t-42 9.5t-25 35.5q-4 10 -6.5 21.5t-4.5 28.5t-3 42.5t-1 63.5v569h20v-569q0 -37 1 -61t2.5 -40.5t4.5 -27t6 -20.5q6 -18 17.5 -25t30.5 -7t30.5 7t17.5 25
q3 10 5.5 20.5t4 26.5t2.5 40.5t1 61.5v569zM145 820v102h20v-102h-20zM55 820v102h20v-102h-20z" />
    <glyph glyph-name="yacute" unicode="&#xfd;" horiz-adv-x="203" 
d="M14 0zM91 0v385l-77 368v4h20l55 -274q3 -17 5.5 -32l4.5 -27h4l4.5 27t5.5 32l56 274h20v-4l-78 -368v-385h-20zM91 789v4l71 169h21v-4l-76 -169h-16z" />
    <glyph glyph-name="thorn" unicode="&#xfe;" 
d="M32 0zM32 0v757h20v-116h70q20 0 33.5 -13.5t21.5 -44t11 -80.5t3 -123q0 -74 -3 -125.5t-11 -83.5t-21.5 -46t-33.5 -14h-70v-111h-20zM122 131q14 0 23.5 13t15 42.5t8 77t2.5 116.5q0 67 -2.5 113.5t-8 74.5t-15 40.5t-23.5 12.5h-70v-490h70z" />
    <glyph glyph-name="ydieresis" unicode="&#xff;" horiz-adv-x="203" 
d="M14 0zM91 0v385l-77 368v4h20l55 -274q3 -17 5.5 -32l4.5 -27h4l4.5 27t5.5 32l56 274h20v-4l-78 -368v-385h-20zM136 820v102h20v-102h-20zM46 820v102h20v-102h-20z" />
    <glyph glyph-name="Amacron" unicode="&#x100;" horiz-adv-x="210" 
d="M21 0zM169 0l-20 238h-87l-21 -238h-20l69 757h36l63 -757h-20zM116 645q-2 25 -3.5 46.5t-2.5 44.5h-4q-1 -23 -3 -44.5t-4 -46.5l-35 -387h84zM27 867v20h160v-20h-160z" />
    <glyph glyph-name="amacron" unicode="&#x101;" horiz-adv-x="210" 
d="M21 0zM169 0l-20 238h-87l-21 -238h-20l69 757h36l63 -757h-20zM116 645q-2 25 -3.5 46.5t-2.5 44.5h-4q-1 -23 -3 -44.5t-4 -46.5l-35 -387h84zM27 867v20h160v-20h-160z" />
    <glyph glyph-name="Abreve" unicode="&#x102;" horiz-adv-x="210" 
d="M21 0zM169 0l-20 238h-87l-21 -238h-20l69 757h36l63 -757h-20zM116 645q-2 25 -3.5 46.5t-2.5 44.5h-4q-1 -23 -3 -44.5t-4 -46.5l-35 -387h84zM173 962q0 -42 -1 -68t-2.5 -41t-4 -23t-5.5 -14q-7 -13 -18 -20t-35 -7t-35 7t-18 20q-3 6 -5.5 14t-4 23t-2.5 41t-1 68
h20q0 -42 0.5 -67t1.5 -38.5t2.5 -19.5t4.5 -11q5 -11 12 -14t25 -3t25 3t12 14q3 5 4.5 11t2.5 19.5t1.5 38.5t0.5 67h20z" />
    <glyph glyph-name="abreve" unicode="&#x103;" horiz-adv-x="210" 
d="M21 0zM169 0l-20 238h-87l-21 -238h-20l69 757h36l63 -757h-20zM116 645q-2 25 -3.5 46.5t-2.5 44.5h-4q-1 -23 -3 -44.5t-4 -46.5l-35 -387h84zM173 962q0 -42 -1 -68t-2.5 -41t-4 -23t-5.5 -14q-7 -13 -18 -20t-35 -7t-35 7t-18 20q-3 6 -5.5 14t-4 23t-2.5 41t-1 68
h20q0 -42 0.5 -67t1.5 -38.5t2.5 -19.5t4.5 -11q5 -11 12 -14t25 -3t25 3t12 14q3 5 4.5 11t2.5 19.5t1.5 38.5t0.5 67h20z" />
    <glyph glyph-name="Aogonek" unicode="&#x104;" horiz-adv-x="210" 
d="M189 -225q-5 -4 -15.5 -8.5t-26.5 -4.5q-32 0 -46.5 27t-14.5 82q0 26 5.5 50t19.5 41q11 14 25 22.5t33 15.5l-20 238h-87l-21 -238h-20l69 757h36l63 -757q-15 -7 -25.5 -12.5t-17.5 -11t-12 -11.5t-10 -13q-12 -17 -15 -37.5t-3 -43.5q0 -89 41 -89q14 0 22 2.5
t16 8.5h4v-18zM116 645q-2 25 -3.5 46.5t-2.5 44.5h-4q-1 -23 -3 -44.5t-4 -46.5l-35 -387h84z" />
    <glyph glyph-name="aogonek" unicode="&#x105;" horiz-adv-x="210" 
d="M21 0zM189 -225q-5 -4 -15.5 -8.5t-26.5 -4.5q-32 0 -46.5 27t-14.5 82q0 26 5.5 50t19.5 41q11 14 25 22.5t33 15.5l-20 238h-87l-21 -238h-20l69 757h36l63 -757q-15 -7 -25.5 -12.5t-17.5 -11t-12 -11.5t-10 -13q-12 -17 -15 -37.5t-3 -43.5q0 -89 41 -89q14 0 22 2.5
t16 8.5h4v-18zM116 645q-2 25 -3.5 46.5t-2.5 44.5h-4q-1 -23 -3 -44.5t-4 -46.5l-35 -387h84z" />
    <glyph glyph-name="Cacute" unicode="&#x106;" horiz-adv-x="216" 
d="M26 0zM187 290q1 -17 1 -33v-35q0 -66 -3 -112t-14 -75q-9 -24 -23.5 -36t-37.5 -12q-30 0 -45.5 13.5t-23.5 48.5q-4 16 -6.5 38t-4.5 59t-3 94t-1 145t1 143t2.5 90t4.5 55t7 37q8 34 23 47t44 13q50 0 66 -54q8 -27 10.5 -68t2.5 -101v-37t-1 -30h-20q1 17 1 30v37
q0 59 -2 98.5t-10 63.5q-13 41 -47 41q-20 0 -31 -9.5t-17 -35.5q-4 -16 -6.5 -35.5t-4 -53.5t-2.5 -89t-1 -142q0 -88 1 -145t2.5 -93.5t4.5 -57.5t6 -36q6 -26 17 -36t33 -10q17 0 27 9.5t17 29.5q8 26 11 69.5t3 106.5v35.5t-1 32.5h20zM98 789v4l71 169h21v-4l-76 -169
h-16z" />
    <glyph glyph-name="cacute" unicode="&#x107;" horiz-adv-x="216" 
d="M26 0zM187 290q1 -17 1 -33v-35q0 -66 -3 -112t-14 -75q-9 -24 -23.5 -36t-37.5 -12q-30 0 -45.5 13.5t-23.5 48.5q-4 16 -6.5 38t-4.5 59t-3 94t-1 145t1 143t2.5 90t4.5 55t7 37q8 34 23 47t44 13q50 0 66 -54q8 -27 10.5 -68t2.5 -101v-37t-1 -30h-20q1 17 1 30v37
q0 59 -2 98.5t-10 63.5q-13 41 -47 41q-20 0 -31 -9.5t-17 -35.5q-4 -16 -6.5 -35.5t-4 -53.5t-2.5 -89t-1 -142q0 -88 1 -145t2.5 -93.5t4.5 -57.5t6 -36q6 -26 17 -36t33 -10q17 0 27 9.5t17 29.5q8 26 11 69.5t3 106.5v35.5t-1 32.5h20zM98 789v4l71 169h21v-4l-76 -169
h-16z" />
    <glyph glyph-name="Cdotaccent" unicode="&#x10a;" horiz-adv-x="216" 
d="M26 0zM187 290q1 -17 1 -33v-35q0 -66 -3 -112t-14 -75q-9 -24 -23.5 -36t-37.5 -12q-30 0 -45.5 13.5t-23.5 48.5q-4 16 -6.5 38t-4.5 59t-3 94t-1 145t1 143t2.5 90t4.5 55t7 37q8 34 23 47t44 13q50 0 66 -54q8 -27 10.5 -68t2.5 -101v-37t-1 -30h-20q1 17 1 30v37
q0 59 -2 98.5t-10 63.5q-13 41 -47 41q-20 0 -31 -9.5t-17 -35.5q-4 -16 -6.5 -35.5t-4 -53.5t-2.5 -89t-1 -142q0 -88 1 -145t2.5 -93.5t4.5 -57.5t6 -36q6 -26 17 -36t33 -10q17 0 27 9.5t17 29.5q8 26 11 69.5t3 106.5v35.5t-1 32.5h20zM98 820v102h20v-102h-20z" />
    <glyph glyph-name="cdotaccent" unicode="&#x10b;" horiz-adv-x="216" 
d="M26 0zM187 290q1 -17 1 -33v-35q0 -66 -3 -112t-14 -75q-9 -24 -23.5 -36t-37.5 -12q-30 0 -45.5 13.5t-23.5 48.5q-4 16 -6.5 38t-4.5 59t-3 94t-1 145t1 143t2.5 90t4.5 55t7 37q8 34 23 47t44 13q50 0 66 -54q8 -27 10.5 -68t2.5 -101v-37t-1 -30h-20q1 17 1 30v37
q0 59 -2 98.5t-10 63.5q-13 41 -47 41q-20 0 -31 -9.5t-17 -35.5q-4 -16 -6.5 -35.5t-4 -53.5t-2.5 -89t-1 -142q0 -88 1 -145t2.5 -93.5t4.5 -57.5t6 -36q6 -26 17 -36t33 -10q17 0 27 9.5t17 29.5q8 26 11 69.5t3 106.5v35.5t-1 32.5h20zM98 820v102h20v-102h-20z" />
    <glyph glyph-name="Ccaron" unicode="&#x10c;" horiz-adv-x="216" 
d="M26 0zM187 290q1 -17 1 -33v-35q0 -66 -3 -112t-14 -75q-9 -24 -23.5 -36t-37.5 -12q-30 0 -45.5 13.5t-23.5 48.5q-4 16 -6.5 38t-4.5 59t-3 94t-1 145t1 143t2.5 90t4.5 55t7 37q8 34 23 47t44 13q50 0 66 -54q8 -27 10.5 -68t2.5 -101v-37t-1 -30h-20q1 17 1 30v37
q0 59 -2 98.5t-10 63.5q-13 41 -47 41q-20 0 -31 -9.5t-17 -35.5q-4 -16 -6.5 -35.5t-4 -53.5t-2.5 -89t-1 -142q0 -88 1 -145t2.5 -93.5t4.5 -57.5t6 -36q6 -26 17 -36t33 -10q17 0 27 9.5t17 29.5q8 26 11 69.5t3 106.5v35.5t-1 32.5h20zM98 789l-60 169v4h20l48 -141h4
l48 141h20v-4l-60 -169h-20z" />
    <glyph glyph-name="ccaron" unicode="&#x10d;" horiz-adv-x="216" 
d="M26 0zM187 290q1 -17 1 -33v-35q0 -66 -3 -112t-14 -75q-9 -24 -23.5 -36t-37.5 -12q-30 0 -45.5 13.5t-23.5 48.5q-4 16 -6.5 38t-4.5 59t-3 94t-1 145t1 143t2.5 90t4.5 55t7 37q8 34 23 47t44 13q50 0 66 -54q8 -27 10.5 -68t2.5 -101v-37t-1 -30h-20q1 17 1 30v37
q0 59 -2 98.5t-10 63.5q-13 41 -47 41q-20 0 -31 -9.5t-17 -35.5q-4 -16 -6.5 -35.5t-4 -53.5t-2.5 -89t-1 -142q0 -88 1 -145t2.5 -93.5t4.5 -57.5t6 -36q6 -26 17 -36t33 -10q17 0 27 9.5t17 29.5q8 26 11 69.5t3 106.5v35.5t-1 32.5h20zM98 789l-60 169v4h20l48 -141h4
l48 141h20v-4l-60 -169h-20z" />
    <glyph glyph-name="Dcaron" unicode="&#x10e;" horiz-adv-x="224" 
d="M32 0zM32 0v757h84q29 0 43 -12.5t24 -47.5q5 -17 8 -36.5t4.5 -53.5t2 -88t0.5 -140q0 -92 -1 -147t-2.5 -88.5t-4 -51.5t-6.5 -34q-8 -34 -22 -46t-46 -12h-84zM116 20q23 0 32.5 8.5t15.5 33.5q4 16 6.5 34t4 51t2.5 87.5t1 144.5q0 85 -0.5 138.5t-2 87t-4.5 52
t-7 34.5q-8 26 -18 36t-30 10h-64v-717h64zM97 789l-60 169v4h20l48 -141h4l48 141h20v-4l-60 -169h-20z" />
    <glyph glyph-name="dcaron" unicode="&#x10f;" horiz-adv-x="224" 
d="M32 0zM32 0v757h84q29 0 43 -12.5t24 -47.5q5 -17 8 -36.5t4.5 -53.5t2 -88t0.5 -140q0 -92 -1 -147t-2.5 -88.5t-4 -51.5t-6.5 -34q-8 -34 -22 -46t-46 -12h-84zM116 20q23 0 32.5 8.5t15.5 33.5q4 16 6.5 34t4 51t2.5 87.5t1 144.5q0 85 -0.5 138.5t-2 87t-4.5 52
t-7 34.5q-8 26 -18 36t-30 10h-64v-717h64zM97 789l-60 169v4h20l48 -141h4l48 141h20v-4l-60 -169h-20z" />
    <glyph glyph-name="Dcroat" unicode="&#x110;" horiz-adv-x="221" 
d="M15 0zM29 0v375h-14v20h14v362h84q29 0 43 -12.5t24 -47.5q5 -17 8 -36.5t4.5 -53.5t2 -88t0.5 -140q0 -92 -1 -147t-2.5 -88.5t-4 -51.5t-6.5 -34q-8 -34 -22 -46t-46 -12h-84zM113 20q23 0 32.5 8.5t15.5 33.5q4 16 6.5 34t4 51t2.5 87.5t1 144.5q0 85 -0.5 138.5
t-2 87t-4.5 52t-7 34.5q-8 26 -18 36t-30 10h-64v-342h83v-20h-83v-355h64z" />
    <glyph glyph-name="dcroat" unicode="&#x111;" horiz-adv-x="221" 
d="M15 0zM29 0v375h-14v20h14v362h84q29 0 43 -12.5t24 -47.5q5 -17 8 -36.5t4.5 -53.5t2 -88t0.5 -140q0 -92 -1 -147t-2.5 -88.5t-4 -51.5t-6.5 -34q-8 -34 -22 -46t-46 -12h-84zM113 20q23 0 32.5 8.5t15.5 33.5q4 16 6.5 34t4 51t2.5 87.5t1 144.5q0 85 -0.5 138.5
t-2 87t-4.5 52t-7 34.5q-8 26 -18 36t-30 10h-64v-342h83v-20h-83v-355h64z" />
    <glyph glyph-name="Emacron" unicode="&#x112;" horiz-adv-x="191" 
d="M20 0zM32 0v757h134v-20h-114v-342h112v-20h-112v-355h113v-20h-133zM20 867v20h160v-20h-160z" />
    <glyph glyph-name="emacron" unicode="&#x113;" horiz-adv-x="191" 
d="M20 0zM32 0v757h134v-20h-114v-342h112v-20h-112v-355h113v-20h-133zM20 867v20h160v-20h-160z" />
    <glyph glyph-name="Ebreve" unicode="&#x114;" horiz-adv-x="191" 
d="M32 0zM32 0v757h134v-20h-114v-342h112v-20h-112v-355h113v-20h-133zM166 962q0 -42 -1 -68t-2.5 -41t-4 -23t-5.5 -14q-7 -13 -18 -20t-35 -7t-35 7t-18 20q-3 6 -5.5 14t-4 23t-2.5 41t-1 68h20q0 -42 0.5 -67t1.5 -38.5t2.5 -19.5t4.5 -11q5 -11 12 -14t25 -3t25 3
t12 14q3 5 4.5 11t2.5 19.5t1.5 38.5t0.5 67h20z" />
    <glyph glyph-name="ebreve" unicode="&#x115;" horiz-adv-x="191" 
d="M32 0zM32 0v757h134v-20h-114v-342h112v-20h-112v-355h113v-20h-133zM166 962q0 -42 -1 -68t-2.5 -41t-4 -23t-5.5 -14q-7 -13 -18 -20t-35 -7t-35 7t-18 20q-3 6 -5.5 14t-4 23t-2.5 41t-1 68h20q0 -42 0.5 -67t1.5 -38.5t2.5 -19.5t4.5 -11q5 -11 12 -14t25 -3t25 3
t12 14q3 5 4.5 11t2.5 19.5t1.5 38.5t0.5 67h20z" />
    <glyph glyph-name="Edotaccent" unicode="&#x116;" horiz-adv-x="191" 
d="M32 0zM32 0v757h134v-20h-114v-342h112v-20h-112v-355h113v-20h-133zM89 820v102h20v-102h-20z" />
    <glyph glyph-name="edotaccent" unicode="&#x117;" horiz-adv-x="191" 
d="M32 0zM32 0v757h134v-20h-114v-342h112v-20h-112v-355h113v-20h-133zM89 820v102h20v-102h-20z" />
    <glyph glyph-name="Eogonek" unicode="&#x118;" horiz-adv-x="191" 
d="M165 -225q-5 -4 -15.5 -8.5t-26.5 -4.5q-32 0 -46.5 27t-14.5 82q0 26 5.5 50t19.5 41q11 14 25 22.5t33 15.5h-113v757h134v-20h-114v-342h112v-20h-112v-355h113v-20q-15 -7 -25.5 -12.5t-17.5 -11t-12 -11.5t-10 -13q-12 -17 -15 -37.5t-3 -43.5q0 -89 41 -89
q14 0 22 2.5t16 8.5h4v-18z" />
    <glyph glyph-name="eogonek" unicode="&#x119;" horiz-adv-x="191" 
d="M32 0zM165 -225q-5 -4 -15.5 -8.5t-26.5 -4.5q-32 0 -46.5 27t-14.5 82q0 26 5.5 50t19.5 41q11 14 25 22.5t33 15.5h-113v757h134v-20h-114v-342h112v-20h-112v-355h113v-20q-15 -7 -25.5 -12.5t-17.5 -11t-12 -11.5t-10 -13q-12 -17 -15 -37.5t-3 -43.5q0 -89 41 -89
q14 0 22 2.5t16 8.5h4v-18z" />
    <glyph glyph-name="Ecaron" unicode="&#x11a;" horiz-adv-x="191" 
d="M30 0zM32 0v757h134v-20h-114v-342h112v-20h-112v-355h113v-20h-133zM90 789l-60 169v4h20l48 -141h4l48 141h20v-4l-60 -169h-20z" />
    <glyph glyph-name="ecaron" unicode="&#x11b;" horiz-adv-x="191" 
d="M30 0zM32 0v757h134v-20h-114v-342h112v-20h-112v-355h113v-20h-133zM90 789l-60 169v4h20l48 -141h4l48 141h20v-4l-60 -169h-20z" />
    <glyph glyph-name="Gbreve" unicode="&#x11e;" horiz-adv-x="214" 
d="M26 0zM155 53q3 15 6 32t4.5 43.5t2.5 66.5t1 101v53.5t-1 25.5h-80v20h99q2 -18 2 -40.5v-58.5q0 -62 -1 -103t-2.5 -68t-4.5 -44t-6 -32q-8 -35 -23 -48.5t-44 -13.5t-44 13.5t-23 48.5q-4 17 -7 37.5t-4.5 56.5t-2.5 93t-1 149q0 88 1 143t2.5 88.5t4 51.5t5.5 32
q9 42 24.5 56t44.5 14q33 0 49.5 -18.5t20.5 -51.5q5 -40 7 -70.5t2 -64.5v-24t-1 -15h-20q1 5 1 12v27q0 32 -2 62t-7 70q-3 25 -15 39t-35 14q-20 0 -31.5 -11.5t-18.5 -43.5q-3 -12 -5.5 -29.5t-4 -50.5t-2 -88t-0.5 -142q0 -92 1 -149t2.5 -92.5t4 -55t6.5 -35.5
q6 -26 17 -36t31 -10t31 10t17 37zM173 962q0 -42 -1 -68t-2.5 -41t-4 -23t-5.5 -14q-7 -13 -18 -20t-35 -7t-35 7t-18 20q-3 6 -5.5 14t-4 23t-2.5 41t-1 68h20q0 -42 0.5 -67t1.5 -38.5t2.5 -19.5t4.5 -11q5 -11 12 -14t25 -3t25 3t12 14q3 5 4.5 11t2.5 19.5t1.5 38.5
t0.5 67h20z" />
    <glyph glyph-name="gbreve" unicode="&#x11f;" horiz-adv-x="214" 
d="M26 0zM155 53q3 15 6 32t4.5 43.5t2.5 66.5t1 101v53.5t-1 25.5h-80v20h99q2 -18 2 -40.5v-58.5q0 -62 -1 -103t-2.5 -68t-4.5 -44t-6 -32q-8 -35 -23 -48.5t-44 -13.5t-44 13.5t-23 48.5q-4 17 -7 37.5t-4.5 56.5t-2.5 93t-1 149q0 88 1 143t2.5 88.5t4 51.5t5.5 32
q9 42 24.5 56t44.5 14q33 0 49.5 -18.5t20.5 -51.5q5 -40 7 -70.5t2 -64.5v-24t-1 -15h-20q1 5 1 12v27q0 32 -2 62t-7 70q-3 25 -15 39t-35 14q-20 0 -31.5 -11.5t-18.5 -43.5q-3 -12 -5.5 -29.5t-4 -50.5t-2 -88t-0.5 -142q0 -92 1 -149t2.5 -92.5t4 -55t6.5 -35.5
q6 -26 17 -36t31 -10t31 10t17 37zM173 962q0 -42 -1 -68t-2.5 -41t-4 -23t-5.5 -14q-7 -13 -18 -20t-35 -7t-35 7t-18 20q-3 6 -5.5 14t-4 23t-2.5 41t-1 68h20q0 -42 0.5 -67t1.5 -38.5t2.5 -19.5t4.5 -11q5 -11 12 -14t25 -3t25 3t12 14q3 5 4.5 11t2.5 19.5t1.5 38.5
t0.5 67h20z" />
    <glyph glyph-name="Gdotaccent" unicode="&#x120;" horiz-adv-x="214" 
d="M26 0zM155 53q3 15 6 32t4.5 43.5t2.5 66.5t1 101v53.5t-1 25.5h-80v20h99q2 -18 2 -40.5v-58.5q0 -62 -1 -103t-2.5 -68t-4.5 -44t-6 -32q-8 -35 -23 -48.5t-44 -13.5t-44 13.5t-23 48.5q-4 17 -7 37.5t-4.5 56.5t-2.5 93t-1 149q0 88 1 143t2.5 88.5t4 51.5t5.5 32
q9 42 24.5 56t44.5 14q33 0 49.5 -18.5t20.5 -51.5q5 -40 7 -70.5t2 -64.5v-24t-1 -15h-20q1 5 1 12v27q0 32 -2 62t-7 70q-3 25 -15 39t-35 14q-20 0 -31.5 -11.5t-18.5 -43.5q-3 -12 -5.5 -29.5t-4 -50.5t-2 -88t-0.5 -142q0 -92 1 -149t2.5 -92.5t4 -55t6.5 -35.5
q6 -26 17 -36t31 -10t31 10t17 37zM97 820v102h20v-102h-20z" />
    <glyph glyph-name="gdotaccent" unicode="&#x121;" horiz-adv-x="214" 
d="M26 0zM155 53q3 15 6 32t4.5 43.5t2.5 66.5t1 101v53.5t-1 25.5h-80v20h99q2 -18 2 -40.5v-58.5q0 -62 -1 -103t-2.5 -68t-4.5 -44t-6 -32q-8 -35 -23 -48.5t-44 -13.5t-44 13.5t-23 48.5q-4 17 -7 37.5t-4.5 56.5t-2.5 93t-1 149q0 88 1 143t2.5 88.5t4 51.5t5.5 32
q9 42 24.5 56t44.5 14q33 0 49.5 -18.5t20.5 -51.5q5 -40 7 -70.5t2 -64.5v-24t-1 -15h-20q1 5 1 12v27q0 32 -2 62t-7 70q-3 25 -15 39t-35 14q-20 0 -31.5 -11.5t-18.5 -43.5q-3 -12 -5.5 -29.5t-4 -50.5t-2 -88t-0.5 -142q0 -92 1 -149t2.5 -92.5t4 -55t6.5 -35.5
q6 -26 17 -36t31 -10t31 10t17 37zM97 820v102h20v-102h-20z" />
    <glyph glyph-name="Gcommaaccent" unicode="&#x122;" horiz-adv-x="214" 
d="M26 0zM155 53q3 15 6 32t4.5 43.5t2.5 66.5t1 101v53.5t-1 25.5h-80v20h99q2 -18 2 -40.5v-58.5q0 -62 -1 -103t-2.5 -68t-4.5 -44t-6 -32q-8 -35 -23 -48.5t-44 -13.5t-44 13.5t-23 48.5q-4 17 -7 37.5t-4.5 56.5t-2.5 93t-1 149q0 88 1 143t2.5 88.5t4 51.5t5.5 32
q9 42 24.5 56t44.5 14q33 0 49.5 -18.5t20.5 -51.5q5 -40 7 -70.5t2 -64.5v-24t-1 -15h-20q1 5 1 12v27q0 32 -2 62t-7 70q-3 25 -15 39t-35 14q-20 0 -31.5 -11.5t-18.5 -43.5q-3 -12 -5.5 -29.5t-4 -50.5t-2 -88t-0.5 -142q0 -92 1 -149t2.5 -92.5t4 -55t6.5 -35.5
q6 -26 17 -36t31 -10t31 10t17 37zM41 -238v4l56 193h21v-4l-61 -193h-16z" />
    <glyph glyph-name="gcommaaccent" unicode="&#x123;" horiz-adv-x="214" 
d="M26 0zM155 53q3 15 6 32t4.5 43.5t2.5 66.5t1 101v53.5t-1 25.5h-80v20h99q2 -18 2 -40.5v-58.5q0 -62 -1 -103t-2.5 -68t-4.5 -44t-6 -32q-8 -35 -23 -48.5t-44 -13.5t-44 13.5t-23 48.5q-4 17 -7 37.5t-4.5 56.5t-2.5 93t-1 149q0 88 1 143t2.5 88.5t4 51.5t5.5 32
q9 42 24.5 56t44.5 14q33 0 49.5 -18.5t20.5 -51.5q5 -40 7 -70.5t2 -64.5v-24t-1 -15h-20q1 5 1 12v27q0 32 -2 62t-7 70q-3 25 -15 39t-35 14q-20 0 -31.5 -11.5t-18.5 -43.5q-3 -12 -5.5 -29.5t-4 -50.5t-2 -88t-0.5 -142q0 -92 1 -149t2.5 -92.5t4 -55t6.5 -35.5
q6 -26 17 -36t31 -10t31 10t17 37zM41 -238v4l56 193h21v-4l-61 -193h-16z" />
    <glyph glyph-name="Hbar" unicode="&#x126;" horiz-adv-x="230" 
d="M179 0v375h-128v-375h-20v757h20v-160h128v160h20v-757h-20zM179 577h-128v-182h128v182z" />
    <glyph glyph-name="hbar" unicode="&#x127;" horiz-adv-x="230" 
d="M31 0zM179 0v375h-128v-375h-20v757h20v-160h128v160h20v-757h-20zM179 577h-128v-182h128v182z" />
    <glyph glyph-name="Imacron" unicode="&#x12a;" horiz-adv-x="124" 
d="M0 0zM52 0v757h20v-757h-20zM-18 867v20h160v-20h-160z" />
    <glyph glyph-name="imacron" unicode="&#x12b;" horiz-adv-x="124" 
d="M0 0zM52 0v757h20v-757h-20zM-18 867v20h160v-20h-160z" />
    <glyph glyph-name="Ibreve" unicode="&#x12c;" horiz-adv-x="123" 
d="M0 0zM52 0v757h20v-757h-20zM128 962q0 -42 -1 -68t-2.5 -41t-4 -23t-5.5 -14q-7 -13 -18 -20t-35 -7t-35 7t-18 20q-3 6 -5.5 14t-4 23t-2.5 41t-1 68h20q0 -42 0.5 -67t1.5 -38.5t2.5 -19.5t4.5 -11q5 -11 12 -14t25 -3t25 3t12 14q3 5 4.5 11t2.5 19.5t1.5 38.5
t0.5 67h20z" />
    <glyph glyph-name="ibreve" unicode="&#x12d;" horiz-adv-x="123" 
d="M0 0zM52 0v757h20v-757h-20zM128 962q0 -42 -1 -68t-2.5 -41t-4 -23t-5.5 -14q-7 -13 -18 -20t-35 -7t-35 7t-18 20q-3 6 -5.5 14t-4 23t-2.5 41t-1 68h20q0 -42 0.5 -67t1.5 -38.5t2.5 -19.5t4.5 -11q5 -11 12 -14t25 -3t25 3t12 14q3 5 4.5 11t2.5 19.5t1.5 38.5
t0.5 67h20z" />
    <glyph glyph-name="Iogonek" unicode="&#x12e;" horiz-adv-x="86" 
d="M53 -225q-5 -4 -15.5 -8.5t-26.5 -4.5q-32 0 -46.5 27t-14.5 82q0 26 5.5 50t19.5 41q11 14 25 22.5t33 15.5v757h20v-757q-15 -7 -25.5 -12.5t-17.5 -11t-12 -11.5t-10 -13q-12 -17 -15 -37.5t-3 -43.5q0 -89 41 -89q14 0 22 2.5t16 8.5h4v-18z" />
    <glyph glyph-name="iogonek" unicode="&#x12f;" horiz-adv-x="86" 
d="M0 0zM53 -225q-5 -4 -15.5 -8.5t-26.5 -4.5q-32 0 -46.5 27t-14.5 82q0 26 5.5 50t19.5 41q11 14 25 22.5t33 15.5v757h20v-757q-15 -7 -25.5 -12.5t-17.5 -11t-12 -11.5t-10 -13q-12 -17 -15 -37.5t-3 -43.5q0 -89 41 -89q14 0 22 2.5t16 8.5h4v-18z" />
    <glyph glyph-name="Idotaccent" unicode="&#x130;" horiz-adv-x="86" 
d="M33 0zM33 0v757h20v-757h-20zM33 820v102h20v-102h-20z" />
    <glyph glyph-name="dotlessi" unicode="&#x131;" horiz-adv-x="86" 
d="M33 0zM33 0v757h20v-757h-20z" />
    <glyph glyph-name="IJ" unicode="&#x132;" horiz-adv-x="296" 
d="M33 0zM33 0v757h20v-757h-20zM248 757h20v-367q0 -86 -1 -144t-2.5 -96.5t-4 -61.5t-6.5 -39q-8 -35 -23.5 -48.5t-45.5 -13.5q-26 0 -41 14t-23.5 43t-11 73.5t-2.5 104.5q0 36 0.5 47.5t1.5 20.5h20q-1 -9 -1.5 -20.5t-0.5 -47.5q0 -110 10 -162.5t48 -52.5
q21 0 32.5 10t16.5 36q4 16 6.5 39t4 60.5t2.5 95t1 142.5v367z" />
    <glyph glyph-name="ij" unicode="&#x133;" horiz-adv-x="296" 
d="M33 0zM33 0v757h20v-757h-20zM248 757h20v-367q0 -86 -1 -144t-2.5 -96.5t-4 -61.5t-6.5 -39q-8 -35 -23.5 -48.5t-45.5 -13.5q-26 0 -41 14t-23.5 43t-11 73.5t-2.5 104.5q0 36 0.5 47.5t1.5 20.5h20q-1 -9 -1.5 -20.5t-0.5 -47.5q0 -110 10 -162.5t48 -52.5
q21 0 32.5 10t16.5 36q4 16 6.5 39t4 60.5t2.5 95t1 142.5v367z" />
    <glyph glyph-name="Kcommaaccent" unicode="&#x136;" horiz-adv-x="225" 
d="M32 0zM190 0l-119 360q-6 17 -9.5 28.5t-6.5 22.5h-4q1 -12 1 -24.5v-29.5v-357h-20v757h20v-286q0 -15 -0.5 -28t-0.5 -24h4q4 11 8.5 23t9.5 25l113 290h20v-4l-134 -339l137 -410v-4h-19zM56 -238v4l56 193h21v-4l-61 -193h-16z" />
    <glyph glyph-name="kcommaaccent" unicode="&#x137;" horiz-adv-x="225" 
d="M32 0zM190 0l-119 360q-6 17 -9.5 28.5t-6.5 22.5h-4q1 -12 1 -24.5v-29.5v-357h-20v757h20v-286q0 -15 -0.5 -28t-0.5 -24h4q4 11 8.5 23t9.5 25l113 290h20v-4l-134 -339l137 -410v-4h-19zM56 -238v4l56 193h21v-4l-61 -193h-16z" />
    <glyph glyph-name="Lacute" unicode="&#x139;" horiz-adv-x="171" 
d="M32 0zM32 0v757h20v-737h107v-20h-127zM75 789v4l71 169h21v-4l-76 -169h-16z" />
    <glyph glyph-name="lacute" unicode="&#x13a;" horiz-adv-x="171" 
d="M32 0zM32 0v757h20v-737h107v-20h-127zM75 789v4l71 169h21v-4l-76 -169h-16z" />
    <glyph glyph-name="Lcommaaccent" unicode="&#x13b;" horiz-adv-x="171" 
d="M30 0zM32 0v757h20v-737h107v-20h-127zM30 -238v4l56 193h21v-4l-61 -193h-16z" />
    <glyph glyph-name="lcommaaccent" unicode="&#x13c;" horiz-adv-x="171" 
d="M30 0zM32 0v757h20v-737h107v-20h-127zM30 -238v4l56 193h21v-4l-61 -193h-16z" />
    <glyph glyph-name="Lcaron" unicode="&#x13d;" horiz-adv-x="171" 
d="M32 0zM32 0v757h20v-737h107v-20h-127zM99 591v4l56 193h21v-4l-61 -193h-16z" />
    <glyph glyph-name="lcaron" unicode="&#x13e;" horiz-adv-x="171" 
d="M32 0zM32 0v757h20v-737h107v-20h-127zM99 591v4l56 193h21v-4l-61 -193h-16z" />
    <glyph glyph-name="Ldot" unicode="&#x13f;" horiz-adv-x="171" 
d="M32 0zM32 0v757h20v-737h107v-20h-127zM118 341v102h20v-102h-20z" />
    <glyph glyph-name="ldot" unicode="&#x140;" horiz-adv-x="171" 
d="M32 0zM32 0v757h20v-737h107v-20h-127zM118 341v102h20v-102h-20z" />
    <glyph glyph-name="Lslash" unicode="&#x141;" horiz-adv-x="178" 
d="M29 0v466l-10 -10h-4v24l14 14v263h20v-243l74 75h4v-24l-78 -79v-466h107v-20h-127z" />
    <glyph glyph-name="lslash" unicode="&#x142;" horiz-adv-x="178" 
d="M15 0zM29 0v466l-10 -10h-4v24l14 14v263h20v-243l74 75h4v-24l-78 -79v-466h107v-20h-127z" />
    <glyph glyph-name="Nacute" unicode="&#x143;" horiz-adv-x="226" 
d="M31 0zM179 0l-124 723h-4v-723h-20v757h39l88 -520q5 -26 8.5 -51.5t6.5 -50.5h4q-2 25 -2 54.5v57.5v510h20v-757h-16zM103 789v4l71 169h21v-4l-76 -169h-16z" />
    <glyph glyph-name="nacute" unicode="&#x144;" horiz-adv-x="226" 
d="M31 0zM179 0l-124 723h-4v-723h-20v757h39l88 -520q5 -26 8.5 -51.5t6.5 -50.5h4q-2 25 -2 54.5v57.5v510h20v-757h-16zM103 789v4l71 169h21v-4l-76 -169h-16z" />
    <glyph glyph-name="Ncommaaccent" unicode="&#x145;" horiz-adv-x="226" 
d="M31 0zM179 0l-124 723h-4v-723h-20v757h39l88 -520q5 -26 8.5 -51.5t6.5 -50.5h4q-2 25 -2 54.5v57.5v510h20v-757h-16zM49 -238v4l56 193h21v-4l-61 -193h-16z" />
    <glyph glyph-name="ncommaaccent" unicode="&#x146;" horiz-adv-x="226" 
d="M31 0zM179 0l-124 723h-4v-723h-20v757h39l88 -520q5 -26 8.5 -51.5t6.5 -50.5h4q-2 25 -2 54.5v57.5v510h20v-757h-16zM49 -238v4l56 193h21v-4l-61 -193h-16z" />
    <glyph glyph-name="Ncaron" unicode="&#x147;" horiz-adv-x="226" 
d="M31 0zM179 0l-124 723h-4v-723h-20v757h39l88 -520q5 -26 8.5 -51.5t6.5 -50.5h4q-2 25 -2 54.5v57.5v510h20v-757h-16zM103 789l-60 169v4h20l48 -141h4l48 141h20v-4l-60 -169h-20z" />
    <glyph glyph-name="ncaron" unicode="&#x148;" horiz-adv-x="226" 
d="M31 0zM179 0l-124 723h-4v-723h-20v757h39l88 -520q5 -26 8.5 -51.5t6.5 -50.5h4q-2 25 -2 54.5v57.5v510h20v-757h-16zM103 789l-60 169v4h20l48 -141h4l48 141h20v-4l-60 -169h-20z" />
    <glyph glyph-name="Eng" unicode="&#x14a;" horiz-adv-x="226" 
d="M87 -210h4q6 -4 12 -6t16 -2q17 0 27.5 5t18.5 19q7 14 8.5 32t1.5 51v134l-120 700h-4v-723h-20v757h39l88 -520q5 -26 8.5 -51.5t6.5 -50.5h4q-2 25 -2 54.5v57.5v510h20v-868q0 -34 -2.5 -56t-10.5 -37q-11 -20 -25.5 -27t-37.5 -7q-11 0 -19 2.5t-13 6.5v19z" />
    <glyph glyph-name="eng" unicode="&#x14b;" horiz-adv-x="226" 
d="M31 0zM87 -210h4q6 -4 12 -6t16 -2q17 0 27.5 5t18.5 19q7 14 8.5 32t1.5 51v134l-120 700h-4v-723h-20v757h39l88 -520q5 -26 8.5 -51.5t6.5 -50.5h4q-2 25 -2 54.5v57.5v510h20v-868q0 -34 -2.5 -56t-10.5 -37q-11 -20 -25.5 -27t-37.5 -7q-11 0 -19 2.5t-13 6.5v19z
" />
    <glyph glyph-name="Omacron" unicode="&#x14c;" 
d="M26 0zM41 49q-4 17 -7 37.5t-4.5 55.5t-2.5 91.5t-1 145.5t1 145t2.5 91t4.5 55t7 38q8 35 23 48.5t44 13.5t44 -13.5t23 -48.5q4 -18 6.5 -38t4 -55t2.5 -91t1 -145t-1 -145.5t-2.5 -91.5t-4 -55.5t-6.5 -37.5q-8 -35 -23 -48.5t-44 -13.5t-44 13.5t-23 48.5zM155 53
q4 17 6.5 37.5t4 55t2.5 90t1 143.5t-0.5 143t-2 89.5t-4 54.5t-6.5 37q-5 26 -16.5 36.5t-31.5 10.5t-30.5 -10t-16.5 -36q-4 -17 -6.5 -36.5t-4.5 -54t-3 -90t-1 -144.5t1 -145t2.5 -91t4 -54.5t6.5 -35.5q6 -26 17 -36t31 -10t31 10t16 36zM28 867v20h160v-20h-160z" />
    <glyph glyph-name="omacron" unicode="&#x14d;" 
d="M26 0zM41 49q-4 17 -7 37.5t-4.5 55.5t-2.5 91.5t-1 145.5t1 145t2.5 91t4.5 55t7 38q8 35 23 48.5t44 13.5t44 -13.5t23 -48.5q4 -18 6.5 -38t4 -55t2.5 -91t1 -145t-1 -145.5t-2.5 -91.5t-4 -55.5t-6.5 -37.5q-8 -35 -23 -48.5t-44 -13.5t-44 13.5t-23 48.5zM155 53
q4 17 6.5 37.5t4 55t2.5 90t1 143.5t-0.5 143t-2 89.5t-4 54.5t-6.5 37q-5 26 -16.5 36.5t-31.5 10.5t-30.5 -10t-16.5 -36q-4 -17 -6.5 -36.5t-4.5 -54t-3 -90t-1 -144.5t1 -145t2.5 -91t4 -54.5t6.5 -35.5q6 -26 17 -36t31 -10t31 10t16 36zM28 867v20h160v-20h-160z" />
    <glyph glyph-name="Obreve" unicode="&#x14e;" 
d="M26 0zM41 49q-4 17 -7 37.5t-4.5 55.5t-2.5 91.5t-1 145.5t1 145t2.5 91t4.5 55t7 38q8 35 23 48.5t44 13.5t44 -13.5t23 -48.5q4 -18 6.5 -38t4 -55t2.5 -91t1 -145t-1 -145.5t-2.5 -91.5t-4 -55.5t-6.5 -37.5q-8 -35 -23 -48.5t-44 -13.5t-44 13.5t-23 48.5zM155 53
q4 17 6.5 37.5t4 55t2.5 90t1 143.5t-0.5 143t-2 89.5t-4 54.5t-6.5 37q-5 26 -16.5 36.5t-31.5 10.5t-30.5 -10t-16.5 -36q-4 -17 -6.5 -36.5t-4.5 -54t-3 -90t-1 -144.5t1 -145t2.5 -91t4 -54.5t6.5 -35.5q6 -26 17 -36t31 -10t31 10t16 36zM173 962q0 -42 -1 -68
t-2.5 -41t-4 -23t-5.5 -14q-7 -13 -18 -20t-35 -7t-35 7t-18 20q-3 6 -5.5 14t-4 23t-2.5 41t-1 68h20q0 -42 0.5 -67t1.5 -38.5t2.5 -19.5t4.5 -11q5 -11 12 -14t25 -3t25 3t12 14q3 5 4.5 11t2.5 19.5t1.5 38.5t0.5 67h20z" />
    <glyph glyph-name="obreve" unicode="&#x14f;" 
d="M26 0zM41 49q-4 17 -7 37.5t-4.5 55.5t-2.5 91.5t-1 145.5t1 145t2.5 91t4.5 55t7 38q8 35 23 48.5t44 13.5t44 -13.5t23 -48.5q4 -18 6.5 -38t4 -55t2.5 -91t1 -145t-1 -145.5t-2.5 -91.5t-4 -55.5t-6.5 -37.5q-8 -35 -23 -48.5t-44 -13.5t-44 13.5t-23 48.5zM155 53
q4 17 6.5 37.5t4 55t2.5 90t1 143.5t-0.5 143t-2 89.5t-4 54.5t-6.5 37q-5 26 -16.5 36.5t-31.5 10.5t-30.5 -10t-16.5 -36q-4 -17 -6.5 -36.5t-4.5 -54t-3 -90t-1 -144.5t1 -145t2.5 -91t4 -54.5t6.5 -35.5q6 -26 17 -36t31 -10t31 10t16 36zM173 962q0 -42 -1 -68
t-2.5 -41t-4 -23t-5.5 -14q-7 -13 -18 -20t-35 -7t-35 7t-18 20q-3 6 -5.5 14t-4 23t-2.5 41t-1 68h20q0 -42 0.5 -67t1.5 -38.5t2.5 -19.5t4.5 -11q5 -11 12 -14t25 -3t25 3t12 14q3 5 4.5 11t2.5 19.5t1.5 38.5t0.5 67h20z" />
    <glyph glyph-name="Ohungarumlaut" unicode="&#x150;" 
d="M26 0zM41 49q-4 17 -7 37.5t-4.5 55.5t-2.5 91.5t-1 145.5t1 145t2.5 91t4.5 55t7 38q8 35 23 48.5t44 13.5t44 -13.5t23 -48.5q4 -18 6.5 -38t4 -55t2.5 -91t1 -145t-1 -145.5t-2.5 -91.5t-4 -55.5t-6.5 -37.5q-8 -35 -23 -48.5t-44 -13.5t-44 13.5t-23 48.5zM155 53
q4 17 6.5 37.5t4 55t2.5 90t1 143.5t-0.5 143t-2 89.5t-4 54.5t-6.5 37q-5 26 -16.5 36.5t-31.5 10.5t-30.5 -10t-16.5 -36q-4 -17 -6.5 -36.5t-4.5 -54t-3 -90t-1 -144.5t1 -145t2.5 -91t4 -54.5t6.5 -35.5q6 -26 17 -36t31 -10t31 10t16 36zM136 789v4l71 169h21v-4
l-76 -169h-16zM58 789v4l71 169h21v-4l-76 -169h-16z" />
    <glyph glyph-name="ohungarumlaut" unicode="&#x151;" 
d="M26 0zM41 49q-4 17 -7 37.5t-4.5 55.5t-2.5 91.5t-1 145.5t1 145t2.5 91t4.5 55t7 38q8 35 23 48.5t44 13.5t44 -13.5t23 -48.5q4 -18 6.5 -38t4 -55t2.5 -91t1 -145t-1 -145.5t-2.5 -91.5t-4 -55.5t-6.5 -37.5q-8 -35 -23 -48.5t-44 -13.5t-44 13.5t-23 48.5zM155 53
q4 17 6.5 37.5t4 55t2.5 90t1 143.5t-0.5 143t-2 89.5t-4 54.5t-6.5 37q-5 26 -16.5 36.5t-31.5 10.5t-30.5 -10t-16.5 -36q-4 -17 -6.5 -36.5t-4.5 -54t-3 -90t-1 -144.5t1 -145t2.5 -91t4 -54.5t6.5 -35.5q6 -26 17 -36t31 -10t31 10t16 36zM136 789v4l71 169h21v-4
l-76 -169h-16zM58 789v4l71 169h21v-4l-76 -169h-16z" />
    <glyph glyph-name="OE" unicode="&#x152;" horiz-adv-x="335" 
d="M108 0q-32 0 -46 12t-22 46q-4 16 -6.5 34t-4 51.5t-2.5 88.5t-1 147q0 86 0.5 140t2 88t4.5 53.5t8 36.5q10 35 24 47.5t43 12.5h198v-20h-114v-342h112v-20h-112v-355h113v-20h-197zM172 737h-64q-20 0 -30 -10t-18 -36q-5 -16 -7.5 -34.5t-4 -52t-2 -87t-0.5 -138.5
q0 -90 1 -144.5t2.5 -87.5t4 -51t6.5 -34q6 -25 15.5 -33.5t32.5 -8.5h64v717z" />
    <glyph glyph-name="oe" unicode="&#x153;" horiz-adv-x="335" 
d="M26 0zM108 0q-32 0 -46 12t-22 46q-4 16 -6.5 34t-4 51.5t-2.5 88.5t-1 147q0 86 0.5 140t2 88t4.5 53.5t8 36.5q10 35 24 47.5t43 12.5h198v-20h-114v-342h112v-20h-112v-355h113v-20h-197zM172 737h-64q-20 0 -30 -10t-18 -36q-5 -16 -7.5 -34.5t-4 -52t-2 -87
t-0.5 -138.5q0 -90 1 -144.5t2.5 -87.5t4 -51t6.5 -34q6 -25 15.5 -33.5t32.5 -8.5h64v717z" />
    <glyph glyph-name="Racute" unicode="&#x154;" horiz-adv-x="220" 
d="M32 0zM178 0l-2 20t-2 26.5t-2.5 44.5t-3.5 75q-3 64 -6 99t-6 52q-2 14 -12 21.5t-33 7.5h-59v-346h-20v757h91q36 0 52 -37q10 -24 13.5 -65t3.5 -102q0 -48 -2 -79t-5 -51t-7.5 -31.5t-9.5 -18.5t-9.5 -10t-8.5 -5v-4q8 -2 15.5 -10.5t10.5 -24.5t6 -51t6 -101
q2 -47 3.5 -74.5t2.5 -44.5t2 -26l2 -18v-4h-20zM110 366q17 0 26.5 4t17.5 15q5 7 8.5 17t5.5 28t3 47.5t1 75.5q0 59 -3 97t-11 59q-12 28 -35 28h-71v-371h58zM96 789v4l71 169h21v-4l-76 -169h-16z" />
    <glyph glyph-name="racute" unicode="&#x155;" horiz-adv-x="220" 
d="M32 0zM178 0l-2 20t-2 26.5t-2.5 44.5t-3.5 75q-3 64 -6 99t-6 52q-2 14 -12 21.5t-33 7.5h-59v-346h-20v757h91q36 0 52 -37q10 -24 13.5 -65t3.5 -102q0 -48 -2 -79t-5 -51t-7.5 -31.5t-9.5 -18.5t-9.5 -10t-8.5 -5v-4q8 -2 15.5 -10.5t10.5 -24.5t6 -51t6 -101
q2 -47 3.5 -74.5t2.5 -44.5t2 -26l2 -18v-4h-20zM110 366q17 0 26.5 4t17.5 15q5 7 8.5 17t5.5 28t3 47.5t1 75.5q0 59 -3 97t-11 59q-12 28 -35 28h-71v-371h58zM96 789v4l71 169h21v-4l-76 -169h-16z" />
    <glyph glyph-name="Rcommaaccent" unicode="&#x156;" horiz-adv-x="220" 
d="M32 0zM178 0l-2 20t-2 26.5t-2.5 44.5t-3.5 75q-3 64 -6 99t-6 52q-2 14 -12 21.5t-33 7.5h-59v-346h-20v757h91q36 0 52 -37q10 -24 13.5 -65t3.5 -102q0 -48 -2 -79t-5 -51t-7.5 -31.5t-9.5 -18.5t-9.5 -10t-8.5 -5v-4q8 -2 15.5 -10.5t10.5 -24.5t6 -51t6 -101
q2 -47 3.5 -74.5t2.5 -44.5t2 -26l2 -18v-4h-20zM110 366q17 0 26.5 4t17.5 15q5 7 8.5 17t5.5 28t3 47.5t1 75.5q0 59 -3 97t-11 59q-12 28 -35 28h-71v-371h58zM46 -238v4l56 193h21v-4l-61 -193h-16z" />
    <glyph glyph-name="rcommaaccent" unicode="&#x157;" horiz-adv-x="220" 
d="M32 0zM178 0l-2 20t-2 26.5t-2.5 44.5t-3.5 75q-3 64 -6 99t-6 52q-2 14 -12 21.5t-33 7.5h-59v-346h-20v757h91q36 0 52 -37q10 -24 13.5 -65t3.5 -102q0 -48 -2 -79t-5 -51t-7.5 -31.5t-9.5 -18.5t-9.5 -10t-8.5 -5v-4q8 -2 15.5 -10.5t10.5 -24.5t6 -51t6 -101
q2 -47 3.5 -74.5t2.5 -44.5t2 -26l2 -18v-4h-20zM110 366q17 0 26.5 4t17.5 15q5 7 8.5 17t5.5 28t3 47.5t1 75.5q0 59 -3 97t-11 59q-12 28 -35 28h-71v-371h58zM46 -238v4l56 193h21v-4l-61 -193h-16z" />
    <glyph glyph-name="Rcaron" unicode="&#x158;" horiz-adv-x="220" 
d="M32 0zM178 0l-2 20t-2 26.5t-2.5 44.5t-3.5 75q-3 64 -6 99t-6 52q-2 14 -12 21.5t-33 7.5h-59v-346h-20v757h91q36 0 52 -37q10 -24 13.5 -65t3.5 -102q0 -48 -2 -79t-5 -51t-7.5 -31.5t-9.5 -18.5t-9.5 -10t-8.5 -5v-4q8 -2 15.5 -10.5t10.5 -24.5t6 -51t6 -101
q2 -47 3.5 -74.5t2.5 -44.5t2 -26l2 -18v-4h-20zM110 366q17 0 26.5 4t17.5 15q5 7 8.5 17t5.5 28t3 47.5t1 75.5q0 59 -3 97t-11 59q-12 28 -35 28h-71v-371h58zM95 789l-60 169v4h20l48 -141h4l48 141h20v-4l-60 -169h-20z" />
    <glyph glyph-name="rcaron" unicode="&#x159;" horiz-adv-x="220" 
d="M32 0zM178 0l-2 20t-2 26.5t-2.5 44.5t-3.5 75q-3 64 -6 99t-6 52q-2 14 -12 21.5t-33 7.5h-59v-346h-20v757h91q36 0 52 -37q10 -24 13.5 -65t3.5 -102q0 -48 -2 -79t-5 -51t-7.5 -31.5t-9.5 -18.5t-9.5 -10t-8.5 -5v-4q8 -2 15.5 -10.5t10.5 -24.5t6 -51t6 -101
q2 -47 3.5 -74.5t2.5 -44.5t2 -26l2 -18v-4h-20zM110 366q17 0 26.5 4t17.5 15q5 7 8.5 17t5.5 28t3 47.5t1 75.5q0 59 -3 97t-11 59q-12 28 -35 28h-71v-371h58zM95 789l-60 169v4h20l48 -141h4l48 141h20v-4l-60 -169h-20z" />
    <glyph glyph-name="Sacute" unicode="&#x15a;" horiz-adv-x="203" 
d="M24 0zM48 253q-2 -14 -2.5 -36t-0.5 -55q0 -43 2.5 -70t8.5 -47q7 -20 16 -29t25 -9q32 0 45 35q8 21 11.5 54.5t3.5 93.5q0 39 -1 64.5t-3 42t-6.5 27t-10.5 19.5q-12 18 -31.5 32.5t-36.5 31.5q-9 9 -17 18.5t-14 23.5q-4 9 -6.5 19.5t-4 27.5t-2 43.5t-0.5 68.5
q0 48 3.5 77.5t12.5 48.5q17 36 58 36q22 0 35.5 -8.5t23.5 -25.5q10 -18 14 -45t4 -77q0 -34 -1 -57t-3 -35h-20q2 12 3 35t1 57q0 45 -4 70.5t-12 41.5q-13 24 -41 24q-29 0 -40 -24q-8 -17 -11 -44t-3 -74q0 -42 0.5 -67.5t1.5 -41.5t3.5 -25t5.5 -17q5 -10 12.5 -19.5
t14.5 -16.5q17 -17 36.5 -32t33.5 -34q7 -11 12 -22t8 -29t4 -45t1 -69q0 -61 -3.5 -96.5t-13.5 -59.5q-10 -23 -25 -35t-38 -12q-25 0 -39 12t-22 40q-6 20 -8.5 48t-2.5 75q0 34 0.5 55t2.5 36h20zM91 789v4l71 169h21v-4l-76 -169h-16z" />
    <glyph glyph-name="sacute" unicode="&#x15b;" horiz-adv-x="203" 
d="M24 0zM48 253q-2 -14 -2.5 -36t-0.5 -55q0 -43 2.5 -70t8.5 -47q7 -20 16 -29t25 -9q32 0 45 35q8 21 11.5 54.5t3.5 93.5q0 39 -1 64.5t-3 42t-6.5 27t-10.5 19.5q-12 18 -31.5 32.5t-36.5 31.5q-9 9 -17 18.5t-14 23.5q-4 9 -6.5 19.5t-4 27.5t-2 43.5t-0.5 68.5
q0 48 3.5 77.5t12.5 48.5q17 36 58 36q22 0 35.5 -8.5t23.5 -25.5q10 -18 14 -45t4 -77q0 -34 -1 -57t-3 -35h-20q2 12 3 35t1 57q0 45 -4 70.5t-12 41.5q-13 24 -41 24q-29 0 -40 -24q-8 -17 -11 -44t-3 -74q0 -42 0.5 -67.5t1.5 -41.5t3.5 -25t5.5 -17q5 -10 12.5 -19.5
t14.5 -16.5q17 -17 36.5 -32t33.5 -34q7 -11 12 -22t8 -29t4 -45t1 -69q0 -61 -3.5 -96.5t-13.5 -59.5q-10 -23 -25 -35t-38 -12q-25 0 -39 12t-22 40q-6 20 -8.5 48t-2.5 75q0 34 0.5 55t2.5 36h20zM91 789v4l71 169h21v-4l-76 -169h-16z" />
    <glyph glyph-name="Scedilla" unicode="&#x15e;" horiz-adv-x="203" 
d="M24 0zM48 253q-2 -14 -2.5 -36t-0.5 -55q0 -43 2.5 -70t8.5 -47q7 -20 16 -29t25 -9q32 0 45 35q8 21 11.5 54.5t3.5 93.5q0 39 -1 64.5t-3 42t-6.5 27t-10.5 19.5q-12 18 -31.5 32.5t-36.5 31.5q-9 9 -17 18.5t-14 23.5q-4 9 -6.5 19.5t-4 27.5t-2 43.5t-0.5 68.5
q0 48 3.5 77.5t12.5 48.5q17 36 58 36q22 0 35.5 -8.5t23.5 -25.5q10 -18 14 -45t4 -77q0 -34 -1 -57t-3 -35h-20q2 12 3 35t1 57q0 45 -4 70.5t-12 41.5q-13 24 -41 24q-29 0 -40 -24q-8 -17 -11 -44t-3 -74q0 -42 0.5 -67.5t1.5 -41.5t3.5 -25t5.5 -17q5 -10 12.5 -19.5
t14.5 -16.5q17 -17 36.5 -32t33.5 -34q7 -11 12 -22t8 -29t4 -45t1 -69q0 -61 -3.5 -96.5t-13.5 -59.5q-10 -23 -25 -35t-38 -12q-25 0 -39 12t-22 40q-6 20 -8.5 48t-2.5 75q0 34 0.5 55t2.5 36h20zM34 -238v4l56 193h21v-4l-61 -193h-16z" />
    <glyph glyph-name="scedilla" unicode="&#x15f;" horiz-adv-x="203" 
d="M24 0zM48 253q-2 -14 -2.5 -36t-0.5 -55q0 -43 2.5 -70t8.5 -47q7 -20 16 -29t25 -9q32 0 45 35q8 21 11.5 54.5t3.5 93.5q0 39 -1 64.5t-3 42t-6.5 27t-10.5 19.5q-12 18 -31.5 32.5t-36.5 31.5q-9 9 -17 18.5t-14 23.5q-4 9 -6.5 19.5t-4 27.5t-2 43.5t-0.5 68.5
q0 48 3.5 77.5t12.5 48.5q17 36 58 36q22 0 35.5 -8.5t23.5 -25.5q10 -18 14 -45t4 -77q0 -34 -1 -57t-3 -35h-20q2 12 3 35t1 57q0 45 -4 70.5t-12 41.5q-13 24 -41 24q-29 0 -40 -24q-8 -17 -11 -44t-3 -74q0 -42 0.5 -67.5t1.5 -41.5t3.5 -25t5.5 -17q5 -10 12.5 -19.5
t14.5 -16.5q17 -17 36.5 -32t33.5 -34q7 -11 12 -22t8 -29t4 -45t1 -69q0 -61 -3.5 -96.5t-13.5 -59.5q-10 -23 -25 -35t-38 -12q-25 0 -39 12t-22 40q-6 20 -8.5 48t-2.5 75q0 34 0.5 55t2.5 36h20zM34 -238v4l56 193h21v-4l-61 -193h-16z" />
    <glyph glyph-name="Scaron" unicode="&#x160;" horiz-adv-x="203" 
d="M24 0zM48 253q-2 -14 -2.5 -36t-0.5 -55q0 -43 2.5 -70t8.5 -47q7 -20 16 -29t25 -9q32 0 45 35q8 21 11.5 54.5t3.5 93.5q0 39 -1 64.5t-3 42t-6.5 27t-10.5 19.5q-12 18 -31.5 32.5t-36.5 31.5q-9 9 -17 18.5t-14 23.5q-4 9 -6.5 19.5t-4 27.5t-2 43.5t-0.5 68.5
q0 48 3.5 77.5t12.5 48.5q17 36 58 36q22 0 35.5 -8.5t23.5 -25.5q10 -18 14 -45t4 -77q0 -34 -1 -57t-3 -35h-20q2 12 3 35t1 57q0 45 -4 70.5t-12 41.5q-13 24 -41 24q-29 0 -40 -24q-8 -17 -11 -44t-3 -74q0 -42 0.5 -67.5t1.5 -41.5t3.5 -25t5.5 -17q5 -10 12.5 -19.5
t14.5 -16.5q17 -17 36.5 -32t33.5 -34q7 -11 12 -22t8 -29t4 -45t1 -69q0 -61 -3.5 -96.5t-13.5 -59.5q-10 -23 -25 -35t-38 -12q-25 0 -39 12t-22 40q-6 20 -8.5 48t-2.5 75q0 34 0.5 55t2.5 36h20zM92 789l-60 169v4h20l48 -141h4l48 141h20v-4l-60 -169h-20z" />
    <glyph glyph-name="scaron" unicode="&#x161;" horiz-adv-x="203" 
d="M24 0zM48 253q-2 -14 -2.5 -36t-0.5 -55q0 -43 2.5 -70t8.5 -47q7 -20 16 -29t25 -9q32 0 45 35q8 21 11.5 54.5t3.5 93.5q0 39 -1 64.5t-3 42t-6.5 27t-10.5 19.5q-12 18 -31.5 32.5t-36.5 31.5q-9 9 -17 18.5t-14 23.5q-4 9 -6.5 19.5t-4 27.5t-2 43.5t-0.5 68.5
q0 48 3.5 77.5t12.5 48.5q17 36 58 36q22 0 35.5 -8.5t23.5 -25.5q10 -18 14 -45t4 -77q0 -34 -1 -57t-3 -35h-20q2 12 3 35t1 57q0 45 -4 70.5t-12 41.5q-13 24 -41 24q-29 0 -40 -24q-8 -17 -11 -44t-3 -74q0 -42 0.5 -67.5t1.5 -41.5t3.5 -25t5.5 -17q5 -10 12.5 -19.5
t14.5 -16.5q17 -17 36.5 -32t33.5 -34q7 -11 12 -22t8 -29t4 -45t1 -69q0 -61 -3.5 -96.5t-13.5 -59.5q-10 -23 -25 -35t-38 -12q-25 0 -39 12t-22 40q-6 20 -8.5 48t-2.5 75q0 34 0.5 55t2.5 36h20zM92 789l-60 169v4h20l48 -141h4l48 141h20v-4l-60 -169h-20z" />
    <glyph glyph-name="uni0162" unicode="&#x162;" horiz-adv-x="180" 
d="M11 0zM81 0v737h-70v20h158v-20h-68v-737h-20zM27 -238v4l56 193h21v-4l-61 -193h-16z" />
    <glyph glyph-name="uni0163" unicode="&#x163;" horiz-adv-x="180" 
d="M11 0zM81 0v737h-70v20h158v-20h-68v-737h-20zM27 -238v4l56 193h21v-4l-61 -193h-16z" />
    <glyph glyph-name="Tcaron" unicode="&#x164;" horiz-adv-x="180" 
d="M11 0zM81 0v737h-70v20h158v-20h-68v-737h-20zM80 789l-60 169v4h20l48 -141h4l48 141h20v-4l-60 -169h-20z" />
    <glyph glyph-name="tcaron" unicode="&#x165;" horiz-adv-x="180" 
d="M11 0zM81 0v737h-70v20h158v-20h-68v-737h-20zM80 789l-60 169v4h20l48 -141h4l48 141h20v-4l-60 -169h-20z" />
    <glyph glyph-name="Tbar" unicode="&#x166;" horiz-adv-x="180" 
d="M81 0v461h-56v20h56v256h-70v20h158v-20h-68v-256h54v-20h-54v-461h-20z" />
    <glyph glyph-name="tbar" unicode="&#x167;" horiz-adv-x="180" 
d="M11 0zM81 0v461h-56v20h56v256h-70v20h158v-20h-68v-256h54v-20h-54v-461h-20z" />
    <glyph glyph-name="Utilde" unicode="&#x168;" horiz-adv-x="220" 
d="M28 0zM171 757h20v-569q0 -38 -1 -63.5t-2.5 -42.5t-4 -28.5t-6.5 -21.5q-9 -26 -25 -35.5t-42 -9.5t-42 9.5t-25 35.5q-4 10 -6.5 21.5t-4.5 28.5t-3 42.5t-1 63.5v569h20v-569q0 -37 1 -61t2.5 -40.5t4.5 -27t6 -20.5q6 -18 17.5 -25t30.5 -7t30.5 7t17.5 25
q3 10 5.5 20.5t4 26.5t2.5 40.5t1 61.5v569zM190 869q-11 -27 -37 -27q-15 0 -26.5 7.5t-21.5 18.5t-18 16t-20 5q-8 0 -12.5 -2t-10.5 -9q-7 -9 -10 -20h-4v24q11 27 37 27q16 0 28 -8.5t23 -20.5q14 -18 35 -18q8 0 12.5 2t10.5 9q7 9 10 20h4v-24z" />
    <glyph glyph-name="utilde" unicode="&#x169;" horiz-adv-x="220" 
d="M28 0zM171 757h20v-569q0 -38 -1 -63.5t-2.5 -42.5t-4 -28.5t-6.5 -21.5q-9 -26 -25 -35.5t-42 -9.5t-42 9.5t-25 35.5q-4 10 -6.5 21.5t-4.5 28.5t-3 42.5t-1 63.5v569h20v-569q0 -37 1 -61t2.5 -40.5t4.5 -27t6 -20.5q6 -18 17.5 -25t30.5 -7t30.5 7t17.5 25
q3 10 5.5 20.5t4 26.5t2.5 40.5t1 61.5v569zM190 869q-11 -27 -37 -27q-15 0 -26.5 7.5t-21.5 18.5t-18 16t-20 5q-8 0 -12.5 -2t-10.5 -9q-7 -9 -10 -20h-4v24q11 27 37 27q16 0 28 -8.5t23 -20.5q14 -18 35 -18q8 0 12.5 2t10.5 9q7 9 10 20h4v-24z" />
    <glyph glyph-name="Umacron" unicode="&#x16a;" horiz-adv-x="220" 
d="M28 0zM171 757h20v-569q0 -38 -1 -63.5t-2.5 -42.5t-4 -28.5t-6.5 -21.5q-9 -26 -25 -35.5t-42 -9.5t-42 9.5t-25 35.5q-4 10 -6.5 21.5t-4.5 28.5t-3 42.5t-1 63.5v569h20v-569q0 -37 1 -61t2.5 -40.5t4.5 -27t6 -20.5q6 -18 17.5 -25t30.5 -7t30.5 7t17.5 25
q3 10 5.5 20.5t4 26.5t2.5 40.5t1 61.5v569zM30 867v20h160v-20h-160z" />
    <glyph glyph-name="umacron" unicode="&#x16b;" horiz-adv-x="220" 
d="M28 0zM171 757h20v-569q0 -38 -1 -63.5t-2.5 -42.5t-4 -28.5t-6.5 -21.5q-9 -26 -25 -35.5t-42 -9.5t-42 9.5t-25 35.5q-4 10 -6.5 21.5t-4.5 28.5t-3 42.5t-1 63.5v569h20v-569q0 -37 1 -61t2.5 -40.5t4.5 -27t6 -20.5q6 -18 17.5 -25t30.5 -7t30.5 7t17.5 25
q3 10 5.5 20.5t4 26.5t2.5 40.5t1 61.5v569zM30 867v20h160v-20h-160z" />
    <glyph glyph-name="Ubreve" unicode="&#x16c;" horiz-adv-x="220" 
d="M28 0zM171 757h20v-569q0 -38 -1 -63.5t-2.5 -42.5t-4 -28.5t-6.5 -21.5q-9 -26 -25 -35.5t-42 -9.5t-42 9.5t-25 35.5q-4 10 -6.5 21.5t-4.5 28.5t-3 42.5t-1 63.5v569h20v-569q0 -37 1 -61t2.5 -40.5t4.5 -27t6 -20.5q6 -18 17.5 -25t30.5 -7t30.5 7t17.5 25
q3 10 5.5 20.5t4 26.5t2.5 40.5t1 61.5v569zM176 962q0 -42 -1 -68t-2.5 -41t-4 -23t-5.5 -14q-7 -13 -18 -20t-35 -7t-35 7t-18 20q-3 6 -5.5 14t-4 23t-2.5 41t-1 68h20q0 -42 0.5 -67t1.5 -38.5t2.5 -19.5t4.5 -11q5 -11 12 -14t25 -3t25 3t12 14q3 5 4.5 11t2.5 19.5
t1.5 38.5t0.5 67h20z" />
    <glyph glyph-name="ubreve" unicode="&#x16d;" horiz-adv-x="220" 
d="M28 0zM171 757h20v-569q0 -38 -1 -63.5t-2.5 -42.5t-4 -28.5t-6.5 -21.5q-9 -26 -25 -35.5t-42 -9.5t-42 9.5t-25 35.5q-4 10 -6.5 21.5t-4.5 28.5t-3 42.5t-1 63.5v569h20v-569q0 -37 1 -61t2.5 -40.5t4.5 -27t6 -20.5q6 -18 17.5 -25t30.5 -7t30.5 7t17.5 25
q3 10 5.5 20.5t4 26.5t2.5 40.5t1 61.5v569zM176 962q0 -42 -1 -68t-2.5 -41t-4 -23t-5.5 -14q-7 -13 -18 -20t-35 -7t-35 7t-18 20q-3 6 -5.5 14t-4 23t-2.5 41t-1 68h20q0 -42 0.5 -67t1.5 -38.5t2.5 -19.5t4.5 -11q5 -11 12 -14t25 -3t25 3t12 14q3 5 4.5 11t2.5 19.5
t1.5 38.5t0.5 67h20z" />
    <glyph glyph-name="Uring" unicode="&#x16e;" horiz-adv-x="220" 
d="M28 0zM171 757h20v-569q0 -38 -1 -63.5t-2.5 -42.5t-4 -28.5t-6.5 -21.5q-9 -26 -25 -35.5t-42 -9.5t-42 9.5t-25 35.5q-4 10 -6.5 21.5t-4.5 28.5t-3 42.5t-1 63.5v569h20v-569q0 -37 1 -61t2.5 -40.5t4.5 -27t6 -20.5q6 -18 17.5 -25t30.5 -7t30.5 7t17.5 25
q3 10 5.5 20.5t4 26.5t2.5 40.5t1 61.5v569zM144 790q-5 -8 -11.5 -11.5t-22.5 -3.5t-22.5 3.5t-11.5 11.5q-2 4 -3.5 8.5t-2.5 12.5t-1.5 21.5t-0.5 36.5q0 22 0.5 35.5t1.5 21.5t2.5 12.5t3.5 8.5q5 8 11.5 11.5t22.5 3.5t22.5 -3.5t11.5 -11.5q2 -4 3.5 -8.5t2.5 -12.5
t1.5 -21.5t0.5 -35.5q0 -23 -0.5 -36.5t-1.5 -21.5t-2.5 -12.5t-3.5 -8.5zM128 801q1 2 2 5t1.5 9.5t0.5 19v34.5v34t-0.5 19t-1.5 9.5t-2 4.5q-2 4 -5.5 5t-12.5 1t-12.5 -1t-5.5 -5q-1 -2 -2 -4.5t-1.5 -9.5t-0.5 -19v-34v-34.5t0.5 -19t1.5 -9.5t2 -5q2 -4 5.5 -5
t12.5 -1t12.5 1t5.5 5z" />
    <glyph glyph-name="uring" unicode="&#x16f;" horiz-adv-x="220" 
d="M28 0zM171 757h20v-569q0 -38 -1 -63.5t-2.5 -42.5t-4 -28.5t-6.5 -21.5q-9 -26 -25 -35.5t-42 -9.5t-42 9.5t-25 35.5q-4 10 -6.5 21.5t-4.5 28.5t-3 42.5t-1 63.5v569h20v-569q0 -37 1 -61t2.5 -40.5t4.5 -27t6 -20.5q6 -18 17.5 -25t30.5 -7t30.5 7t17.5 25
q3 10 5.5 20.5t4 26.5t2.5 40.5t1 61.5v569zM144 790q-5 -8 -11.5 -11.5t-22.5 -3.5t-22.5 3.5t-11.5 11.5q-2 4 -3.5 8.5t-2.5 12.5t-1.5 21.5t-0.5 36.5q0 22 0.5 35.5t1.5 21.5t2.5 12.5t3.5 8.5q5 8 11.5 11.5t22.5 3.5t22.5 -3.5t11.5 -11.5q2 -4 3.5 -8.5t2.5 -12.5
t1.5 -21.5t0.5 -35.5q0 -23 -0.5 -36.5t-1.5 -21.5t-2.5 -12.5t-3.5 -8.5zM128 801q1 2 2 5t1.5 9.5t0.5 19v34.5v34t-0.5 19t-1.5 9.5t-2 4.5q-2 4 -5.5 5t-12.5 1t-12.5 -1t-5.5 -5q-1 -2 -2 -4.5t-1.5 -9.5t-0.5 -19v-34v-34.5t0.5 -19t1.5 -9.5t2 -5q2 -4 5.5 -5
t12.5 -1t12.5 1t5.5 5z" />
    <glyph glyph-name="Uhungarumlaut" unicode="&#x170;" horiz-adv-x="220" 
d="M28 0zM171 757h20v-569q0 -38 -1 -63.5t-2.5 -42.5t-4 -28.5t-6.5 -21.5q-9 -26 -25 -35.5t-42 -9.5t-42 9.5t-25 35.5q-4 10 -6.5 21.5t-4.5 28.5t-3 42.5t-1 63.5v569h20v-569q0 -37 1 -61t2.5 -40.5t4.5 -27t6 -20.5q6 -18 17.5 -25t30.5 -7t30.5 7t17.5 25
q3 10 5.5 20.5t4 26.5t2.5 40.5t1 61.5v569zM139 789v4l71 169h21v-4l-76 -169h-16zM61 789v4l71 169h21v-4l-76 -169h-16z" />
    <glyph glyph-name="uhungarumlaut" unicode="&#x171;" horiz-adv-x="220" 
d="M28 0zM171 757h20v-569q0 -38 -1 -63.5t-2.5 -42.5t-4 -28.5t-6.5 -21.5q-9 -26 -25 -35.5t-42 -9.5t-42 9.5t-25 35.5q-4 10 -6.5 21.5t-4.5 28.5t-3 42.5t-1 63.5v569h20v-569q0 -37 1 -61t2.5 -40.5t4.5 -27t6 -20.5q6 -18 17.5 -25t30.5 -7t30.5 7t17.5 25
q3 10 5.5 20.5t4 26.5t2.5 40.5t1 61.5v569zM139 789v4l71 169h21v-4l-76 -169h-16zM61 789v4l71 169h21v-4l-76 -169h-16z" />
    <glyph glyph-name="Uogonek" unicode="&#x172;" horiz-adv-x="220" 
d="M160 -225q-5 -4 -15.5 -8.5t-26.5 -4.5q-32 0 -46.5 27t-14.5 82q0 26 5.5 50t19.5 41q12 16 28 25q-26 0 -42 9.5t-25 35.5q-4 10 -6.5 21.5t-4.5 28.5t-3 42.5t-1 63.5v569h20v-569q0 -37 1 -61t2.5 -40.5t4.5 -27t6 -20.5q6 -18 17.5 -25t30.5 -7t30.5 7t17.5 25
q3 10 5.5 20.5t4 26.5t2.5 40.5t1 61.5v569h20v-569q0 -38 -1 -63.5t-2.5 -42.5t-4 -28.5t-6.5 -21.5q-5 -16 -13 -25t-19 -14q-22 -11 -32 -19.5t-18 -21.5q-12 -17 -15 -37.5t-3 -43.5q0 -89 41 -89q14 0 22 2.5t16 8.5h4v-18z" />
    <glyph glyph-name="uogonek" unicode="&#x173;" horiz-adv-x="220" 
d="M28 0zM160 -225q-5 -4 -15.5 -8.5t-26.5 -4.5q-32 0 -46.5 27t-14.5 82q0 26 5.5 50t19.5 41q12 16 28 25q-26 0 -42 9.5t-25 35.5q-4 10 -6.5 21.5t-4.5 28.5t-3 42.5t-1 63.5v569h20v-569q0 -37 1 -61t2.5 -40.5t4.5 -27t6 -20.5q6 -18 17.5 -25t30.5 -7t30.5 7
t17.5 25q3 10 5.5 20.5t4 26.5t2.5 40.5t1 61.5v569h20v-569q0 -38 -1 -63.5t-2.5 -42.5t-4 -28.5t-6.5 -21.5q-5 -16 -13 -25t-19 -14q-22 -11 -32 -19.5t-18 -21.5q-12 -17 -15 -37.5t-3 -43.5q0 -89 41 -89q14 0 22 2.5t16 8.5h4v-18z" />
    <glyph glyph-name="Wcircumflex" unicode="&#x174;" horiz-adv-x="322" 
d="M22 0zM210 0l-44 577q-3 40 -3 61h-4q0 -21 -3 -61l-44 -577h-36l-54 757h20l46 -676q2 -19 3 -31.5t1 -25.5h4q0 13 1 25.5t3 31.5l52 676h18l52 -676q2 -20 3 -32t1 -25h4q0 13 1 25.5t3 31.5l46 676h20l-54 -757h-36zM211 789l-48 141h-4l-48 -141h-20v4l60 169h20
l60 -169v-4h-20z" />
    <glyph glyph-name="wcircumflex" unicode="&#x175;" horiz-adv-x="322" 
d="M22 0zM210 0l-44 577q-3 40 -3 61h-4q0 -21 -3 -61l-44 -577h-36l-54 757h20l46 -676q2 -19 3 -31.5t1 -25.5h4q0 13 1 25.5t3 31.5l52 676h18l52 -676q2 -20 3 -32t1 -25h4q0 13 1 25.5t3 31.5l46 676h20l-54 -757h-36zM211 789l-48 141h-4l-48 -141h-20v4l60 169h20
l60 -169v-4h-20z" />
    <glyph glyph-name="Ycircumflex" unicode="&#x176;" horiz-adv-x="203" 
d="M14 0zM91 0v385l-77 368v4h20l55 -274q3 -17 5.5 -32l4.5 -27h4l4.5 27t5.5 32l56 274h20v-4l-78 -368v-385h-20zM152 789l-48 141h-4l-48 -141h-20v4l60 169h20l60 -169v-4h-20z" />
    <glyph glyph-name="ycircumflex" unicode="&#x177;" horiz-adv-x="203" 
d="M14 0zM91 0v385l-77 368v4h20l55 -274q3 -17 5.5 -32l4.5 -27h4l4.5 27t5.5 32l56 274h20v-4l-78 -368v-385h-20zM152 789l-48 141h-4l-48 -141h-20v4l60 169h20l60 -169v-4h-20z" />
    <glyph glyph-name="Ydieresis" unicode="&#x178;" horiz-adv-x="203" 
d="M14 0zM91 0v385l-77 368v4h20l55 -274q3 -17 5.5 -32l4.5 -27h4l4.5 27t5.5 32l56 274h20v-4l-78 -368v-385h-20zM136 820v102h20v-102h-20zM46 820v102h20v-102h-20z" />
    <glyph glyph-name="Zacute" unicode="&#x179;" horiz-adv-x="216" 
d="M23 0zM23 0v24l152 710l-2 3h-147v20h170v-12l-153 -722l1 -3h149v-20h-170zM101 789v4l71 169h21v-4l-76 -169h-16z" />
    <glyph glyph-name="zacute" unicode="&#x17a;" horiz-adv-x="216" 
d="M23 0zM23 0v24l152 710l-2 3h-147v20h170v-12l-153 -722l1 -3h149v-20h-170zM101 789v4l71 169h21v-4l-76 -169h-16z" />
    <glyph glyph-name="Zdotaccent" unicode="&#x17b;" horiz-adv-x="216" 
d="M23 0zM23 0v24l152 710l-2 3h-147v20h170v-12l-153 -722l1 -3h149v-20h-170zM101 820v102h20v-102h-20z" />
    <glyph glyph-name="zdotaccent" unicode="&#x17c;" horiz-adv-x="216" 
d="M23 0zM23 0v24l152 710l-2 3h-147v20h170v-12l-153 -722l1 -3h149v-20h-170zM101 820v102h20v-102h-20z" />
    <glyph glyph-name="Zcaron" unicode="&#x17d;" horiz-adv-x="216" 
d="M23 0zM23 0v24l152 710l-2 3h-147v20h170v-12l-153 -722l1 -3h149v-20h-170zM102 789l-60 169v4h20l48 -141h4l48 141h20v-4l-60 -169h-20z" />
    <glyph glyph-name="zcaron" unicode="&#x17e;" horiz-adv-x="216" 
d="M23 0zM23 0v24l152 710l-2 3h-147v20h170v-12l-153 -722l1 -3h149v-20h-170zM102 789l-60 169v4h20l48 -141h4l48 141h20v-4l-60 -169h-20z" />
    <glyph glyph-name="florin" unicode="&#x192;" 
d="M30 -217q24 1 36 23q7 14 8.5 32t1.5 51v651h-32v20h32v114q0 34 2.5 56t10.5 37q11 20 25.5 27t37.5 7q11 0 19 -2.5t13 -6.5v-19h-4q-6 4 -12 6t-16 2q-17 0 -27.5 -5t-18.5 -19q-7 -14 -8.5 -32t-1.5 -51v-114h86v-20h-86v-651q0 -34 -2.5 -56t-10.5 -37
q-10 -17 -22.5 -24t-30.5 -9v20z" />
    <glyph glyph-name="Scommaaccent" unicode="&#x218;" horiz-adv-x="203" 
d="M24 0zM48 253q-2 -14 -2.5 -36t-0.5 -55q0 -43 2.5 -70t8.5 -47q7 -20 16 -29t25 -9q32 0 45 35q8 21 11.5 54.5t3.5 93.5q0 39 -1 64.5t-3 42t-6.5 27t-10.5 19.5q-12 18 -31.5 32.5t-36.5 31.5q-9 9 -17 18.5t-14 23.5q-4 9 -6.5 19.5t-4 27.5t-2 43.5t-0.5 68.5
q0 48 3.5 77.5t12.5 48.5q17 36 58 36q22 0 35.5 -8.5t23.5 -25.5q10 -18 14 -45t4 -77q0 -34 -1 -57t-3 -35h-20q2 12 3 35t1 57q0 45 -4 70.5t-12 41.5q-13 24 -41 24q-29 0 -40 -24q-8 -17 -11 -44t-3 -74q0 -42 0.5 -67.5t1.5 -41.5t3.5 -25t5.5 -17q5 -10 12.5 -19.5
t14.5 -16.5q17 -17 36.5 -32t33.5 -34q7 -11 12 -22t8 -29t4 -45t1 -69q0 -61 -3.5 -96.5t-13.5 -59.5q-10 -23 -25 -35t-38 -12q-25 0 -39 12t-22 40q-6 20 -8.5 48t-2.5 75q0 34 0.5 55t2.5 36h20zM34 -238v4l56 193h21v-4l-61 -193h-16z" />
    <glyph glyph-name="scommaaccent" unicode="&#x219;" horiz-adv-x="203" 
d="M24 0zM48 253q-2 -14 -2.5 -36t-0.5 -55q0 -43 2.5 -70t8.5 -47q7 -20 16 -29t25 -9q32 0 45 35q8 21 11.5 54.5t3.5 93.5q0 39 -1 64.5t-3 42t-6.5 27t-10.5 19.5q-12 18 -31.5 32.5t-36.5 31.5q-9 9 -17 18.5t-14 23.5q-4 9 -6.5 19.5t-4 27.5t-2 43.5t-0.5 68.5
q0 48 3.5 77.5t12.5 48.5q17 36 58 36q22 0 35.5 -8.5t23.5 -25.5q10 -18 14 -45t4 -77q0 -34 -1 -57t-3 -35h-20q2 12 3 35t1 57q0 45 -4 70.5t-12 41.5q-13 24 -41 24q-29 0 -40 -24q-8 -17 -11 -44t-3 -74q0 -42 0.5 -67.5t1.5 -41.5t3.5 -25t5.5 -17q5 -10 12.5 -19.5
t14.5 -16.5q17 -17 36.5 -32t33.5 -34q7 -11 12 -22t8 -29t4 -45t1 -69q0 -61 -3.5 -96.5t-13.5 -59.5q-10 -23 -25 -35t-38 -12q-25 0 -39 12t-22 40q-6 20 -8.5 48t-2.5 75q0 34 0.5 55t2.5 36h20zM34 -238v4l56 193h21v-4l-61 -193h-16z" />
    <glyph glyph-name="uni021A" unicode="&#x21a;" horiz-adv-x="180" 
d="M11 0zM81 0v737h-70v20h158v-20h-68v-737h-20zM27 -238v4l56 193h21v-4l-61 -193h-16z" />
    <glyph glyph-name="uni021B" unicode="&#x21b;" horiz-adv-x="180" 
d="M11 0zM81 0v737h-70v20h158v-20h-68v-737h-20zM27 -238v4l56 193h21v-4l-61 -193h-16z" />
    <glyph glyph-name="circumflex" unicode="&#x2c6;" horiz-adv-x="204" 
d="M152 592l-48 141h-4l-48 -141h-20v4l60 169h20l60 -169v-4h-20z" />
    <glyph glyph-name="caron" unicode="&#x2c7;" horiz-adv-x="204" 
d="M92 592l-60 169v4h20l48 -141h4l48 141h20v-4l-60 -169h-20z" />
    <glyph glyph-name="breve" unicode="&#x2d8;" horiz-adv-x="196" 
d="M164 765q0 -42 -1 -68t-2.5 -41t-4 -23t-5.5 -14q-7 -13 -18 -20t-35 -7t-35 7t-18 20q-3 6 -5.5 14t-4 23t-2.5 41t-1 68h20q0 -42 0.5 -67t1.5 -38.5t2.5 -19.5t4.5 -11q5 -11 12 -14t25 -3t25 3t12 14q3 5 4.5 11t2.5 19.5t1.5 38.5t0.5 67h20z" />
    <glyph glyph-name="dotaccent" unicode="&#x2d9;" horiz-adv-x="84" 
d="M32 623v102h20v-102h-20z" />
    <glyph glyph-name="ring" unicode="&#x2da;" horiz-adv-x="148" 
d="M108 593q-5 -8 -11.5 -11.5t-22.5 -3.5t-22.5 3.5t-11.5 11.5q-2 4 -3.5 8.5t-2.5 12.5t-1.5 21.5t-0.5 36.5q0 22 0.5 35.5t1.5 21.5t2.5 12.5t3.5 8.5q5 8 11.5 11.5t22.5 3.5t22.5 -3.5t11.5 -11.5q2 -4 3.5 -8.5t2.5 -12.5t1.5 -21.5t0.5 -35.5q0 -23 -0.5 -36.5
t-1.5 -21.5t-2.5 -12.5t-3.5 -8.5zM92 604q1 2 2 5t1.5 9.5t0.5 19v34.5v34t-0.5 19t-1.5 9.5t-2 4.5q-2 4 -5.5 5t-12.5 1t-12.5 -1t-5.5 -5q-1 -2 -2 -4.5t-1.5 -9.5t-0.5 -19v-34v-34.5t0.5 -19t1.5 -9.5t2 -5q2 -4 5.5 -5t12.5 -1t12.5 1t5.5 5z" />
    <glyph glyph-name="ogonek" unicode="&#x2db;" horiz-adv-x="167" 
d="M135 -225q-5 -4 -15.5 -8.5t-26.5 -4.5q-32 0 -46.5 27t-14.5 82q0 26 5.5 50t19.5 41q11 14 25 22.5t33 15.5h20q-15 -7 -25.5 -12.5t-17.5 -11t-12 -11.5t-10 -13q-12 -17 -15 -37.5t-3 -43.5q0 -89 41 -89q14 0 22 2.5t16 8.5h4v-18z" />
    <glyph glyph-name="tilde" unicode="&#x2dc;" horiz-adv-x="224" 
d="M192 672q-11 -27 -37 -27q-15 0 -26.5 7.5t-21.5 18.5t-18 16t-20 5q-8 0 -12.5 -2t-10.5 -9q-7 -9 -10 -20h-4v24q11 27 37 27q16 0 28 -8.5t23 -20.5q14 -18 35 -18q8 0 12.5 2t10.5 9q7 9 10 20h4v-24z" />
    <glyph glyph-name="hungarumlaut" unicode="&#x2dd;" horiz-adv-x="234" 
d="M121 592v4l71 169h21v-4l-76 -169h-16zM43 592v4l71 169h21v-4l-76 -169h-16z" />
    <glyph glyph-name="Delta" unicode="&#x394;" 
d="M21 0l73 757h31l68 -757h-172zM111 685h-4l-64 -665h128z" />
    <glyph glyph-name="Omega" unicode="&#x3a9;" 
d="M116 0v14q12 25 22 58t17 87t11 136.5t4 206.5q0 58 -0.5 96.5t-1.5 63.5t-3 39.5t-5 23.5q-4 12 -14 18.5t-39 6.5t-39 -6.5t-14 -18.5q-3 -9 -5 -23.5t-3 -39.5t-1.5 -63.5t-0.5 -96.5q0 -124 4 -206.5t11 -136.5t17 -87t22 -58v-14h-71v20h51l1 2q-12 24 -22 54
t-17.5 82.5t-11.5 134.5t-4 209q0 59 0.5 98.5t1.5 65.5t3.5 41t5.5 25q6 19 20 28.5t52 9.5t52 -9.5t20 -28.5q3 -10 5.5 -25t3.5 -41t1.5 -65.5t0.5 -98.5q0 -127 -4 -209t-11.5 -134.5t-17.5 -82.5t-22 -54l1 -2h51v-20h-71z" />
    <glyph glyph-name="mu" unicode="&#x3bc;" 
d="M30 -238v798h20v-448q0 -55 10.5 -80t42.5 -25q17 0 27.5 6t18.5 16q6 8 9.5 15t6.5 18v498h20v-560h-19l-1 19l-2 1q-8 -14 -22.5 -23.5t-38.5 -9.5q-17 0 -28.5 6.5t-19.5 16.5h-4v-248h-20z" />
    <glyph glyph-name="pi" unicode="&#x3c0;" horiz-adv-x="263" 
d="M237 4q-5 -5 -15 -11t-35 -6q-31 0 -45 26q-5 10 -6.5 23.5t-1.5 36.5v467h-82v-540h-20v560h122v-487q0 -23 1 -33.5t5 -17.5q5 -8 11 -11.5t20 -3.5q18 0 26.5 4.5t15.5 12.5h4v-20z" />
    <glyph glyph-name="Wgrave" unicode="&#x1e80;" horiz-adv-x="322" 
d="M22 0zM210 0l-44 577q-3 40 -3 61h-4q0 -21 -3 -61l-44 -577h-36l-54 757h20l46 -676q2 -19 3 -31.5t1 -25.5h4q0 13 1 25.5t3 31.5l52 676h18l52 -676q2 -20 3 -32t1 -25h4q0 13 1 25.5t3 31.5l46 676h20l-54 -757h-36zM155 789l-76 169v4h21l71 -169v-4h-16z" />
    <glyph glyph-name="wgrave" unicode="&#x1e81;" horiz-adv-x="322" 
d="M22 0zM210 0l-44 577q-3 40 -3 61h-4q0 -21 -3 -61l-44 -577h-36l-54 757h20l46 -676q2 -19 3 -31.5t1 -25.5h4q0 13 1 25.5t3 31.5l52 676h18l52 -676q2 -20 3 -32t1 -25h4q0 13 1 25.5t3 31.5l46 676h20l-54 -757h-36zM155 789l-76 169v4h21l71 -169v-4h-16z" />
    <glyph glyph-name="Wacute" unicode="&#x1e82;" horiz-adv-x="322" 
d="M22 0zM210 0l-44 577q-3 40 -3 61h-4q0 -21 -3 -61l-44 -577h-36l-54 757h20l46 -676q2 -19 3 -31.5t1 -25.5h4q0 13 1 25.5t3 31.5l52 676h18l52 -676q2 -20 3 -32t1 -25h4q0 13 1 25.5t3 31.5l46 676h20l-54 -757h-36zM151 789v4l71 169h21v-4l-76 -169h-16z" />
    <glyph glyph-name="wacute" unicode="&#x1e83;" horiz-adv-x="322" 
d="M22 0zM210 0l-44 577q-3 40 -3 61h-4q0 -21 -3 -61l-44 -577h-36l-54 757h20l46 -676q2 -19 3 -31.5t1 -25.5h4q0 13 1 25.5t3 31.5l52 676h18l52 -676q2 -20 3 -32t1 -25h4q0 13 1 25.5t3 31.5l46 676h20l-54 -757h-36zM151 789v4l71 169h21v-4l-76 -169h-16z" />
    <glyph glyph-name="Wdieresis" unicode="&#x1e84;" horiz-adv-x="322" 
d="M22 0zM210 0l-44 577q-3 40 -3 61h-4q0 -21 -3 -61l-44 -577h-36l-54 757h20l46 -676q2 -19 3 -31.5t1 -25.5h4q0 13 1 25.5t3 31.5l52 676h18l52 -676q2 -20 3 -32t1 -25h4q0 13 1 25.5t3 31.5l46 676h20l-54 -757h-36zM196 820v102h20v-102h-20zM106 820v102h20v-102
h-20z" />
    <glyph glyph-name="wdieresis" unicode="&#x1e85;" horiz-adv-x="322" 
d="M22 0zM210 0l-44 577q-3 40 -3 61h-4q0 -21 -3 -61l-44 -577h-36l-54 757h20l46 -676q2 -19 3 -31.5t1 -25.5h4q0 13 1 25.5t3 31.5l52 676h18l52 -676q2 -20 3 -32t1 -25h4q0 13 1 25.5t3 31.5l46 676h20l-54 -757h-36zM196 820v102h20v-102h-20zM106 820v102h20v-102
h-20z" />
    <glyph glyph-name="Ygrave" unicode="&#x1ef2;" horiz-adv-x="203" 
d="M14 0zM91 0v385l-77 368v4h20l55 -274q3 -17 5.5 -32l4.5 -27h4l4.5 27t5.5 32l56 274h20v-4l-78 -368v-385h-20zM96 789l-76 169v4h21l71 -169v-4h-16z" />
    <glyph glyph-name="ygrave" unicode="&#x1ef3;" horiz-adv-x="203" 
d="M14 0zM91 0v385l-77 368v4h20l55 -274q3 -17 5.5 -32l4.5 -27h4l4.5 27t5.5 32l56 274h20v-4l-78 -368v-385h-20zM96 789l-76 169v4h21l71 -169v-4h-16z" />
    <glyph glyph-name="endash" unicode="&#x2013;" horiz-adv-x="254" 
d="M25 372v20h204v-20h-204z" />
    <glyph glyph-name="emdash" unicode="&#x2014;" horiz-adv-x="340" 
d="M25 372v20h290v-20h-290z" />
    <glyph glyph-name="quoteleft" unicode="&#x2018;" horiz-adv-x="87" 
d="M32 545v97l14 146h9v-4l-10 -145l2 -3h8v-91h-23z" />
    <glyph glyph-name="quoteright" unicode="&#x2019;" horiz-adv-x="87" 
d="M32 545v4l10 145l-2 3h-8v91h23v-97l-14 -146h-9z" />
    <glyph glyph-name="quotesinglbase" unicode="&#x201a;" horiz-adv-x="87" 
d="M32 -142v4l10 145l-2 3h-8v91h23v-97l-14 -146h-9z" />
    <glyph glyph-name="quotedblleft" unicode="&#x201c;" horiz-adv-x="174" 
d="M32 545zM32 545v97l14 146h9v-4l-10 -145l2 -3h8v-91h-23zM119 545v97l14 146h9v-4l-10 -145l2 -3h8v-91h-23z" />
    <glyph glyph-name="quotedblright" unicode="&#x201d;" horiz-adv-x="174" 
d="M32 545zM32 545v4l10 145l-2 3h-8v91h23v-97l-14 -146h-9zM119 545v4l10 145l-2 3h-8v91h23v-97l-14 -146h-9z" />
    <glyph glyph-name="quotedblbase" unicode="&#x201e;" horiz-adv-x="174" 
d="M32 0zM32 -142v4l10 145l-2 3h-8v91h23v-97l-14 -146h-9zM119 -142v4l10 145l-2 3h-8v91h23v-97l-14 -146h-9z" />
    <glyph glyph-name="dagger" unicode="&#x2020;" horiz-adv-x="280" 
d="M135 0l-5 114v476h-98v20h98v147h20v-147h98v-20h-98v-476l-6 -114h-9z" />
    <glyph glyph-name="daggerdbl" unicode="&#x2021;" horiz-adv-x="280" 
d="M130 0v147h-98v20h98v117l5 95l-5 94v117h-98v20h98v147h20v-147h98v-20h-98v-117l-6 -94l6 -95v-117h98v-20h-98v-147h-20z" />
    <glyph glyph-name="bullet" unicode="&#x2022;" horiz-adv-x="170" 
d="M129 318q-5 -6 -15 -8.5t-29 -2.5t-29 2.5t-15 8.5q-5 5 -7 15.5t-2 40.5q0 31 2 41t7 16q9 10 44 10t44 -10q5 -6 7 -16t2 -41q0 -30 -2 -40t-7 -16z" />
    <glyph glyph-name="ellipsis" unicode="&#x2026;" horiz-adv-x="241" 
d="M37 0zM37 0v101h20v-101h-20zM110 0v101h20v-101h-20zM183 0v101h20v-101h-20z" />
    <glyph glyph-name="perthousand" unicode="&#x2030;" horiz-adv-x="351" 
d="M8 0zM98 366q-5 -17 -15 -21t-25 -4t-25 4t-15 21q-7 19 -8.5 63.5t-1.5 128.5t2 128.5t9 64.5q5 17 14.5 20.5t24.5 3.5t24.5 -3.5t14.5 -20.5q7 -20 9 -64.5t2 -128.5t-1.5 -128.5t-8.5 -63.5zM79 372q6 17 7.5 60t1.5 126q0 82 -2 125t-8 61q-2 8 -7 9.5t-13 1.5
t-13 -1.5t-7 -9.5q-6 -18 -8 -61t-2 -125q0 -83 1.5 -126t7.5 -60q2 -8 7.5 -9.5t13.5 -1.5t13 1.5t8 9.5zM14 0v4l192 753h20v-4l-193 -753h-19zM223 8q-5 -17 -15 -21t-25 -4t-25 4t-15 21q-7 19 -8.5 63.5t-1.5 128.5t2 128.5t9 64.5q5 17 14.5 20.5t24.5 3.5t24.5 -3.5
t14.5 -20.5q7 -20 9 -64.5t2 -128.5t-1.5 -128.5t-8.5 -63.5zM204 14q6 17 7.5 60t1.5 126q0 82 -2 125t-8 61q-2 8 -7 9.5t-13 1.5t-13 -1.5t-7 -9.5q-6 -18 -8 -61t-2 -125q0 -83 1.5 -126t7.5 -60q2 -8 7.5 -9.5t13.5 -1.5t13 1.5t8 9.5zM333 8q-5 -17 -15 -21t-25 -4
t-25 4t-15 21q-7 19 -8.5 63.5t-1.5 128.5t2 128.5t9 64.5q5 17 14.5 20.5t24.5 3.5t24.5 -3.5t14.5 -20.5q7 -20 9 -64.5t2 -128.5t-1.5 -128.5t-8.5 -63.5zM314 14q6 17 7.5 60t1.5 126q0 82 -2 125t-8 61q-2 8 -7 9.5t-13 1.5t-13 -1.5t-7 -9.5q-6 -18 -8 -61t-2 -125
q0 -83 1.5 -126t7.5 -60q2 -8 7.5 -9.5t13.5 -1.5t13 1.5t8 9.5z" />
    <glyph glyph-name="minute" unicode="&#x2032;" horiz-adv-x="113" 
d="M20 484l53 304h20l-56 -304h-17z" />
    <glyph glyph-name="second" unicode="&#x2033;" horiz-adv-x="183" 
d="M90 484l53 304h20l-56 -304h-17zM20 484l53 304h20l-56 -304h-17z" />
    <glyph glyph-name="guilsinglleft" unicode="&#x2039;" horiz-adv-x="134" 
d="M104 235l-79 138v13l79 138h4v-33l-64 -110v-4l64 -109v-33h-4z" />
    <glyph glyph-name="guilsinglright" unicode="&#x203a;" horiz-adv-x="134" 
d="M25 235v33l64 109v4l-64 110v33h4l79 -138v-13l-79 -138h-4z" />
    <glyph glyph-name="fraction" unicode="&#x2044;" horiz-adv-x="69" 
d="M-72 0v4l192 753h20v-4l-193 -753h-19z" />
    <glyph glyph-name="zerosuperior" unicode="&#x2070;" horiz-adv-x="148" 
d="M23 341zM113 366q-5 -17 -15 -21t-25 -4t-25 4t-15 21q-7 19 -8.5 63.5t-1.5 128.5t2 128.5t9 64.5q5 17 14.5 20.5t24.5 3.5t24.5 -3.5t14.5 -20.5q7 -20 9 -64.5t2 -128.5t-1.5 -128.5t-8.5 -63.5zM94 372q6 17 7.5 60t1.5 126q0 82 -2 125t-8 61q-2 8 -7 9.5t-13 1.5
t-13 -1.5t-7 -9.5q-6 -18 -8 -61t-2 -125q0 -83 1.5 -126t7.5 -60q2 -8 7.5 -9.5t13.5 -1.5t13 1.5t8 9.5z" />
    <glyph glyph-name="foursuperior" unicode="&#x2074;" horiz-adv-x="148" 
d="M21 348zM91 348v96h-70v21l62 302h28v-303h14v-20h-14v-96h-20zM91 697h-4l-47 -233h51v233z" />
    <glyph glyph-name="fivesuperior" unicode="&#x2075;" horiz-adv-x="148" 
d="M23 341zM44 515q-1 -8 -1 -20v-22q0 -37 1.5 -58.5t5 -33t8.5 -14.5t12 -3q10 0 16.5 4t10 19.5t4.5 46t1 84.5q0 37 -1 57.5t-4 30.5t-8 12.5t-13 2.5q-17 0 -26 -28l-23 5l6 169h87v-20h-68l-5 -124l3 -1q8 19 32 19q12 0 19.5 -4t12 -17t6.5 -37.5t2 -64.5
q0 -58 -2 -93t-7.5 -53.5t-16 -24.5t-26.5 -6q-14 0 -23 5.5t-14 20t-7.5 40t-2.5 66.5v21.5t1 20.5h20z" />
    <glyph glyph-name="sixsuperior" unicode="&#x2076;" horiz-adv-x="148" 
d="M23 341zM100 644q1 10 1 16v14q0 49 -4.5 65t-23.5 16q-9 0 -15 -4.5t-9.5 -20.5t-4.5 -46t-1 -81l3 -2q5 5 12.5 9t20.5 4q27 0 35.5 -27t8.5 -97q0 -50 -2 -79.5t-7.5 -45t-15.5 -20t-25 -4.5t-24.5 5.5t-15 27t-8 65t-2.5 119.5q0 75 1 118t6 65t15 28t28 6
q14 0 23.5 -3t15 -13t7.5 -30.5t2 -54.5v-14t-1 -16h-20zM43 565q0 -72 1.5 -113t4.5 -61t9 -25t15 -5q10 0 16 3t9 15.5t4 38.5t1 72q0 48 -4.5 76t-24.5 28q-9 0 -17 -5.5t-14 -23.5z" />
    <glyph glyph-name="sevensuperior" unicode="&#x2077;" horiz-adv-x="148" 
d="M23 348zM41 348l61 396l-2 3h-77v20h99v-14l-62 -405h-19z" />
    <glyph glyph-name="eightsuperior" unicode="&#x2078;" horiz-adv-x="148" 
d="M22 341zM41 566q-4 4 -7 8t-5 13t-3 25t-1 44q0 39 1.5 62t7 36t15 17t24.5 4t24.5 -4t15 -17t7 -36t1.5 -62q0 -28 -1 -44t-3 -25t-5 -13t-7 -8q5 -4 8.5 -10t6 -17.5t3.5 -29.5t1 -45q0 -69 -9 -96t-42 -27t-42 27t-9 96q0 27 1 45t3 29.5t6 17.5t9 10zM73 361
q9 0 14.5 3.5t9.5 15t5.5 31.5t1.5 53q0 32 -1 50.5t-4.5 27.5t-9.5 11t-16 2t-16 -2t-9.5 -11t-4.5 -27.5t-1 -50.5q0 -33 1.5 -53t5.5 -31.5t9.5 -15t14.5 -3.5zM73 575q9 0 14.5 2t8.5 10t4 24t1 45q0 33 -1.5 52.5t-4.5 30t-8.5 13.5t-13.5 3t-13.5 -3t-8.5 -13.5
t-4.5 -30t-1.5 -52.5q0 -29 1 -45t4 -24t8.5 -10t14.5 -2z" />
    <glyph glyph-name="ninesuperior" unicode="&#x2079;" horiz-adv-x="148" 
d="M23 348zM45 349v4q17 41 29.5 80.5t17.5 75.5l-3 2q-4 -2 -9.5 -4.5t-11.5 -2.5q-15 0 -24 6t-13.5 21.5t-6 41.5t-1.5 66q0 43 2 70t7.5 41.5t15.5 19.5t25 5t24.5 -4t15.5 -18.5t8 -42t2 -74.5q0 -41 -3.5 -76t-10 -69t-17 -68.5t-24.5 -74.5zM98 542q2 19 3.5 40.5
t1.5 53.5q0 69 -5 94t-25 25q-10 0 -16 -5.5t-9 -19t-4 -36t-1 -55.5q0 -34 1 -56t3.5 -35t7.5 -18.5t13 -5.5q24 0 30 18z" />
    <glyph glyph-name="zeroinferior" unicode="&#x2080;" horiz-adv-x="148" 
d="M113 8q-5 -17 -15 -21t-25 -4t-25 4t-15 21q-7 19 -8.5 63.5t-1.5 128.5t2 128.5t9 64.5q5 17 14.5 20.5t24.5 3.5t24.5 -3.5t14.5 -20.5q7 -20 9 -64.5t2 -128.5t-1.5 -128.5t-8.5 -63.5zM94 14q6 17 7.5 60t1.5 126q0 82 -2 125t-8 61q-2 8 -7 9.5t-13 1.5t-13 -1.5
t-7 -9.5q-6 -18 -8 -61t-2 -125q0 -83 1.5 -126t7.5 -60q2 -8 7.5 -9.5t13.5 -1.5t13 1.5t8 9.5z" />
    <glyph glyph-name="oneinferior" unicode="&#x2081;" horiz-adv-x="148" 
d="M27 -10v20h36v314h-36v20h26q12 0 12 17l1 48h17v-399h37v-20h-93z" />
    <glyph glyph-name="twoinferior" unicode="&#x2082;" horiz-adv-x="148" 
d="M22 -10v23l51 113q9 19 15 36t10 34.5t6 37t2 44.5q0 37 -2 60t-6 36t-10 18t-13 5q-17 0 -23 -21.5t-6 -84.5v-25.5t1 -21.5h-20q-1 10 -1 21.5v25.5q0 36 1.5 60t7 38.5t15 21t25.5 6.5q14 0 23.5 -5.5t15.5 -21t8.5 -42.5t2.5 -70q0 -25 -1 -43.5t-4.5 -36t-10 -36.5
t-18.5 -44l-50 -108h82v-20h-101z" />
    <glyph glyph-name="threeinferior" unicode="&#x2083;" horiz-adv-x="148" 
d="M44 143q-1 -7 -1 -14v-14q0 -64 6 -88t23 -24q20 0 25.5 23t5.5 80q0 31 -1.5 49t-4.5 27.5t-9 12.5t-15 3h-29v20h29q9 0 14.5 2t8.5 10t4 24t1 44q0 31 -1.5 50.5t-5 30.5t-9 14.5t-13.5 3.5t-13.5 -4.5t-9 -16.5t-5 -33t-1.5 -53v-10t1 -13h-20q-1 8 -1 13v10
q0 37 2 62t7.5 39t15 20t24.5 6t25 -4t15 -17t7 -36t2 -62q0 -24 -0.5 -39.5t-2.5 -25t-5 -15t-7 -9.5q6 -6 9.5 -12.5t5 -17.5t2 -28.5t0.5 -44.5q0 -69 -9 -96t-42 -27q-32 0 -40.5 32t-8.5 100v14t1 14h20z" />
    <glyph glyph-name="fourinferior" unicode="&#x2084;" horiz-adv-x="148" 
d="M91 -10v96h-70v21l62 302h28v-303h14v-20h-14v-96h-20zM91 339h-4l-47 -233h51v233z" />
    <glyph glyph-name="fiveinferior" unicode="&#x2085;" horiz-adv-x="148" 
d="M44 157q-1 -8 -1 -20v-22q0 -37 1.5 -58.5t5 -33t8.5 -14.5t12 -3q10 0 16.5 4t10 19.5t4.5 46t1 84.5q0 37 -1 57.5t-4 30.5t-8 12.5t-13 2.5q-17 0 -26 -28l-23 5l6 169h87v-20h-68l-5 -124l3 -1q8 19 32 19q12 0 19.5 -4t12 -17t6.5 -37.5t2 -64.5q0 -58 -2 -93
t-7.5 -53.5t-16 -24.5t-26.5 -6q-14 0 -23 5.5t-14 20t-7.5 40t-2.5 66.5v21.5t1 20.5h20z" />
    <glyph glyph-name="sixinferior" unicode="&#x2086;" horiz-adv-x="148" 
d="M100 286q1 10 1 16v14q0 49 -4.5 65t-23.5 16q-9 0 -15 -4.5t-9.5 -20.5t-4.5 -46t-1 -81l3 -2q5 5 12.5 9t20.5 4q27 0 35.5 -27t8.5 -97q0 -50 -2 -79.5t-7.5 -45t-15.5 -20t-25 -4.5t-24.5 5.5t-15 27t-8 65t-2.5 119.5q0 75 1 118t6 65t15 28t28 6q14 0 23.5 -3
t15 -13t7.5 -30.5t2 -54.5v-14t-1 -16h-20zM43 207q0 -72 1.5 -113t4.5 -61t9 -25t15 -5q10 0 16 3t9 15.5t4 38.5t1 72q0 48 -4.5 76t-24.5 28q-9 0 -17 -5.5t-14 -23.5z" />
    <glyph glyph-name="seveninferior" unicode="&#x2087;" horiz-adv-x="148" 
d="M41 -10l61 396l-2 3h-77v20h99v-14l-62 -405h-19z" />
    <glyph glyph-name="eightinferior" unicode="&#x2088;" horiz-adv-x="148" 
d="M41 208q-4 4 -7 8t-5 13t-3 25t-1 44q0 39 1.5 62t7 36t15 17t24.5 4t24.5 -4t15 -17t7 -36t1.5 -62q0 -28 -1 -44t-3 -25t-5 -13t-7 -8q5 -4 8.5 -10t6 -17.5t3.5 -29.5t1 -45q0 -69 -9 -96t-42 -27t-42 27t-9 96q0 27 1 45t3 29.5t6 17.5t9 10zM73 3q9 0 14.5 3.5
t9.5 15t5.5 31.5t1.5 53q0 32 -1 50.5t-4.5 27.5t-9.5 11t-16 2t-16 -2t-9.5 -11t-4.5 -27.5t-1 -50.5q0 -33 1.5 -53t5.5 -31.5t9.5 -15t14.5 -3.5zM73 217q9 0 14.5 2t8.5 10t4 24t1 45q0 33 -1.5 52.5t-4.5 30t-8.5 13.5t-13.5 3t-13.5 -3t-8.5 -13.5t-4.5 -30
t-1.5 -52.5q0 -29 1 -45t4 -24t8.5 -10t14.5 -2z" />
    <glyph glyph-name="nineinferior" unicode="&#x2089;" horiz-adv-x="148" 
d="M45 -9v4q17 41 29.5 80.5t17.5 75.5l-3 2q-4 -2 -9.5 -4.5t-11.5 -2.5q-15 0 -24 6t-13.5 21.5t-6 41.5t-1.5 66q0 43 2 70t7.5 41.5t15.5 19.5t25 5t24.5 -4t15.5 -18.5t8 -42t2 -74.5q0 -41 -3.5 -76t-10 -69t-17 -68.5t-24.5 -74.5zM98 184q2 19 3.5 40.5t1.5 53.5
q0 69 -5 94t-25 25q-10 0 -16 -5.5t-9 -19t-4 -36t-1 -55.5q0 -34 1 -56t3.5 -35t7.5 -18.5t13 -5.5q24 0 30 18z" />
    <glyph glyph-name="Euro" unicode="&#x20ac;" 
d="M188 207q2 -20 2 -35v-40q0 -71 -14 -108t-58 -37q-18 0 -31 2.5t-22 13.5t-14.5 33.5t-8.5 61.5q-3 40 -4 87t-1 120h-19l2 20h17v119h-19l2 20h17q0 32 0.5 56t1 44t1 38.5t1.5 38.5q1 42 6.5 67t15.5 39t24.5 18.5t34.5 4.5q29 0 41 -15t16 -31l-4 -28h-4
q-7 25 -16.5 39.5t-32.5 14.5q-15 0 -25.5 -4t-18 -15.5t-11.5 -33t-6 -57.5q-1 -20 -2 -38.5t-1.5 -38.5t-0.5 -44v-55h98l-2 -20h-96v-119h85l-2 -20h-83q0 -73 1 -119.5t4 -85.5q2 -33 6 -51.5t11 -28t16.5 -11.5t22.5 -2q32 0 42 31.5t10 93.5v40t-2 35h20z" />
    <glyph glyph-name="uni20B9" unicode="&#x20b9;" 
d="M154 0q-4 30 -6 74t-4 92q-2 29 -2.5 48t-4.5 33q-5 18 -18.5 29t-33.5 11h-56l3 20h53q34 0 48 46.5t14 124.5h-121l3 20h118q0 51 -0.5 86.5t-1.5 59t-2.5 37.5t-3.5 22q-4 13 -14.5 23.5t-25.5 10.5h-72l3 20h159l-3 -20h-43l-1 -3q4 -2 9 -8t7 -17q2 -9 4 -24t3 -39
t1.5 -60t0.5 -88h20l-3 -20h-17q0 -160 -52 -178v-4q17 -5 28.5 -18.5t14.5 -32.5q2 -13 3 -31.5t3 -46.5q2 -46 3.5 -74t2.5 -45t1.5 -26.5t1.5 -17.5v-4h-19z" />
    <glyph glyph-name="uni20BA" unicode="&#x20ba;" 
d="M36 0v323l-10 -10h-4v24l14 14v115l-10 -10h-4v24l14 14v263h20v-243l116 117h4v-24l-120 -121v-115l116 117h4v-24l-120 -121v-323h55q23 0 32.5 8.5t15.5 33.5q3 13 5.5 26.5t4 34.5t2.5 52t1 80h20q0 -50 -1 -82t-2.5 -53t-4 -35t-5.5 -27q-8 -34 -22 -46t-46 -12h-75
z" />
    <glyph glyph-name="trademark" unicode="&#x2122;" horiz-adv-x="329" 
d="M64 398v339h-40v20h99v-20h-39v-339h-20zM277 398v328h-4l-48 -328h-17l-47 328h-4v-328h-20v359h39l38 -287h4l42 287h37v-359h-20z" />
    <glyph glyph-name="onethird" unicode="&#x2153;" horiz-adv-x="280" 
d="M14 0zM14 348v20h36v314h-36v20h26q12 0 12 17l1 48h17v-399h37v-20h-93zM33 0v4l192 753h20v-4l-193 -753h-19zM187 143q-1 -7 -1 -14v-14q0 -64 6 -88t23 -24q20 0 25.5 23t5.5 80q0 31 -1.5 49t-4.5 27.5t-9 12.5t-15 3h-29v20h29q9 0 14.5 2t8.5 10t4 24t1 44
q0 31 -1.5 50.5t-5 30.5t-9 14.5t-13.5 3.5t-13.5 -4.5t-9 -16.5t-5 -33t-1.5 -53v-10t1 -13h-20q-1 8 -1 13v10q0 37 2 62t7.5 39t15 20t24.5 6t25 -4t15 -17t7 -36t2 -62q0 -24 -0.5 -39.5t-2.5 -25t-5 -15t-7 -9.5q6 -6 9.5 -12.5t5 -17.5t2 -28.5t0.5 -44.5
q0 -69 -9 -96t-42 -27q-32 0 -40.5 32t-8.5 100v14t1 14h20z" />
    <glyph glyph-name="twothirds" unicode="&#x2154;" horiz-adv-x="280" 
d="M8 0zM8 348v23l51 113q9 19 15 36t10 34.5t6 37t2 44.5q0 37 -2 60t-6 36t-10 18t-13 5q-17 0 -23 -21.5t-6 -84.5v-25.5t1 -21.5h-20q-1 10 -1 21.5v25.5q0 36 1.5 60t7 38.5t15 21t25.5 6.5q14 0 23.5 -5.5t15.5 -21t8.5 -42.5t2.5 -70q0 -25 -1 -43.5t-4.5 -36
t-10 -36.5t-18.5 -44l-50 -108h82v-20h-101zM37 0v4l192 753h20v-4l-193 -753h-19zM192 143q-1 -7 -1 -14v-14q0 -64 6 -88t23 -24q20 0 25.5 23t5.5 80q0 31 -1.5 49t-4.5 27.5t-9 12.5t-15 3h-29v20h29q9 0 14.5 2t8.5 10t4 24t1 44q0 31 -1.5 50.5t-5 30.5t-9 14.5
t-13.5 3.5t-13.5 -4.5t-9 -16.5t-5 -33t-1.5 -53v-10t1 -13h-20q-1 8 -1 13v10q0 37 2 62t7.5 39t15 20t24.5 6t25 -4t15 -17t7 -36t2 -62q0 -24 -0.5 -39.5t-2.5 -25t-5 -15t-7 -9.5q6 -6 9.5 -12.5t5 -17.5t2 -28.5t0.5 -44.5q0 -69 -9 -96t-42 -27q-32 0 -40.5 32
t-8.5 100v14t1 14h20z" />
    <glyph glyph-name="oneeighth" unicode="&#x215b;" horiz-adv-x="280" 
d="M13 0zM13 348v20h36v314h-36v20h26q12 0 12 17l1 48h17v-399h37v-20h-93zM32 0v4l192 753h20v-4l-193 -753h-19zM183 208q-4 4 -7 8t-5 13t-3 25t-1 44q0 39 1.5 62t7 36t15 17t24.5 4t24.5 -4t15 -17t7 -36t1.5 -62q0 -28 -1 -44t-3 -25t-5 -13t-7 -8q5 -4 8.5 -10
t6 -17.5t3.5 -29.5t1 -45q0 -69 -9 -96t-42 -27t-42 27t-9 96q0 27 1 45t3 29.5t6 17.5t9 10zM215 3q9 0 14.5 3.5t9.5 15t5.5 31.5t1.5 53q0 32 -1 50.5t-4.5 27.5t-9.5 11t-16 2t-16 -2t-9.5 -11t-4.5 -27.5t-1 -50.5q0 -33 1.5 -53t5.5 -31.5t9.5 -15t14.5 -3.5zM215 217
q9 0 14.5 2t8.5 10t4 24t1 45q0 33 -1.5 52.5t-4.5 30t-8.5 13.5t-13.5 3t-13.5 -3t-8.5 -13.5t-4.5 -30t-1.5 -52.5q0 -29 1 -45t4 -24t8.5 -10t14.5 -2z" />
    <glyph glyph-name="threeeighths" unicode="&#x215c;" horiz-adv-x="280" 
d="M16 0zM37 501q-1 -7 -1 -14v-14q0 -64 6 -88t23 -24q20 0 25.5 23t5.5 80q0 31 -1.5 49t-4.5 27.5t-9 12.5t-15 3h-29v20h29q9 0 14.5 2t8.5 10t4 24t1 44q0 31 -1.5 50.5t-5 30.5t-9 14.5t-13.5 3.5t-13.5 -4.5t-9 -16.5t-5 -33t-1.5 -53v-10t1 -13h-20q-1 8 -1 13v10
q0 37 2 62t7.5 39t15 20t24.5 6t25 -4t15 -17t7 -36t2 -62q0 -24 -0.5 -39.5t-2.5 -25t-5 -15t-7 -9.5q6 -6 9.5 -12.5t5 -17.5t2 -28.5t0.5 -44.5q0 -69 -9 -96t-42 -27q-32 0 -40.5 32t-8.5 100v14t1 14h20zM34 0v4l192 753h20v-4l-193 -753h-19zM181 208q-4 4 -7 8t-5 13
t-3 25t-1 44q0 39 1.5 62t7 36t15 17t24.5 4t24.5 -4t15 -17t7 -36t1.5 -62q0 -28 -1 -44t-3 -25t-5 -13t-7 -8q5 -4 8.5 -10t6 -17.5t3.5 -29.5t1 -45q0 -69 -9 -96t-42 -27t-42 27t-9 96q0 27 1 45t3 29.5t6 17.5t9 10zM213 3q9 0 14.5 3.5t9.5 15t5.5 31.5t1.5 53
q0 32 -1 50.5t-4.5 27.5t-9.5 11t-16 2t-16 -2t-9.5 -11t-4.5 -27.5t-1 -50.5q0 -33 1.5 -53t5.5 -31.5t9.5 -15t14.5 -3.5zM213 217q9 0 14.5 2t8.5 10t4 24t1 45q0 33 -1.5 52.5t-4.5 30t-8.5 13.5t-13.5 3t-13.5 -3t-8.5 -13.5t-4.5 -30t-1.5 -52.5q0 -29 1 -45t4 -24
t8.5 -10t14.5 -2z" />
    <glyph glyph-name="fiveeighths" unicode="&#x215d;" horiz-adv-x="280" 
d="M16 0zM37 515q-1 -8 -1 -20v-22q0 -37 1.5 -58.5t5 -33t8.5 -14.5t12 -3q10 0 16.5 4t10 19.5t4.5 46t1 84.5q0 37 -1 57.5t-4 30.5t-8 12.5t-13 2.5q-17 0 -26 -28l-23 5l6 169h87v-20h-68l-5 -124l3 -1q8 19 32 19q12 0 19.5 -4t12 -17t6.5 -37.5t2 -64.5q0 -58 -2 -93
t-7.5 -53.5t-16 -24.5t-26.5 -6q-14 0 -23 5.5t-14 20t-7.5 40t-2.5 66.5v21.5t1 20.5h20zM34 0v4l192 753h20v-4l-193 -753h-19zM181 208q-4 4 -7 8t-5 13t-3 25t-1 44q0 39 1.5 62t7 36t15 17t24.5 4t24.5 -4t15 -17t7 -36t1.5 -62q0 -28 -1 -44t-3 -25t-5 -13t-7 -8
q5 -4 8.5 -10t6 -17.5t3.5 -29.5t1 -45q0 -69 -9 -96t-42 -27t-42 27t-9 96q0 27 1 45t3 29.5t6 17.5t9 10zM213 3q9 0 14.5 3.5t9.5 15t5.5 31.5t1.5 53q0 32 -1 50.5t-4.5 27.5t-9.5 11t-16 2t-16 -2t-9.5 -11t-4.5 -27.5t-1 -50.5q0 -33 1.5 -53t5.5 -31.5t9.5 -15
t14.5 -3.5zM213 217q9 0 14.5 2t8.5 10t4 24t1 45q0 33 -1.5 52.5t-4.5 30t-8.5 13.5t-13.5 3t-13.5 -3t-8.5 -13.5t-4.5 -30t-1.5 -52.5q0 -29 1 -45t4 -24t8.5 -10t14.5 -2z" />
    <glyph glyph-name="seveneighths" unicode="&#x215e;" horiz-adv-x="280" 
d="M23 0zM41 348l61 396l-2 3h-77v20h99v-14l-62 -405h-19zM24 0v4l192 753h20v-4l-193 -753h-19zM181 208q-4 4 -7 8t-5 13t-3 25t-1 44q0 39 1.5 62t7 36t15 17t24.5 4t24.5 -4t15 -17t7 -36t1.5 -62q0 -28 -1 -44t-3 -25t-5 -13t-7 -8q5 -4 8.5 -10t6 -17.5t3.5 -29.5
t1 -45q0 -69 -9 -96t-42 -27t-42 27t-9 96q0 27 1 45t3 29.5t6 17.5t9 10zM213 3q9 0 14.5 3.5t9.5 15t5.5 31.5t1.5 53q0 32 -1 50.5t-4.5 27.5t-9.5 11t-16 2t-16 -2t-9.5 -11t-4.5 -27.5t-1 -50.5q0 -33 1.5 -53t5.5 -31.5t9.5 -15t14.5 -3.5zM213 217q9 0 14.5 2t8.5 10
t4 24t1 45q0 33 -1.5 52.5t-4.5 30t-8.5 13.5t-13.5 3t-13.5 -3t-8.5 -13.5t-4.5 -30t-1.5 -52.5q0 -29 1 -45t4 -24t8.5 -10t14.5 -2z" />
    <glyph glyph-name="partialdiff" unicode="&#x2202;" 
d="M174 427q0 53 -3.5 107.5t-11.5 104.5q-10 64 -22 87.5t-23 23.5q-12 0 -21 -3h-3v17q5 2 10.5 4t14.5 2t17.5 -5t16 -19t14.5 -38t13 -63q7 -40 11 -93.5t4 -124.5q0 -93 -4.5 -173.5t-15 -140t-28.5 -94t-46 -34.5q-35 0 -54 62t-19 179q0 74 5.5 124.5t16 82t26 45.5
t34.5 14q21 0 37.5 -14.5t26.5 -50.5h4zM170 372q-12 55 -26.5 77.5t-37.5 22.5q-15 0 -26.5 -13t-19.5 -42t-12 -76t-4 -115q0 -107 13.5 -164t39.5 -57q20 0 33.5 28t22 77t12.5 116.5t5 145.5z" />
    <glyph glyph-name="product" unicode="&#x220f;" 
d="M170 -238v1180h-125v-1180h-20v1200h165v-1200h-20z" />
    <glyph glyph-name="summation" unicode="&#x2211;" 
d="M26 -238v13l99 484l-99 487v11h163v-20h-142l99 -478l-99 -477h142v-20h-163z" />
    <glyph glyph-name="minus" unicode="&#x2212;" 
d="M23 369v20h169v-20h-169z" />
    <glyph glyph-name="radical" unicode="&#x221a;" 
d="M84 0l-37 369h-29v20h48l34 -359h4l71 727h21l-76 -757h-36z" />
    <glyph glyph-name="infinity" unicode="&#x221e;" horiz-adv-x="355" 
d="M177 361q-20 -48 -43 -65.5t-46 -17.5q-26 0 -41 21.5t-15 78.5t15 78.5t41 21.5q23 0 46 -17.5t43 -65.5q20 48 43 65.5t47 17.5q26 0 41 -21.5t15 -78.5t-15 -78.5t-41 -21.5q-24 0 -47 17.5t-43 65.5zM185 378q20 -45 41 -62.5t41 -17.5q17 0 26.5 17.5t9.5 62.5
t-9.5 62.5t-26.5 17.5q-20 0 -41 -17.5t-41 -62.5zM170 378q-20 45 -41 62.5t-41 17.5q-17 0 -26.5 -17.5t-9.5 -62.5t9.5 -62.5t26.5 -17.5q20 0 41 17.5t41 62.5z" />
    <glyph glyph-name="integral" unicode="&#x222b;" 
d="M29 -238v20h16q28 0 40 18t12 61v1002q0 99 72 99h16v-20h-16q-28 0 -40 -18t-12 -61v-1002q0 -99 -72 -99h-16z" />
    <glyph glyph-name="approxequal" unicode="&#x2248;" 
d="M23 260zM192 467q-11 -27 -39 -27q-16 0 -28 7.5t-23 18.5q-10 11 -18.5 16t-21.5 5q-8 0 -13 -2t-11 -9q-9 -10 -11 -20h-4v24q11 27 39 27q17 0 30 -8.5t24 -20.5q15 -18 37 -18q8 0 13 2t11 9q9 10 11 20h4v-24zM192 287q-11 -27 -39 -27q-16 0 -28 7.5t-23 18.5
q-10 11 -18.5 16t-21.5 5q-8 0 -13 -2t-11 -9q-9 -10 -11 -20h-4v24q11 27 39 27q17 0 30 -8.5t24 -20.5q15 -18 37 -18q8 0 13 2t11 9q9 10 11 20h4v-24z" />
    <glyph glyph-name="notequal" unicode="&#x2260;" 
d="M0 0v4l68 265h-45v20h50l47 180h-97v20h102l70 268h20v-4l-69 -264h46v-20h-51l-47 -180h98v-20h-103l-70 -269h-19z" />
    <glyph glyph-name="lessequal" unicode="&#x2264;" 
d="M23 89zM188 187l-165 184v17l165 184h4v-25l-150 -166v-4l150 -165v-25h-4zM23 89v20h169v-20h-169z" />
    <glyph glyph-name="greaterequal" unicode="&#x2265;" 
d="M23 89zM23 187v25l150 165v4l-150 166v25h4l165 -184v-17l-165 -184h-4zM23 89v20h169v-20h-169z" />
    <glyph glyph-name="lozenge" unicode="&#x25ca;" 
d="M93 0l-63 378l63 379h29l63 -379l-63 -378h-29zM164 379l-54 334h-4l-56 -335l55 -334h4z" />
    <glyph glyph-name=".ttfautohint" horiz-adv-x="99" 
d="M0 0z" />
    </font>
</defs>
</svg>
